/* XPM */
static char *husks_frame_2[] = {
/* columns rows colors chars-per-pixel */
"52 64 2 1 ",
"  c #90673E",
". c None",
/* pixels */
"....................................................",
"....................................................",
"....................................................",
"..............   ...................................",
"..............   ...................................",
"..............   ...................................",
"..............   ...................................",
"..............   ...................................",
"..............   ...................................",
"............     ...................................",
"............     ...................................",
"............     ...................................",
"...      ...     ...      ..........................",
"...      ...     ...      ..........................",
"...      ..       ..      ..........................",
"......                    ..........................",
"......                    ..........................",
"......               ...............................",
"......              ................................",
"......              ................................",
"........          ..................................",
".........        ...................................",
".........        ...................................",
".........      .....................................",
".........     ......................................",
".........     ......................................",
".........     ......................................",
".........     ......................................",
".........     ......................................",
".........        ...................................",
".........        ...................................",
".........        ...................................",
"....................................................",
"....................................................",
"....................................................",
"..............................................      ",
"..............................................      ",
"..............................................      ",
"...........................................      ...",
"...........................................      ...",
"...........................................      ...",
"...................................     ...      ...",
"...................................     ...      ...",
"...................................      ..      ...",
"...................................           ......",
"...................................           ......",
"...................................            .....",
"......................................              ",
"......................................              ",
"........................................          ..",
"........................................         ...",
"........................................         ...",
"........................................       .....",
"........................................      ......",
"........................................      ......",
"........................................      ......",
"........................................      ......",
"........................................      ......",
"........................................      ......",
"........................................      ......",
"........................................      ......",
"......................................        ......",
"......................................        ......",
"......................................        ......"
};
