/* XPM */
static char *husks_frame_1[] = {
/* columns rows colors chars-per-pixel */
"47 64 2 1 ",
"  c #90673E",
". c None",
/* pixels */
"...............................................",
"...............................................",
"...............................................",
"...............................................",
"...............................................",
"...............................................",
".........   ...................................",
".........   ...................................",
".........   ...................................",
".........   ...................................",
".........   ...................................",
".........   ...................................",
"   ...      ...................................",
"   ...      ...................................",
"   ..       ...................................",
"            ...      ..........................",
"            ...      ..........................",
"...               .............................",
"...               .............................",
"...               .............................",
"......      ...................................",
"......      ...................................",
"......      ...................................",
"......      ...................................",
"......      ...................................",
"......      ...................................",
"...         ...................................",
"...         ...................................",
"...         ...................................",
"......      ...................................",
"......      ...................................",
"......      ...................................",
"...............................................",
"...............................................",
"...............................................",
".........................................      ",
".........................................      ",
".........................................      ",
"......................................      ...",
"......................................      ...",
"......................................      ...",
".............................   ......   ......",
".............................   ......   ......",
".............................    .....   ......",
".............................            ......",
".............................            ......",
"..............................           ......",
"...................................      ...   ",
"...................................      ...   ",
"...................................            ",
"...................................            ",
"...................................            ",
"...................................         ...",
"...................................         ...",
"...................................         ...",
"......................................   ......",
"......................................   ......",
"......................................   ......",
"...................................      ......",
"...................................      ......",
"...................................      ......",
"...................................      ......",
"...................................      ......",
"...................................      ......"
};
