/* XPM */
static char *crab_frame_1[] = {
/* columns rows colors chars-per-pixel */
"64 64 11 1 ",
"  c #521E15",
". c #732A1D",
"X c #833022",
"o c #933626",
"O c #A43B2A",
"+ c #B4412E",
"@ c #BB4430",
"# c #C44733",
"$ c #D54D37",
"% c #E5533B",
"& c None",
/* pixels */
"&&&&&&&&&&&&&%%%%%%&&&&&&&&&&&&&&&&&&&&&&&&&&&&&&&&&&%%%&&&&&&&&",
"&&&&&&&&&&&&&%%%%%%&&&&&&&&&&&&&&&&&&&&&&&&&&&&&&&&&&%%%&&&&&&&&",
"&&&&&&&&&&&&&%%%++@&&&&&&&&&&&&&&&&&&&&&&&&&&&&&&&&&&%%%&&&&&&&&",
"&&&&&&&&%%%%%%%%  X%%&&&&&&&&&&&&&&&&&&&&&&&&&&&&&&%%%%%  X%%&&&",
"&&&&&&&&%%%%%%%%  X%%&&&&&&&&&&&&&&&&&&&&&&&&&&&&&&%%%%%  X%%&&&",
"&&&&&&%%%%%%%OXX++#%%&&&&&&&&&&&&&&&&&&&&&&&&&&&%%%%%OXX++#%%&&&",
"&&&&&%%%%%%%%X  %%%%%&&&&&&&&&&&&&&&&&&&&&&&&&&&%%%%%X  %%%%%&&&",
"&&&&&%%%%%%%%X  %%%%%&&&&&&&&&&&&&&&&&&&&&&&&&&&%%%%%X  %%%%%&&&",
"&&&&&%%%%%%%%X  %%%%%&&&&&&&&&&&&&&&&&&&&&&&&%%%%%%%%X  %%%%%%%%",
"&&&&&%%%%%%%%X  %%%%%&&&&&&&&&&&&&&&&&&&&&&&&%%%%%%%%X  %%%%%%%%",
"&&&&&%%%%%$++oXX%%%%%&&&&&&&&&&&&&&&&&&&&&&&&%%%%%$++oXX%%%%%%%%",
"&&&%%%%%%%+  +%%%%%%%&&&&&&&&&&&&&&&&&&&&&&&&%%%%%+  +%%%%%%%%%%",
"&&&%%%%%%%+  +%%%%%%%&&&&&&&&&&&&&&&&&&&&&&&&%%%%%+  +%%%%%%%%%%",
"&&&%%%%%%%+  +%%%%%%%&&&&&&&&&&&&&&&&&&&&&&&&%%%%%+  +%%%%%%%%%%",
"&&&%%%%%%%+  +%%%%%%%&&&&&&&&&&&&&&&&&&&&&&&&%%%%%+  +%%%%%%%%%%",
"&&&%%%%%%%+  +%%%%%%%&&&&&&&&&&&&&&&&&&&&&&&&%%%%%+  +%%%%%%%%%%",
"&&&%%%%%  X%%%%%%%%%%&&&&&&&&&&&&&&&&&&&&&&%%%%%%%+  +%%%%%%%&&&",
"&&&%%%%%  X%%%%%%%%%%&&&&&&&&&&&&&&&&&&&&&&%%%%%%%+  +%%%%%%%&&&",
"&&&%%%%%  X%%%%%%%%%%&&&&&&&&&&&&&&&&&&&&&%%%%%%++OXX#%%%%%%%&&&",
"&&&%%%%%  X%%%%%%%%&&&&&%%%%%&&&&&&&&%%%%%%%%%%%  X%%%%%%%%&&&&&",
"&&&%%%%%  X%%%%%%%%&&&&&%%%%%&&&&&&&&%%%%%%%%%%%  X%%%%%%%%&&&&&",
"&&&&&%%%++#%%%%%%%%&&&&&XXXXX&&&&&&&&XXXXXO%%%%%++#%%%%%%%%&&&&&",
"&&&&&%%%%%%%%%%%%%%&&&&&     &&&&&&&&     X%%%%%%%%%%%%%%%%&&&&&",
"&&&&&%%%%%%%%%%%%%%&&&&&     &&&&&&&&     X%%%%%%%%%%%%%%%%&&&&&",
"&&&&&%%%%%%%%%%%&&&&&&&&%%%%%&&&&&&&&%%%%%%%%%%%%%%%%%%%&&&&&&&&",
"&&&&&%%%%%%%%%%%&&&&&&&&%%%%%&&&&&&&&%%%%%%%%%%%%%%%%%%%&&&&&&&&",
"&&&&&%%%%%%%%%%%&&&&&&&&%%%%%%&&&&&&&%%%%%%%%%%%%%%%%%%%&&&&&&&&",
"&&&&&%%%%%%&&%%%%%%%%%%%%%%%%%%%%%%%%%%%%%%%%%%%%%%%%&&&&&&&&&&&",
"&&&&&%%%%%%&&%%%%%%%%%%%%%%%%%%%%%%%%%%%%%%%%%%%%%%%%&&&&&&&&&&&",
"&&&&&%%%%%%%%%%%%%%%%%%%%%%%%%%%%%%%%%%%%%%%%%%%%%%&&&&&&&&&&&&&",
"&&&&&%%%%%%%%%%%%%%%%%%%%%%%%%%%%%%%%%%%%%%%%%%%%%%&&&&&&&&&&&&&",
"&&&&&%%%%%%%%%%%%%%%%%%%%%%%%%%%%%%%%%%%%%%%%%%%%%%&&&&&&&&&&&&&",
"&&&&&%%%%%%%%%%%%%%%%%%%          X%%%%%%%%%%%%%&&&&&&&&&&&&&&&&",
"&&&&&%%%%%%%%%%%%%%%%%%%          X%%%%%%%%%%%%%&&&&&&&&&&&&&&&&",
"&&&&&&%%%%%%%%%%%%%%%%%%          .+++++%%%%%%%%&&&&&&&&&&&&&&&&",
"&&&&&&&&%%%%%%%%%%%%%%%%                %%%%%%%%&&&&&&&&&&&&&&&&",
"&&&&&&&&%%%%%%%%%%%%%%%%                %%%%%%%%&&&&&&&&&&&&&&&&",
"&&&&&&&&%%%%%%%%%%%%%%%%++++++++        %%%%%%%%%%&&&&&&&&&&&&&&",
"&&&&&&&&%%%%%%%%%%%%%%%%%%%%%%%%        %%%%%%%%%%%&&&&&&&&&&&&&",
"&&&&&&&&%%%%%%%%%%%%%%%%%%%%%%%%        %%%%%%%%%%%&&&&&&&&&&&&&",
"&&&&&&&&%%%%%%%%%%%%%%%%%%%%%%%%%%%%%%%%%%%%%%%%%%%&&&&&&&&&&&&&",
"&&&&&&&&%%%%%%%%%%%%%%%%%%%%%%%%%%%%%%%%%%%%%%%%%%%&&&&&&&&&&&&&",
"&&&&&&&&%%%%%%%%%%%%%%%%%%%%%%%%%%%%%%%%%%%%%%%%%%%&&&&&&&&&&&&&",
"&&&&&%%%%%%%%%%%%%%%%%%%%%%%%%%%%%%%%%%%%%%%%%%%%%%%%&&&&&&&&&&&",
"&&&&&%%%%%%%%%%%%%%%%%%%%%%%%%%%%%%%%%%%%%%%%%%%%%%%%&&&&&&&&&&&",
"&&&%%%%%%%%%%%%%%%%%%%%%%%%%%%%%%%%%%%%%%%%%%%%%%%%%%%%%&&&&&&&&",
"&&&%%%%%%%%%%%%%%%%%%%%%%%%%%%%%%%%%%%%%%%%%%%%%%%%%%%%%&&&&&&&&",
"&&&%%%%%%%%%%%%%%%%%%%%%%%%%%%%%%%%%%%%%%%%%%%%%%%%%%%%%&&&&&&&&",
"&&&%%%%%%%%%%%%%%%%%%%%%%%%%%%%%%%%%%%%%%%%%%&&&%%%%%%%%&&&&&&&&",
"&&&%%%%%%%%%%%%%%%%%%%%%%%%%%%%%%%%%%%%%%%%%%&&&%%%%%%%%&&&&&&&&",
"&&&%%%%%%%%%%%%%%%%%%%%%%%%%%%%%%%%%%%%%%%%%%&&&%%%%%%%%&&&&&&&&",
"&&&%%%%%&&&&&%%%%%%%%%%%%%%%%%%%%%%%%%%%%%%%%&&&&&&%%%%%&&&&&&&&",
"&&&%%%%%&&&&&%%%%%%%%%%%%%%%%%%%%%%%%%%%%%%%%&&&&&&%%%%%&&&&&&&&",
"&&&%%%%%&&&&&%%%%%%%%%&&&&&&&&&&&&&&&&&&%%%%%%%%&&&%%%%%&&&&&&&&",
"&&&%%%%%&&&&&%%%%%%%%&&&&&&&&&&&&&&&&&&&%%%%%%%%&&&%%%%%&&&&&&&&",
"&&&%%%%%&&&&&%%%%%%%%&&&&&&&&&&&&&&&&&&&%%%%%%%%&&&%%%%%&&&&&&&&",
"&&&%%%%%&&&&&%%%%%%&&&&&&&&&&&&&&&&&&&&&%%%%%%%%&&&%%%%%&&&&&&&&",
"&&&%%%%%&&&&&%%%%%%&&&&&&&&&&&&&&&&&&&&&%%%%%%%%&&&%%%%%&&&&&&&&",
"&&&%%%%%&&&&&%%%%%%&&&&&&&&&&&&&&&&&&&&&%%%%%%%%&&&%%%%%&&&&&&&&",
"&&&%%%%%&&&&&%%%%%%&&&&&&&&&&&&&&&&&&&&&&&&%%%%%&&&%%%%%&&&&&&&&",
"&&&%%%%%&&&&&%%%%%%&&&&&&&&&&&&&&&&&&&&&&&&%%%%%&&&%%%%%&&&&&&&&",
"&&&&&&&&&&&&&&&&&&&&&&&&&&&&&&&&&&&&&&&&&&&&&&&&&&&&&&&&&&&&&&&&",
"&&&&&&&&&&&&&&&&&&&&&&&&&&&&&&&&&&&&&&&&&&&&&&&&&&&&&&&&&&&&&&&&",
"&&&&&&&&&&&&&&&&&&&&&&&&&&&&&&&&&&&&&&&&&&&&&&&&&&&&&&&&&&&&&&&&"
};
