/* XPM */
static char *crab_frame_0[] = {
/* columns rows colors chars-per-pixel */
"64 64 10 1 ",
"  c #521E15",
". c #833022",
"X c #933626",
"o c #A43B2A",
"O c #B4412E",
"+ c #BB4430",
"@ c #C44733",
"# c #D54D37",
"$ c #E5533B",
"% c None",
/* pixels */
"%%%%%%%%%%%$$$$$$$$%%%%%%%%%%%%%%%%%%%%%%%%%%%%%%%%%%$$$$$$%%%%%",
"%%%%%%%%%%%$$$$$$$$%%%%%%%%%%%%%%%%%%%%%%%%%%%%%%%%%%$$$$$$%%%%%",
"%%%%%%%%%%$$$$$$OO+%%%%%%%%%%%%%%%%%%%%%%%%%%%%%%%%%%$$$OO+%%%%%",
"%%%%%%%%$$$$$$$$  .$$%%%%%%%%%%%%%%%%%%%%%%%%%%%%%%$$$$$  .$$%%%",
"%%%%%%%%$$$$$$$$  .$$%%%%%%%%%%%%%%%%%%%%%%%%%%%%%%$$$$$  .$$%%%",
"%%%%%%$$$$$$$o..OO@$$%%%%%%%%%%%%%%%%%%%%%%%%%%%$$$$$o..OO@$$$$$",
"%%%%%$$$$$$$$.  $$$$$%%%%%%%%%%%%%%%%%%%%%%%%%%%$$$$$.  $$$$$$$$",
"%%%%%$$$$$$$$.  $$$$$%%%%%%%%%%%%%%%%%%%%%%%%%%%$$$$$.  $$$$$$$$",
"%%%$$$$$$$$$$.  $$$$$%%%%%%%%%%%%%%%%%%%%%%%%$$$$$$$$.  $$$$$$$$",
"%%%$$$$$$$$$$.  $$$$$%%%%%%%%%%%%%%%%%%%%%%%%$$$$$$$$.  $$$$$$$$",
"%%%$$$$$$$#OOX..$$$$$%%%%%%%%%%%%%%%%%%%%%%%%$$$$$#OOX..$$$$$$$$",
"%%%$$$$$$$O  O$$$$$$$%%%%%%%%%%%%%%%%%%%%%%$$$$$$$O  O$$$$$$$$$$",
"%%%$$$$$$$O  O$$$$$$$%%%%%%%%%%%%%%%%%%%%%%$$$$$$$O  O$$$$$$$$$$",
"%%%$$$$$$$O  O$$$$$$$%%%%%%%%%%%%%%%%%%%%%%$$$$$$$O  O$$$$$$$$$$",
"%%%$$$$$$$O  O$$$$$$$%%%%%%%%%%%%%%%%%%%%%%$$$$$$$O  O$$$$$$$$$$",
"%%%$$$$$$$O  O$$$$$$$%%%%%%%%%%%%%%%%%%%%%%$$$$$$$O  O$$$$$$$$$$",
"%%%$$$$$  .$$$$$$$$$$%%%%%%%%%%%%%%%%%%%%%%$$$$$  .$$$$$$$$$$%%%",
"%%%$$$$$  .$$$$$$$$$$%%%%%%%%%%%%%%%%%%%%%%$$$$$  .$$$$$$$$$$%%%",
"%%%$$$$$  .$$$$$$$$$$%%%%%%%%%%%%%%%%%%%%%$$$$$$  .$$$$$$$$$$%%%",
"%%%$$$$$  .$$$$$$$$$$%%%$$$$$%%%%%%%%$$$$$$$$$$$  .$$$$$$$$$$%%%",
"%%%$$$$$  .$$$$$$$$$$%%%$$$$$%%%%%%%%$$$$$$$$$$$  .$$$$$$$$$$%%%",
"%%%$$$$$OO@$$$$$$$$%%%%%.....%%%%%%%%.....o$$$$$OO@$$$$$$$$%%%%%",
"%%%$$$$$$$$$$$$$$$$%%%%%     %%%%%%%%     .$$$$$$$$$$$$$$$$%%%%%",
"%%%$$$$$$$$$$$$$$$$%%%%%     %%%%%%%%     .$$$$$$$$$$$$$$$$%%%%%",
"%%%%%$$$$$$$$$$$%%%%%%%%$$$$$%%%%%%%%$$$$$$$$$$$$$$$$$$$%%%%%%%%",
"%%%%%$$$$$$$$$$$%%%%%%%%$$$$$%%%%%%%%$$$$$$$$$$$$$$$$$$$%%%%%%%%",
"%%%%%%$$$$$$$$$$%%%%%%%%$$$$$$%%%%%%%$$$$$$$$$$$$$$$$$$$%%%%%%%%",
"%%%%%%%%$$$$$%%%$$$$$$$$$$$$$$$$$$$$$$$$$$$$$$$$$$$%%%%%%%%%%%%%",
"%%%%%%%%$$$$$%%%$$$$$$$$$$$$$$$$$$$$$$$$$$$$$$$$$$$%%%%%%%%%%%%%",
"%%%%%%%%$$$$$$$$$$$$$$$$$$$$$$$$$$$$$$$$$$$$$$$$%%%%%%%%%%%%%%%%",
"%%%%%%%%$$$$$$$$$$$$$$$$$$$$$$$$$$$$$$$$$$$$$$$$%%%%%%%%%%%%%%%%",
"%%%%%%%%$$$$$$$$$$$$$$$$$$$$$$$$$$$$$$$$$$$$$$$$%%%%%%%%%%%%%%%%",
"%%%%%%%%$$$$$$$$$$$$$$$$$$O             $$$$$$$$%%%%%%%%%%%%%%%%",
"%%%%%%%%$$$$$$$$$$$$$$$$$$O             $$$$$$$$%%%%%%%%%%%%%%%%",
"%%%%%%%%$$$$$$$$$$$$$$$$$$O             $$$$$$$$%%%%%%%%%%%%%%%%",
"%%%%%%%%$$$$$$$$$$$$$$$$$$O             $$$$$$$$%%%%%%%%%%%%%%%%",
"%%%%%%%%$$$$$$$$$$$$$$$$$$O             $$$$$$$$%%%%%%%%%%%%%%%%",
"%%%%%%%%$$$$$$$$$$$$$$$$$$#OOOOOOOOOOOOO$$$$$$$$%%%%%%%%%%%%%%%%",
"%%%%%%%%$$$$$$$$$$$$$$$$$$$$$$$$$$$$$$$$$$$$$$$$%%%%%%%%%%%%%%%%",
"%%%%%%%%$$$$$$$$$$$$$$$$$$$$$$$$$$$$$$$$$$$$$$$$%%%%%%%%%%%%%%%%",
"%%%%%%%%$$$$$$$$$$$$$$$$$$$$$$$$$$$$$$$$$$$$$$$$%%%%%%%%%%%%%%%%",
"%%%%%%%%$$$$$$$$$$$$$$$$$$$$$$$$$$$$$$$$$$$$$$$$%%%%%%%%%%%%%%%%",
"%%%%%%%%$$$$$$$$$$$$$$$$$$$$$$$$$$$$$$$$$$$$$$$$%%%%%%%%%%%%%%%%",
"%%%%%$$$$$$$$$$$$$$$$$$$$$$$$$$$$$$$$$$$$$$$$$$$$$$%%%%%%%%%%%%%",
"%%%%%$$$$$$$$$$$$$$$$$$$$$$$$$$$$$$$$$$$$$$$$$$$$$$%%%%%%%%%%%%%",
"%%%%%$$$$$$$$$$$$$$$$$$$$$$$$$$$$$$$$$$$$$$$$$$$$$$%%%%%%%%%%%%%",
"%%%%%$$$$$$$$$$$$$$$$$$$$$$$$$$$$$$$$$$$$$$$$$$$$$$%%%%%%%%%%%%%",
"%%%%%$$$$$$$$$$$$$$$$$$$$$$$$$$$$$$$$$$$$$$$$$$$$$$%%%%%%%%%%%%%",
"%%%$$$$$$$$$$$$$$$$$$$$$$$$$$$$$$$$$$$$$$$$$$$$$$$$$$%%%%%%%%%%%",
"%%%$$$$$$$$$$$$$$$$$$$$$$$$$$$$$$$$$$$$$$$$$$$$$$$$$$%%%%%%%%%%%",
"%%%$$$$$$$$$$$$$$$$$$$$$$$$$$$$$$$$$$$$$$$$$$$$$$$$$$%%%%%%%%%%%",
"%%%$$$$$$$$%%$$$$$$$$$$$$$$$$$$$$$$$$$$$$$$$$$$$$$$$$%%%%%%%%%%%",
"%%%$$$$$$$$%%$$$$$$$$$$$$$$$$$$$$$$$$$$$$$$$$$$$$$$$$%%%%%%%%%%%",
"%%%$$$$$%%%%%$$$$$$%%%%%%%%%%%%%%%%%%$$$$$$%%%%%$$$$$%%%%%%%%%%%",
"%%%$$$$$%%%%%$$$$$$%%%%%%%%%%%%%%%%%%$$$$$$%%%%%$$$$$%%%%%%%%%%%",
"%%%$$$$$%%%%%$$$$$$%%%%%%%%%%%%%%%%%%$$$$$$%%%%%$$$$$%%%%%%%%%%%",
"%%%$$$$$%%%%%$$$$$$%%%%%%%%%%%%%%%%%%$$$$$$%%%%%$$$$$%%%%%%%%%%%",
"%%%$$$$$%%%%%$$$$$$%%%%%%%%%%%%%%%%%%$$$$$$%%%%%$$$$$%%%%%%%%%%%",
"%%%$$$$$%%%%%$$$$$$%%%%%%%%%%%%%%%%%%$$$$$$%%%%%$$$$$%%%%%%%%%%%",
"%%%$$$$$%%%%%$$$$$$%%%%%%%%%%%%%%%%%%$$$$$$%%%%%$$$$$%%%%%%%%%%%",
"%%%$$$$$%%%%%$$$$$$%%%%%%%%%%%%%%%%%%$$$$$$%%%%%$$$$$%%%%%%%%%%%",
"%%%%%%%%%%%%%%%%%%%%%%%%%%%%%%%%%%%%%%%%%%%%%%%%%%%%%%%%%%%%%%%%",
"%%%%%%%%%%%%%%%%%%%%%%%%%%%%%%%%%%%%%%%%%%%%%%%%%%%%%%%%%%%%%%%%",
"%%%%%%%%%%%%%%%%%%%%%%%%%%%%%%%%%%%%%%%%%%%%%%%%%%%%%%%%%%%%%%%%"
};
