/* XPM */
static char *_[] = {
/* columns rows colors chars-per-pixel */
"64 64 11 1 ",
"  c None",
". c None",
"X c None",
"o c #C0C0C0",
"O c #C0C0C0",
"+ c None",
"@ c #C0C0C0",
"# c #C0C0C0",
"$ c #C0C0C0",
"% c #C0C0C0",
"& c #C0C0C0",
/* pixels */
"                &&&&&&&&&&&&&&&&&&&&&&&&&&&                     ",
"                &&&&&&&&&&&&&&&&&&&&&&&&&&&                     ",
"                &&&&&&&&&&&&&&&&&&&&&&&&&&&                     ",
"             &&&&&&&&&&&&&&&&&&&&&&&&&&&&&&&&&&&                ",
"             &&&&&&&&&&&&&&&&&&&&&&&&&&&&&&&&&&&                ",
"        &&&&&&&&&&&&&&&&&&&&&&&&&&&&&&&&&&&&&&&&&&              ",
"        &&&&&&&&&&&&&&&&&&&&&&&&&&&&&&&&&&&&&&&&&&&             ",
"        &&&&&&&&&&&&&&&&&&&&&&&&&&&&&&&&&&&&&&&&&&&             ",
"     &&&&&&&&&&&&&#.....................&&&&&&&&&&&&&           ",
"     &&&&&&&&&&&&&#.....................&&&&&&&&&&&&&           ",
"     &&&&&&&&&&&##+.....OOOOOOOOOOOOOOOO#####%&&&&&&&&          ",
"     &&&&&&&&&&&........&&&&&&&&&&&&&&&&.....#&&&&&&&&&&        ",
"     &&&&&&&&&&&........&&&&&&&&&&&&&&&&.....#&&&&&&&&&&        ",
"   &&&&&&&&&&@OO..o#####&&&&&&&&&&&&&&&&##+..oOO&&&&&&&&&&      ",
"   &&&&&&&&&&O....O&&&&&&&&&&&&&&&&&&&&&&&#.....&&&&&&&&&&&     ",
"   &&&&&&&&&&O....O&&&&&&&&&&&&&&&&&&&&&&&#.....&&&&&&&&&&&     ",
"   &&&&&&&#.....&&&&&&&&&&&&&&&&&&&&&&&&&&&&&O....O&&&&&&&&     ",
"   &&&&&&&#.....&&&&&&&&&&&&&&&&&&&&&&&&&&&&&O....O&&&&&&&&     ",
"  &&&&&&##+.....&&&&&&&&&&&&&&&&&&&&&&&&&&&&&@OO..O&&&&&&&&     ",
"&&&&&&&&........&&&&&&&&&&&&&&&&&&&&&&&&&&&&&&&&..O&&&&&&&&&&   ",
"&&&&&&&&........&&&&&&&&&&&&&&&&&&&&&&&&&&&&&&&&..O&&&&&&&&&&   ",
"&&&&&&&&.....+##&&&&&&&&&&&&&&&&&&&&&&&&&&&&&&&&##@OO$&&&&&&&   ",
"&&&&&&&&.....#&&&&&&&&&&&&&&&&&&&&&&&&&&&&&&&&&&&&#..#&&&&&&&   ",
"&&&&&&&&.....#&&&&&&&&&&&&&&&&&&&&&&&&&&&&&&&&&&&&#..#&&&&&&&   ",
"&&&&&&&&.....#&&&&&&&&&&&&&&&&&&&&&&&&&&&&&&&&&&&&#..#&&&&&&&   ",
"&&&&&&&&.....#&&&&&&&&&&&&&&&&&&&&&&&&&&&&&&&&&&&&#..#&&&&&&&   ",
"&&&&&&&&..XOO$&&&&&&&&&&&&&&&&&&&&&&&&&&&&&&&&&&&&$OO$&&&&&&&&  ",
"&&&&&&&&..O&&&&&&&&&&&&&&&&&&&&&&&&&&&&&&&&&&&&&&&&&&&&&&&&&&&&&",
"&&&&&&&&..O&&&&&&&&&&&&&&&&&&&&&&&&&&&&&&&&&&&&&&&&&&&&&&&&&&&&&",
"&&&&&&&&..O&&&&&&&&&&&&&&&&&&&&&&&&&&&&&&&&&&&&&&&&&&@OO&&&&&&&&",
"&&&&&&&&..O&&&&&&&&&&&&&&&&&&&&&&&&&&&&&&&&&&&&&&&&&&O..&&&&&&&&",
"&&&&&&&&..O&&&&&&&&&&&&&&&&&&&&&&&&&&&&&&&&&&&&&&&&&&O..&&&&&&&&",
"&&&&&&&&..O&&&&&&&&&&&&&&&&&&&&&&&&&&&&&.....#&&&&&&&O..&&&&&&&&",
"&&&&&&&&..O&&&&&&&&&&&&&&&&&&&&&&&&&&&&&.....#&&&&&&&O..&&&&&&&&",
"&&&&&&&&..O&&&&&&&&&&&&&&&&&&&&&&&&&&$##.....#&&&&&&&O..&&&&&&&&",
"&&&&&&&&..O&&&&&&&&&&&&&&&&&&&&&&&&&&O.......#&&&&&&&O..&&&&&&&&",
"&&&&&&&&..O&&&&&&&&&&&&&&&&&&&&&&&&&&O.......#&&&&&&&O..&&&&&&&&",
"&&&&&&&&..O&&&&&&&&&&&&&&&&&&&&&&&&&&O.......#&&&&&&&O..&&&&&&&&",
"&&&&&&&&..O&&&&&&&&&&&&&&&&&&&&&&&&&&O.......#&&&&&&&O..&&&&&&&&",
"&&&&&&&&..O&&&&&&&&&&&&&&&&&&&&&&&&&&O.......#&&&&&&&O..&&&&&&&&",
"&&&&&&&&..O&&&&&&&&&&&&&&&&&&&&&&&&&&&&&.....#&&&&&&&O..&&&&&&&&",
"&&&&&&&&..O&&&&&&&&&&&&&&&&&&&&&&&&&&&&&.....#&&&&&&&O..&&&&&&&&",
"&&&&&&&&..O&&&&&&&&&&&&&&&&&&&&&&&&&&&&&OOOOO$&&&&&&&O..&&&&&&&&",
"&&&&&&&&..O&&&&&&&&&&&&&&&&&&&&&&&&&&&&&&&&&&&&&&&&&&O..&&&&&&&&",
"&&&&&&&&..O&&&&&&&&&&&&&&&&&&&&&&&&&&&&&&&&&&&&&&&&&&O..&&&&&&&&",
"&&&&&&&&..O&&&&&&&&&&&&&&&&&&&&&&&&&&&&&&&&&&&&&&&&&&O..&&&&&&&&",
"&&&&&&&&..O&&&&&&&&&&&&&&&&&&&&&&&&&&&&&&&&&&&&&&&&&&O..&&&&&&&&",
"&&&&&&&&..O&&&&&&&&&&&&&&&&&&&&&&&&&&&&&&&&&&&&&&&&&&O..&&&&&&&&",
"&&&&&&&&..O&&&&&&&&&&&&&&&&&&&&&&&&&&&&&&&&&&&&&&&&&&O..&&&&&&&&",
"&&&&&&&&..O&&&&&&&&&&&&&&&&&&&&&&&&&&&&&&&&&&&&&&&&&&O..&&&&&&&&",
"&&&&&&&&..O&&&&&&&&&&&&&&&&&&&&&&&&&&&&&&&&&&&&&&&&&&O..&&&&&&&&",
"&&&&&&&&..O&&&&&&&&&&&&&&&&&&&&&&&&&&&&&&&&&&&&&&&&&&O..&&&&&&&&",
"&&&&&&&&..O&&&&&&&&&&&&&&&&&&&&&&&&&&&&&&&&&&&&&&&&&&O..&&&&&&&&",
"&&&&&&&&..O&&&&&&&&&&&&&&&&&&&&&&&&&&&&&&&&&&&&&&&&&&O..&&&&&&&&",
"&&&&&&&&..O&&&&&&&&&&&&&&&&&&&&&&&&&&&&&&&&&&&&&&&&&&O..&&&&&&&&",
"&&&&&&&&..O&&&&&&&&&&&&&&&&&&&&&&&&&&&&&&&&&&&&&&&&&&O..&&&&&&&&",
"&&&&&&&&..O&&&&&&&&&&&&&&&&&&&&&&&&&&&&&&&&&&&&&&&&&&O..&&&&&&&&",
"&&&&&&&&..O&&&&&&&&&&&&&&&&&&&&&&&&&&&&&&&&&&&&&&&&&&O..&&&&&&&&",
"&&&&&&&&..O&&&&&&&&&&&&&&&&&&&&&&&&&&&&&&&&&&&&&&&&&&O..&&&&&&&&",
"&&&&&&&&..O&&&&&&&&&&&&&&&&&&&&&&&&&&&&&&&&&&&&&&&&&&O..&&&&&&&&",
"&&&&&&&&..O&&&&&&&&&&&&&&&&&&&&&&&&&&&&&&&&&&&&&&&&&&O..&&&&&&&&",
"  &&&@OO..XOO$&&&&&&&&&&&&&&&&&&&&&&&&&&&&&&&&&&&&$OOX..OO@&&&  ",
"   &&O.......#&&&&&&&&&&&&&&&&&&&&&&&&&&&&&&&&&&&&#.......O&&   ",
"   &&O.......#&&&&&&&&&&&&&&&&&&&&&&&&&&&&&&&&&&&&#.......O&&   "
};
