/* XPM */
static char *_[] = {
/* columns rows colors chars-per-pixel */
"64 64 11 1 ",
"  c None",
". c None",
"X c None",
"o c #C0C0C0",
"O c #C0C0C0",
"+ c None",
"@ c #C0C0C0",
"# c #C0C0C0",
"$ c #C0C0C0",
"% c #C0C0C0",
"& c #C0C0C0",
/* pixels */
"             &&&&&&&&&&&&&&&&&&&&&&&&&&&&&&                     ",
"             &&&&&&&&&&&&&&&&&&&&&&&&&&&&&&                     ",
"             &&&&&&&&&&&&&&&&&&&&&&&&&&&&&&                     ",
"           &&&&&&&&&&&&&&&&&&&&&&&&&&&&&&&&&&&&&&&&             ",
"           &&&&&&&&&&&&&&&&&&&&&&&&&&&&&&&&&&&&&&&&             ",
"        &&&&&&&&&&&&&&&&&&&&&&&&&&&&&&&&&&&&&&&&&&&&&           ",
"        &&&&&&&&&&&&&&&&&&&&&&&&&&&&&&&&&&&&&&&&&&&&&           ",
"        &&&&&&&&&&&&&&&&&&&&&&&&&&&&&&&&&&&&&&&&&&&&&           ",
"        &&&&&&&&........................&&&&&&&&&&&&&&&&        ",
"        &&&&&&&&........................&&&&&&&&&&&&&&&&        ",
"        &&&&&$##.....oOOOOOOOOOOOOOOOX..########&&&&&&&&        ",
"     &&&&&&&&O.......#&&&&&&&&&&&&&&&O..........&&&&&&&&&&&     ",
"     &&&&&&&&O.......#&&&&&&&&&&&&&&&O..........&&&&&&&&&&&     ",
"   &&&&&&&&&&O..#####%&&&&&&&&&&&&&&&$####+.....OO@&&&&&&&&     ",
"   &&&&&&&&&&O..&&&&&&&&&&&&&&&&&&&&&&&&&&#.......O&&&&&&&&     ",
"   &&&&&&&&&&O..&&&&&&&&&&&&&&&&&&&&&&&&&&#.......O&&&&&&&&     ",
"   &&&&&&&#.....&&&&&&&&&&&&&&&&&&&&&&&&&&&&&O....O&&&&&&&&&&   ",
"   &&&&&&&#.....&&&&&&&&&&&&&&&&&&&&&&&&&&&&&O....O&&&&&&&&&&   ",
"   &&&&&&&#..oOO&&&&&&&&&&&&&&&&&&&&&&&&&&&&&@OO..o##%&&&&&&&   ",
"   &&&&&&&#..#&&&&&&&&&&&&&&&&&&&&&&&&&&&&&&&&&&.....#&&&&&&&   ",
"   &&&&&&&#..#&&&&&&&&&&&&&&&&&&&&&&&&&&&&&&&&&&.....#&&&&&&&   ",
"&&&&&&&&&&#..#&&&&&&&&&&&&&&&&&&&&&&&&&&&&&&&&&&##+..#&&&&&&&   ",
"&&&&&&&&&&#..#&&&&&&&&&&&&&&&&&&&&&&&&&&&&&&&&&&&&#..#&&&&&&&   ",
"&&&&&&&&&&#..#&&&&&&&&&&&&&&&&&&&&&&&&&&&&&&&&&&&&#..#&&&&&&&   ",
"&&&&&&&&.....#&&&&&&&&&&&&&&&&&&&&&&&&&&&&&&&&&&&&#..#&&&&&&&&&&",
"&&&&&&&&.....#&&&&&&&&&&&&&&&&&&&&&&&&&&&&&&&&&&&&#..#&&&&&&&&&&",
"&&&&&&&&.....#&&&&&&&&&&&&&&&&&&&&&&&&&&&&&&&&&&&&#..+##&&&&&&&&",
"&&&&&&&&.....#&&&&&&&&&&&&&&&&&&&&&&&&&&&&&&&&&&&&#.....&&&&&&&&",
"&&&&&&&&.....#&&&&&&&&&&&&&&&&&&&&&&&&&&&&&&&&&&&&#.....&&&&&&&&",
"&&&&&&&&..o##%&&&&&&&&&&&&&&&&&&&&&&&&&&&&&&&&&&&&%##o..&&&&&&&&",
"&&&&&&&&..O&&&&&&&&&&&&&&&&&&&&&&&&&&&&&&&&&&&&&&&&&&O..&&&&&&&&",
"&&&&&&&&..O&&&&&&&&&&&&&&&&&&&&&&&&&&&&&&&&&&&&&&&&&&O..&&&&&&&&",
"&&&&&&&&..O&&&&&&&&&&&&&&&&&&&&&&&&&&&&&.....#&&&&&&&O..&&&&&&&&",
"&&&&&&&&..O&&&&&&&&&&&&&&&&&&&&&&&&&&&&&.....#&&&&&&&O..&&&&&&&&",
"&&&&&&&&..O&&&&&&&&&&&&&&&&&&&&&&&&&&$##.....+##&&&&&O..&&&&&&&&",
"&&&&&&&&..O&&&&&&&&&&&&&&&&&&&&&&&&&&O..........&&&&&O..&&&&&&&&",
"&&&&&&&&..O&&&&&&&&&&&&&&&&&&&&&&&&&&O..........&&&&&O..&&&&&&&&",
"&&&&&&&&..O&&&&&&&&&&&&&&&&&&&&&&&&&&O..........&&&&&O..&&&&&&&&",
"&&&&&&&&..O&&&&&&&&&&&&&&&&&&&&&&&&&&O..........&&&&&O..&&&&&&&&",
"&&&&&&&&..O&&&&&&&&&&&&&&&&&&&&&&&&&&O..........&&&&&O..&&&&&&&&",
"&&&&&&&&..O&&&&&&&&&&&&&&&&&&&&&&&&&&O.......#&&&&&&&O..&&&&&&&&",
"&&&&&&&&..O&&&&&&&&&&&&&&&&&&&&&&&&&&O.......#&&&&&&&O..&&&&&&&&",
"&&&&&&&&..O&&&&&&&&&&&&&&&&&&&&&&&&&&@OO.....#&&&&&&&O..&&&&&&&&",
"&&&&&&&&..O&&&&&&&&&&&&&&&&&&&&&&&&&&&&&.....#&&&&&&&O..&&&&&&&&",
"&&&&&&&&..O&&&&&&&&&&&&&&&&&&&&&&&&&&&&&.....#&&&&&&&O..&&&&&&&&",
"&&&&&&&&..O&&&&&&&&&&&&&&&&&&&&&&&&&&&&&#####%&&&&&&&O..&&&&&&&&",
"&&&&&&&&..O&&&&&&&&&&&&&&&&&&&&&&&&&&&&&&&&&&&&&&&&&&O..&&&&&&&&",
"&&&&&&&&..O&&&&&&&&&&&&&&&&&&&&&&&&&&&&&&&&&&&&&&&&&&O..&&&&&&&&",
"&&&&&&&&..O&&&&&&&&&&&&&&&&&&&&&&&&&&&&&&&&&&&&&&&&&&O..&&&&&&&&",
"&&&&&&&&..O&&&&&&&&&&&&&&&&&&&&&&&&&&&&&&&&&&&&&&&&&&O..&&&&&&&&",
"&&&&&&&&..O&&&&&&&&&&&&&&&&&&&&&&&&&&&&&&&&&&&&&&&&&&O..&&&&&&&&",
"&&&&&&&&..O&&&&&&&&&&&&&&&&&&&&&&&&&&&&&&&&&&&&&&&&&&O..&&&&&&&&",
"&&&&&&&&..O&&&&&&&&&&&&&&&&&&&&&&&&&&&&&&&&&&&&&&&&&&O..&&&&&&&&",
"&&&&&&&&..O&&&&&&&&&&&&&&&&&&&&&&&&&&&&&&&&&&&&&&&&&&O..&&&&&&&&",
"&&&&&&&&..O&&&&&&&&&&&&&&&&&&&&&&&&&&&&&&&&&&&&&&&&&&O..&&&&&&&&",
"&&&&&&&&..O&&&&&&&&&&&&&&&&&&&&&&&&&&&&&&&&&&&&&&&&&&O..&&&&&&&&",
"&&&&&&&&..O&&&&&&&&&&&&&&&&&&&&&&&&&&&&&&&&&&&&&&&&&&O..&&&&&&&&",
"&&&&&&&&..O&&&&&&&&&&&&&&&&&&&&&&&&&&&&&&&&&&&&&&&&&&O..&&&&&&&&",
"&&&&&&&&..O&&&&&&&&&&&&&&&&&&&&&&&&&&&&&&&&&&&&&&&&&&O..&&&&&&&&",
"&&&&&&&&..O&&&&&&&&&&&&&&&&&&&&&&&&&&&&&&&&&&&&&&&&&&O..&&&&&&&&",
"&&&&&&&&..O&&&&&&&&&&&&&&&&&&&&&&&&&&&&&&&&&&&&&&&&&&O..&&&&&&&&",
"&&&&&@OO..XOO$&&&&&&&&&&&&&&&&&&&&&&&&&&&&&&&&&&&&$OOX..&&&&&&&&",
"&&&&&O.......#&&&&&&&&&&&&&&&&&&&&&&&&&&&&&&&&&&&&#.....&&&&&&&&",
"&&&&&O.......#&&&&&&&&&&&&&&&&&&&&&&&&&&&&&&&&&&&&#.....&&&&&&&&"
};
