/* XPM */
static char *box_frame_2[] = {
/* columns rows colors chars-per-pixel */
"64 64 10 1 ",
"  c #382D14",
". c #57461F",
"X c #665325",
"o c #755F2A",
"O c #856C30",
"+ c #947835",
"@ c #A3853B",
"# c #B39140",
"$ c #C29E46",
"% c None",
/* pixels */
"%%%%%%%%%%%%%%%%%%%%%%%%%%%%%%%%%%%%%%%%%%%%%%%%%%%%%%%%%%%%%%%%",
"%%%%%%%%%%%%%%%%%%%%%%%%%%%%%%%%%%%%%%%%%%%%%%%%%%%%%%%%%%%%%%%%",
"%%%%%%%%%%%%%%%%%%%%%%%%%%%%%%%%%%%%%%%%%%%%%%%%%%%%%%%%%%%%%%%%",
"%%%%%%%%%%%%%%%%%%%%%%%%%%%%%%%%%%%%%%%%%%%$$$$$$$$$$$$$$$$%%%%%",
"%%%%%%%%%%%%%%%%%%%%%%%%%%%%%%%%%%%%%%%%%%%$$$$$$$$$$$$$$$$%%%%%",
"%%%%%%%%%%%%%%%%%%%%%%$$$$$$$$$$$$$$$$$$$$$$$$$$$$$$$$$$$$$%%%%%",
"%%%%%%%%%%%%%%%%%%%%%$$$$$$$$$$$$$$$$$$$$$$$$$$$$$$$$$$$$$$%%%%%",
"%%%%%%%%%%%%%%%%%%%%%$$$$$$$$$$$$$$$$$$$$$$$$$$$$$$$$$$$$$$%%%%%",
"%%%$$$$$$$$$$$$$$$$$$$$$$$$$$$$$$$$$$$$$$$$$$$$$$$$$$$$$   %%%%%",
"%%%$$$$$$$$$$$$$$$$$$$$$$$$$$$$$$$$$$$$$$$$$$$$$$$$$$$$$   %%%%%",
"%%%$$$$$$$$$$$$$$$$$$$$$$$$$$$$$++++++++++++++++$$$$$@++   %%%%%",
"%%%$$$$$$$$$$$$$$$$$$$$$$$$$$$$$                $$$$$X     %%%%%",
"%%%$$$$$$$$$$$$$$$$$$$$$$$$$$$$$                $$$$$X     %%%%%",
"%%%$$$$$$$$$$OXXXXXXXXXXXXXXXXXX++o  o++++o  o++$$$$$X  +++%%%%%",
"%%%$$$$$$$$$$X                  $$+  +$$$$+  +$$$$$$$X  $$$%%%%%",
"%%%$$$$$$$$$$X                  $$+  +$$$$+  +$$$$$$$X  $$$%%%%%",
"%%%             $$+  +$$$$+  +$$$$+  +$$  X$$$$$$$$$$X  $$$%%%%%",
"%%%             $$+  +$$$$+  +$$$$+  +$$  X$$$$$$$$$$X  $$$%%%%%",
"%%%XXXXX     .XX$$+  +$$$$+  +$$$$+  o++XXO$$$$$$$#++.  $$$%%%%%",
"%%%$$$$$     +$$$$+  +$$$$+  +$$$$+     $$$$$$$$$$+     $$$%%%%%",
"%%%$$$$$     +$$$$+  +$$$$+  +$$$$+     $$$$$$$$$$+     $$$%%%%%",
"%%%$$$$$++o  +$$$$+  +$$$$+  +$$XXo+++++$$$$$$$$XXo++.  $$$$$%%%",
"%%%$$$$$$$+  +$$$$+  +$$$$+  +$$  X$$$$$$$$$$$$$  X$$X  $$$$$%%%",
"%%%$$$$$$$+  +$$$$+  +$$$$+  +$$  X$$$$$$$$$$$$$  X$$X  $$$$$%%%",
"%%%$$$$$$$+  +$$$$+  +$$$$+       X$$$$$$$$$$X    X$$X  $$$$$%%%",
"%%%$$$$$$$+  +$$$$+  +$$$$+       X$$$$$$$$$$X    X$$X  $$$$$%%%",
"%%%$$$$$$$+  +$$$$+  +$$$$+  .XXXXO$$$$$$$#++.  XXO$$X  $$$$$%%%",
"%%%$$$$$$$+  +$$$$+  +$$$$+  +$$$$$$$$$$$$+     $$$$$X  $$$$$%%%",
"%%%$$$$$$$+  +$$$$+  +$$$$+  +$$$$$$$$$$$$+     $$$$$X  $$$$$%%%",
"%%%$$$$$$$+  +$$$$+  +$$XXo++#$$$$$$$$$$XX.     $$$$$X  $$$$$%%%",
"%%%$$$$$$$+  +$$$$+  +$$  X$$$$$$$$$$$$$        $$$$$X  $$$$$%%%",
"%%%$$$$$$$+  +$$$$+  +$$  X$$$$$$$$$$$$$        $$$$$X  $$$$$%%%",
"%%%$$$$$$$+  +$$$$+       X$$$$$$$$$$X    X$$X  $$$$$X  $$$$$%%%",
"%%%$$$$$$$+  +$$$$+       X$$$$$$$$$$X    X$$X  $$$$$X  $$$$$%%%",
"%%%$$$$$$$+  +$$$$+     XXO$$$$$$$#++.  XXO$$X  $$$$$X  $$$$$%%%",
"%%%%%$$$$$+  +$$$$+     $$$$$$$$$$+     $$$$$X  $$$$$X  $$$$$%%%",
"%%%%%$$$$$+  +$$$$+     $$$$$$$$$$+     $$$$$X  $$$$$X  $$$$$%%%",
"%%%%%$$$$$+  +$$XX.  o++$$$$$$$$XXo++.  $$$$$X  $$$$$X  $$$$$%%%",
"%%%%%$$$$$+  +$$     +$$$$$$$$$$  X$$X  $$$$$X  $$$$$X  $$$$$%%%",
"%%%%%$$$$$+  +$$     +$$$$$$$$$$  X$$X  $$$$$X  $$$$$X  $$$$$%%%",
"%%%%%$$$$$+  +$$  X$$$$$$$$$$X    X$$X  $$$$$X  $$$$$X  $$$$$%%%",
"%%%%%$$$$$+  +$$  X$$$$$$$$$$X    X$$X  $$$$$X  $$$$$X  $$$$$%%%",
"%%%%%$$$$$+  o++XXO$$$$$$$#++.  XXO$$X  $$$$$X  $$$$$X  $$$$$%%%",
"%%%%%$$$$$+     $$$$$$$$$$+     $$$$$X  $$$$$X  $$$$$X  $$$$$%%%",
"%%%%%$$$$$+     $$$$$$$$$$+     $$$$$X  $$$$$X  $$$$$X  $$$$$%%%",
"%%%%%%%%$$+  o++$$$$$$$$XXo++.  $$$$$X  $$$$$X  $$$$$X  $$$$$%%%",
"%%%%%%%%$$+  +$$$$$$$$$$  X$$X  $$$$$X  $$$$$X  $$$$$X  $$$$$%%%",
"%%%%%%%%$$+  +$$$$$$$$$$  X$$X  $$$$$X  $$$$$X  $$$$$X  $$$$$%%%",
"%%%%%%%%  X$$$$$$$$$$X    X$$X  $$$$$X                       %%%",
"%%%%%%%%  X$$$$$$$$$$X    X$$X  $$$$$X                       %%%",
"%%%%%%%%  X$$$$$+++++.    .++.  +++++.       .XXXXXXXXXXXXXXX%%%",
"%%%%%%%%  X$$$$$                             +$$$$$$$$$$$$$$$%%%",
"%%%%%%%%  X$$$$$                             +$$$$$$$$$$$$$$$%%%",
"%%%%%%%%++@$$$$$+++++++++++++++++++++++++++++#$$$$$$$$$$$$$$$%%%",
"%%%%%%%%$$$$$$$$$$$$$$$$$$$$$$$$$$$$$$$$$$$$$$$$$$$$$$$$$$$$$%%%",
"%%%%%%%%$$$$$$$$$$$$$$$$$$$$$$$$$$$$$$$$$$$$$$$$$$$$$$$$$$$$$%%%",
"%%%%%%%%$$$$$$$$$$$$$$$$$$$$$$$$$$$$$$$$$$$$$$$$$$$$$$$$$$$%%%%%",
"%%%%%%%%$$$$$$$$$$$$$$$$$$$$$$$$$$$$$$$$$$$$$$$$$$$$$$$$$$$%%%%%",
"%%%%%%%%$$$$$$$$$$$$$$$$$$$$$$$$$$$$$$$$$$$$$$$$$$$$$$$$$$%%%%%%",
"%%%%%%%%$$$$$$$$$$$$$$$$$$$$$$$$%%%%%%%%%%%%%%%%%%%%%%%%%%%%%%%%",
"%%%%%%%%$$$$$$$$$$$$$$$$$$$$$$$$%%%%%%%%%%%%%%%%%%%%%%%%%%%%%%%%",
"%%%%%%%%%%%%%%%%%%%%%%%%%%%%%%%%%%%%%%%%%%%%%%%%%%%%%%%%%%%%%%%%",
"%%%%%%%%%%%%%%%%%%%%%%%%%%%%%%%%%%%%%%%%%%%%%%%%%%%%%%%%%%%%%%%%",
"%%%%%%%%%%%%%%%%%%%%%%%%%%%%%%%%%%%%%%%%%%%%%%%%%%%%%%%%%%%%%%%%"
};
