/* XPM */
static char *box_frame_1[] = {
/* columns rows colors chars-per-pixel */
"64 64 11 1 ",
"  c #382D14",
". c #473A1A",
"X c #57461F",
"o c #665325",
"O c #755F2A",
"+ c #856C30",
"@ c #947835",
"# c #A3853B",
"$ c #B39140",
"% c #C29E46",
"& c None",
/* pixels */
"&&&&&&&&&&&&&&&&&&&&&&&&&&&&&&&&&&&&&&&&&&&&&&&&&&&&&&&&&&&&&&&&",
"&&&&&&&&&&&&&&&&&&&&&&&&&&&&&&&&&&&&&&&&&&&&&&&&&&&&&&&&&&&&&&&&",
"&&&&&&&&&&&&&&&&&&&&&&&&&&&&&&&&&&&&&&&&&&&&&&&&&&&&&&&&&&&&&&&&",
"&&&&&&&&&&&&&&&&&&&&&&&&&&&&&&&&&&&&&&&&&&&&&&&&&&&&&&&&&&&&&&&&",
"&&&&&&&&&&&&&&&&&&&&&&&&&&&&&&&&&&&&&&&&&&&&&&&&&&&&&&&&&&&&&&&&",
"&&&&&&&&&&&&&&&&&&&&&&&&&&&&&&&&&&&%%%%%%%%%%%%%%%%%%%%%%%&&&&&&",
"&&&&&&&&&&&&&&&&&&&&&&&&&&&&&&&&&&&%%%%%%%%%%%%%%%%%%%%%%%%&&&&&",
"&&&&&&&&&&&&&&&&&&&&&&&&&&&&&&&&&&&%%%%%%%%%%%%%%%%%%%%%%%%&&&&&",
"&&&&&&&&&&&%%%%%%%%%%%%%%%%%%%%%%%%%%%%%%%%%%%%%%%%%%%%%%%%&&&&&",
"&&&&&&&&&&&%%%%%%%%%%%%%%%%%%%%%%%%%%%%%%%%%%%%%%%%%%%%%%%%&&&&&",
"&&&&&&&&&&%%%%%%%%%%%%%%%%%%%%%%%%%%%%%%@@@@@@@@@@@@@@@@@@@&&&&&",
"&&&%%%%%%%%%%%%%%%%%%%%%%%%%%%%%%%%%%%%%                   &&&&&",
"&&&%%%%%%%%%%%%%%%%%%%%%%%%%%%%%%%%%%%%%                   &&&&&",
"&&&%%%%%%%%%%%%%%%#ooooooooooooooooooooo@@@@@X  @@@@@@@@@@@&&&&&",
"&&&%%%%%%%%%%%%%%%@                     %%%%%o  %%%%%%%%%%%&&&&&",
"&&&%%%%%%%%%%%%%%%@                     %%%%%o  %%%%%%%%%%%&&&&&",
"&&&                  @%%%%%%%o  %%%%%o  %%%%%%%%%%%%%%%%%%%&&&&&",
"&&&                  @%%%%%%%o  %%%%%o  %%%%%%%%%%%%%%%%%%%&&&&&",
"&&&ooooo     XooooX  @%%%%%%%o  %%%%%o  %%%%%%%%%%%%%#@@%%%&&&&&",
"&&&%%%%%     @%%%%@  @%%%%%%%o  %%%%%o  %%%%%%%%%%%%%o  %%%&&&&&",
"&&&%%%%%     @%%%%@  @%%%%%%%o  %%%%%o  %%%%%%%%%%%%%o  %%%&&&&&",
"&&&%%%%%@@O  @%%%%@  Xoo%%%%%o  %%%%%#@@%%%%%%%%%%#oo.  %%%%%&&&",
"&&&%%%%%%%@  @%%%%@     %%%%%o  %%%%%%%%%%%%%%%%%%@     %%%%%&&&",
"&&&%%%%%%%@  @%%%%@     %%%%%o  %%%%%%%%%%%%%%%%%%@     %%%%%&&&",
"&&&%%%%%%%@  @%%%%%%%o  %%%%%o    o%%%%%%%%%%o  %%%%%o  %%%%%&&&",
"&&&%%%%%%%@  @%%%%%%%o  %%%%%o    o%%%%%%%%%%o  %%%%%o  %%%%%&&&",
"&&&%%%%%%%@  @%%%%%%%o  %%%%%o  oo+%%%%%%%$@@X  %%%%%o  %%%%%&&&",
"&&&%%%%%%%@  @%%%%%%%o  %%%%%o  %%%%%%%%%%@     %%%%%o  %%%%%&&&",
"&&&%%%%%%%@  @%%%%%%%o  %%%%%o  %%%%%%%%%%@     %%%%%o  %%%%%&&&",
"&&&&&%%%%%@  @%%%%%%%o  %%%%%#@@%%%%%%%%ooO@@X  %%%%%o  %%%%%&&&",
"&&&&&%%%%%@  @%%%%%%%o  %%%%%%%%%%%%%%%%  o%%o  %%%%%o  %%%%%&&&",
"&&&&&%%%%%@  @%%%%%%%o  %%%%%%%%%%%%%%%%  o%%o  %%%%%o  %%%%%&&&",
"&&&&&%%%%%@  @%%%%%%%o    o%%%%%%%%%%o    o%%o  %%%%%o  %%%%%&&&",
"&&&&&%%%%%@  @%%%%%%%o    o%%%%%%%%%%o    o%%o  %%%%%o  %%%%%&&&",
"&&&&&%%%%%#oo+@@%%%%%o    o%%%%%%%$@@X  oo+%%o  %%%%%o  %%%%%&&&",
"&&&&&%%%%%%%%o  %%%%%o    o%%%%%%%@     %%%%%o  %%%%%o  %%%%%&&&",
"&&&&&%%%%%%%%o  %%%%%o    o%%%%%%%@     %%%%%o  %%%%%o  %%%%%&&&",
"&&&&&%%%%%%%%o  %%%%%#@@@@#%%%%%ooO@@X  %%%%%o  %%%%%o  %%%%%&&&",
"&&&&&%%%%%%%%o  %%%%%%%%%%%%%%%%  o%%o  %%%%%o  %%%%%o  %%%%%&&&",
"&&&&&%%%%%%%%o  %%%%%%%%%%%%%%%%  o%%o  %%%%%o  %%%%%o  %%%%%&&&",
"&&&&&%%%%%%%%o    o%%%%%%%%%%o  %%%%%o  %%%%%o  %%%%%o  %%%%%&&&",
"&&&&&%%%%%%%%o    o%%%%%%%%%%o  %%%%%o  %%%%%o  %%%%%o  %%%%%&&&",
"&&&&&&%%%%%%%o  oo+%%%%%%%$@@X  %%%%%o  %%%%%o  %%%%%o  %%%%%&&&",
"&&&&&&&&%%%%%o  %%%%%%%%%%@     %%%%%o  %%%%%o  %%%%%o  %%%%%&&&",
"&&&&&&&&%%%%%o  %%%%%%%%%%@     %%%%%o  %%%%%o  %%%%%o  %%%%%&&&",
"&&&&&&&&%%#oo+@@%%%%%%%%ooO@@X  %%%%%o  %%%%%o  %%%%%o  ooooo&&&",
"&&&&&&&&%%@  @%%%%%%%%%%  o%%o  %%%%%o  %%%%%o  %%%%%o       &&&",
"&&&&&&&&%%@  @%%%%%%%%%%  o%%o  %%%%%o  %%%%%o  %%%%%o       &&&",
"&&&&&&&&%%%%%%%%%%%%%o  %%%%%o  %%%%%o                       &&&",
"&&&&&&&&%%%%%%%%%%%%%o  %%%%%o  %%%%%o                       &&&",
"&&&&&&&&@@#%%%%%@@@@@X  @@@@@X  @@@@@X  ooooooooooooooooooooo&&&",
"&&&&&&&&  o%%%%%                        %%%%%%%%%%%%%%%%%%%%%&&&",
"&&&&&&&&  o%%%%%                        %%%%%%%%%%%%%%%%%%%%%&&&",
"&&&&&&&&  .ooooo@@@@@@@@@@@@@@@@@@@@@@@@%%%%%%%%%%%%%%%%%%%%%&&&",
"&&&&&&&&        %%%%%%%%%%%%%%%%%%%%%%%%%%%%%%%%%%%%%%%%%%%%%&&&",
"&&&&&&&&        %%%%%%%%%%%%%%%%%%%%%%%%%%%%%%%%%%%%%%%%%%%%%&&&",
"&&&&&&&&%%%%%%%%%%%%%%%%%%%%%%%%%%%%%%%%%%%%%&&&&&&&&&&&&&&&&&&&",
"&&&&&&&&%%%%%%%%%%%%%%%%%%%%%%%%%%%%%%%%%%%%%&&&&&&&&&&&&&&&&&&&",
"&&&&&&&&%%%%%%%%%%%%%%%%%%%%%%%%%%%%%%%%%%%%%&&&&&&&&&&&&&&&&&&&",
"&&&&&&&&%%%%%%%%%%%%%%%%%%%%%&&&&&&&&&&&&&&&&&&&&&&&&&&&&&&&&&&&",
"&&&&&&&&%%%%%%%%%%%%%%%%%%%%%&&&&&&&&&&&&&&&&&&&&&&&&&&&&&&&&&&&",
"&&&&&&&&&&&&&&&&&&&&&&&&&&&&&&&&&&&&&&&&&&&&&&&&&&&&&&&&&&&&&&&&",
"&&&&&&&&&&&&&&&&&&&&&&&&&&&&&&&&&&&&&&&&&&&&&&&&&&&&&&&&&&&&&&&&",
"&&&&&&&&&&&&&&&&&&&&&&&&&&&&&&&&&&&&&&&&&&&&&&&&&&&&&&&&&&&&&&&&"
};
