/* XPM */
static char *box_frame_0[] = {
/* columns rows colors chars-per-pixel */
"64 64 11 1 ",
"  c #382D14",
". c #473A1A",
"X c #57461F",
"o c #665325",
"O c #755F2A",
"+ c #856C30",
"@ c #947835",
"# c #A3853B",
"$ c #B39140",
"% c #C29E46",
"& c None",
/* pixels */
"&&&&&&&&&&&&&&&&&&&&&&&&&&&&&&&&&&&&&&&&&&&&&&&&&&&&&&&&&&&&&&&&",
"&&&&&&&&&&&&&&&&&&&&&&&&&&&&&&&&&&&&&&&&&&&&&&&&&&&&&&&&&&&&&&&&",
"&&&&&&&&&&&&&&&&&&&&&&&&&&&&&&&&&&&&&&&&&&&&&&&&&&&&&&&&&&&&&&&&",
"&&&&&&&&&&&&&&&&&&&&&&&&&&&&&&&&&&&&&&&&&&&%%%%%%%%%%%%%%%%&&&&&",
"&&&&&&&&&&&&&&&&&&&&&&&&&&&&&&&&&&&&&&&&&&&%%%%%%%%%%%%%%%%&&&&&",
"&&&&&&&&&&&&&&&&&&&&&&%%%%%%%%%%%%%%%%%%%%%%%%%%%%%%%%%%%%%&&&&&",
"&&&&&&&&&&&&&&&&&&&&&%%%%%%%%%%%%%%%%%%%%%%%%%%%%%%%%%%%%%%&&&&&",
"&&&&&&&&&&&&&&&&&&&&&%%%%%%%%%%%%%%%%%%%%%%%%%%%%%%%%%%%%%%&&&&&",
"&&&&&%%%%%%%%%%%%%%%%%%%%%%%%%%%%%%%%%%%%%%%%%%%%%%%%%%%%%%&&&&&",
"&&&&&%%%%%%%%%%%%%%%%%%%%%%%%%%%%%%%%%%%%%%%%%%%%%%%%%%%%%%&&&&&",
"&&&&&%%%%%%%%%%%%%%%%%%%%%%%%%%%%%%%%#@@@@@@@@@@@@@@@@@@@@@&&&&&",
"&&&%%%%%%%%%%%%%%%%%%%%%%%%%%%%%%%%%%o                     &&&&&",
"&&&%%%%%%%%%%%%%%%%%%%%%%%%%%%%%%%%%%o                     &&&&&",
"&&&%%%%%%%%%%%%%ooooooooooooooooooooo.  @@O  O@@@@@@@X     &&&&&",
"&&&%%%%%%%%%%%%%                        %%@  @%%%%%%%o     &&&&&",
"&&&%%%%%%%%%%%%%                        %%@  @%%%%%%%o     &&&&&",
"&&&                  @%%%%@  @%%%%%%%o    o%%%%%%%%%%o  %%%&&&&&",
"&&&                  @%%%%@  @%%%%%%%o    o%%%%%%%%%%o  %%%&&&&&",
"&&&  XooooX  XooooX  @%%%%@  @%%%%$@@X  oo+%%%%%%%$@@X  %%%&&&&&",
"&&&  @%%%%@  @%%%%@  @%%%%@  @%%%%@     %%%%%%%%%%@     %%%&&&&&",
"&&&  @%%%%@  @%%%%@  @%%%%@  @%%%%@     %%%%%%%%%%@     %%%&&&&&",
"&&&@@$%%%%@  @%%%%@  @%%%%@  @%%%%@  O@@%%%%%%%%ooO@@X  %%%&&&&&",
"&&&%%%%%%%@  @%%%%@  @%%%%@  @%%%%@  @%%%%%%%%%%  o%%o  %%%&&&&&",
"&&&%%%%%%%@  @%%%%@  @%%%%@  @%%%%@  @%%%%%%%%%%  o%%o  %%%&&&&&",
"&&&%%%%%%%@  @%%%%@  @%%%%@  @%%  o%%%%%%%%%%o  %%%%%o  %%%&&&&&",
"&&&%%%%%%%@  @%%%%@  @%%%%@  @%%  o%%%%%%%%%%o  %%%%%o  %%%&&&&&",
"&&&%%%%%%%@  @%%%%@  @%%%%@  O@@oo+%%%%%%%$@@X  %%%%%o  %%%&&&&&",
"&&&%%%%%%%@  @%%%%@  @%%%%@     %%%%%%%%%%@     %%%%%o  %%%%%&&&",
"&&&%%%%%%%@  @%%%%@  @%%%%@     %%%%%%%%%%@     %%%%%o  %%%%%&&&",
"&&&%%%%%%%@  @%%%%@  Xoo%%@  O@@%%%%%%%%%%@     %%%%%o  %%%%%&&&",
"&&&%%%%%%%@  @%%%%@     %%@  @%%%%%%%%%%%%@     %%%%%o  %%%%%&&&",
"&&&%%%%%%%@  @%%%%@     %%@  @%%%%%%%%%%%%@     %%%%%o  %%%%%&&&",
"&&&%%%%%%%@  @%%%%%%%o    o%%%%%%%%%%%%%        %%%%%o  %%%%%&&&",
"&&&%%%%%%%@  @%%%%%%%o    o%%%%%%%%%%%%%        %%%%%o  %%%%%&&&",
"&&&%%%%%%%@  @%%%%%%%o  oo+%%%%%%%%%%#@@  .oo.  %%%%%o  %%%%%&&&",
"&&&%%%%%%%@  @%%%%%%%o  %%%%%%%%%%%%%o    o%%o  %%%%%o  %%%%%&&&",
"&&&%%%%%%%@  @%%%%%%%o  %%%%%%%%%%%%%o    o%%o  %%%%%o  %%%%%&&&",
"&&&&&%%%%%@  Xoo%%#oo+@@%%%%%%%%%%#oo.  @@#%%o  %%%%%o  %%%%%&&&",
"&&&&&%%%%%@     %%@  @%%%%%%%%%%%%@     %%%%%o  %%%%%o  %%%%%&&&",
"&&&&&%%%%%@     %%@  @%%%%%%%%%%%%@     %%%%%o  %%%%%o  %%%%%&&&",
"&&&&&%%%%%%%%o    o%%%%%%%%%%%%%  o%%o  %%%%%o  %%%%%o  %%%%%&&&",
"&&&&&%%%%%%%%o    o%%%%%%%%%%%%%  o%%o  %%%%%o  %%%%%o  %%%%%&&&",
"&&&&&%%%%%%%%o  oo+%%%%%%%%%%#@@oo+%%o  %%%%%o  %%%%%o  %%%%%&&&",
"&&&&&%%%%%%%%o  %%%%%%%%%%%%%o  %%%%%o  %%%%%o  %%%%%o  %%%%%&&&",
"&&&&&%%%%%%%%o  %%%%%%%%%%%%%o  %%%%%o  %%%%%o  %%%%%o  %%%%%&&&",
"&&&&&%%%%%#oo+@@%%%%%%%%ooooo+@@%%%%%o  %%%%%o  %%%%%o  ooooo&&&",
"&&&&&%%%%%@  @%%%%%%%%%%     @%%%%%%%o  %%%%%o  %%%%%o       &&&",
"&&&&&%%%%%@  @%%%%%%%%%%     @%%%%%%%o  %%%%%o  %%%%%o       &&&",
"&&&&&%%%  o%%%%%%%%%%o    o%%%%%%%%%%o                  %%%%%&&&",
"&&&&&%%%  o%%%%%%%%%%o    o%%%%%%%%%%o                  %%%%%&&&",
"&&&&&@@@oo+%%%%%%%$@@X    X@@@@@@@@@@X    .ooooooooooooo%%%%%&&&",
"&&&&&   %%%%%%%%%%@                       o%%%%%%%%%%%%%%%%%%&&&",
"&&&&&   %%%%%%%%%%@                       o%%%%%%%%%%%%%%%%%%&&&",
"&&&&&   ooooooooooX  O@@@@@@@@@@@@@@@@@@@@#%%%%%%%%%%%%%%%%%%&&&",
"&&&&&                @%%%%%%%%%%%%%%%%%%%%%%%%%%%%%%%%%%%%%%%&&&",
"&&&&&                @%%%%%%%%%%%%%%%%%%%%%%%%%%%%%%%%%%%%%%%&&&",
"&&&&&%%%%%%%%%%%%%%%%%%%%%%%%%%%%%%%%%%%%%%%%%%%%%%%%&&&&&&&&&&&",
"&&&&&%%%%%%%%%%%%%%%%%%%%%%%%%%%%%%%%%%%%%%%%%%%%%%%%&&&&&&&&&&&",
"&&&&&&%%%%%%%%%%%%%%%%%%%%%%%%%%%%%%%%%%%%%%%%%%%%%%%&&&&&&&&&&&",
"&&&&&&&&%%%%%%%%%%%%%%%%%%%%%%%%&&&&&&&&&&&&&&&&&&&&&&&&&&&&&&&&",
"&&&&&&&&%%%%%%%%%%%%%%%%%%%%%%%%&&&&&&&&&&&&&&&&&&&&&&&&&&&&&&&&",
"&&&&&&&&&&&&&&&&&&&&&&&&&&&&&&&&&&&&&&&&&&&&&&&&&&&&&&&&&&&&&&&&",
"&&&&&&&&&&&&&&&&&&&&&&&&&&&&&&&&&&&&&&&&&&&&&&&&&&&&&&&&&&&&&&&&",
"&&&&&&&&&&&&&&&&&&&&&&&&&&&&&&&&&&&&&&&&&&&&&&&&&&&&&&&&&&&&&&&&"
};
