/* XPM */
static char *coin[] = {
/* columns rows colors chars-per-pixel */
"64 64 10 1 ",
"  c None",
". c #6E281C",
"X c #7B2D1F",
"o c #963626",
"O c #B0402D",
"+ c #BD4531",
"@ c #CB4934",
"# c #CD4A35",
"$ c #D84E38",
"% c #E5533B",
/* pixels */
"                                                                ",
"                                                                ",
"                                                                ",
"                                   %%%%%                        ",
"                                   %%%%%                        ",
"                                   %%%%%                        ",
"                                   %%%%%                        ",
"                                   %%%%%                        ",
"                                %%%%%%%%                        ",
"                                %%%%%%%%                        ",
"                                %%%%%%%%                        ",
"                                %%%%%%%%                        ",
"                                %%%%%%%%                        ",
"                                %%%%%%                          ",
"                                %%%%%                           ",
"                                %%%%%                           ",
"                %%%%%%%%%%%%%   %%%%%   %%%%%%%%                ",
"                %%%%%%%%%%%%%   %%%%%   %%%%%%%%                ",
"                %%%%%%%%%%%%%%  %%$++@  %%%%%%%%                ",
"           %%%%%%%%%%%%%%%%%%%%%%%+..+%%%%%%%%%%%%%%%           ",
"           %%%%%%%%%%%%%%%%%%%%%%%+..+%%%%%%%%%%%%%%%           ",
"        %%%%%%%%%%%%%%%%%%%%%%%%%%$++$%%%%%%%%%%%%%%%%%%        ",
"        %%%%%%%%%%%%%%%%%%%%%%%%%%%%%%%%%%%%%%%%%%%%%%%%        ",
"        %%%%%%%%%%%%%%%%%%%%%%%%%%%%%%%%%%%%%%%%%%%%%%%%        ",
"        %%%%%%%%%%%%%%%%%%%%%%%%%%%%%%%%%%%%%%%%%%%%%%%%        ",
"        %%%%%%%%%%%%%%%%%%%%%%%%%%%%%%%%%%%%%%%%%%%%%%%%        ",
"        %%%%%%%%%%%%%%%%%%%%%%%%%%%%%%%%%%%%%%%%%%%%%%%%        ",
"     %%%%%%%%%%%%%%%%%%%%%%%%%%%%%%%%%%%%%%%%%%%%%%%%%%%%%%     ",
"     %%%%%%%%%%%%%%%%%%%%%%%%%%%%%%%%%%%%%%%%%%%%%%%%%%%%%%     ",
"     %%%%%%%%%%%%%%%%%%%%%%%%%%%%%%%%%%%%%%%%%%%%%%%%%%%%%%     ",
"     %%%%%%%%%%%%%%%%%%%%%%%%%%%%%%%%%%%%%%%%%%%%%%%%%%%%%%     ",
"     %%%%%%%%%%%%%%%%%%%%%%%%%%%%%%%%%%%%%%%%%%%%%%%%%%%%%%     ",
"     %%%%%%%%%%%%%%%%%%%%%%%%%%%%%%%%%%%%%%%%%%%%%%%%%%%%%%     ",
"     %%%%%%%%%%%%%%%%%%%%%%%%%%%%%%%%%%%%%%%%%%%%%%%%%%%%%%     ",
"     %%%%%$++$%%%%%%%%%%%%%%%%%%%%%%%%%%%%%%%%%%%%%%%%%%%%%     ",
"     %%%%%+..+%%%%%%%%%%%%%%%%%%%%%%%%%%%%%%%%%%%%%%%%%%%%%     ",
"     %%%%%+..+%%%%%%%%%%%%%%%%%%%%%%%%%%%%%%%%%%%%%%%%%%%%%     ",
"     %%%%%+..+%%%%%%%%%%%%%%%%%%%%%%%%%%%%%%%%%%%%%%%%%%%%%     ",
"     %%%%%+..+%%%%%%%%%%%%%%%%%%%%%%%%%%%%%%%%%%%%%%%%%%%%%     ",
"     %%%%%+..+%%%%%%%%%%%%%%%%%%%%%%%%%%%%%%%%%%%%%%%%%%%%%     ",
"        %%+.....%%%%%%%%%%%%%%%%%%%%%%%%%%%%%%%%%%%%%%%%%%%     ",
"        %%+.....%%%%%%%%%%%%%%%%%%%%%%%%%%%%%%%%%%%%%%%%%%%     ",
"        %%@ooX..%%%%%%%%%%%%%%%%%%%%%%%%%%%%%%%%%%%%%%%%%%%     ",
"        %%%%%o..%%%%%%%%%%%%%%%%%%%%%%%%%%%%%%%%%%%%%%%%%%%     ",
"        %%%%%o..%%%%%%%%%%%%%%%%%%%%%%%%%%%%%%%%%%%%%%%%%%%     ",
"        %%%%%o..ooO%%%%%%%%%%%%%%%%%%%%%%%%%%%%%%%%%%%%%        ",
"        %%%%%o....o%%%%%%%%%%%%%%%%%%%%%%%%%%%%%%%%%%%%%        ",
"        %%%%%o....o%%%%%%%%%%%%%%%%%%%%%%%%%%%%%%%%%%%%%        ",
"           %%%%%........%%%%%%%%%%%%%%%%%%%%%%%%%%%%%%%%        ",
"           %%%%%........%%%%%%%%%%%%%%%%%%%%%%%%%%%%%%%%        ",
"           %%%%%oooooX..+++++$%%%%%%%%%%%%%%%%%%%%%%%%%%        ",
"             %%%%%%%%o.......+%%%%%%%%%%%%%%%%%%%%%%%           ",
"             %%%%%%%%o.......+%%%%%%%%%%%%%%%%%%%%%%%           ",
"                %%%%%@+++++++$%%%%%%%%%%%%%%%%%%%%%             ",
"                %%%%%%%%%%%%%%%%%%%%%%%%%%%%%%%%%%%             ",
"                %%%%%%%%%%%%%%%%%%%%%%%%%%%%%%%%%%%             ",
"                     %%%%%%%%%%%     %%%%%%%%                   ",
"                     %%%%%%%%%%%     %%%%%%%%                   ",
"                      %%%%%%%%%%      %%%%%%%                   ",
"                                                                ",
"                                                                ",
"                                                                ",
"                                                                ",
"                                                                "
};
