/* XPM */
static char *player[] = {
/* columns rows colors chars-per-pixel */
"64 64 24 1 ",
"  c None",
". c #170625",
"X c #58000E",
"o c #791C2F",
"O c #990719",
"+ c #BE0A1B",
"@ c #8F1E2F",
"# c #AD3038",
"$ c #EC162B",
"% c #C1403C",
"& c #DB584A",
"* c #DC584B",
"= c #D25651",
"- c #E55144",
"; c #DF6D56",
": c #FF5863",
"> c #F37665",
", c #E0805F",
"< c #CD8C7E",
"1 c #E38B6B",
"2 c #E39A6E",
"3 c #FF937E",
"4 c #E6B37D",
"5 c #FFE6A0",
/* pixels */
"............            ................            ............",
"............            ................            ............",
"............            ................            ............",
"............            ................            ............",
"....----####....    ....####%%%%****%%%%....    ....####----....",
"....----####....    ....####%%%%****%%%%....    ....####----....",
"....----####....    ....####%%%%****%%%%....    ....####----....",
"....----####....    ....####%%%%****%%%%....    ....####----....",
"....>>>>@@@@%%%%....@@@@%%%%****1111****%%%%....%%%%@@@@>>>>....",
"....>>>>@@@@%%%%....@@@@%%%%****1111****%%%%....%%%%@@@@>>>>....",
"....>>>>@@@@%%%%....@@@@%%%%****1111****%%%%....%%%%@@@@>>>>....",
"....>>>>@@@@%%%%....@@@@%%%%****1111****%%%%....%%%%@@@@>>>>....",
"    ....3333@@@@@@@@########%%%%****%%%%####@@@@@@@@3333....    ",
"    ....3333@@@@@@@@########%%%%****%%%%####@@@@@@@@3333....    ",
"    ....3333@@@@@@@@########%%%%****%%%%####@@@@@@@@3333....    ",
"    ....3333@@@@@@@@########%%%%****%%%%####@@@@@@@@3333....    ",
"        ....oooo####oooo########%%%%####oooo####oooo....        ",
"        ....oooo####oooo########%%%%####oooo####oooo....        ",
"        ....oooo####oooo########%%%%####oooo####oooo....        ",
"        ....oooo####oooo########%%%%####oooo####oooo....        ",
"        ....%%%%oooo....oooo%%%%%%%%oooo....oooo%%%%....        ",
"        ....%%%%oooo....oooo%%%%%%%%oooo....oooo%%%%....        ",
"        ....%%%%oooo....oooo%%%%%%%%oooo....oooo%%%%....        ",
"        ....%%%%oooo....oooo%%%%%%%%oooo....oooo%%%%....        ",
"    ....@@@@%%%%====oooo2222444455554444oooo====%%%%####....    ",
"    ....@@@@%%%%====oooo2222444455554444oooo====%%%%####....    ",
"    ....@@@@%%%%====oooo2222444455554444oooo====%%%%####....    ",
"    ....@@@@%%%%====oooo2222444455554444oooo====%%%%####....    ",
"    ....@@@@####@@@@,,,,;;;;,,,,,,,,,,,,4444@@@@%%%%====....    ",
"    ....@@@@####@@@@,,,,;;;;,,,,,,,,,,,,4444@@@@%%%%====....    ",
"    ....@@@@####@@@@,,,,;;;;,,,,,,,,,,,,4444@@@@%%%%====....    ",
"    ....@@@@####@@@@,,,,;;;;,,,,,,,,,,,,4444@@@@%%%%====....    ",
"    ....####@@@@****;;;;....;;;;;;;;....;;;;2222@@@@%%%%....    ",
"    ....####@@@@****;;;;....;;;;;;;;....;;;;2222@@@@%%%%....    ",
"    ....####@@@@****;;;;....;;;;;;;;....;;;;2222@@@@%%%%....    ",
"    ....####@@@@****;;;;....;;;;;;;;....;;;;2222@@@@%%%%....    ",
"....@@@@####@@@@%%%%;;;;@@@@****,,,,@@@@;;;;****@@@@####@@@@....",
"....@@@@####@@@@%%%%;;;;@@@@****,,,,@@@@;;;;****@@@@####@@@@....",
"....@@@@####@@@@%%%%;;;;@@@@****,,,,@@@@;;;;****@@@@####@@@@....",
"....@@@@####@@@@%%%%;;;;@@@@****,,,,@@@@;;;;****@@@@####@@@@....",
"....@@@@oooo@@@@####%%%%;;;;%%%%****,,,,****%%%%@@@@oooo%%%%....",
"....@@@@oooo@@@@####%%%%;;;;%%%%****,,,,****%%%%@@@@oooo%%%%....",
"....@@@@oooo@@@@####%%%%;;;;%%%%****,,,,****%%%%@@@@oooo%%%%....",
"....@@@@oooo@@@@####%%%%;;;;%%%%****,,,,****%%%%@@@@oooo%%%%....",
"....@@@@####....oooo####%%%%%%%%####%%%%%%%%oooo....####@@@@....",
"....@@@@####....oooo####%%%%%%%%####%%%%%%%%oooo....####@@@@....",
"....@@@@####....oooo####%%%%%%%%####%%%%%%%%oooo....####@@@@....",
"....@@@@####....oooo####%%%%%%%%####%%%%%%%%oooo....####@@@@....",
"....oooo@@@@oooo....<<<<XXXXOOOO++++XXXX<<<<....oooo@@@@oooo....",
"....oooo@@@@oooo....<<<<XXXXOOOO++++XXXX<<<<....oooo@@@@oooo....",
"....oooo@@@@oooo....<<<<XXXXOOOO++++XXXX<<<<....oooo@@@@oooo....",
"....oooo@@@@oooo....<<<<XXXXOOOO++++XXXX<<<<....oooo@@@@oooo....",
"    ....oooo@@@@XXXXOOOO++++$$$$::::++++OOOOXXXX@@@@oooo....    ",
"    ....oooo@@@@XXXXOOOO++++$$$$::::++++OOOOXXXX@@@@oooo....    ",
"    ....oooo@@@@XXXXOOOO++++$$$$::::++++OOOOXXXX@@@@oooo....    ",
"    ....oooo@@@@XXXXOOOO++++$$$$::::++++OOOOXXXX@@@@oooo....    ",
"        ........@@@@XXXXOOOO++++$$$$OOOOXXXX@@@@........        ",
"        ........@@@@XXXXOOOO++++$$$$OOOOXXXX@@@@........        ",
"        ........@@@@XXXXOOOO++++$$$$OOOOXXXX@@@@........        ",
"        ........@@@@XXXXOOOO++++$$$$OOOOXXXX@@@@........        ",
"                ........<<<<XXXXXXXX<<<<........                ",
"                ........<<<<XXXXXXXX<<<<........                ",
"                ........<<<<XXXXXXXX<<<<........                ",
"                ........<<<<XXXXXXXX<<<<........                "
};
