/* XPM */
static char *hedge_frame_2[] = {
/* columns rows colors chars-per-pixel */
"64 64 10 1 ",
"  c #2D3811",
". c #303C12",
"X c #344013",
"o c #374415",
"O c #3A4816",
"+ c #415018",
"@ c #44541A",
"# c #48581B",
"$ c #4B5C1C",
"% c None",
/* pixels */
"%%%%%$$$$$$$$$$$%%%%%%%%$$$$$$$$%%%$$$$$$$$%%%%%%%%%%$$$$$$%%%%%",
"%%%%%$$$$$$$$$$$%%%%%%%%$$$$$$$$%%%$$$$$$$$%%%%%%%%%%$$$$$$%%%%%",
"%%%%%$$$$$$$$$$$%%%%%%%%$$$$$$$$%%$$$$$$$$$%%%%%%%%%%$$$$$$%%%%%",
"%%%$$$$$$$$$$$$$$$$%%%%%$$$$$$$$$$$$$$$$$$$$$%%%%%%$$$$$$$$$$%%%",
"%%%$$$$$$$$$$$$$$$$%%%%%$$$$$$$$$$$$$$$$$$$$$%%%%%%$$$$$$$$$$%%%",
"%%%$$$$$$$$$$$$$$$$$$$$$$$$$$$$$$$$$$$$$$$$$$%%%$$$$$$$$$$$$$%%%",
"%%%$$$$$$$$$$$$$$$$$$$$$$$$$$$$$$$$$$$$$$$$$$%%%$$$$$$$$$$$$$%%%",
"%%%$$$$$$$$$$$$$$$$$$$$$$$$$$$$$$$$$$$$$$$$$$%%%$$$$$$$$$$$$$%%%",
"%%%%%$$$$$$$$$$$$$$$$$$$$$$$$$$$$$$$$$$$$$$$$$$$$$$$$$$$$$$$$$$$",
"%%%%%$$$$$$$$$$$$$$$$$$$$$$$$$$$$$$$$$$$$$$$$$$$$$$$$$$$$$$$$$$$",
"%%%%%$$$$$$$$$$$$$$$$$$$$$$$$$$$$$$$$$$$$$$$$$$$$$$$$$$$$$$$$$$$",
"%%%$$$$$$$$$$$$$$$$$$$$$$$$$$$$$$$$$$$$$$$$$$$$$$$$$$$$$$$$$$$$$",
"%%%$$$$$$$$$$$$$$$$$$$$$$$$$$$$$$$$$$$$$$$$$$$$$$$$$$$$$$$$$$$$$",
"$$$$$$$$$$$$$$$$$$$$$$$$$$$$$$$$$$$$$$$$$$$$$$$$$$$$$$$$$$$$$$$$",
"$$$$$$$$$$$$$$$$$$$$$$$$$$$$$$$$$$$$$$$$$$$$$$$$$$$$$$$$$$$$$$$$",
"$$$$$$$$$$$$$$$$$$$$$$$$$$$$$$$$$$$$$$$$$$$$$$$$$$$$$$$$$$$$$$$$",
"$$$$$$$$$$$$$$$$$$$$$$$$$$$$$$$$$$$$$$$$$$$$$$$$$$$$$$$$$$$$$%%%",
"$$$$$$$$$$$$$$$$$$$$$$$$$$$$$$$$$$$$$$$$$$$$$$$$$$$$$$$$$$$$$%%%",
"$$$$$$$$$$$$$$$$$$$$$$$$$$$$$$$$$$$$$$$$$$$$$$$$$$$$$$$$$$$$$%%%",
"%%%$$$$$$$$$$$$$$$$$$$$$$$$$$$$$$$$$$$$$$$$$$$$$$$$$$$$$$$$$$%%%",
"%%%$$$$$$$$$$$$$$$$$$$$$$$$$$$$$$$$$$$$$$$$$$$$$$$$$$$$$$$$$$%%%",
"$$$$$$$$$$$$$$$$$$$$$$$$$$$$$$$$$$$$$$$$$$$$$$$$$$$$$$$$$$$%%%%%",
"$$$$$$$$$$$$$$$$$$$$$$$$$$$$$$$$$$$$$$$$$$$$$$$$$$$$$$$$$$$%%%%%",
"$$$$$$$$$$$$$$$$$$$$$$$$$$$$$$$$$$$$$$$$$$$$$$$$$$$$$$$$$$$%%%%%",
"$$$$$$$$$$$$$$$$$$$$$$$$$$$$$$$$$$$$$$$$$$$$$$$$$$$$$$$$$$$$$%%%",
"$$$$$$$$$$$$$$$$$$$$$$$$$$$$$$$$$$$$$$$$$$$$$$$$$$$$$$$$$$$$$%%%",
"$$$$$$$$$$$$$$$$$$$$$$$$$$$$$$$$$$$$$@++$$$$$$$$$$$$$$$$$$$$$%%%",
"%%%$$$$$$$$$$$$$$$$$$$$$$$$$$$$$$$$$$o  $$$$$$$$$$$$$$$$$$$$$%%%",
"%%%$$$$$$$$$$$$$$$$$$$$$$$$$$$$$$$$$$o  $$$$$$$$$$$$$$$$$$$$$%%%",
"%%%%%$$$$$$$$$$$$$@oo@$$$$@oo@$$$$@oo.  $$$$$$$$$$$$$$$$$$$%%%%%",
"%%%%%$$$$$$$$$$$$$+  +$$$$+  +$$$$+     $$$$$$$$$$$$$$$$$$$%%%%%",
"%%%%%$$$$$$$$$$$$$+  +$$$$+  +$$$$+     $$$$$$$$$$$$$$$$$$$%%%%%",
"%%%$$$$$$$+                                  +$$$$$$$$$$$$$$$%%%",
"%%%$$$$$$$+                                  +$$$$$$$$$$$$$$$%%%",
"%%%$$$$$$$+                                  O++++@$$$$$$$$$$%%%",
"%%%$$$$$$$+                                       o$$$$$$$$$$%%%",
"%%%$$$$$$$+                                       o$$$$$$$$$$%%%",
"$$$$$$$$ooX                                     ++@$$$$$$$$%%%%%",
"$$$$$$$$                                        $$$$$$$$$$$%%%%%",
"$$$$$$$$                                        $$$$$$$$$$$%%%%%",
"$$$$$$$$$$+                                     $$$$$$$$$$$$$%%%",
"$$$$$$$$$$+                                     $$$$$$$$$$$$$%%%",
"$$$$$$$$$$+                                     ++@$$$$$$$$$$%%%",
"%%%$$$$$$$+                                       o$$$$$$$$$$%%%",
"%%%$$$$$$$+                                       o$$$$$$$$$$%%%",
"$$$$$$$$$$+                                       .oo@$$$$$$$%%%",
"$$$$$$$$$$+                                          +$$$$$$$%%%",
"$$$$$$$$$$+                                          +$$$$$$$%%%",
"$$$$$$$$$$+                                          +$$$$$$$%%%",
"$$$$$$$$$$+                                          +$$$$$$$%%%",
"$$$$$$$$++O               .oooooooX               .oo@$$$$$$$%%%",
"$$$$$$$$                  o$$$$$$$+               o$$$$$$$$%%%%%",
"$$$$$$$$                  o$$$$$$$+               o$$$$$$$$%%%%%",
"$$$$$$$$++++++++++O     ++@$$$$$$$#+++++  X+++++++@$$$$$$$$%%%%%",
"$$$$$$$$$$$$$$$$$$+     $$$$$$$$$$$$$$$$  o$$$$$$$$$$$$$$$$%%%%%",
"$$$$$$$$$$$$$$$$$$+     $$$$$$$$$$$$$$$$  o$$$$$$$$$$$$$$$$%%%%%",
"%%%$$$$$$$$$$$$$$$$$$$$$$$$$$$$$$$$$$$$$$$$$$$$$$$$$$$$$%%%%%%%%",
"%%%$$$$$$$$$$$$$$$$$$$$$$$$$$$$$$$$$$$$$$$$$$$$$$$$$$$$$%%%%%%%%",
"%%%$$$$$$$$$$$$$$$$$$$$$$$$$$$$$$$$$$$$$$$$$$$$$$$$$$$$$%%%%%%%%",
"%%%%%$$$$$$$$$$$$$$$$$$$$$$$$$$$%%%%%$$$$$$$$$$$$$$$$$$$%%%%%%%%",
"%%%%%$$$$$$$$$$$$$$$$$$$$$$$$$$$%%%%%$$$$$$$$$$$$$$$$$$$%%%%%%%%",
"%%%%%$$$$$$$$$%%$$$$$$%%$$$$$$%%%%%%%%%%$$$$$$%%%%$$$$$$%%%%%%%%",
"%%%%%$$$$$$$$%%%$$$$$%%%$$$$$%%%%%%%%%%%$$$$$%%%%%%$$$$$%%%%%%%%",
"%%%%%$$$$$$$$%%%$$$$$%%%$$$$$%%%%%%%%%%%$$$$$%%%%%%$$$$$%%%%%%%%"
};
