/* XPM */
static char *hedge_frame_1[] = {
/* columns rows colors chars-per-pixel */
"64 64 11 1 ",
"  c #2D3811",
". c #303C12",
"X c #344013",
"o c #374415",
"O c #3A4816",
"+ c #3E4C17",
"@ c #415018",
"# c #44541A",
"$ c #48581B",
"% c #4B5C1C",
"& c None",
/* pixels */
"&&&&&%%%%%%%%&&&&&&&&%%%%%%%%%%%%%%&&&&&&&&%%%%%&&&&&&&&%%%%%&&&",
"&&&&&%%%%%%%%&&&&&&&&%%%%%%%%%%%%%%&&&&&&&&%%%%%&&&&&&&&%%%%%&&&",
"&&&&&%%%%%%%%%&&&&&&&%%%%%%%%%%%%%%&&&&&&&%%%%%%&&&&&&&&%%%%%%&&",
"&&&%%%%%%%%%%%%%&&&%%%%%%%%%%%%%%%%%%%%%%%%%%%%%%%%%%&&&%%%%%%%%",
"&&&%%%%%%%%%%%%%&&&%%%%%%%%%%%%%%%%%%%%%%%%%%%%%%%%%%&&&%%%%%%%%",
"%%%%%%%%%%%%%%%%%%%%%%%%%%%%%%%%%%%%%%%%%%%%%%%%%%%%%%%%%%%%%%%%",
"%%%%%%%%%%%%%%%%%%%%%%%%%%%%%%%%%%%%%%%%%%%%%%%%%%%%%%%%%%%%%%%%",
"%%%%%%%%%%%%%%%%%%%%%%%%%%%%%%%%%%%%%%%%%%%%%%%%%%%%%%%%%%%%%%%%",
"%%%%%%%%%%%%%%%%%%%%%%%%%%%%%%%%%%%%%%%%%%%%%%%%%%%%%%%%%%%%%%%%",
"%%%%%%%%%%%%%%%%%%%%%%%%%%%%%%%%%%%%%%%%%%%%%%%%%%%%%%%%%%%%%%%%",
"%%%%%%%%%%%%%%%%%%%%%%%%%%%%%%%%%%%%%%%%%%%%%%%%%%%%%%%%%%%%%%%%",
"%%%%%%%%%%%%%%%%%%%%%%%%%%%%%%%%%%%%%%%%%%%%%%%%%%%%%%%%%%%%%%%%",
"%%%%%%%%%%%%%%%%%%%%%%%%%%%%%%%%%%%%%%%%%%%%%%%%%%%%%%%%%%%%%%%%",
"%%%%%%%%%%%%%%%%%%%%%%%%%%%%%%%%%%%%%%%%%%%%%%%%%%%%%%%%%%%%%%%%",
"%%%%%%%%%%%%%%%%%%%%%%%%%%%%%%%%%%%%%%%%%%%%%%%%%%%%%%%%%%%%%%%%",
"%%%%%%%%%%%%%%%%%%%%%%%%%%%%%%%%%%%%%%%%%%%%%%%%%%%%%%%%%%%%%%%%",
"%%%%%%%%%%%%%%%%%%%%%%%%%%%%%%%%%%%%%%%%%%%%%%%%%%%%%%%%%%%%%%%%",
"%%%%%%%%%%%%%%%%%%%%%%%%%%%%%%%%%%%%%%%%%%%%%%%%%%%%%%%%%%%%%%%%",
"%%%%%%%%%%%%%%%%%%%%%%%%%%%%%%%%%%%%%%%%%%%%%%%%%%%%%%%%%%%%%%%%",
"&&&%%%%%%%%%%%%%%%%%%%%%%%%%%%%%%%%%%%%%%%%%%%%%%%%%%%%%%%%%%%%%",
"&&&%%%%%%%%%%%%%%%%%%%%%%%%%%%%%%%%%%%%%%%%%%%%%%%%%%%%%%%%%%%%%",
"&&&&&%%%%%%%%%%%%%%%%%%%%%%%%%%%%%%%%%%%%%%%%%%%%%%%%%%%%%%%%%%%",
"&&&&&%%%%%%%%%%%%%%%%%%%%%%%%%%%%%%%%%%%%%%%%%%%%%%%%%%%%%%%%%%%",
"&&&&&%%%%%%%%%%%%%%%%%%%%%%%%%%%%%%%%%%%%%%%%%%%%%%%%%%%%%%%%%%%",
"&&&%%%%%%%%%%%%%%%%%%%%%%%%%%%%%%%%%%%%%%%%%%%%%%%%%%%%%%%%%%&&&",
"&&&%%%%%%%%%%%%%%%%%%%%%%%%%%%%%%%%%%%%%%%%%%%%%%%%%%%%%%%%%%&&&",
"&&&%%%%%%%%%%%%%%%%%%%%%%%%%%%%%%%%%%%%%%%%%%%%%%%%%%%%%%%%%%&&&",
"&&&%%%%%%%%%%%%%%%%%%%%%%%%%%%%%%%%%%%%%%%%%%%%%%%%%%%%%%%%%%&&&",
"&&&%%%%%%%%%%%%%%%%%%%%%%%%%%%%%%%%%%%%%%%%%%%%%%%%%%%%%%%%%%&&&",
"%%%%%%%%%%#ooooo%%%%%+oo%%%%%%%%%%#oo#%%%%#oo#%%%%%%%%%%%%%%%%%%",
"%%%%%%%%%%@     %%%%%o  %%%%%%%%%%@  @%%%%@  @%%%%%%%%%%%%%%%%%%",
"%%%%%%%%%%@     %%%%%o  %%%%%%%%%%@  @%%%%@  @%%%%%%%%%%%%%%%%%%",
"%%%%%%%%                  o%%%%%                  o%%%%%%%%%%%%%",
"%%%%%%%%                  o%%%%%                  o%%%%%%%%%%%%%",
"%%%%%%%%ooX               X@@@@@                  X@@$%%%%%%%%%%",
"%%%%%%%%%%@                                          @%%%%%%%%%%",
"%%%%%%%%%%@                                          @%%%%%%%%%%",
"&&%%%%%%%%$@@X                                       @%%%%%%%%&&",
"&&&%%%%%%%%%%o                                       @%%%%%%%&&&",
"&&&%%%%%%%%%%o                                       @%%%%%%%&&&",
"%%%%%%%%%%%%%o                                       @%%%%%%%&&&",
"%%%%%%%%%%%%%o                                       @%%%%%%%&&&",
"%%%%%%%%@@@@@X                                    .oo#%%%%%%%&&&",
"%%%%%%%%                                          o%%%%%%%%%%&&&",
"%%%%%%%%                                          o%%%%%%%%%%&&&",
"%%%%%%%%@@O                                       o%%%%%%%%&&&&&",
"%%%%%%%%%%@                                       o%%%%%%%%&&&&&",
"%%%%%%%%%%@                                       o%%%%%%%%&&&&&",
"&&&%%%%%%%@                                          @%%%%%%%&&&",
"&&&%%%%%%%@                                          @%%%%%%%&&&",
"&&%%%%%%%%@  XooooX     oooooooo                     @%%%%%%%&&&",
"%%%%%%%%%%@  @%%%%@     %%%%%%%%                     @%%%%%%%&&&",
"%%%%%%%%%%@  @%%%%@     %%%%%%%%                     @%%%%%%%&&&",
"%%%%%%%%%%$@@$%%%%$@@@@@%%%%%%%%        @@@@@X    X@@$%%%%%%%&&&",
"%%%%%%%%%%%%%%%%%%%%%%%%%%%%%%%%        %%%%%o    o%%%%%%%%%%&&&",
"%%%%%%%%%%%%%%%%%%%%%%%%%%%%%%%%        %%%%%o    o%%%%%%%%%%&&&",
"%%%%%%%%%%%%%%%%%%%%%%%%%%%%%%%%%%%%%%%%%%%%%%%%%%%%%%%%%%%&&&&&",
"%%%%%%%%%%%%%%%%%%%%%%%%%%%%%%%%%%%%%%%%%%%%%%%%%%%%%%%%%%%&&&&&",
"%%%%%%%%%%%%%%%%%%%%%%%%%%%%%%%%%%%%%%%%%%%%%%%%%%%%%%%%%%&&&&&&",
"&&&&&%%%%%%%%%%%%%%%%%%%&&&%%%%%%%%%%%%%%%%%%%%%%%%%%%%%&&&&&&&&",
"&&&&&%%%%%%%%%%%%%%%%%%%&&&%%%%%%%%%%%%%%%%%%%%%%%%%%%%%&&&&&&&&",
"&&&&&%%%%%%&&&&&%%%%%%%%&&&&&%%%%%%%%%%%%%%%%%%%&&%%%%%%&&&&&&&&",
"&&&&&%%%%%%&&&&&%%%%%%%%&&&&&%%%%%%%%%%%%%%%%%%%&&&%%%%%&&&&&&&&",
"&&&&&%%%%%%&&&&&%%%%%%%%&&&&&%%%%%%%%%%%%%%%%%%%&&&%%%%%&&&&&&&&"
};
