/* XPM */
static char *hedge_frame_0[] = {
/* columns rows colors chars-per-pixel */
"64 64 11 1 ",
"  c #2D3811",
". c #303C12",
"X c #344013",
"o c #374415",
"O c #3A4816",
"+ c #3E4C17",
"@ c #415018",
"# c #44541A",
"$ c #48581B",
"% c #4B5C1C",
"& c None",
/* pixels */
"&&&&&&&&%%%%%&&&&&&&&%%%%%%%%%%%%%%&&&&&%%%%%&&&&&&&&%%%%%%%%&&&",
"&&&&&&&&%%%%%&&&&&&&&%%%%%%%%%%%%%%&&&&&%%%%%&&&&&&&&%%%%%%%%&&&",
"&&&&&&&&%%%%%%&&&&&&&%%%%%%%%%%%%%%&&&&&%%%%%%&&&&&&&%%%%%%%%&&&",
"&&&&&%%%%%%%%%%%%%%%%%%%%%%%%%%%%%%%%%%%%%%%%%%%&&&%%%%%%%%%%&&&",
"&&&&&%%%%%%%%%%%%%%%%%%%%%%%%%%%%%%%%%%%%%%%%%%%&&&%%%%%%%%%%&&&",
"&&&&&%%%%%%%%%%%%%%%%%%%%%%%%%%%%%%%%%%%%%%%%%%%%%%%%%%%%%%%%%%%",
"&&&&&%%%%%%%%%%%%%%%%%%%%%%%%%%%%%%%%%%%%%%%%%%%%%%%%%%%%%%%%%%%",
"&&&&&%%%%%%%%%%%%%%%%%%%%%%%%%%%%%%%%%%%%%%%%%%%%%%%%%%%%%%%%%%%",
"%%%%%%%%%%%%%%%%%%%%%%%%%%%%%%%%%%%%%%%%%%%%%%%%%%%%%%%%%%%%%%%%",
"%%%%%%%%%%%%%%%%%%%%%%%%%%%%%%%%%%%%%%%%%%%%%%%%%%%%%%%%%%%%%%%%",
"%%%%%%%%%%%%%%%%%%%%%%%%%%%%%%%%%%%%%%%%%%%%%%%%%%%%%%%%%%%%%%%%",
"%%%%%%%%%%%%%%%%%%%%%%%%%%%%%%%%%%%%%%%%%%%%%%%%%%%%%%%%%%%%%&&&",
"%%%%%%%%%%%%%%%%%%%%%%%%%%%%%%%%%%%%%%%%%%%%%%%%%%%%%%%%%%%%%&&&",
"%%%%%%%%%%%%%%%%%%%%%%%%%%%%%%%%%%%%%%%%%%%%%%%%%%%%%%%%%%%&&&&&",
"%%%%%%%%%%%%%%%%%%%%%%%%%%%%%%%%%%%%%%%%%%%%%%%%%%%%%%%%%%%&&&&&",
"%%%%%%%%%%%%%%%%%%%%%%%%%%%%%%%%%%%%%%%%%%%%%%%%%%%%%%%%%%%&&&&&",
"&&&%%%%%%%%%%%%%%%%%%%%%%%%%%%%%%%%%%%%%%%%%%%%%%%%%%%%%%%%&&&&&",
"&&&%%%%%%%%%%%%%%%%%%%%%%%%%%%%%%%%%%%%%%%%%%%%%%%%%%%%%%%%&&&&&",
"&&&%%%%%%%%%%%%%%%%%%%%%%%%%%%%%%%%%%%%%%%%%%%%%%%%%%%%%%%%&&&&&",
"&&&%%%%%%%%%%%%%%%%%%%%%%%%%%%%%%%%%%%%%%%%%%%%%%%%%%%%%%%%%%&&&",
"&&&%%%%%%%%%%%%%%%%%%%%%%%%%%%%%%%%%%%%%%%%%%%%%%%%%%%%%%%%%%&&&",
"&&&%%%%%%%%%%%%%%%%%%%%%%%%%%%%%%%%%%%%%%%%%%%%%%%%%%%%%%%%%%%%%",
"&&&%%%%%%%%%%%%%%%%%%%%%%%%%%%%%%%%%%%%%%%%%%%%%%%%%%%%%%%%%%%%%",
"&&&%%%%%%%%%%%%%%%%%%%%%%%%%%%%%%%%%%%%%%%%%%%%%%%%%%%%%%%%%%%%%",
"&&&&&%%%%%%%%%%%%%%%%%%%%%%%%%%%%%%%%%%%%%%%%%%%%%%%%%%%%%%%%%%%",
"&&&&&%%%%%%%%%%%%%%%%%%%%%%%%%%%%%%%%%%%%%%%%%%%%%%%%%%%%%%%%%%%",
"&&&&&%%%%%%%%%%%%%%%%%%%%%%%%%%%%%%%%%%%%%%%%%%%%%%%%%%%%%%%%%%%",
"&&&%%%%%%%%%%%%%%%%%%%%%%%%%%%%%%%%%%%%%%%%%%%%%%%%%%%%%%%%%%&&&",
"&&&%%%%%%%%%%%%%%%%%%%%%%%%%%%%%%%%%%%%%%%%%%%%%%%%%%%%%%%%%%&&&",
"%%%%%%%%%%%%%%%%%%%%%%%%oooooooooo+%%%%%oo+%%%%%%%%%%%%%%%%%%&&&",
"%%%%%%%%%%%%%%%%%%%%%%%%          o%%%%%  o%%%%%%%%%%%%%%%%%%&&&",
"%%%%%%%%%%%%%%%%%%%%%%%%          o%%%%%  o%%%%%%%%%%%%%%%%%%&&&",
"%%%%%%%%     @%%%%%%%o                          %%%%%%%%%%%%%&&&",
"%%%%%%%%     @%%%%%%%o                          %%%%%%%%%%%%%&&&",
"%%%%%%%%ooX  O@@@@@@@X                          @@@@@$%%%%%%%%&&",
"%%%%%%%%%%@                                          @%%%%%%%%%%",
"%%%%%%%%%%@                                          @%%%%%%%%%%",
"%%%%%%%%%%@                                          @%%%%%%%%%%",
"%%%%%%%%%%@                                          @%%%%%%%%%%",
"%%%%%%%%%%@                                          @%%%%%%%%%%",
"&&&%%%%%%%@                                       o%%%%%%%%%%&&&",
"&&&%%%%%%%@                                       o%%%%%%%%%%&&&",
"&&%%%%%%%%@                                       o%%%%%%%%%%%&&",
"%%%%%%%%%%@                                       o%%%%%%%%%%%%%",
"%%%%%%%%%%@                                       o%%%%%%%%%%%%%",
"%%%%%%%%ooX                                       .ooooo%%%%%%%%",
"%%%%%%%%                                                %%%%%%%%",
"%%%%%%%%                                                %%%%%%%%",
"%%%%%%%%%%%%%o                                       @%%%%%%%%%%",
"%%%%%%%%%%%%%o                                       @%%%%%%%%%%",
"%%%%%%%%%%%%%o            .ooooo                     @%%%%%%%%%%",
"%%%%%%%%%%%%%o            o%%%%%                     @%%%%%%%&&&",
"%%%%%%%%%%%%%o            o%%%%%                     @%%%%%%%&&&",
"%%%%%%%%%%#oo.  @@@@@@@@@@#%%%%%@@@@@@@@@@@@@@@@@@@@@$%%%%%&&&&&",
"%%%%%%%%%%@     %%%%%%%%%%%%%%%%%%%%%%%%%%%%%%%%%%%%%%%%%%%&&&&&",
"%%%%%%%%%%@     %%%%%%%%%%%%%%%%%%%%%%%%%%%%%%%%%%%%%%%%%%%&&&&&",
"%%%%%%%%%%%%%%%%%%%%%%%%%%%%%%%%%%%%%%%%%%%%%%%%%%%%%%%%%%%&&&&&",
"%%%%%%%%%%%%%%%%%%%%%%%%%%%%%%%%%%%%%%%%%%%%%%%%%%%%%%%%%%%&&&&&",
"%%%%%%%%%%%%%%%%%%%%%%%%%%%%%%%%%%%%%%%%%%%%%%%%%%%%%%%%%%&&&&&&",
"&&&%%%%%%%%%%%%%%%%&&%%%%%%%%%%%%%%%%%%%%%%%%%%%%%%%%%%%&&&&&&&&",
"&&&%%%%%%%%%%%%%%%%&&%%%%%%%%%%%%%%%%%%%%%%%%%%%%%%%%%%%&&&&&&&&",
"&&&&&&&&%%%%%%%%&&&&&%%%%%%&&%%%%%%&&%%%%%%&&&&&%%%%%%&&&&&&&&&&",
"&&&&&&&&%%%%%%%%&&&&&%%%%%%&&%%%%%%&&%%%%%%&&&&&%%%%%&&&&&&&&&&&",
"&&&&&&&&%%%%%%%%&&&&&%%%%%%&&%%%%%%&&%%%%%%&&&&&%%%%%&&&&&&&&&&&"
};
