/* XPM */
static char *monster_left_frame_move_0[] = {
/* columns rows colors chars-per-pixel */
"53 64 208 2 ",
"   c #D6285D",
".  c #D6295E",
"X  c #D62A5F",
"o  c #D62C60",
"O  c #D72C60",
"+  c #D72D61",
"@  c #D72E62",
"#  c #D72F63",
"$  c #D73063",
"%  c #D73164",
"&  c #D83264",
"*  c #D83265",
"=  c #D83365",
"-  c #D83366",
";  c #D83466",
":  c #D83467",
">  c #D83567",
",  c #D83667",
"<  c #D83668",
"1  c #D93668",
"2  c #D93768",
"3  c #D93769",
"4  c #D93869",
"5  c #D9386A",
"6  c #D9396A",
"7  c #D93A6A",
"8  c #D93A6B",
"9  c #D93B6B",
"0  c #D93B6C",
"q  c #DA3C6C",
"w  c #DA3C6D",
"e  c #DA3D6D",
"r  c #DA3E6E",
"t  c #DA3F6E",
"y  c #DA3F6F",
"u  c #DA406F",
"i  c #DA4070",
"p  c #DA4170",
"a  c #DB4170",
"s  c #DB4270",
"d  c #DB4271",
"f  c #DB4371",
"g  c #DB4372",
"h  c #DB4472",
"j  c #DB4473",
"k  c #DB4573",
"l  c #DB4673",
"z  c #DB4674",
"x  c #DC4774",
"c  c #DC4775",
"v  c #DC4875",
"b  c #DC4876",
"n  c #DC4976",
"m  c #DC4A77",
"M  c #DC4B78",
"N  c #DD4B78",
"B  c #DD4C78",
"V  c #DD4D79",
"C  c #DD4E7A",
"Z  c #DD4F7B",
"A  c #DD507B",
"S  c #DE517C",
"D  c #DE527D",
"F  c #DE537D",
"G  c #DE537E",
"H  c #DE547E",
"J  c #DE557F",
"K  c #DF5680",
"L  c #DF5881",
"P  c #DF5982",
"I  c #DF5A83",
"U  c #DF5B83",
"Y  c #E05B84",
"T  c #E05C84",
"R  c #E05D85",
"E  c #E05E86",
"W  c #E05F87",
"Q  c #E06087",
"!  c #E16289",
"~  c #E16389",
"^  c #E1638A",
"/  c #E1648A",
"(  c #E1658B",
")  c #E2668C",
"_  c #E2678C",
"`  c #E2678D",
"'  c #E2688E",
"]  c #E26A8F",
"[  c #E36B8F",
"{  c #E36B90",
"}  c #E36C90",
"|  c #E36D91",
" . c #E36E92",
".. c #E36F93",
"X. c #E37093",
"o. c #E47194",
"O. c #E47396",
"+. c #E47497",
"@. c #E57698",
"#. c #E57799",
"$. c #E57899",
"%. c #E5789A",
"&. c #E5799A",
"*. c #E67A9B",
"=. c #E67C9C",
"-. c #E67D9D",
";. c #E67E9E",
":. c #E67F9E",
">. c #E67F9F",
",. c #E780A0",
"<. c #E781A0",
"1. c #E782A1",
"2. c #E783A1",
"3. c #E784A2",
"4. c #E784A3",
"5. c #E885A3",
"6. c #E887A5",
"7. c #E888A5",
"8. c #E888A6",
"9. c #E889A6",
"0. c #E98AA7",
"q. c #E98BA8",
"w. c #E98CA8",
"e. c #E98CA9",
"r. c #E98DA9",
"t. c #E98FAB",
"y. c #EA8FAB",
"u. c #EA92AD",
"i. c #EA93AE",
"p. c #EA94AE",
"a. c #EB96B0",
"s. c #EB98B1",
"d. c #EB98B2",
"f. c #EB99B2",
"g. c #EC9AB3",
"h. c #EC9BB3",
"j. c #EC9CB4",
"k. c #EC9CB5",
"l. c #EC9DB6",
"z. c #ED9FB7",
"x. c #EDA0B7",
"c. c #EDA0B8",
"v. c #EDA3B9",
"b. c #EDA3BA",
"n. c #EEA6BC",
"m. c #EEA9BE",
"M. c #EFA9BE",
"N. c #EFABC0",
"B. c #EFACC1",
"V. c #EFADC1",
"C. c #EFAEC2",
"Z. c #F0AEC2",
"A. c #F0B0C4",
"S. c #F0B1C4",
"D. c #F0B2C5",
"F. c #F0B3C6",
"G. c #F1B4C7",
"H. c #F1B5C7",
"J. c #F1B5C8",
"K. c #F1B6C8",
"L. c #F1B7C9",
"P. c #F1B8C9",
"I. c #F1B8CA",
"U. c #F2B9CA",
"Y. c #F2B9CB",
"T. c #F2BACB",
"R. c #F2BBCC",
"E. c #F2BCCD",
"W. c #F3BFCF",
"Q. c #F3C1D0",
"!. c #F3C2D1",
"~. c #F3C3D2",
"^. c #F4C4D3",
"/. c #F4C7D5",
"(. c #F4C8D6",
"). c #F5C8D6",
"_. c #F5C9D7",
"`. c #F5CBD8",
"'. c #F6CFDB",
"]. c #F6D0DC",
"[. c #F6D1DD",
"{. c #F6D3DE",
"}. c #F7D3DE",
"|. c #F7D4DF",
" X c #F7D5DF",
".X c #F7D6E0",
"XX c #F7D7E1",
"oX c #F8D8E2",
"OX c #F8DBE4",
"+X c #F9DDE6",
"@X c #F9DFE7",
"#X c #F9E0E8",
"$X c #F9E1E9",
"%X c #F9E2E9",
"&X c #FAE3EA",
"*X c #FAE4EA",
"=X c #FAE4EB",
"-X c #FAE5EB",
";X c #FAE7ED",
":X c #FBE8EE",
">X c #FBE9EE",
",X c #FBECF1",
"<X c #FCF1F4",
"1X c #FDF3F6",
"2X c #FDF4F7",
"3X c #FEF8FA",
"4X c white",
"5X c None",
/* pixels */
"5X5X5X5X5X5X5X5X5X5X5X5X5X5X5X5X5X5X5X5X5X5X5X5X5X5X5X5X5X5X5X5X5X5X5X5X5X5X5X5X5X5X5X5X5X5X5X5X5X5X5X5X5X",
"5X5X5X5X5X5X5X5X5X5X5X5X5X5X5X5X5X5X5X5X5X5X5X5X5X5X5X5X5X5X5X5X5X5X5X5X5X5X5X5X5X5X5X5X5X5X5X5X5X5X5X5X5X",
"5X5X5X5X5X5X5X5X5X5X5X5X5X5X5X5X5X5X5X5X5X5X5X5X5X5X5X5X5X5X5X5X5X5X5X5X5X5X5X5X5X5X5X5X5X5X5X5X5X5X5X5X5X",
"5X5X5X5X5X5X5X5X5X5X5X5X5X5X6 6 6 6 6 6 6 6 6 6 6 6 6 6 6 6 6 6 6 6 6 6 6 5X5X5X5X5X5X5X5X5X5X5X5X5X5X5X5X",
"5X5X5X5X5X5X5X5X5X5X5X5X5X2 6 2 6 2 6 6 6 6 6 6 6 6 6 6 6 6 6 6 6 6 6 6 6 5X5X5X5X5X5X5X5X5X5X5X5X5X5X5X5X",
"5X5X5X5X5X5X5X5X5X6 6 6 2 ; & & & & ; 6 6 6 6 6 6 6 6 6 6 6 6 6 6 6 6 6 6 6 6 6 6 5X5X5X5X5X5X5X5X5X5X5X5X",
"5X5X5X5X5X5X5X5X6 6 6 6 6 r r r r r 0 6 6 6 6 6 6 6 6 6 6 6 6 6 6 6 6 6 6 6 6 6 6 6 5X5X5X5X5X5X5X5X5X5X5X",
"5X5X5X5X5X5X5X6 6 6 2 6 z R o.&.@.| U d 6 6 6 6 6 6 6 6 6 6 6 6 6 6 6 6 6 6 6 6 6 6 6 5X5X5X5X5X5X5X5X5X5X",
"5X5X5X5X5X5X6 6 6 6 ; 6 K e.Y.`.).A.2.B 6 ; 6 6 6 6 6 6 6 6 6 6 6 6 6 6 6 6 6 6 6 6 6 6 5X5X5X5X5X5X5X5X5X",
"5X5X5X5X5X6 6 6 6 6 & 2 ! C.,X4X4X%Xl.K ; ; 6 6 6 6 6 6 6 6 6 6 6 6 6 6 6 6 6 6 6 6 6 6 6 5X5X5X5X5X5X5X5X",
"5X5X5X5X5X6 6 6 6 6 & 6 ! A.<X4X4X;Xb.K 2 ; 6 6 6 6 ; ; & & ; ; 6 6 6 6 6 6 6 6 6 6 6 6 6 6 5X5X5X5X5X5X5X",
"5X5X5X5X5X6 6 6 6 6 & 6 ! A.<X4X4X;Xl.K ; ; 6 6 6 6 6 2 2 6 2 6 6 6 6 6 6 6 6 6 6 6 6 6 6 6 6 5X5X5X5X5X5X",
"5X5X5X5X5X6 6 6 6 6 & 6 R g.'.*X%X/.e.S ; ; 6 6 6 r m U R ! R B d 6 6 6 6 6 6 6 6 6 6 6 6 6 6 6 5X5X5X5X5X",
"5X5X5X5X5X6 6 6 6 6 2 6 m | 9.p.u.4.( z 6 2 6 2 2 c o.g.C.A.b.>.S 6 ; 6 6 6 6 6 6 6 6 6 6 6 6 6 5X5X5X5X5X",
"5X5X5X5X5X6 6 6 6 6 6 6 r h m B B m d 6 6 6 6 ; 2 S u.|.2X3X%XM.! 6 & 6 6 6 6 6 6 6 6 6 6 6 6 6 5X5X5X5X5X",
"5X5X5X5X5X6 6 6 6 6 6 6 2 2 & & & ; 2 6 6 6 6 ; ; S l.*X4X4X2XG._ 6 & 6 6 6 6 6 6 6 6 6 6 6 6 6 5X5X5X5X5X",
"5X5X5X5X5X6 6 6 6 6 6 6 2 2 ; ; 2 ; 6 6 6 6 6 & ; S l.*X4X4X<XG._ 6 & 6 6 6 6 6 6 6 6 6 6 6 6 6 6 6 5X5X5X",
"5X5X5X5X5X6 6 6 6 6 6 6 6 6 6 6 6 6 6 6 6 6 6 ; ; S u.XX2X3X%XM.! 6 & 6 6 6 6 6 6 6 6 6 6 6 6 6 6 6 5X5X5X",
"5X5X5X5X5X6 6 6 6 6 6 6 6 6 6 6 6 6 6 6 6 6 6 2 ; m o.g.C.A.b.>.S 6 ; 6 6 6 6 6 6 6 6 6 6 6 6 6 6 6 5X5X5X",
"5X5X5X5X5X6 6 6 6 6 6 6 6 6 6 6 6 6 6 6 6 6 6 6 6 r M U R ! Y A d 6 6 6 6 6 6 6 6 6 6 6 6 6 6 6 6 6 5X5X5X",
"5X5X5X5X5X6 6 6 6 6 6 6 6 6 6 6 6 6 6 6 6 6 6 6 6 6 6 2 2 2 2 6 6 6 6 6 6 6 6 6 6 6 6 6 6 6 6 6 6 6 5X5X5X",
"5X5X5X5X5X6 6 6 6 6 6 6 6 6 6 6 6 6 6 6 6 6 6 6 6 6 ; ; & & & ; 6 6 6 6 6 6 6 6 6 6 6 6 6 6 6 6 6 6 5X5X5X",
"5X5X5X5X5X6 6 6 6 6 6 6 6 6 6 6 6 6 6 6 6 6 6 6 6 6 6 6 6 6 6 6 6 6 6 6 6 6 6 6 6 6 6 6 6 6 6 6 6 6 5X5X5X",
"5X5X5X5X5X6 6 6 6 6 6 6 6 2 2 2 6 6 6 6 6 2 ; 2 6 6 6 6 6 6 6 6 6 6 6 6 6 6 6 6 6 6 6 6 6 6 6 6 6 6 5X5X5X",
"5X5X5X5X5X6 6 6 6 6 6 6 6 ; & ; 2 6 6 6 6 ; ; ; 6 6 6 6 6 6 6 6 6 6 6 6 6 6 6 6 6 6 6 6 6 6 6 6 6 6 5X5X5X",
"5X5X5X5X5X6 6 6 6 6 6 6 r h m z r 6 6 6 r h m h r 6 6 6 6 6 6 6 6 6 6 6 6 6 6 6 6 6 6 6 6 6 6 6 6 6 5X5X5X",
"5X5X5X5X5X5X6 6 6 6 2 6 B X.5.+.S 6 & 6 B o.6.o.A 6 2 6 2 ; ; ; 6 6 6 6 6 6 6 6 6 6 6 6 6 6 6 6 6 6 5X5X5X",
"5X5X5X5X5X5X5X5X6 6 & 6 R x.).M._ 6 # 6 ! b.).n.! 0 & 2 6 6 2 6 6 6 6 6 6 6 6 6 6 6 6 6 6 6 6 6 6 6 5X5X5X",
"5X5X5X5X5X5X5X5X6 6 & 2 ! L.:X~.o.6 X 2 _ Y.:XW.| 6 % 2 d S U S d 6 2 6 6 6 6 6 6 6 6 6 6 6 6 6 6 6 5X5X5X",
"5X5X5X5X5X5X5X5X6 2 # & Q G.:X^.o.6   % ! Y.:XW.| 6 X & S 9.b.6.K 6 ; 6 6 6 6 6 6 6 6 6 6 6 6 6 6 6 5X5X5X",
"5X5X5X5X5X5X5X5X6 6 2 r ' L.*XW.X.r # r | Y.*XR.| 6 $ r { A.XXC.( 6 ; 6 6 6 6 6 6 6 6 6 6 6 6 6 6 6 5X5X5X",
"5X5X5X5X5X5X5X2 2 r S { 9.M.Y.p.R d B { 9.C.Y.u.U d A | e.A.W.p.U 6 & 6 6 6 6 6 6 6 6 6 6 6 6 6 6 6 5X5X5X",
"5X5X5X5X5X5X6 2 ; m &.C.L.l.@.U d m >.Z.G.g.+.U h B >.Z.G.g.&.R z 6 2 6 6 6 6 6 6 6 6 6 6 6 6 6 6 6 5X5X5X",
"5X5X5X5X5X6 6 ; ; B a.OXXXe.M % & S h.+X[.9.m % & H l.%X'.6.m ; 6 6 6 6 6 6 6 6 6 6 6 6 6 6 6 6 6 6 5X5X5X",
"5X5X5X5X5X6 6 ; & B h.%XXX6.d   # S l.%XXX4.r   % H b.*X[.2.r # ; 6 6 6 6 6 6 6 6 6 6 6 6 6 6 6 6 6 5X5X5X",
"5X5X5X5X5X6 6 ; ; S h.@XoXe.h # % S l.%XXX6.d # % H b.%X[.2.d % 2 6 6 6 6 6 6 6 6 6 6 6 6 6 6 6 6 6 5X5X5X",
"5X5X5X5X5X6 6 2 ; M 9.~.R.>.d % % B e.~.L.&.d % & A u.~.L.@.d & 2 6 6 6 6 6 6 6 6 6 6 6 6 6 6 6 6 6 5X5X5X",
"5X5X5X5X5X6 6 2 2 d ! 2.>.R r ; 2 d ( 2.>.U r ; 2 h _ 2.=.U r ; 6 6 6 6 6 6 6 6 6 6 6 6 6 6 6 6 6 6 5X5X5X",
"5X5X5X5X5X6 6 6 6 0 d c m u 6 6 6 6 d m c d 6 6 6 0 d m c u 6 6 6 6 6 6 6 6 6 6 6 6 6 6 6 6 6 6 6 6 5X5X5X",
"5X5X5X5X5X6 6 6 6 6 2 & ; 2 6 6 6 6 2 & ; 2 6 6 6 2 2 & ; 2 6 6 6 6 6 6 6 6 6 6 6 6 6 6 6 6 6 6 6 6 5X5X5X",
"5X5X5X5X5X6 6 6 6 6 2 ; 2 2 6 6 6 6 2 2 ; 6 6 6 6 6 2 2 2 2 6 6 6 6 6 6 6 6 6 6 6 6 6 6 6 6 6 6 6 6 5X5X5X",
"5X5X5X5X5X6 6 6 6 6 6 6 6 6 6 6 6 6 6 6 6 6 6 6 6 6 6 6 6 6 6 6 6 6 6 6 6 6 6 6 6 6 6 6 6 6 6 6 6 6 5X5X5X",
"5X5X5X5X5X6 6 6 6 6 6 6 6 6 6 6 6 6 6 6 6 6 6 6 6 6 6 6 6 6 6 6 6 6 6 6 6 6 6 6 6 6 6 6 6 6 6 6 6 6 5X5X5X",
"5X5X5X5X5X6 6 6 6 6 6 6 6 6 6 6 6 6 6 6 6 6 6 6 6 6 6 6 6 6 6 6 6 6 6 6 6 6 6 6 6 6 6 6 6 6 6 6 6 6 5X5X5X",
"5X5X5X5X5X5X6 6 6 6 6 6 6 6 6 6 6 6 6 6 6 6 6 6 6 6 6 6 6 6 6 6 6 6 6 6 6 6 6 6 6 6 6 6 6 6 6 6 6 6 5X5X5X",
"5X5X5X5X5X5X5X6 6 6 6 6 6 6 6 6 6 6 6 6 6 6 6 6 6 6 6 6 6 6 6 6 6 6 6 6 6 6 6 6 6 6 6 6 6 6 6 6 6 5X5X5X5X",
"5X5X5X5X5X5X5X5X6 6 6 6 6 6 6 6 6 6 6 6 6 6 6 6 6 6 6 6 6 6 6 6 6 6 6 6 6 6 6 6 6 6 6 6 6 6 6 6 5X5X5X5X5X",
"5X5X5X5X5X5X5X5X6 6 6 6 6 6 6 6 6 6 6 6 6 6 6 6 6 6 6 6 6 6 6 6 6 6 6 6 6 6 6 6 6 6 6 6 6 6 6 6 5X5X5X5X5X",
"5X5X5X5X5X5X5X5X6 6 6 6 6 6 6 6 6 6 6 6 6 6 6 6 6 6 6 6 6 6 6 6 6 6 6 6 6 6 6 6 6 6 6 6 6 6 6 6 5X5X5X5X5X",
"5X5X5X5X5X5X5X5X6 6 6 6 6 6 6 6 6 6 6 6 6 6 6 6 6 6 6 6 6 6 6 6 6 6 6 6 6 6 6 6 6 6 6 6 6 6 6 6 5X5X5X5X5X",
"5X5X5X5X5X5X5X5X6 6 6 6 6 6 6 6 6 6 6 6 6 6 6 6 6 6 6 6 6 6 6 6 6 6 6 6 6 6 6 6 6 6 6 6 6 6 6 5X5X5X5X5X5X",
"5X5X5X5X5X5X5X5X6 6 6 6 6 6 6 6 6 6 6 6 6 6 6 6 6 6 6 6 6 6 6 6 6 6 6 6 6 6 6 6 6 6 6 6 6 5X5X5X5X5X5X5X5X",
"5X5X5X5X5X5X5X5X6 6 6 6 6 6 6 6 6 6 6 6 6 6 6 6 6 6 6 6 6 6 6 6 6 6 6 6 6 6 6 6 6 6 6 6 6 5X5X5X5X5X5X5X5X",
"5X5X5X5X5X5X6 6 6 6 6 6 6 6 6 6 6 6 6 6 6 6 6 6 6 6 6 6 6 6 6 6 6 6 6 6 6 6 6 6 6 6 6 6 6 6 6 5X5X5X5X5X5X",
"5X5X5X5X5X6 6 6 6 6 6 6 6 6 6 6 6 6 6 6 6 6 6 6 6 6 6 6 6 6 6 6 6 6 6 6 6 6 6 6 6 6 6 6 6 6 6 6 5X5X5X5X5X",
"5X5X5X5X5X6 6 6 6 6 6 6 6 6 6 6 6 6 6 6 6 6 6 6 6 6 6 6 6 6 6 6 6 6 6 6 6 6 6 6 6 6 6 6 6 6 6 6 5X5X5X5X5X",
"5X5X5X6 6 6 6 6 6 6 6 5X5X5X5X5X5X5X5X5X5X5X5X5X5X5X5X5X5X5X5X5X5X5X5X5X5X5X5X5X5X5X6 6 6 6 6 6 6 6 5X5X5X",
"5X5X5X6 6 6 6 6 6 6 6 5X5X5X5X5X5X5X5X5X5X5X5X5X5X5X5X5X5X5X5X5X5X5X5X5X5X5X5X5X5X5X6 6 6 6 6 6 6 6 5X5X5X",
"5X5X6 6 6 6 6 6 6 6 5X5X5X5X5X5X5X5X5X5X5X5X5X5X5X5X5X5X5X5X5X5X5X5X5X5X5X5X5X5X5X5X5X6 6 6 6 6 6 6 6 5X5X",
"6 6 6 6 6 6 6 6 5X5X5X5X5X5X5X5X5X5X5X5X5X5X5X5X5X5X5X5X5X5X5X5X5X5X5X5X5X5X5X5X5X5X5X5X5X6 6 6 6 6 6 6 6 ",
"6 6 6 6 6 6 6 6 5X5X5X5X5X5X5X5X5X5X5X5X5X5X5X5X5X5X5X5X5X5X5X5X5X5X5X5X5X5X5X5X5X5X5X5X5X6 6 6 6 6 6 6 6 ",
"6 6 6 6 6 6 5X5X5X5X5X5X5X5X5X5X5X5X5X5X5X5X5X5X5X5X5X5X5X5X5X5X5X5X5X5X5X5X5X5X5X5X5X5X5X5X5X6 6 6 6 6 6 ",
"6 6 6 6 6 5X5X5X5X5X5X5X5X5X5X5X5X5X5X5X5X5X5X5X5X5X5X5X5X5X5X5X5X5X5X5X5X5X5X5X5X5X5X5X5X5X5X5X6 6 6 6 6 ",
"6 6 6 6 6 5X5X5X5X5X5X5X5X5X5X5X5X5X5X5X5X5X5X5X5X5X5X5X5X5X5X5X5X5X5X5X5X5X5X5X5X5X5X5X5X5X5X5X6 6 6 6 6 "
};
