/* XPM */
static char *monster_left_frame_2[] = {
/* columns rows colors chars-per-pixel */
"45 64 111 2 ",
"   c #D83164",
".  c #D83264",
"X  c #D83265",
"o  c #D83365",
"O  c #D83366",
"+  c #D83466",
"@  c #D83467",
"#  c #D83567",
"$  c #D83667",
"%  c #D83668",
"&  c #D93668",
"*  c #D93768",
"=  c #D93769",
"-  c #D93869",
";  c #D9386A",
":  c #D9396A",
">  c #D93A6A",
",  c #D93A6B",
"<  c #D93B6B",
"1  c #D93B6C",
"2  c #DA3C6C",
"3  c #DA3C6D",
"4  c #DA3D6D",
"5  c #DA3E6E",
"6  c #DA3F6E",
"7  c #DA406F",
"8  c #DA4070",
"9  c #DB4271",
"0  c #DB4472",
"q  c #DB4473",
"w  c #DB4674",
"e  c #DC4674",
"r  c #DC4775",
"t  c #DC4976",
"y  c #DC4A77",
"u  c #DC4B77",
"i  c #DC4B78",
"p  c #DD4C78",
"a  c #DD4C79",
"s  c #DD4D79",
"d  c #DE507C",
"f  c #DE517C",
"g  c #DE527D",
"h  c #DE557F",
"j  c #DF5680",
"k  c #DF5A83",
"l  c #DF5B83",
"z  c #E05F86",
"x  c #E05F87",
"c  c #E16389",
"v  c #E1648A",
"b  c #E2668C",
"n  c #E2678C",
"m  c #E2688D",
"M  c #E36C91",
"N  c #E36D91",
"B  c #E36F93",
"V  c #E47195",
"C  c #E47496",
"Z  c #E57597",
"A  c #E57798",
"S  c #E57799",
"D  c #E5789A",
"F  c #E5799A",
"G  c #E67C9D",
"H  c #E783A1",
"J  c #E885A3",
"K  c #E887A4",
"L  c #E888A5",
"P  c #E98AA7",
"I  c #E98DA9",
"U  c #EA8FAB",
"Y  c #EA90AC",
"T  c #EA92AD",
"R  c #EA94AE",
"E  c #EB95AF",
"W  c #EB97B1",
"Q  c #EC9AB3",
"!  c #EC9DB5",
"~  c #ED9FB7",
"^  c #EEA5BC",
"/  c #EFADC2",
"(  c #F0B0C3",
")  c #F0B3C6",
"_  c #F1B6C8",
"`  c #F1B8C9",
"'  c #F2BCCC",
"]  c #F3C1D0",
"[  c #F4C4D2",
"{  c #F4C4D3",
"}  c #F4C5D3",
"|  c #F4C8D5",
" . c #F5C8D6",
".. c #F5CCD8",
"X. c #F5CDD9",
"o. c #F6D0DC",
"O. c #F6D1DD",
"+. c #F7D4DF",
"@. c #F7D8E2",
"#. c #F8DCE5",
"$. c #F9DFE7",
"%. c #F9E0E8",
"&. c #FAE3EA",
"*. c #FAE4EB",
"=. c #FAE5EC",
"-. c #FCEFF3",
";. c #FDF4F7",
":. c #FDF7F9",
">. c #FEFCFD",
",. c white",
"<. c None",
/* pixels */
"<.<.<.<.<.<.<.<.: : : : : : : : : : : : : : : : : : : : : <.<.<.<.<.<.<.<.<.<.<.<.<.<.<.<.",
"<.<.<.<.<.<.<.<.: : : : : : : : : : : : : : : : : : : : : <.<.<.<.<.<.<.<.<.<.<.<.<.<.<.<.",
"<.<.<.<.<.<.<.: : : : : : : : : : : : : : : : : : : : : : : <.<.<.<.<.<.<.<.<.<.<.<.<.<.<.",
"<.<.<.<.<.<.: : : : : : : : : : : : : : : : : : : : : : : : : <.<.<.<.<.<.<.<.<.<.<.<.<.<.",
"<.<.<.<.<.: : : * * * : : * : : : : : : : : * : * * : : : : : : <.<.<.<.<.<.<.<.<.<.<.<.<.",
": : : : : : : * + o o o o * : : : : : : * + o o o o + : : : : : : : : : <.<.<.<.<.<.<.<.<.",
": : : : : : : 1 4 4 4 4 4 1 : : : : : : : 4 4 4 4 4 : : : : : : : : : : : <.<.<.<.<.<.<.<.",
": : : : : * : s v Z F Z m d 4 * : : * : e z V F A B j 9 * : : : : : : : : : <.<.<.<.<.<.<.",
": : : : * o 4 v ! ] o.| ^ B 9 + * : + : l T ' .. .) G s + * : : : : : : : : : <.<.<.<.<.<.",
": : : : * o 9 F [ :.>.>.o.J q o + : o : b ) ;.>.>.#.W d + + : : : : : : : : : : <.<.<.<.<.",
": : : : * o 7 F | >.>.>.+.K e o + : + : b _ ;.>.>.=.Q d + + : : : : : : : : : : : <.<.<.<.",
": : : : * o 4 F | >.>.>.+.K e o * : o : m _ ;.>.>.*.Q d + + : : : : : : : : : : : : <.<.<.",
": : : : : o 4 B / @.=.#._ A 9 + * : o : v ! O.*.&.{ L s + + : : : : : : : : : : : : <.<.<.",
": : : : : * 4 h A U R U G z 4 * * : + : s V L T T H v q * * : : : : : : : : : : : : <.<.<.",
": : : : : : : 4 q y s y e 9 : : : : : : 4 9 y s i y 9 : : : : : : : : : : : : : : : <.<.<.",
": : : : : : : * + o o o + * : : : : : : : + o o o + + : : : : : : : : : : : : : : : : <.<.",
": : : : : : : * * + + + * : : : : : : : * * + + + * * : : : : : : : : : : : : : : : : : : ",
": : : : : : : : : : : : : : : : : : : : : : : : : : : : : : : : : : : : : : : : : : : : : ",
": : : : : : : : : : : : : : : : : : : : : : : : : : : : : : : : : : : : : : : : : : : : : ",
": : : : : : : : : : : : : : : : : : : : : : : : : : : : : : : : : : : : : : : : : : : : : ",
": : : : : : : : : : : : : : : : : : : : : : : : : : : : : : : : : : : : : : : : : : : : : ",
": : : : : : : : : : : : : : : : : : : : : : : : : : : : : : : : : : : : : : : : : : : : : ",
": : : : : : : : : : : : : : : : : : : : : : : : : : : : : : : : : : : : : : : : : : : : : ",
": : : : : : : : : : : : : : : : : : : : : : : : : : : : : : : : : : : : : : : : : : : : : ",
"<.<.: : : : : : : : : : : : : : <.<.: : : : : : : : : : : : : : : : : : : : : : : : : : : ",
"<.<.<.: : : : : : : : : : : : : <.<.<.: : : : : : : : : : : : : : : : : : : : : : : : : : ",
"<.<.<.: : : : : : : : : : : : : <.<.<.: : : : : : : : : : : : : : : : : : : : : : : : : : ",
"<.<.<.: : : : : <.<.: : : : : : <.<.<.: : : : : : : : : : : : : : : : : : : : : : : : : : ",
"<.<.<.: : : : : <.<.<.: : : : : <.<.<.: : : : : : : : : : : : : : : : : : : : : : : : : : ",
"<.<.<.<.<.<.<.<.<.<.<.<.<.<.<.<.<.<.<.<.<.<.<.<.<.: : : : : : : : : : : : : : : : : : : : ",
"<.<.<.<.<.<.<.<.<.<.<.<.<.<.<.<.<.<.<.<.<.<.<.<.<.<.: : : : : : : : : : : : : : : : : : : ",
"<.<.<.<.<.<.<.<.<.<.<.<.<.<.<.<.<.<.<.<.<.<.<.<.<.<.: : : : : : : : : : : : : : : : : : : ",
"<.<.<.<.<.<.<.<.<.<.<.<.<.<.<.<.<.<.<.<.<.<.<.<.<.<.: : : : : : : : : : : : : : : : : : : ",
"<.<.<.<.<.<.<.<.<.<.<.<.<.<.<.<.<.<.<.<.<.<.<.<.<.<.: : : : : : : : : : : : : : : : : : : ",
"<.<.<.<.<.<.<.<.<.<.<.<.<.<.<.<.<.<.<.<.<.<.<.<.<.: : : : : : : : : : : : : : : : : : : : ",
": : : : : <.<.<.: : : : : <.<.<.: : : : : <.<.<.: : : : : : : : : : : : : : : : : : : : : ",
": : : : : <.<.<.: : : : : <.<.<.: : : : : <.<.<.: : : : : : : : : : : : : : : : : : : : : ",
": : : : : <.<.<.: : : : : : : : : : : : : <.<.<.: : : : : : : : : : : : : : : : : : : : : ",
": : : : : <.<.<.: : : : : : : : : : : : : <.<.<.: : : : : : : : : : : : : : : : : : : : : ",
": : : : : : <.: : : : : : : : : : : : : : : <.: : : : : : : : : : : : : : : : : : : : : : ",
": : : : : : : : : : : : : : : : : : : : : : : : : : : : : : : : : : : : : : : : : : : : : ",
": : : : : : : : : : : : : : : : : : : : : : : : : : : : : : : : : : : : : : : : : : : : : ",
": : : : : : : : : : : : : : : : : : : : : : : : : : : : : : : : : : : : : : : : : : : : : ",
": : : : : : : : : : : : : : : : : : : : : : : : : : : : : : : : : : : : : : : : : : : : : ",
": : : : : : : : : : : : : : : : : : : : : : : : : : : : : : : : : : : : : : : : : : : : : ",
"<.<.: : : : : : : : : : : : : : : : : : : : : : : : : : : : : : : : : : : : : : : : : <.<.",
"<.<.<.: : : : : : : : : : : : : : : : : : : : : : : : : : : : : : : : : : : : : : : <.<.<.",
"<.<.<.: : : : : : : : : : : : : : : : : : : : : : : : : : : : : : : : : : : : : : : <.<.<.",
"<.<.<.: : : : : : : : : : : : : : : : : : : : : : : : : : : : : : : : : : : : : : : <.<.<.",
"<.<.<.: : : : : : : : : : : : : : : : : : : : : : : : : : : : : : : : : : : : : : : <.<.<.",
"<.<.<.: : : : : : : : : : : : : : : : : : : : : : : : : : : : : : : : : : : : : : <.<.<.<.",
"<.<.<.: : : : : : : : : : : : : : : : : : : : : : : : : : : : : : : : : : : : : <.<.<.<.<.",
"<.<.<.: : : : : : : : : : : : : : : : : : : : : : : : : : : : : : : : : : : : : <.<.<.<.<.",
"<.<.<.<.: : : : : : : : : : : : : : : : : : : : : : : : : : : : : : : : : : : : <.<.<.<.<.",
"<.<.<.<.<.: : : : : : : : : : : : : : : : : : : : : : : : : : : : : : : : : : : <.<.<.<.<.",
"<.<.<.<.<.<.: : : : : : : : : : : : : : : : : : : : : : : : : : : : : : : : : <.<.<.<.<.<.",
"<.<.<.<.<.<.<.: : : : : : : : : : : : : : : : : : : : : : : : : : : : : : : <.<.<.<.<.<.<.",
"<.<.<.<.<.<.<.<.: : : : : : : : : : : : : : : : : : : : : : : : : : : : : <.<.<.<.<.<.<.<.",
"<.<.<.<.<.<.<.<.: : : : : : : : : : : : : : : : : : : : : : : : : : : : : <.<.<.<.<.<.<.<.",
"<.<.<.<.<.<.<.<.: : : : : : <.<.<.<.<.<.<.<.<.<.<.<.<.<.<.<.<.: : : : : : <.<.<.<.<.<.<.<.",
"<.<.<.<.<.<.<.<.: : : : : <.<.<.<.<.<.<.<.<.<.<.<.<.<.<.<.<.<.<.: : : : : <.<.<.<.<.<.<.<.",
"<.<.<.<.<.<.<.<.: : : : : <.<.<.<.<.<.<.<.<.<.<.<.<.<.<.<.<.<.<.: : : : : <.<.<.<.<.<.<.<.",
"<.<.<.<.<.<.<.<.: : : : : <.<.<.<.<.<.<.<.<.<.<.<.<.<.<.<.<.<.<.: : : : : <.<.<.<.<.<.<.<.",
"<.<.<.<.<.<.<.<.: : : : : <.<.<.<.<.<.<.<.<.<.<.<.<.<.<.<.<.<.<.: : : : : <.<.<.<.<.<.<.<."
};
