/* XPM */
static char *wall_north_plus_south_plus_east_frame_02[] = {
/* columns rows colors chars-per-pixel */
"64 64 7 1 ",
"  c #13171E",
". c #181D26",
"X c #1A202A",
"o c #222835",
"O c #242B39",
"+ c #272E3D",
"@ c #293141",
/* pixels */
"@@@@@X    X@@@@@@@@@@@@@@@@@@@@@@@@@@@@@@@@@@@@@@@@@@X    X@@@@@",
"@@@@@X    X@@@@@@@@@@@@@@@@@@@@@@@@@@@@@@@@@@@@@@@@@@X    X@@@@@",
"@@@@@X    X@@@@@@@@@@@@@@@@@@@@@@@@@@@@@@@@@@@@@@@@@@X    .oo+@@",
"@@@@@X    X@@@@@@@@@@@@@@@@@@@@@@@@@@@@@@@@@@@@@@@@@@X       o@@",
"@@@@@X    X@@@@@@@@@@@@@@@@@@@@@@@@@@@@@@@@@@@@@@@@@@X       o@@",
"@@@@@X    X@@@@@@@@@@@@@@@@@@@@@@@@@@@@@@@@@@@@@@@@@@Ooo     .XX",
"@@@@@X    X@@@@@@@@@@@@@@@@@@@@@@@@@@@@@@@@@@@@@@@@@@@@@        ",
"@@@@@X    X@@@@@@@@@@@@@@@@@@@@@@@@@@@@@@@@@@@@@@@@@@@@@        ",
"@@@@@X    X@@@@@@@@@@@@@@@@@@@@@@@@@@@@@@@@@@@@@@@@@@@@@@@o     ",
"@@@@@X    X@@@@@@@@@@@@@@@@@@@@@@@@@@@@@@@@@@@@@@@@@@@@@@@o     ",
"@@@@@X    X@@@@@@@@@@@@@@@@@@@@@@@@@@@@@@@@@@@@@@@@@@@@@@@OXXXXX",
"@@@@@X    X@@@@@@@@@@@@@@@@@@@@@@@@@@@@@@@@@@@@@@@@@@@@@@@@@@@@@",
"@@@@@X    X@@@@@@@@@@@@@@@@@@@@@@@@@@@@@@@@@@@@@@@@@@@@@@@@@@@@@",
"@@@@@X    X@@@@@@@@@@@@@@@@@@@@@@@@@@@@@@@@@@@@@@@@@@@@@@@@@@@@@",
"@@@@@X    X@@@@@@@@@@@@@@@@@@@@@@@@@@@@@@@@@@@@@@@@@@@@@@@@@@@@@",
"@@@@@X    X@@@@@@@@@@@@@@@@@@@@@@@@@@@@@@@@@@@@@@@@@@@@@@@@@@@@@",
"@@@@@X    X@@@@@@@@@@@@@@@@@@@@@@@@@@@@@@@@@@@@@@@@@@@@@@@@@@@@@",
"@@@@@X    X@@@@@@@@@@@@@@@@@@@@@@@@@@@@@@@@@@@@@@@@@@@@@@@@@@@@@",
"@@@@@X    X@@@@@@@@@@@@@@@@@@@@@@@@@@@@@@@@@@@@@@@@@@@@@@@@@@@@@",
"@@@@@X    X@@@@@@@@@@@@@@@@@@@@@@@@@@@@@@@@@@@@@@@@@@@@@@@@@@@@@",
"@@@@@X    X@@@@@@@@@@@@@@@@@@@@@@@@@@@@@@@@@@@@@@@@@@@@@@@@@@@@@",
"@@@@@X    X@@@@@@@@@@@@@@@@@@@@@@@@@@@@@@@@@@@@@@@@@@@@@@@OXXXXX",
"@@@@@X    X@@@@@@@@@@@@@@@@@@@@@@@@@@@@@@@@@@@@@@@@@@@@@@@o     ",
"@@@@@X    X@@@@@@@@@@@@@@@@@@@@@@@@@@@@@@@@@@@@@@@@@@@@@@@o     ",
"@@@@@X    X@@@@@@@@@@@@@@@@@@@@@@@@@@@@@@@@@@@@@@@@@@@@@        ",
"@@@@@X    X@@@@@@@@@@@@@@@@@@@@@@@@@@@@@@@@@@@@@@@@@@@@@        ",
"@@@@@X    X@@@@@@@@@@@@@@@@@@@@@@@@@@@@@@@@@@@@@@@@@@Ooo     .XX",
"@@@@@X    X@@@@@@@@@@@@@@@@@@@@@@@@@@@@@@@@@@@@@@@@@@X       o@@",
"@@@@@X    X@@@@@@@@@@@@@@@@@@@@@@@@@@@@@@@@@@@@@@@@@@X       o@@",
"@@@@@X    X@@@@@@@@@@@@@@@@@@@@@@@@@@@@@@@@@@@@@@@@@@X    .oo+@@",
"@@@@@X    X@@@@@@@@@@@@@@@@@@@@@@@@@@@@@@@@@@@@@@@@@@X    X@@@@@",
"@@@@@X    X@@@@@@@@@@@@@@@@@@@@@@@@@@@@@@@@@@@@@@@@@@X    X@@@@@",
"@@@@@X    X@@@@@@@@@@@@@@@@@@@@@@@@@@@@@@@@@@@@@@@@@@X    X@@@@@",
"@@@@@X    X@@@@@@@@@@@@@@@@@@@@@@@@@@@@@@@@@@@@@@@@@@X    X@@@@@",
"@@@@@X    X@@@@@@@@@@@@@@@@@@@@@@@@@@@@@@@@@@@@@@@@@@X    X@@@@@",
"@@@@@X    X@@@@@@@@@@@@@@@@@@@@@@@@@@@@@@@@@@@@@@@@@@X    X@@@@@",
"@@@@@X    X@@@@@@@@@@@@@@@@@@@@@@@@@@@@@@@@@@@@@@@@@@X    X@@@@@",
"@@@@@X    X@@@@@@@@@@@@@@@@@@@@@@@@@@@@@@@@@@@@@@@@@@X    X@@@@@",
"@@@@@X    X@@@@@@@@@@@@@@@@@@@@@@@@@@@@@@@@@@@@@@@@@@X    X@@@@@",
"@@@@@X    X@@@@@@@@@@@@@@@@@@@@@@@@@@@@@@@@@@@@@@@@@@X    X@@@@@",
"@@@@@X    X@@@@@@@@@@@@@@@@@@@@@@@@@@@@@@@@@@@@@@@@@@X    X@@@@@",
"@@@@@X    X@@@@@@@@@@@@@@@@@@@@@@@@@@@@@@@@@@@@@@@@@@X    X@@@@@",
"@@@@@X    X@@@@@@@@@@@@@@@@@@@@@@@@@@@@@@@@@@@@@@@@@@X    X@@@@@",
"@@@@@X    X@@@@@@@@@@@@@@@@@@@@@@@@@@@@@@@@@@@@@@@@@@X    X@@@@@",
"@@@@@X    X@@@@@@@@@@@@@@@@@@@@@@@@@@@@@@@@@@@@@@@@@@X    X@@@@@",
"@@@@@X    X@@@@@@@@@@@@@@@@@@@@@@@@@@@@@@@@@@@@@@@@@@X    X@@@@@",
"@@@@@X    X@@@@@@@@@@@@@@@@@@@@@@@@@@@@@@@@@@@@@@@@@@X    X@@@@@",
"@@@@@X    X@@@@@@@@@@@@@@@@@@@@@@@@@@@@@@@@@@@@@@@@@@X    X@@@@@",
"@@@@@X    X@@@@@@@@@@@@@@@@@@@@@@@@@@@@@@@@@@@@@@@@@@X    X@@@@@",
"@@@@@X    X@@@@@@@@@@@@@@@@@@@@@@@@@@@@@@@@@@@@@@@@@@X    X@@@@@",
"@@@@@X    X@@@@@@@@@@@@@@@@@@@@@@@@@@@@@@@@@@@@@@@@@@X    X@@@@@",
"@@@@@X    X@@@@@@@@@@@@@@@@@@@@@@@@@@@@@@@@@@@@@@@@@@X    X@@@@@",
"@@@@@X    X@@@@@@@@@@@@@@@@@@@@@@@@@@@@@@@@@@@@@@@@@@X    X@@@@@",
"@@@@@X    X@@@@@@@@@@@@@@@@@@@@@@@@@@@@@@@@@@@@@@@@@@X    X@@@@@",
"@@@@@X    X@@@@@@@@@@@@@@@@@@@@@@@@@@@@@@@@@@@@@@@@@@X    X@@@@@",
"@@@@@X    X@@@@@@@@@@@@@@@@@@@@@@@@@@@@@@@@@@@@@@@@@@X    X@@@@@",
"@@@@@X    X@@@@@@@@@@@@@@@@@@@@@@@@@@@@@@@@@@@@@@@@@@X    X@@@@@",
"@@@@@X    X@@@@@@@@@@@@@@@@@@@@@@@@@@@@@@@@@@@@@@@@@@X    X@@@@@",
"@@@@@X    X@@@@@@@@@@@@@@@@@@@@@@@@@@@@@@@@@@@@@@@@@@X    X@@@@@",
"@@@@@X    X@@@@@@@@@@@@@@@@@@@@@@@@@@@@@@@@@@@@@@@@@@X    X@@@@@",
"@@@@@X    X@@@@@@@@@@@@@@@@@@@@@@@@@@@@@@@@@@@@@@@@@@X    X@@@@@",
"@@@@@X    X@@@@@@@@@@@@@@@@@@@@@@@@@@@@@@@@@@@@@@@@@@X    X@@@@@",
"@@@@@X    X@@@@@@@@@@@@@@@@@@@@@@@@@@@@@@@@@@@@@@@@@@X    X@@@@@",
"@@@@@X    X@@@@@@@@@@@@@@@@@@@@@@@@@@@@@@@@@@@@@@@@@@X    X@@@@@"
};
