/* XPM */
static char *house[] = {
/* columns rows colors chars-per-pixel */
"64 64 2 1 ",
"  c None",
". c #86603A",
/* pixels */
"                                                                ",
"                                                                ",
"                                                                ",
"                             ........        ........           ",
"                             ........        ........           ",
"                           .............     ........           ",
"                           .............     ........           ",
"                           .............     ........           ",
"                        ...................  ........           ",
"                        ...................  ........           ",
"                        ...................  ........           ",
"                     ................................           ",
"                     ................................           ",
"                   ...........................  .....           ",
"                   ..........................   .....           ",
"                   ..........................   .....           ",
"                .............        ...........                ",
"                .............        ...........                ",
"                .............         ..........                ",
"             ...........        ...     ...........             ",
"             ...........        ...     ...........             ",
"           ...........     ..........     ...........           ",
"           ..........      ..........      ..........           ",
"           ..........      ..........      ..........           ",
"        ...........     ................     ...........        ",
"        ...........     ................     ...........        ",
"        ..........      ................      ..........        ",
"        ........     ......................     ...........     ",
"        ........     ......................     ...........     ",
"      ..........     ........................   ...........     ",
"     ...........     ........................   ...........     ",
"     ...........     ........................   ...........     ",
"                   .....                .....                   ",
"                   .....                .....                   ",
"                  ......                ......                  ",
"             ...........   .....   ..   ...........             ",
"             ...........   .....   ..   ...........             ",
"             ...........   .....   .....  .........             ",
"             ...........   .....   .....   ........             ",
"             ...........   .....   .....   ........             ",
"             ...........                   ..........           ",
"             ...........                   ..........           ",
"             ...........                   ..........           ",
"             ...........   .....   .....   ..........           ",
"             ...........   .....   .....   ..........           ",
"             ...........   .....   .....   ..........           ",
"             ...........   .....   .....   ..........           ",
"             ...........   .....   .....   ..........           ",
"             ..............                ..........           ",
"             ..............                ..........           ",
"             ..............               ...........           ",
"             ........................................           ",
"             ........................................           ",
"             ........................................           ",
"             ........................................           ",
"             ........................................           ",
"             ........................................           ",
"             ........................................           ",
"              .......................................           ",
"                ...................................             ",
"                ...................................             ",
"                                                                ",
"                                                                ",
"                                                                "
};
