/* XPM */
static char *player_left_frame_0[] = {
/* columns rows colors chars-per-pixel */
"64 63 18 1 ",
"  c None",
". c #060606",
"X c #1E1E1E",
"o c #454545",
"O c #575757",
"+ c #5A5A5A",
"@ c #6A6A6A",
"# c #838383",
"$ c #9C9C9C",
"% c #A2A2A2",
"& c #ABABAB",
"* c #ADADAD",
"= c #DEDEDE",
"- c #EEEEEE",
"; c #F2F2F2",
": c #F8F8F8",
"> c #FEFEFE",
", c #FFFFFF",
/* pixels */
"                                                                ",
"                                                                ",
"                                                                ",
"                                                                ",
"                                                                ",
"                                                                ",
"                                                                ",
"                                                                ",
"                                                                ",
"                                                                ",
"                ,,,,,,          ,,,,,,                          ",
"                ,,,,,,          ,,,,,,                          ",
"                ,,,,,,        ,,,,,,,,                          ",
"                ,,,,,,        ,,,,,,,,                          ",
"                ,,,,,,        ,,,,,,,,                          ",
"                ,,,,,,        ,,,,,,,,                          ",
"                ,,,,,,        ,,,,,,,,                          ",
"                ,,,,,,        ,,,,,,,,                          ",
"              ,,,,,,,,,,,,,,,,,,,,,,,,,,,,,,,,,,,,,             ",
"              ,,,,,,,,,,,,,,,,,,,,,,,,,,,,,,,,,,,,,             ",
"             ,,,,,,,,,,,,,,,,,,,,,,,,,,,,,,,,,,,,,,,            ",
"           ,,,,,,,,,,,,,,,,,,,,,,,,,,,,,,,,,,,,,,,,,,,          ",
"           ,,,,,,,,,,,,,,,,,,,,,,,,,,,,,,,,,,,,,,,,,,,          ",
"        ,,,,,%ooooO,,,,,,,,,,,,,,,,,,,,,,,,,,,,,,,,,,,          ",
"        ,,,,,#....X,,,,,,,,,,,,,,,,,,,,,,,,,,,,,,,,,,,          ",
"        ,,,,,#....X,,,,,,,,,,,,,,,,,,,,,,,,,,,,,,,,,,,          ",
"        ,,,,,#....X,,,,,,,,,,,,,,,,,,,,,,,,,,,,,,,,,,,,,,       ",
"        ,,,,,#....X,,,,,,,,,,,,,,,,,,,,,,,,,,,,,,,,,,,,,,       ",
"        ,,,,,&++++@,,=&&&&&,,,,,,,,,,,,,,,,,,,,,,,,,,,,,,       ",
"        ,,,,,,,,,,,,,$.....,,,,,,,,,,,,,,,,,,,,,,,,,,,,,,       ",
"        ,,,,,,,,,,,,,$.....,,,,,,,,,,,,,,,,,,,,,,,,,,,,,,       ",
"        ,,,,,,,,,,,,,$.....,,,,,,,,,,,,,,,,,,,,,,,,,,,,,,       ",
"        ,,,,,,,,,,,,,$.....,,,,,,,,,,,,,,,,,,,,,,,,,,,,,,       ",
"        ,,,,,,,,,,,,,$.....,,,,,,,,,,,,,,,,,,,,,,,,,,,,,,       ",
"        ,,,,,,,,,,,,,,----;,,,,,,,,,,,,,,,,,,,,,,,,,,,          ",
"        ,,,,,,,,,,,,,,,,,,,,,,,,,,,,,,,,,,,,,,,,,,,,,,          ",
"        ,,,,,,,,,,,,,,,,,,,,,,,,,,,,,,,,,,,,,,,,,,,,,,          ",
"        ,,,,,,,,,,,,,,,,,,,,,,,,,,,,,,,,,,,,,,,,,,,,,,          ",
"        ,,,,,,,,,,,,,,,,,,,,,,,,,,,,,,,,,,,,,,,,,,,,,,          ",
"        ,,,,,,,,,,,,,,,,,,,,,,,,,,,,,,,,,,,,,,,,,,,,            ",
"        ,,,,,,,,,,,,,,,,,,,,,,,,,,,,,,,,,,,,,,,,,,,             ",
"        ,,,,,,,,,,,,,,,,,,,,,,,,,,,,,,,,,,,,,,,,,,,             ",
"           ,,,,,,,,,,,,,,,,,,,,,,,,,,,,,,,,   ,,,,,             ",
"           ,,,,,,,,,,,,,,,,,,,,,,,,,,,,,,,,   ,,,,,             ",
"           ,,,,,,,,,,,,,,,,,,,,,,,,,,,,,,,,   ,,,,,             ",
"           ,,,,,      ,,,,,        ,,,,,,     ,,,,,             ",
"           ,,,,,      ,,,,,        ,,,,,      ,,,,,             ",
"          ,,,,,,      ,,,,,        ,,,,,,     ,,,,,             ",
"        ,,,,,,,,      ,,,,,        ,,,,,,,,   ,,,,,             ",
"        ,,,,,,,,      ,,,,,        ,,,,,,,,   ,,,,,             ",
"        ,,,,,,,,      ,,,,,        ,,,,,,,,   ,,,,,             ",
"        ,,,,,,,,      ,,,,,        ,,,,,,,,   ,,,,,             ",
"        ,,,,,,,,      ,,,,,        ,,,,,,,,   ,,,,,             ",
"        ,,,,,,        ,,,,,           ,,,,,   ,,,,,             ",
"        ,,,,,,        ,,,,,           ,,,,,   ,,,,,             ",
"        ,,,,,         ,,,,,           ,,,,,   ,,,,,             ",
"                                                                ",
"                                                                ",
"                                                                ",
"                                                                ",
"                                                                ",
"                                                                ",
"                                                                "
};
