/* XPM */
static char *player_right[] = {
/* columns rows colors chars-per-pixel */
"64 64 7 1 ",
"  c None",
". c gray3",
"X c #5A5A5A",
"o c gray57",
"O c gray68",
"+ c #E4E4E4",
"@ c white",
/* pixels */
"                                                                ",
"                                                                ",
"                                                                ",
"                                                                ",
"                                                                ",
"                                                                ",
"                                                                ",
"                                                                ",
"                                        @@@@@                   ",
"                                        @@@@@                   ",
"                                        @@@@@                   ",
"                        @@@@@           @@@@@                   ",
"                        @@@@@           @@@@@                   ",
"                        @@@@@@@@        @@@@@@@@                ",
"                        @@@@@@@@        @@@@@@@@                ",
"                        @@@@@@@@        @@@@@@@@                ",
"                        @@@@@@@@        @@@@@@@@                ",
"                        @@@@@@@@        @@@@@@@@                ",
"                        @@@@@@@@        @@@@@@@@                ",
"             @@@@@@@@@@@@@@@@@@@@@@@@@@@@@@@@@@@@@@@@           ",
"             @@@@@@@@@@@@@@@@@@@@@@@@@@@@@@@@@@@@@@@@           ",
"           @@@@@@@@@@@@@@@@@@@@@@@@@@@@@@@@@@@@@@@@@@@@@        ",
"           @@@@@@@@@@@@@@@@@@@@@@@@@@@@@@@@@@@@@@@@@@@@@        ",
"           @@@@@@@@@@@@@@@@@@@@@@@@@@@@@@@@@@@@@@@@@@@@@        ",
"        @@@@@@@@@@@@@@@@@@@@@@@@@@@@@@@@@@@@@@@@.....O@@@@@     ",
"        @@@@@@@@@@@@@@@@@@@@@@@@@@@@@@@@@@@@@@@@.....O@@@@@     ",
"        @@@@@@@@@@@@@@@@@@@@@@@@@@@@@@@@@@@@@@@@.....O@@@@@     ",
"        @@@@@@@@@@@@@@@@@@@@@@@@@@@@@@@@@@@@@@@@.....O@@@@@     ",
"        @@@@@@@@@@@@@@@@@@@@@@@@@@@@@@@@@@@@@@@@.....O@@@@@     ",
"        @@@@@@@@@@@@@@@@@@@@@@@@@@@@@oXXXXo@@@@@OOOOO+@@@@@     ",
"        @@@@@@@@@@@@@@@@@@@@@@@@@@@@@X....X@@@@@@@@@@@@@@@@     ",
"        @@@@@@@@@@@@@@@@@@@@@@@@@@@@@X....X@@@@@@@@@@@@@@@@     ",
"        @@@@@@@@@@@@@@@@@@@@@@@@@@@@@X....X@@@@@@@@@@@@@@@@     ",
"        @@@@@@@@@@@@@@@@@@@@@@@@@@@@@X....X@@@@@@@@@@@@@@@@     ",
"        @@@@@@@@@@@@@@@@@@@@@@@@@@@@@oXXXXo@@@@@@@@@@@@@@@@     ",
"        @@@@@@@@@@@@@@@@@@@@@@@@@@@@@@@@@@@@@@@@@@@@@@@@@@@     ",
"        @@@@@@@@@@@@@@@@@@@@@@@@@@@@@@@@@@@@@@@@@@@@@@@@@@@     ",
"          @@@@@@@@@@@@@@@@@@@@@@@@@@@@@@@@@@@@@@@@@@@@@@@@@     ",
"           @@@@@@@@@@@@@@@@@@@@@@@@@@@@@@@@@@@@@@@@@@@@@@@@     ",
"           @@@@@@@@@@@@@@@@@@@@@@@@@@@@@@@@@@@@@@@@@@@@@@@@     ",
"           @@@@@@@@@@@@@@@@@@@@@@@@@@@@@@@@@@@@@@@@@@@@@        ",
"           @@@@@@@@@@@@@@@@@@@@@@@@@@@@@@@@@@@@@@@@@@@@@        ",
"           @@@@@@@@@@@@@@@@@@@@@@@@@@@@@@@@@@@@@@@@@@@@@        ",
"             @@@@@@@@@@@@@@@@@@@@@@@@@@@@@@@@@@@@@@@@@@@        ",
"             @@@@@@@@@@@@@@@@@@@@@@@@@@@@@@@@@@@@@@@@@@@        ",
"             @@@@@@     @@@@@@       @@@@@@       @@@@@@        ",
"             @@@@@@     @@@@@        @@@@@@        @@@@@        ",
"             @@@@@@     @@@@@        @@@@@@        @@@@@        ",
"           @@@@@@@@     @@@@@        @@@@@@@@      @@@@@        ",
"           @@@@@@@@     @@@@@        @@@@@@@@      @@@@@        ",
"           @@@@@@@@     @@@@@         @@@@@@@      @@@@@        ",
"           @@@@@@@@     @@@@@           @@@@@      @@@@@        ",
"           @@@@@@@@     @@@@@           @@@@@      @@@@@        ",
"           @@@@@        @@@@@           @@@@@      @@@@@        ",
"           @@@@@        @@@@@           @@@@@      @@@@@        ",
"           @@@@@        @@@@@           @@@@@      @@@@@        ",
"                                                                ",
"                                                                ",
"                                                                ",
"                                                                ",
"                                                                ",
"                                                                ",
"                                                                ",
"                                                                "
};
