/* XPM */
static char *lava_frame_0[] = {
/* columns rows colors chars-per-pixel */
"64 64 2 1 ",
"  c None",
". c #ff2516",
/* pixels */
"                             ........                           ",
"                             ........                           ",
"                             .........                          ",
"                        ...................                     ",
"                        ...................                     ",
"           .....      .......................                   ",
"           .....     ........................                   ",
"           .....     ........................                   ",
"         ..................................................     ",
"        ...................................................     ",
"        ...................................................     ",
"        .....................................................   ",
"        .....................................................   ",
"      .......................................................   ",
"     ........................................................   ",
"     ........................................................   ",
"   ..........................................................   ",
"   ..........................................................   ",
"   ...........................................................  ",
"   .............................................................",
"   .............................................................",
"   .............................................................",
"   .............................................................",
"   .............................................................",
"................................................................",
"................................................................",
"................................................................",
".............................................................   ",
".............................................................   ",
".............................................................   ",
".............................................................   ",
".............................................................   ",
".............................................................   ",
".............................................................   ",
"..............................................................  ",
"................................................................",
"................................................................",
"................................................................",
"................................................................",
"................................................................",
"   ..........................................................   ",
"   ..........................................................   ",
"   ..........................................................   ",
"   ........................................................     ",
"   ........................................................     ",
"   ..........................................................   ",
"   ..........................................................   ",
"   ..........................................................   ",
"     ........................................................   ",
"     ........................................................   ",
"      .......................................................   ",
"        .....................................................   ",
"        .....................................................   ",
"        ...................................................     ",
"        ...................................................     ",
"         ..................................................     ",
"           ................................................     ",
"           ................................................     ",
"           ...............................................      ",
"                ........................        ........        ",
"                ........................        ........        ",
"                          .........                             ",
"                           ........                             ",
"                           ........                             "
};
