/* XPM */
static char *restart[] = {
/* columns rows colors chars-per-pixel */
"172 20 181 2 ",
"   c #1E4634",
".  c #144E35",
"X  c #1C4D36",
"o  c red",
"O  c red",
"+  c #145336",
"@  c #1C5237",
"#  c #105835",
"$  c #155539",
"%  c #1D5139",
"&  c #15583A",
"*  c #1B583E",
"=  c #244535",
"-  c #214C37",
";  c #23473A",
":  c #2C463B",
">  c #224D3B",
",  c #2A4B3D",
"<  c #22513B",
"1  c #29513F",
"2  c #1E4E40",
"3  c #1E5141",
"4  c #1C5A40",
"5  c #224E40",
"6  c #2A4C41",
"7  c #374D44",
"8  c #245042",
"9  c #2A5041",
"0  c #2A5A45",
"q  c #2F5B49",
"w  c #325345",
"e  c #3B5145",
"r  c #375847",
"t  c #325749",
"y  c #3C524A",
"u  c #325A4B",
"i  c #3A594C",
"p  c #375E52",
"a  c #3C5D51",
"s  c #1C6643",
"d  c #216445",
"f  c #3C6856",
"g  c #2D7654",
"h  c #2E7855",
"j  c #2F7658",
"k  c #337655",
"l  c #327956",
"z  c #347658",
"x  c #327959",
"c  c #424E49",
"v  c #4C5E55",
"b  c #496C4A",
"n  c #4F704A",
"m  c #436355",
"M  c #436B5A",
"N  c #4C6C62",
"B  c #4C7365",
"V  c #477864",
"C  c #4A7A65",
"Z  c #547265",
"A  c #5D7166",
"S  c #55746A",
"D  c #557D6C",
"F  c #5C7B6E",
"G  c #5D7C72",
"H  c #61786E",
"J  c #647A71",
"K  c #697F75",
"L  c #398F67",
"P  c #4C865A",
"I  c #428A69",
"U  c #43996F",
"Y  c #56956B",
"T  c #5D8474",
"R  c #5D8B78",
"E  c #479771",
"W  c #4B9674",
"Q  c #469A71",
"!  c #4B9974",
"~  c #4D9679",
"^  c #4C9978",
"/  c #529A77",
"(  c #5E9E75",
")  c #539B79",
"_  c #5C9F7B",
"`  c #648277",
"'  c #67877C",
"]  c #6D877D",
"[  c #658D7D",
"{  c #6B8C7E",
"}  c #74817C",
"|  c #708A7F",
" . c #629F75",
".. c #69907F",
"X. c #629E7C",
"o. c #6D9C7C",
"O. c #4EA177",
"+. c #4FA57B",
"@. c #4DA97B",
"#. c #56A377",
"$. c #5DA176",
"%. c #52A877",
"&. c #53A57D",
"*. c #5BA37C",
"=. c #55A97C",
"-. c #5AA97D",
";. c #61A276",
":. c #61A27A",
">. c #67A57B",
",. c #6F8D81",
"<. c #738F84",
"1. c #7B8C83",
"2. c #7C8E89",
"3. c #6B9183",
"4. c #759688",
"5. c #7C948A",
"6. c #7C9C8E",
"7. c #7E9D94",
"8. c #55A682",
"9. c #5BA481",
"0. c #54AA82",
"q. c #5AA982",
"w. c #62A481",
"e. c #81948D",
"r. c #8C918B",
"t. c #859C93",
"y. c #8A9993",
"u. c #929C98",
"i. c #82A195",
"p. c #8AA69B",
"a. c #8DA99D",
"s. c #93A49C",
"d. c #8CA7A0",
"f. c #93ACA2",
"g. c #9EABA3",
"h. c #9CAFAA",
"j. c #94B5A8",
"k. c #9AB5AA",
"l. c #97B8AE",
"z. c #A1A7A4",
"x. c #A2B4AE",
"c. c #A7B4B0",
"v. c #B2BEB9",
"b. c #ADC2B7",
"n. c #A6C6BA",
"m. c #ADC4BC",
"M. c #B3C5BE",
"N. c #B6CBC5",
"B. c #B9CAC4",
"V. c #B6CDC8",
"C. c #BCCEC8",
"Z. c #B5D1C5",
"A. c #B8D3C6",
"S. c #B6D3CC",
"D. c #BBD3CB",
"F. c #C2CECB",
"G. c #C2D2CD",
"H. c #CBDDD6",
"J. c #CDDDD8",
"K. c #D3DBD5",
"L. c #D3DFDA",
"P. c #CEE6DF",
"I. c #D5E5DC",
"U. c #D4E6E2",
"Y. c #D5E8E5",
"T. c #DEEDE5",
"R. c #DEF5EF",
"E. c #E2EBE6",
"W. c #E2EDEA",
"Q. c #E8ECE8",
"!. c #E5F3EE",
"~. c #EAF5EF",
"^. c #E6F5F1",
"/. c #E8F3F0",
"(. c #EDFBF5",
"). c #E3FFF8",
"_. c #ECFFFA",
"`. c #F3FCF6",
"'. c #F8FDF7",
"]. c #F4FEFB",
"[. c #FAFEFC",
/* pixels */
"P *.w.w.9.9.8.9.9.*.-.&.9.*.8.8.9.8.&.*.*.*.*.9.*.9.9.*.*.*.*.*.&.*.9.8.*.&.*.*.&.*.8.*.-.9.8.&.*.*.&.*.9.8.*.&.-.*.#.*.#.#.#.*.q.w.*.-.*.*.*.*.*.=.&.*._ *._ 9.9.9.9.q.w.$.$.*.$.*.*.:.:.*.*.) *.9.*.8._ 9.*.) *._ 9.9.*.9.*.*.*.*.*.*.*.$.*.$.-.:.*.*.9.*.9.9.9.9.) =.*.9.$.*.*.$.*.*.*.*.*.*.*.*.$.$.-.&.*.*.8.9.9.9.9.9.q.9.9.*.*.*.*.#.*.=.-.*.$.P ",
"-.&./ / ^ ^ ^ ^ ! ! W ^ ^ ~ ^ ^ W ~ ^ W ! ~ ^ ~ ~ ~ ! / ^ ~ ^ ^ ^ ^ ^ ^ ^ ~ ^ ! ^ ^ ^ ~ ^ ^ ~ W ! E ! ^ ^ ^ ! ~ ! W ! ! ! E ! ! ^ ! ! ! E W ! ! Q ! W ! W W ~ ~ ~ / ^ ) ^ ! W / ! W W / ! ! W W W / ^ W W ~ W W W ~ ! / ^ ! ~ W W ~ W E Q E U U ! ! / ! ~ ~ ~ ~ ~ ~ ^ E W E ! ! ! / / ! / ! / ~ W W ! ! W ! E E E ~ ~ ~ ~ 8.~ E ~ W ! ~ ! E Q Q E ^ q.>.",
"#.&.d + + & & & & & + & $ $ $ & $ $ $ $ & & & $ % $ $ $ + & & $ + & $ & $ $ $ # $ $ $ $ & + & + $ $ + $ $ & & $ & $ o $ o + . & & + & & $ $ 4 & & & & + + + + < + & $ $ & * * $ $ % . @ @ @ $ + * & % $ $ $ . $ $ + * & * $ * $ & % X $ * $ & & & * $ % % $ % $ $ & $ $ $ & & $ $ $ $ $ & % $ $ $ @ & & $ $ $ & & * $ 4 2 2 o 3 $ & $ @ & & & & & s O.:.",
"-.Q + X O @ % % % % % % % % % % % % % % @ < - - < - - < > % % O > @ % @ O % % % % % % % % % % % % % % % O % O > < , 5 9 , > o % % % O , > ; 5 > % < O - O > > O < - < < 8 % O > X - < > > > X X % % O O < < %   X O O O O % < 9 > 1 > = ; X o o < < < > 2 > O > O % @ @ o % O X < < > < - < < > - - - - o % % % O O O % o O O O - < % % % % % % % # Q -.",
"=.! $ X - - < < > - < - > > > > O > > < > < > > > > < > > < - < < - < > - < - > O X < - < - < - - > - > > > > > w D.G.G.G.k., > X O D.G.D.D.G.,.< - > , a.D.A.D.4.X > - : 6.D.D.S.S.N > > r G.Z.n.X > O >   i.A.D.D.6.= > , : = V.D.A.D.D.3.$ $ > > > > > > - > - > - X - O > > > - > > > > > > - > > > > - % > > O 5 > , > > > < < > < > % > > - + Q -.",
"-.! & @ O - < - < X @ > O O O > O O O O X @ @ % - @ X X @ X @ - % - - @ - X < @ @ O - % > @ - % @ % @ % @ X < - 1.].[.].].W.Z - - ; (.[.].].].i.< - : s.I.[.(._.f.> > Z g.K.[.[.]._.S > : y.'.[./.G O % > 6.I.[.`.].K.e.> ; e.z.[.].].`._.i.2 % - > > @ > > > > < > < < < < > O > < O O % - % % < < > < > < < > > O O > O 5 O % % - O % O O O O - + O.-.",
"-.O.+ X < - - < > % % O % O O O O O O O % X % X @ @ @ O @ @ % X - % < X % - < X - > X - X < X X % X X % O % X < b.[.G.c u.`.] > > , (.J.7 w t < < < i.`.T.e w t , X - e.`.'.[.I.y t 5 9 P.`.`.r.].p.O O < P.`.(.A 7 `.H.O 5 G.].[.[.[.v t 9 O % O O > - - - > < < > > > > > > > > - > O % % % O > < > > > > > > > > > > O 2 > O % % % O > O > > < @ E $.",
"-.O.# @ X - - @ O O O O O O O > > O O O O % % % - % % X O O O < % - X > @ % X O O % < X % - @ > O < @ O % % < < b.[.K : y.].<.5 > ; _.L.: > 2 O < < p.[.f., - O O - > i F F ].H.6 5 > , !.`.I.1.`.p.> < > P.~.F w 7 ].J.> O B G H J.].r , O O 3 O O > % < > < > > O < < > < > O - < % % % % O O % O 3 O < > < > > 5 O O > O % o % % O O O O O O - + Q -.",
"-.O.& @ - @ - X < % O O O 5 O O O O O O O % O O % @ - % % % > O X < X X @ > O O O O > @ @ X O % % O O % % < @ > b.`.m 9 2.].<.> > ; (.K.6 O $ % > > p.].!., ; > O O > > O ; _.H., 3 8 ; ~.E.: K ].p.5 > 5 U.~.; > : ].J.O O 2 2 6 C.].u o O O 2 O O O > O % > % % < > < 3 > O O O O O O 2 $ % 2 % 5 % 3 2 % 2 3 < 3 O O O O O % O 2 2 O 2 O 5 O @ + Q $.",
"%.U # X - - % > O O O O O O O O O O O O O o O O % - X O > O O O O > @ > @ O O O O O O - > < X O O O O > X X % > M.`.2.,.^.W.D 2 O ; `.`.E.j.O % < > | `.].T.J > 5 > > ; 5 ; `.H.> % % ; ~.Q.J s.'.i.5 O 6 U.~.K 5.T.T.f.2 o O 5 6 C.].u 2 2 O O O O O O O O O < O 3 O > 5 % > O O O O O O 2 O O 2 % 3 > O 2 > > > O O > O O O O O O O O O O O O < + U #.",
"-.U # O X - X O O % O O O O O O 2 O O O O O o O X X O O > O O O O % X O > > O O > O % O X > > O > O O O O O > > M.[.[.[.`.N.5 O O w (.'.E.j.O % % > : H.~.`.G.c   > X ; , ; ].H.> O > ; ~.'._.[.[.d.5 5 6 U.[.].].[.f.X O 3 5 ; : F.].t O O 2 O O O 2 2 2 O O % O O O 2 O O O O O O O O O O 2 O 2 o O O 2 O 2 O > O O O > O > O O O O 2 O 2 O 2 > + U -.",
"-.U # O < - > O O O O O O O O > 2 O O O O O O O X > O X O O O > O > @ O O O O O O O O O O % O O O O O > O @ % > M.[.[.[.h.; > O   k.].g.: ; , 5 , > - : { p.!.(.S O O O % > `.P.> % O : Q./.p.v.[.C.] 5 5 L.'.'.'.].: O o 2 O O 5 C.].t O O O > 5 O O O O % O % % O O O O > O > > O O O O O O O % O 3 O O O O O O O O > O O O O O 2 O 5 O O > O < + U $.",
"=.L # > > - > > > % O 2 3 > > % > > O 2 O 2 O O X > > > > O 5 O O O @ O % O O O > 5 O O X % O O O > O > O O @ - M.[.[.].m.N 6 ; ; x.].Z > O ; ; , , i 9 - > B.[.f.; O O - > ].J.> % O ; /.Y.5 K [.].V.5 2 U.[.[.[.'.v 6 O O O 2 ; C.[.t O O > 5 2 O O O 2 O O 3 % % O O > X > @ O X > O > O O O O 2 O O 3 O O O O O X > X < @ > O > O 2 O O > O - # U -.",
"0.Q # - - < < < % 8 < 3 % < < > O > O O O O O O > O > > > > 5 > O O O O O O > O > O O O @ O O > O O 5 > > o < > M.[.t.,.).R.S 6 6 x.`.Z o $ > ; - > a.N.x., H [.f.> > > > , `.J.; 5 > 6 /.Y.2 p 2.].V.O 2 U.(.} u.[.I.d.O > ; 2 5 C.].t o O O > O O O O O % O $ % < % 2 < < O - O O X - X O O O O $ O % $ O O O > O > - - X > X o O > O O < O O < + U -.",
"=.U & < < < < < % % % 5 % > < > O % O O % O % O @ O O o O O O O O % @ O O % O O O O % o O O O % O O O > O % > - m.`.m 6 C.].M.F 6 c.].h.7.7.t.S > ; p.(.^.t.c.[.d.> > > > ; [.J.; 2 5 6 /.Y.  5 a _.V.X O L./.6 a f.].T.N 5 5 5 5 F.].t o O O > O O O % % % % % % % % % @ O < @ % - % % % % O % O % % % O % % % @ O @ @ @ % @ < % % O % < @ @ - < + Q -.",
"@.U + < < @ < @ < % % % % % % % % % O O O % o % + @ % o $ O O O O @ o % O % O % O % O % @ O @ % O O O O O > - < n.).f - t ] _.l.6 x.].`.].].].t., ; t M D.].].^.i X O O 8 ; _.H.5 2 2 ; ^.Y.5 O p _.N.5 5 U.^.5 2 5 d.].e.5 2 X 6 V.].q % % @ o @ % $ % % % % % % % % % % @ @ @ @ @ @ @ @ % % % % % % $ % % % % % @ @ @ @ @ @ % % % % % @ @ @ @ < # Q %.",
"&.Q * < < 8 % > < < % O @ < @ < % % % O O o X % + $ % $ X o % X X O X @ O @ X O X @ O X X X O X X O O O X % % o C R 0 o % q [ V 3 B { { { | { M % % % % T [ ,.[ % $ $ o O O [ R % * $ o ' R @ + * ..C . X ` [ % $ * f 3.M $ . $ X T { < @ @ @ X @ @ @ @ @ % @ % % @ * < < @ @ @ @ @ @ @ @ @ @ @ @ % @ @ @ @ @ % @ @ @ % @ @ @ @ @ @ X @ @ @ @ @ & # Q %.",
"$.0.I z x z z z z z z z z z z z z z z z z z z z j z j z z z z z z z z z z z z z z z z z z z z z z z k z z z z j h j j x h g h g g g k k k k z x l k j h z z x h g g h h x x z g h g g x k k l h g g h P g k g k g x g z k h h g z x z g h g g k k g k k k k z x z x x k l l k k z k z k k k k k k k k k k k k l k k k k z k k k k k z z k k k k j L 0.-.",
"Y #.=.q.q.q.q.q.q.8.q.8.q.8.8.8.9.8.9.8.8.8.8.0.0.&.8.=.8.8.8.8.8.8.8.=.8.8.8.8.8.8.8.8.=.8.8.8.8.8.8.8.0.0.8.0.0.0.8.8.0.&.&.%.%.+.%.-.-.-.-.-.=.0.8.=.q.q.=.@.@.@.0.0.0.0.0.=.q.#.-.-.=.=.q.-.%.-.=.-.$.-.=.*.#.q.#.=.+.&.#.&.=.-.=.&.+.&.+.&.#.+.&.#.&.8.=.=.&.=.&.&.-.0.=.8.&.8.&.&.8.8.&.8.&.8.=.8.&.&.&.&.8.&.=.8.#.&.=.=.8.=.8.&.&.&.&.&.0.0.%.Y ",
"b o.*.3.w.:.:.*.:.:.*.:.:.:.:.X.*.:.:.*.;.:.*.:.*.*.*.:.*.:.:.*.:.*.X.X.X.;.:.:.X.;.*.:.X.*.:.:.:.*.;.*.*.*.:.*._ _ w.:.:.$.$.$.$.$.;.*.X.:.:.:.>.:.:.( :.:.:.:.&._ *.*.*.$._ ( ;. .X. .;.$.>.:.;.;.;.;.$.;.;. . .:.*.:._ :.X.:.:.:.*.$.$.$.*.$._ $._ _ _ :.:.X.:.:.:.;.;.$.*.X._ w.*.:.:.*.:.:.;.;.;.;.:.:.:.:.:.:.*.:.>.>.>.;.;.:. .>.*.X.:.*._ >.>.n "
};
