/* XPM */
static char *wall_east_frame_02[] = {
/* columns rows colors chars-per-pixel */
"64 64 11 1 ",
"  c #13171E",
". c #151A22",
"X c #181D26",
"o c #1A202A",
"O c #1D232E",
"+ c #1F2531",
"@ c #222835",
"# c #242B39",
"$ c #272E3D",
"% c #293141",
"& c None",
/* pixels */
"&&&&&%%%%%%%%%%%%%%%%%%%%%%%%%%%%%%%%%%%%%%%%%%%%%%%%%%%%%%%%%%%",
"&&&&&%%%%%%%%%%%%%%%%%%%%%%%%%%%%%%%%%%%%%%%%%%%%%%%%%%%%%%%%%%%",
"&&&&&%%%%%%%%%%%%%%%%%%%%%%%%%%%%%%%%%%%%%%%%%%%%%%%%%%%%%%%%%%%",
"&&&%%%%%%%%%%%%%%%%%%%%%%%%%%%%%%%%%%%%%%%%%%%%%%%%%%%%%%%%%%%%%",
"&&&%%%%%%%%%%%%%%%%%%%%%%%%%%%%%%%%%%%%%%%%%%%%%%%%%%%%%%%%%%%%%",
"%%%%%%%%%%#ooooooooooooooooooooooooooooooooooooooooooooooooooooo",
"%%%%%%%%%%@                                                     ",
"%%%%%%%%%%@                                                     ",
"%%%%%%%%                                                        ",
"%%%%%%%%                                                        ",
"%%%%%#@@     Xoooooooooooooooooooooooooooooooooooooooooooooooooo",
"%%%%%o       @%%%%%%%%%%%%%%%%%%%%%%%%%%%%%%%%%%%%%%%%%%%%%%%%%%",
"%%%%%o       @%%%%%%%%%%%%%%%%%%%%%%%%%%%%%%%%%%%%%%%%%%%%%%%%%%",
"%%%%%o       @%%%%%%%%%%%%%%%%%%%%%%%%%%%%%%%%%%%%%%%%%%%%%%%%%%",
"%%%%%o       @%%%%%%%%%%%%%%%%%%%%%%%%%%%%%%%%%%%%%%%%%%%%%%%%%%",
"%%%%%o       @%%%%%%%%%%%%%%%%%%%%%%%%%%%%%%%%%%%%%%%%%%%%%%%%%%",
"%%%%%o       @%%%%%%%%%%%%%%%%%%%%%%%%%%%%%%%%%%%%%%%%%%%%%%%%%%",
"%%%%%o       @%%%%%%%%%%%%%%%%%%%%%%%%%%%%%%%%%%%%%%%%%%%%%%%%%%",
"%%%%%o       O@@%%%%%%%%%%%%%%%%%%%%%%%%%%%%%%%%%%%%%%%%%%%%%%%%",
"%%%%%o          %%%%%%%%%%%%%%%%%%%%%%%%%%%%%%%%%%%%%%%%%%%%%%%%",
"%%%%%o          %%%%%%%%%%%%%%%%%%%%%%%%%%%%%%%%%%%%%%%%%%%%%%%%",
"%%%%%#@@        oooooooooooooooooooooooooooooooooooooooooooooooo",
"%%%%%%%%                                                        ",
"%%%%%%%%                                                        ",
"%%%%%%%%%%%%%%%%                                                ",
"%%%%%%%%%%%%%%%%                                                ",
"@@@@@$%%%%%%%%%%oooooooooooooooooooooooooooooooooooooooooooooooo",
"     @%%%%%%%%%%%%%%%%%%%%%%%%%%%%%%%%%%%%%%%%%%%%%%%%%%%%%%%%%%",
"     @%%%%%%%%%%%%%%%%%%%%%%%%%%%%%%%%%%%%%%%%%%%%%%%%%%%%%%%%%%",
"     Xoooo+%%%%%%%%%%%%%%%%%%%%%%%%%%%%%%%%%%%%%%%%%%%%%%%%%%%%%",
"          o%%%%%%%%%%%%%%%%%%%%%%%%%%%%%%%%%%%%%%%%%%%%%%%%%%%%%",
"          o%%%%%%%%%%%%%%%%%%%%%%%%%%%%%%%%%%%%%%%%%%%%%%%%%%%%%",
"%%@                                                             ",
"%%@                                                             ",
"%%#ooooo          .oooooooooo.    .ooooooooooooo        oooooooo",
"%%%%%%%%          o%%%%%%%%%%o    o%%%%%%%%%%%%%        %%%%%%%%",
"%%%%%%%%          o%%%%%%%%%%o    o%%%%%%%%%%%%%        %%%%%%%%",
"%%%%%%%%@@O  O@@@@#%%%%%%%%%%o  @@#%%%%%%%%%%%%%@@O  O@@%%%%%%%%",
"%%%%%%%%%%@  @%%%%%%%%%%%%%%%o  %%%%%%%%%%%%%%%%%%@  @%%%%%%%%%%",
"%%%%%%%%%%@  @%%%%%%%%%%%%%%%o  %%%%%%%%%%%%%%%%%%@  @%%%%%%%%%%",
"  o%%%%%%%@  @%%%%%%%%%%%%%%%o  %%%%%%%%%%%%%%%%%%@  @%%%%%%%%%%",
"  o%%%%%%%@  @%%%%%%%%%%%%%%%o  %%%%%%%%%%%%%%%%%%@  @%%%%%%%%%%",
"  X@@@@@@@O  O@@@@@@@@@@@@@@@X  @@@@@@@@@@@@@@@@@@O  O@@@@@@@@@@",
"                                                                ",
"                                                                ",
"@@@@@@@@@@@@@@@@     O@@@@@@@@@@@@@@@X       O@@@@@@@@@@@@@@@@@@",
"%%%%%%%%%%%%%%%%     @%%%%%%%%%%%%%%%o       @%%%%%%%%%%%%%%%%%%",
"%%%%%%%%%%%%%%%%     @%%%%%%%%%%%%%%%o       @%%%%%%%%%%%%%%%%%%",
"%%%%%%%%%%%%%%%%%%@  @%%%%%%%%%%%%%%%%%%  o%%%%%%%%%%%%%%%%%%%%%",
"%%%%%%%%%%%%%%%%%%@  @%%%%%%%%%%%%%%%%%%  o%%%%%%%%%%%%%%%%%%%%%",
"@@#%%%%%%%%%%%%%%%@  @%%%%%%%%%%%%%%%%%%  o%%%%%%%%%%%%%%%%%%#@@",
"  o%%%%%%%%%%%%%%%@  @%%%%%%%%%%%%%%%%%%  o%%%%%%%%%%%%%%%%%%o  ",
"  o%%%%%%%%%%%%%%%@  @%%%%%%%%%%%%%%%%%%  o%%%%%%%%%%%%%%%%%%o  ",
"  .oooooooooooooooX  Xoooooooooooooooooo  .oooooooooooooooooo.  ",
"                                                                ",
"                                                                ",
"%%%%%%%%     @%%%%%%%%%%%%%%%o    o%%%%%%%%%%%%%     @%%%%%%%%%%",
"%%%%%%%%     @%%%%%%%%%%%%%%%o    o%%%%%%%%%%%%%     @%%%%%%%%%%",
"%%%%%%%%ooX  @%%%%%%%%%%%%%%%o  oo+%%%%%%%%%%%%%  .oo#%%%%%%%%%%",
"%%%%%%%%%%@  @%%%%%%%%%%%%%%%o  %%%%%%%%%%%%%%%%  o%%%%%%%%%%%%%",
"%%%%%%%%%%@  @%%%%%%%%%%%%%%%o  %%%%%%%%%%%%%%%%  o%%%%%%%%%%%%%",
"&&%%%%%%%%@  Xoo%%%%%%%%%%%%%o  %%%%%%%%%%%%%%%%  o%%%%%%%%%%%%%",
"&&&%%%%%%%@     %%%%%%%%%%%%%o  %%%%%%%%%%%%%%%%  o%%%%%%%%%%%%%",
"&&&%%%%%%%@     %%%%%%%%%%%%%o  %%%%%%%%%%%%%%%%  o%%%%%%%%%%%%%"
};
