/* XPM */
static char *wall_frame_2[] = {
/* columns rows colors chars-per-pixel */
"64 64 3 1 ",
"  c None",
". c #13171E",
"X c #293141",
/* pixels */
"     XXXXXXXX                                        XXX        ",
"     XXXXXXXX                                        XXX        ",
"     XXXXXXXX                                         XX        ",
"   XX                                                      XX   ",
"   XX                                                      XX   ",
"XXX        .......                              ..         XXXXX",
"XXX        ........                             ...        XXXXX",
"XXX        ........                             ...        XXXXX",
"        ...                                          ...     XXX",
"        ...                                          ...     XXX",
"        ..                                            ..      XX",
"     ...     XXX                                        ...     ",
"     ...     XXX                                        ...     ",
"                                                   XX   ...     ",
"                                                   XX   ...     ",
"                                                   XX   ...     ",
"                                                   XX           ",
"                                                   XX           ",
"                                                   XX           ",
"             ...                                XXX             ",
"             ...                                XXX             ",
"                                                                ",
"                                                                ",
"                                                                ",
"           XXXXX                                XXXXX           ",
"           XXXXX                                XXXXX           ",
"           XXXXX                                XXXXX           ",
"   ..                                                           ",
"   ..                                                           ",
"        ..                                            ....      ",
"        ...                                          ......     ",
"        ...                                          ......     ",
"                                                                ",
"                                                                ",
"                                                                ",
"     XXX     ......        XX   ...                             ",
"     XXX     ......        XX   ...                             ",
"                                                                ",
"                                                                ",
"                                                                ",
"...                             XXX                             ",
"...                             XXX                             ",
"..                              XX                              ",
"                                                                ",
"                                                                ",
"                ..                                            XX",
"                ...                                          XXX",
"                ...                                          XXX",
"                                                                ",
"                                                                ",
"                                                                ",
"   XX                XXX                                     ...",
"   XX                XXX                                     ...",
"                                                                ",
"                                                                ",
"                                                                ",
"     XXX                                           ..           ",
"     XXX                                           ..           ",
"      XX                                           ..           ",
"XXX                                                             ",
"XXX                                                             ",
"                           XX                 XX              XX",
"                           XX                XXX             XXX",
"                           XX                XXX             XXX"
};
