/* XPM */
static char *wall_frame_1[] = {
/* columns rows colors chars-per-pixel */
"64 64 11 1 ",
"  c None",
". c #13171E",
"X c #151A22",
"o c #181D26",
"O c #1A202A",
"+ c #1D232E",
"@ c #1F2531",
"# c #222835",
"$ c #242B39",
"% c #272E3D",
"& c #293141",
/* pixels */
"             &&&&&&&&&&&&&&&&&&&&&&&&&&&&&&&&&&&&&&&&           ",
"             &&&&&&&&&&&&&&&&&&&&&&&&&&&&&&&&&&&&&&&&           ",
"             &&&&&&&&&&&&&&&&&&&&&&&&&&&&&&&&&&&&&&&&&          ",
"     &&&&&&&&&&&&&&&&&&&&&&&&&&&&&&&&&&&&&&&&&&&&&&&&&&&&&&     ",
"     &&&&&&&&&&&&&&&&&&&&&&&&&&&&&&&&&&&&&&&&&&&&&&&&&&&&&&     ",
"   &&&&&&&&&&&&&&&$OOOOOOOOOOOOOOOOOOOOOOOOOOOOO&&&&&&&&&&&     ",
"   &&&&&&&&&&&&&&&#.............................&&&&&&&&&&&     ",
"   &&&&&&&&&&&&&&&#.............................&&&&&&&&&&&     ",
"&&&&&&&&&&#..........................................#&&&&&&&   ",
"&&&&&&&&&&#..........................................#&&&&&&&   ",
"&&&&&&&&##O.....OOOOOOOOOOOOOOOOOOOOOOOOOOOOOOOO.....O##&&&&&&  ",
"&&&&&&&&........&&&&&&&&&&&&&&&&&&&&&&&&&&&&&&&&........&&&&&&&&",
"&&&&&&&&........&&&&&&&&&&&&&&&&&&&&&&&&&&&&&&&&........&&&&&&&&",
"&&&&&@OO.....O##&&&&&&&&&&&&&&&&&&&&&&&&&&&&&&&&##O.....&&&&&&&&",
"&&&&&O.......#&&&&&&&&&&&&&&&&&&&&&&&&&&&&&&&&&&&&#.....&&&&&&&&",
"&&&&&O.......#&&&&&&&&&&&&&&&&&&&&&&&&&&&&&&&&&&&&#.....&&&&&&&&",
"&&&&&O.......#&&&&&&&&&&&&&&&&&&&&&&&&&&&&&&&&&&&&#.......O&&&&&",
"&&&&&O.......#&&&&&&&&&&&&&&&&&&&&&&&&&&&&&&&&&&&&#.......O&&&&&",
"&&&&&O.......#&&&&&&&&&&&&&&&&&&&&&&&&&&&&&&&&&&##O.......O&&&&&",
"&&&&&O.......#&&&&&&&&&&&&&&&&&&&&&&&&&&&&&&&&&&..........O&&&&&",
"&&&&&O.......#&&&&&&&&&&&&&&&&&&&&&&&&&&&&&&&&&&..........O&&&&&",
"&&&&&$##.....oOOOOOOOOOOOOOOOOOOOOOOOOOOOOOOOOOO........##$&&&&&",
"&&&&&&&&................................................&&&&&&&&",
"&&&&&&&&................................................&&&&&&&&",
"&&&&&&&&&&#..........................................#&&&&&&&&&&",
"&&&&&&&&&&#..........................................#&&&&&&&&&&",
"##$&&&&&&&$OOOOOOOOOOOOOOOOOOOOOOOOOOOOOOOOOOOOOOOOOO$&&&&&&&$##",
"..O&&&&&&&&&&&&&&&&&&&&&&&&&&&&&&&&&&&&&&&&&&&&&&&&&&&&&&&&&&O..",
"..O&&&&&&&&&&&&&&&&&&&&&&&&&&&&&&&&&&&&&&&&&&&&&&&&&&&&&&&&&&O..",
"..XOOOOO&&&&&&&&&&&&&&&&&&&&&&&&&&&&&&&&&&&&&&&&&&&&&&&&&&$OOX..",
"........&&&&&&&&&&&&&&&&&&&&&&&&&&&&&&&&&&&&&&&&&&&&&&&&&&#.....",
"........&&&&&&&&&&&&&&&&&&&&&&&&&&&&&&&&&&&&&&&&&&&&&&&&&&#.....",
"&&#.......................................................O&&&&&",
"&&#.......................................................O&&&&&",
"&&$OOX.......oOOOOOOOOOOOOo.....OOOOOOOOOOOOOOOO........OO@&&&&&",
"&&&&&O.......#&&&&&&&&&&&&#.....&&&&&&&&&&&&&&&&........&&&&&&&&",
"&&&&&O.......#&&&&&&&&&&&&#.....&&&&&&&&&&&&&&&&........&&&&&&&&",
"&&&&&$####O..#&&&&&&&&&&&&$##o..&&&&&&&&&&&&&&&&##O..O##&&&&&&&&",
"&&&&&&&&&&#..#&&&&&&&&&&&&&&&O..&&&&&&&&&&&&&&&&&&#..#&&&&&&&&&&",
"&&&&&&&&&&#..#&&&&&&&&&&&&&&&O..&&&&&&&&&&&&&&&&&&#..#&&&&&&&&&&",
"&&&&&&&&&&#..#&&&&&&&&&&&&&&&O....O&&&&&&&&&&&&&&&#..#&&&&&&&O..",
"&&&&&&&&&&#..#&&&&&&&&&&&&&&&O....O&&&&&&&&&&&&&&&#..#&&&&&&&O..",
"##########O..O###############o....o###############O..O#######o..",
"................................................................",
"................................................................",
"##################O..O###############o.......O###############o..",
"&&&&&&&&&&&&&&&&&&#..#&&&&&&&&&&&&&&&O.......#&&&&&&&&&&&&&&&O..",
"&&&&&&&&&&&&&&&&&&#..#&&&&&&&&&&&&&&&O.......#&&&&&&&&&&&&&&&O..",
"&&&&&&&&&&&&&&&&&&#..#&&&&&&&&&&&&&&&&&&..O&&&&&&&&&&&&&&&&&&&&&",
"&&&&&&&&&&&&&&&&&&#..#&&&&&&&&&&&&&&&&&&..O&&&&&&&&&&&&&&&&&&&&&",
"#####$&&&&&&&&&&&&#..O##&&&&&&&&&&&&&&&&..O&&&&&&&&&&&&&&&&&&&&&",
".....#&&&&&&&&&&&&#.....&&&&&&&&&&&&&&&&..O&&&&&&&&&&&&&&&&&&&&&",
".....#&&&&&&&&&&&&#.....&&&&&&&&&&&&&&&&..O&&&&&&&&&&&&&&&&&&&&&",
".....oOOOOOOOOOOOOo.....OOOOOOOOOOOOOOOO..XOOOOOOOOOOOOOOOOOOOOO",
"................................................................",
"................................................................",
"&&&&&O.......#&&&&&&&&&&&&&&&O....O&&&&&&&&&&&&&..O&&&&&&&&&&&&&",
"&&&&&O.......#&&&&&&&&&&&&&&&O....O&&&&&&&&&&&&&..O&&&&&&&&&&&&&",
"&&&&&@OOOOo..#&&&&&&&&&&&&&&&O..OO@&&&&&&&&&&&&&..O&&&&&&&&&&&&&",
"   &&&&&&&#..#&&&&&&&&&&&&&&&O..&&&&&&&&&&&&&&&&..O&&&&&&&&&&&&&",
"   &&&&&&&#..#&&&&&&&&&&&&&&&O..&&&&&&&&&&&&&&&&..O&&&&&&&&&&&&&",
"   &&&&&&&#..oOO&&&&&&&&&&$OOX..&&&&&&&&&&&&&@OO..O&&&&&&&&&&&  ",
"   &&&&&&&#.....&&&&&&&&&&#.....&&&&&&&&&&&&&O....O&&&&&&&&&&   ",
"   &&&&&&&#.....&&&&&&&&&&#.....&&&&&&&&&&&&&O....O&&&&&&&&&&   "
};
