/* XPM */
static char *wall_west_frame_02[] = {
/* columns rows colors chars-per-pixel */
"64 61 48 1 ",
"  c #13171E",
". c #141820",
"X c #141920",
"o c #151921",
"O c #151A22",
"+ c #161A22",
"@ c #161A23",
"# c #161B23",
"$ c #171B24",
"% c #171C25",
"& c #181D26",
"* c #191E27",
"= c #191E28",
"- c #191F28",
"; c #1A1F29",
": c #1A202A",
"> c #1B202B",
", c #1B212B",
"< c #1C212C",
"1 c #1C222D",
"2 c #1D222D",
"3 c #1D232E",
"4 c #1E232F",
"5 c #1E242F",
"6 c #1E2430",
"7 c #1E2530",
"8 c #1F2531",
"9 c #202632",
"0 c #202733",
"q c #212734",
"w c #212834",
"e c #212835",
"r c #222835",
"t c #222936",
"y c #232937",
"u c #232A37",
"i c #232A38",
"p c #242B39",
"a c #242C3A",
"s c #252C3A",
"d c #252C3B",
"f c #252D3B",
"g c #262E3D",
"h c #272F3E",
"j c #282F3F",
"k c #283040",
"l c #293141",
"z c None",
/* pixels */
"llllllllllllllllllllllllllllllllllllllllllllllllllllllllzzzzzzzz",
"llllllllllllllllllllllllllllllllllllllllllllllllllllllllzzzzzzzz",
"lllllllllllllllllllllllllllllllllllllllllllllllllllllllllzzzzzzz",
"lllllllllllllllllllllllllllllllllllllllllllllllllllllllllllllzzz",
"lllllllllllllllllllllllllllllllllllllllllllllllllllllllllllllzzz",
"ooooooooooooooooooooooooooooooooooooooooooooooooooofllllllllllll",
"                                                   fllllllllllll",
"                                                   69qqqglllllll",
"                                                        tlllllll",
"                                                        tlllllll",
"ffffffffffffffffffffffffffffffffffffffffffffffff6       o%*lllll",
"llllllllllllllllllllllllllllllllllllllllllllllllt         olllll",
"lllllllllllllllllllllllllllllllllllllllllllllllli;;*;*    olllll",
"lllllllllllllllllllllllllllllllllllllllllllllllllllllp    $lllll",
"lllllllllllllllllllllllllllllllllllllllllllllllllllllp    $lllll",
"lllllllllllllllllllllllllllllllllllllllllllllllllllllp    olllll",
"lllllllllllllllllllllllllllllllllllllllllllllllllllllp    olllll",
"lllllllllllllllllllllllllllllllllllllllllllllllllllfpt    $lllll",
"lllllllllllllllllllllllllllllllllllllllllllllllllll%      olllll",
"lllllllllllllllllllllllllllllllllllllllllllllllllll%      olllll",
":::::::::::::::::::::::::::::::::::::::::::::::::::o    3tplllll",
"                                                        tlllllll",
"                                                 $o$oo%oilllllll",
"                                                :lllllllllllllll",
"                                                :lllllllllllllll",
"999999999999999999999999999999999999999999999999illllllllllllt33",
"llllllllllllllllllllllllllllllllllllllllllllllllllllllllllllj3  ",
"lllllllllllllllllllllllllllllllllllllllllllllllllllllljlljjjj3  ",
"lllllllllllllllllllllllllllllllllllllllllllllllllllllp          ",
"lllllllllllllllllllllllllllllllllllllllllllllllllllllp          ",
"65555556555555555555565555555555655555555555656666665:    o55555",
"                                                          olllll",
"                                                          olllll",
"jljjljjljj*         5jljjjljllt    %jljjjjjljjjl9       tlllllll",
"llllllllll*         6lllllllllt    ollllllllllll9       tlllllll",
"llllllllll63:  *:333tllllllllli  ;35llllllllllllf33o o:3plllllll",
"llllllllllllf  qllllllllllllllt  illlllllllllllllll% *llllllllll",
"llllllllllllp  qlllllllllllllli  tlllllllllllllllll% *llllllllll",
"llllllllllllf  tllllllllllllllt  illlllllllllllllll% %lllllll6oo",
"llllllllllllp  9lllllllllllllli  tlllllllllllllllll% *lllllll5  ",
"tttttttttttt6  3tttttttqttttqt5  6tttttqtttqttttttto ottttttt*  ",
"                                                                ",
"                                                                ",
"ppfppfpppfpfpfpfft     ipfpfppfppfpffp;       tffpfppffpfpfpfpfp",
"lllllllllllllllllg     lllllllllllllll3       jlllllllllllllllll",
"lllllllllllllllllj**o  jllllllllllllll6**  o**jlllllllllllllllll",
"llllllllllllllllllll3  lllllllllllllllllj  5llllllllllllllllllll",
"llllllllllllllllllll5  jllllllllllllllllj  3llllllllllllllllllll",
";;*;;gllllllllllllll5  jllllllllllllllllj  3lllllllllllllllll9;;",
"     gllllllllllllll3  llllllllllllllllll  3lllllllllllllllll3  ",
"     iffffffffffffff3  pfffffffffffffffff  3fffffffffffffffff:  ",
"                                                                ",
"                                                                ",
"  *q9tqq9to    3qqqqqqqqqqqqqq3    oqqqq9qqqqqqq3    oqqqqqqqqqq",
"  3lllllll*    qllllllllllllllt    $llllllllllll9    *llllllllll",
"oo3lllllll;oo  qlllllllllllllli  oo*llllllllllllq  oo:llllllllll",
"llllllllllllf  9llllllllllllllt  tllllllllllllll9  fllllllllllll",
"llllllllllllf  tllllllllllllllp  tllllllllllllllt  pllllllllllll",
"llllllllllllp  ;36llllllllllllp  tllllllllllllllq  fllllllllllll",
"llllllllllllf    ollllllllllllt  illllllllllllllq  fllllllllllll",
"llllllllllllp    olllllllllllli  illllllllllllllt  pllllllllllll"
};
