/* XPM */
static char *key_frame_0[] = {
/* columns rows colors chars-per-pixel */
"64 42 2 1 ",
"  c None",
". c #ffd700",
/* pixels */
"           .............                                        ",
"           .............                                        ",
"        ..................                                      ",
"        ...................                                     ",
"        ...................                                     ",
"     ........................                                   ",
"     ........................                                   ",
"     ........................                                   ",
"     ........        ........                                   ",
"     ........        ........                                   ",
"   ........             ........                                ",
"   ........             ........                                ",
"   ........             ........                                ",
"   ........             ........                .............   ",
"   ........             ........                .............   ",
"   .......              ........                .............   ",
"   .....                .....................................   ",
"   .....                .....................................   ",
"   .....                  ...................................   ",
"   .....                   ..................................   ",
"   .....                   ..................................   ",
"   .....                   ..................................   ",
"   .....                   ..................................   ",
"   .....                   ..................................   ",
"   ........                ........        ........  ........   ",
"   ........                ........        ........  ........   ",
"   ........             ........           ........  ........   ",
"   ........             ........           ........  ........   ",
"   ........             ........           ........  ........   ",
"     ......             ........           ........  ........   ",
"     ......             ........           ........  ........   ",
"     ......             ........           ........   .......   ",
"     ........        ........                ......     .....   ",
"     ........        ........                ......     .....   ",
"        .....................                                   ",
"        .....................                                   ",
"        .....................                                   ",
"           ................                                     ",
"           ................                                     ",
"           ...............                                      ",
"             ...........                                        ",
"             ...........                                        ",
};
