/* XPM */
static char *key_frame_2[] = {
/* columns rows colors chars-per-pixel */
"64 45 2 1 ",
"  c None",
". c #ffd725",
/* pixels */
"              ........                                          ",
"              ........                                          ",
"              ........                                          ",
"           .................                                    ",
"           .................                                    ",
"           .................                                    ",
"        .......................                                 ",
"        .......................                                 ",
"      ........        .........                                 ",
"      ........        .........                                 ",
"      ........        .........                                 ",
"      ........           ........                               ",
"      ........           ........                               ",
"      ........           ........                               ",
"   ........              ........              .................",
"   ........              ........              .................",
"   ........              ........              .................",
"   .....                    ....................................",
"   .....                    ....................................",
"   .....                    ....................................",
"   .....                    ....................................",
"   .....                    ....................................",
"   ......                   ....................................",
"   ........                 ....................................",
"   ........                 ....................................",
"   ........                 ........        .........  .........",
"   ........                 ........         ........   ........",
"   ........                 ........         ........   ........",
"   ........              ........            ........   ........",
"   ........              ........            ........   ........",
"   ........              ........            ........   ........",
"      .....           ...........            ........   ........",
"      .....           ...........            ........   ........",
"      .....           ...........            ........   ........",
"      ........     ..............            ........     ......",
"      ........     ..............            ........     ......",
"      ........     ..............            .......       .....",
"      .........................                                 ",
"      .........................                                 ",
"        ....................                                    ",
"        ....................                                    ",
"        ....................                                    ",
"           ...........                                          ",
"           ...........                                          ",
"           ...........                                          "
};
