/* XPM */
static char *_d5e7abaaa2448d6b9e143ce856e74eb_2[] = {
/* columns rows colors chars-per-pixel */
"24 24 3 1 ",
"  c None",
". c #13171E",
"X c #293141",
/* pixels */
"  XXX               X   ",
" X                    X ",
"X   ...           .   XX",
"   .                .  X",
"  .  X               .  ",
"                   X .  ",
"                   X    ",
"     .            X     ",
"                        ",
"    XX            XX    ",
" .                      ",
"   .                ..  ",
"                        ",
"  X  ..   X .           ",
"                        ",
".           X           ",
"                        ",
"      .                X",
"                        ",
" X      X              .",
"                        ",
"  X                .    ",
"X                       ",
"          X      X     X"
};
