/* XPM */
static char *dd963d7a522e42e3afec7c8e5ed45a8d_2[] = {
/* columns rows colors chars-per-pixel */
"20 24 3 1 ",
"  c None",
". c #272727",
"X c gray45",
/* pixels */
"   XXXXXXXXXXXXXXXX ",
" XXXXXX..........XXX",
"XXXX...........XXXXX",
"XXXXXXXXXXXXXXXXXXX ",
" XXXXXXXXXXXXXXXXXX ",
"   XX..........XX   ",
"   XX.......XX.XX   ",
"   XX.XX....XX.XX   ",
"   XX.XX.XX.XX.XX   ",
"   XX.XX.XX.XX.XX   ",
"   XX.XX.XX.XX.XX   ",
"   XX.XX.XX.XX.XX   ",
"   XX.XX.XX.XX.XX   ",
"   XX.XX.XX.XX.XX   ",
"   XX.XX.XX.XX.XX   ",
"   XX.XX.XX.XX.XX   ",
"   XX.XX.XX.XX.XX   ",
"   XX.XX.XX.XX.XX   ",
"  XXXXXXXXXXXXXXX   ",
" XXXXXXXXXXXXXXXXXX ",
"XXX...XXXXXXXXX..XXX",
"XXXXX............XXX",
" XXXXXXXXXXXXXXXXXXX",
"  XXXXXXXXXXXXXXXXX "
};
