/* XPM */
static char *dd963d7a522e42e3afec7c8e5ed45a8d_1[] = {
/* columns rows colors chars-per-pixel */
"20 22 3 1 ",
"  c None",
". c #272727",
"X c gray45",
/* pixels */
" XXXXXXXXXXXXXXXXX  ",
"XXXXXXX.......XXXXX ",
"XXX..............XXX",
"XXXXXXXXXXXXXXXXXXXX",
" XXXXXXXXXXXXXXXXXX ",
"   XX..........XX   ",
"   XX.XX.......XX   ",
"   XX.XX.XX.XX.XX   ",
"   XX.XX.XX.XX.XX   ",
"   XX.XX.XX.XX.XX   ",
"   XX.XX.XX.XX.XX   ",
"   XX.XX.XX.XX.XX   ",
"   XX.XX.XX.XX.XX   ",
"   XX.XX.XX.XX.XX   ",
"   XX.XX.XX.XX.XX   ",
"   XX.XX.XX.XX.XX   ",
"   XX.XX.XX.XX.XX   ",
"   XX.XX.XX.XX.XXX  ",
"   XX.XX.XXXXXXXXX  ",
" XXXXXXXXXXXXXXXXX  ",
" XX..XXXXXXXXXXX.XXX",
"XXXX.............XXX"
};
