/* XPM */
static char *pillar_frame_2[] = {
/* columns rows colors chars-per-pixel */
"53 64 24 1 ",
"  c None",
". c #272727",
"X c #2A2A2A",
"o c #2C2C2C",
"O c #2F2F2F",
"+ c #323232",
"@ c #343434",
"# c #353535",
"$ c #363636",
"% c #3A3A3A",
"& c #404040",
"* c #454545",
"= c gray30",
"- c #515151",
"; c #555555",
": c #5A5A5A",
"> c #5F5F5F",
", c #606060",
"< c #666666",
"1 c #686868",
"2 c #6F6F6F",
"3 c #707070",
"4 c #727272",
"5 c gray45",
/* pixels */
"        555555555555555555555555555555555555555555   ",
"        555555555555555555555555555555555555555555   ",
"        55555555551>>>>>>>>>>>>>>>>>>>>>>>>>>555555  ",
"   555555555555555;..........................15555555",
"   555555555555555;..........................15555555",
"5555555555>&&&&&&&#....................#>>>>>55555555",
"5555555555;............................%5555555555555",
"5555555555;............................%5555555555555",
"55555555555555555555555555555555555555555555555555   ",
"55555555555555555555555555555555555555555555555555   ",
"55555555555555555555555555555555555555555555555555   ",
"   55555555555555555555555555555555555555555555555   ",
"   55555555555555555555555555555555555555555555555   ",
"        55555=&&&&&&&&&&&&&&&&&&&&&&&&&=55555        ",
"        55555%.........................%55555        ",
"        55555%.........................%55555        ",
"        55555%.................#55555O.%55555        ",
"        55555%.................#55555O.%55555        ",
"        55555%.O&&&&&O.........#55555O.%55555        ",
"        55555%.O55555#.........#55555O.%55555        ",
"        55555%.O55555#.........#55555O.%55555        ",
"        55555%.O55555#.O>>>>>O.#55555O.%55555        ",
"        55555%.O55555#.#55555#.#55555O.%55555        ",
"        55555%.O55555#.#55555#.#55555O.%55555        ",
"        55555%.O55555#.#55555#.#55555O.%55555        ",
"        55555%.O55555#.#55555#.#55555O.%55555        ",
"        55555%.O55555#.#55555#.#55555O.%55555        ",
"        55555%.O55555#.#55555#.#55555O.%55555        ",
"        55555%.O55555#.#55555#.#55555O.%55555        ",
"        55555%.O55555#.#55555#.#55555O.%55555        ",
"        55555%.O55555#.#55555#.#55555O.%55555        ",
"        55555%.O55555#.#55555#.#55555O.%55555        ",
"        55555%.O55555#.#55555#.#55555O.%55555        ",
"        55555%.O55555#.#55555#.#55555O.%55555        ",
"        55555%.O55555#.#55555#.#55555O.%55555        ",
"        55555%.O55555#.#55555#.#55555O.%55555        ",
"        55555%.O55555#.#55555#.#55555O.%55555        ",
"        55555%.O55555#.#55555#.#55555O.%55555        ",
"        55555%.O55555#.#55555#.#55555O.%55555        ",
"        55555%.O55555#.#55555#.#55555O.%55555        ",
"        55555%.O55555#.#55555#.#55555O.%55555        ",
"        55555%.O55555#.#55555#.#55555O.%55555        ",
"        55555%.O55555#.#55555#.#55555O.%55555        ",
"        55555%.O55555#.#55555#.#55555O.%55555        ",
"        55555%.O55555#.#55555#.#55555O.%55555        ",
"        55555%.O55555#.#55555#.#55555O.%55555        ",
"        55555%.O55555#.#55555#.#55555O.%55555        ",
"        55555%.O55555#.#55555#.#55555O.%55555        ",
"     5555555555555555555555555555555555555555        ",
"     5555555555555555555555555555555555555555        ",
"     5555555555555555555555555555555555555555        ",
"   55555555555555555555555555555555555555555555555   ",
"   55555555555555555555555555555555555555555555555   ",
"55555555&&&&&&&&55555555555555555555555<&&&&&55555555",
"55555551.......O55555555555555555555555<.....15555555",
"55555551.......O55555555555555555555555<.....15555555",
"5555555555555%...............................15555555",
"5555555555555%...............................15555555",
"5555555555555=&&&&&&&&&&&&&&&&&&&&&&&&&&&&&&&55555555",
"   55555555555555555555555555555555555555555555555555",
"   55555555555555555555555555555555555555555555555555",
"     5555555555555555555555555555555555555555555555  ",
"     555555555555555555555555555555555555555555555   ",
"     555555555555555555555555555555555555555555555   "
};
