/* XPM */
static char *pillar_frame_1[] = {
/* columns rows colors chars-per-pixel */
"58 64 36 1 ",
"  c None",
". c #272727",
"X c #2A2A2A",
"o c #2E2E2E",
"O c #2F2F2F",
"+ c #313131",
"@ c #353535",
"# c #363636",
"$ c #3A3A3A",
"% c #3C3C3C",
"& c #3E3E3E",
"* c #404040",
"= c #444444",
"- c #454545",
"; c gray30",
": c #4E4E4E",
"> c #505050",
", c #535353",
"< c #545454",
"1 c #555555",
"2 c #575757",
"3 c #5C5C5C",
"4 c #5D5D5D",
"5 c #5E5E5E",
"6 c #606060",
"7 c #626262",
"8 c #656565",
"9 c #686868",
"0 c #696969",
"q c #6B6B6B",
"w c #6C6C6C",
"e c #6E6E6E",
"r c #6F6F6F",
"t c #707070",
"y c #717171",
"u c gray45",
/* pixels */
"   uuuuuuuuuuuuuuuuuuuuuuuuuuuuuuuuuuuuuuuuuuuuuuuuu      ",
"   uuuuuuuuuuuuuuuuuuuuuuuuuuuuuuuuuuuuuuuuuuuuuuuuu      ",
"   uuuuuuuuuuuuuuuuurrrrrrrrrrrrrrrrrrrrruuuuuuuuuuu      ",
"uuuuuuuuuuuuuuuuuuuu%...................*uuuuuuuuuuuuuu   ",
"uuuuuuuuuuuuuuuuuuuu%...................*uuuuuuuuuuuuuu   ",
"uuuuuuuur77777777777%...................*77777777ruuuuu   ",
"uuuuuuuu3......................................O.3uuuuuuuu",
"uuuuuuuu3........................................3uuuuuuuu",
"uuuuuuuu7%%%%%%%%%%%%%%%%%%%%%%%%%%%%%%%%%%%%%%%%7uuuuuuuu",
"uuuuuuuuuuuuuuuuuuuuuuuuuuuuuuuuuuuuuuuuuuuuuuuuuuuuuuuuuu",
"uuuuuuuuuuuuuuuuuuuuuuuuuuuuuuuuuuuuuuuuuuuuuuuuuuuuuuuuuu",
"uuuuuuuuuuuuuuuuuuuuuuuuuuuuuuuuuuuuuuuuuuuuuuuuuuuuuuuuuu",
"   uuuuuuuuuuuuuuuuuuuuuuuuuuuuuuuuuuuuuuuuuuuuuuuuuuuu   ",
"   uuuuuuuuuuuuuuuuuuuuuuuuuuuuuuuuuuuuuuuuuuuuuuuuuuuu   ",
"   uuuuuuuuuuu7>>>>>>>>>>>>>>>>>>>>>>>>>>>>7uuuuuuuuuuu   ",
"         uuuuu;............................;uuuuu         ",
"         uuuuu;............................;uuuuu         ",
"         uuuuu;..*>>>>>O...................;uuuuu         ",
"         uuuuu;..>uuuuu#...................;uuuuu         ",
"         uuuuu;..>uuuuu#...................;uuuuu         ",
"         uuuuu;..>uuuuu#..>>>>>>..#>>>>>*..;uuuuu         ",
"         uuuuu;..>uuuuu#..ruuuurOO#uuuuu>..;uuuuu         ",
"         uuuuu;..>uuuuu#..ruuuurOO#uuuuu>..;uuuuu         ",
"         uuuuu;..>uuuuu#..ruuuurOO#uuuuu>..;uuuuu         ",
"         uuuuu;..>uuuuu#..ruuuur..#uuuuu>..;uuuuu         ",
"         uuuuu;..>uuuuu#..ruuuur..#uuuuu>..;uuuuu         ",
"         uuuuu;..>uuuuu#..ruuuur..#uuuuu>..;uuuuu         ",
"         uuuuu;..>uuuuu#..ruuuur..#uuuuu>..;uuuuu         ",
"         uuuuu;..>uuuuu#..ruuuur..#uuuuu>..;uuuuu         ",
"         uuuuu;..>uuuuu#..ruuuur..#uuuuu>.O;uuuuu         ",
"         uuuuu;.O>uuuuu#..ruuuur..#uuuuu>.O;uuuuu         ",
"         uuuuu;..>uuuuu#..ruuuur..#uuuuu>OO;uuuuu         ",
"         uuuuu;..>uuuuu#..ruuuur..#uuuuu>..;uuuuu         ",
"         uuuuu;..>uuuuu#..ruuuur..#uuuuu>..;uuuuu         ",
"         uuuuu;.O>uuuuu#..ruuuur..#uuuuu>..;uuuuu         ",
"         uuuuu;..>uuuuu#..ruuuur..#uuuuu>..;uuuuu         ",
"         uuuuu;..>uuuuu#..ruuuur..#uuuuu>..;uuuuu         ",
"         uuuuu;..>uuuuu#..ruuuur..#uuuuu>..;uuuuu         ",
"         uuuuu;..>uuuuu#..ruuuur..#uuuuu>..;uuuuu         ",
"         uuuuu;..>uuuuu#..ruuuur..#uuuuu>..;uuuuu         ",
"         uuuuu;..>uuuuu#..ruuuur..#uuuuu>..;uuuuu         ",
"         uuuuu;..>uuuuu#..ruuuur..#uuuuu>..;uuuuu         ",
"         uuuuu;.O>uuuuu#..ruuuur..#uuuuu>OO;uuuuu         ",
"         uuuuu;..>uuuuu#..ruuuur..#uuuuu>.O;uuuuu         ",
"         uuuuu;..>uuuuu#..ruuuur..#uuuuu>..;uuuuu         ",
"         uuuuu;..>uuuuu#..ruuuur..#uuuuu>..;uuuuu         ",
"         uuuuu;..>uuuuu#..ruuuur..#uuuuu>..;uuuuu         ",
"         uuuuu;..>uuuuu#..ruuuur..#uuuuu>..;uuuuu         ",
"         uuuuu;..>uuuuu#..ruuuur..#uuuuu>OO;uuuuu         ",
"         uuuuu;..>uuuuu#..ruuuur..#uuuuu>..;uuuuuuuu      ",
"         uuuuu;..>uuuuu#..ruuuur..#uuuuu>..;uuuuuuuu      ",
"         uuuuu;..>uuuuu#..ruuuur..#uuuuu>..;uuuuuuuu      ",
"         uuuuu;..>uuuuu#..ruuuuu>>3uuuuur>>7uuuuuuuu      ",
"         uuuuu;..>uuuuu#..ruuuuuuuuuuuuuuuuuuuuuuuuu      ",
"         uuuuu;..>uuuuu#..ruuuuuuuuuuuuuuuuuuuuuuuuu      ",
"   uuuuuuuuuuur33ruuuuu733uuuuuuuuuuuuuuuuuuuuuuuuuu      ",
"   uuuuuuuuuuuuuuuuuuuuuuuuuuuuuuuuuuuuuuuuuuuuuuuuu      ",
"   uuuuuuuuuuuuuuuuuuuuuuuuuuuuuuuuuuuuuuuuuuuuuuuuu      ",
"   uuuuu7#####>uuuuuuuuuuuuuuuuuuuuuuuuuuuuuuu;##7uuuuuuuu",
"   uuuuu3.....;uuuuuuuuuuuuuuuuuuuuuuuuuuuuuuu*..3uuuuuuuu",
"   uuuuu3.....;uuuuuuuuuuuuuuuuuuuuuuuuuuuuuuu*..3uuuuuuuu",
"uuuuuuuuurr>..OOOOOOOOOOOOOOOOOOOOOOOOOOOOOOOOO..3uuuuuuuu",
"uuuuuuuuuuu>.....................................3uuuuuuuu",
"uuuuuuuuuuu>.....................................3uuuuuuuu"
};
