/* XPM */
static char *pillar_frame_0[] = {
/* columns rows colors chars-per-pixel */
"64 64 11 1 ",
"  c None",
". c #272727",
"X c #2F2F2F",
"o c #383838",
"O c #404040",
"+ c #515151",
"@ c #5A5A5A",
"# c #5D5D5D",
"$ c #626262",
"% c #6B6B6B",
"& c gray45",
/* pixels */
"        &&&&&&&&&&&&&&&&&&&&&&&&&&&&&&&&&&&&&&&&&&&&&&&&        ",
"        &&&&&&&&&&&&&&&&&&&&&&&&&&&&&&&&&&&&&&&&&&&&&&&&        ",
"        &&&&&&&&&&&&&$@@@@@@@@@@@@@@@@@@@@@@@@@@&&&&&&&&        ",
"     &&&&&&&&&&&&&&&&O..........................&&&&&&&&&&&     ",
"     &&&&&&&&&&&&&&&&O..........................&&&&&&&&&&&     ",
"     &&&&&&&&&&&OOOOOX....................o@@@@@&&&&&&&&&&&     ",
"     &&&&&&&&&&&..........................O&&&&&&&&&&&&&&&&     ",
"     &&&&&&&&&&&..........................O&&&&&&&&&&&&&&&&     ",
"     &&&&&&&&&&&&&&&&&&&&&&&&&&&&&&&&&&&&&&&&&&&&&&&&&&&&&&     ",
"     &&&&&&&&&&&&&&&&&&&&&&&&&&&&&&&&&&&&&&&&&&&&&&&&&&&&&&     ",
"      &&&&&&&&&&&&&&&&&&&&&&&&&&&&&&&&&&&&&&&&&&&&&&&&&&&&      ",
"        &&&&&&&&&&&&&&&&&&&&&&&&&&&&&&&&&&&&&&&&&&&&&&&&        ",
"        &&&&&&&&&&&&&&&&&&&&&&&&&&&&&&&&&&&&&&&&&&&&&&&&        ",
"             &&&&&$OOOOOOOOOOOOOOOOOOOOOOOOOO$&&&&&             ",
"             &&&&&@..........................@&&&&&             ",
"             &&&&&@..........................@&&&&&             ",
"             &&&&&@..@&&&&@..........@&&&&@..@&&&&&             ",
"             &&&&&@..@&&&&@..........@&&&&@..@&&&&&             ",
"             &&&&&@..@&&&&@..oOOOOo..@&&&&@..@&&&&&             ",
"             &&&&&@..@&&&&@..@&&&&@..@&&&&@..@&&&&&             ",
"             &&&&&@..@&&&&@..@&&&&@..@&&&&@..@&&&&&             ",
"             &&&&&@..@&&&&@..@&&&&@..@&&&&@..@&&&&&             ",
"             &&&&&@..@&&&&@..@&&&&@..@&&&&@..@&&&&&             ",
"             &&&&&@..@&&&&@..@&&&&@..@&&&&@..@&&&&&             ",
"             &&&&&@..@&&&&@..@&&&&@..@&&&&@..@&&&&&             ",
"             &&&&&@..@&&&&@..@&&&&@..@&&&&@..@&&&&&             ",
"             &&&&&@..@&&&&@..@&&&&@..@&&&&@..@&&&&&             ",
"             &&&&&@..@&&&&@..@&&&&@..@&&&&@..@&&&&&             ",
"             &&&&&@..@&&&&@..@&&&&@..@&&&&@..@&&&&&             ",
"             &&&&&@..@&&&&@..@&&&&@..@&&&&@..@&&&&&             ",
"             &&&&&@..@&&&&@..@&&&&@..@&&&&@..@&&&&&             ",
"             &&&&&@..@&&&&@..@&&&&@..@&&&&@..@&&&&&             ",
"             &&&&&@..@&&&&@..@&&&&@..@&&&&@..@&&&&&             ",
"             &&&&&@..@&&&&@..@&&&&@..@&&&&@..@&&&&&             ",
"             &&&&&@..@&&&&@..@&&&&@..@&&&&@..@&&&&&             ",
"             &&&&&@..@&&&&@..@&&&&@..@&&&&@..@&&&&&             ",
"             &&&&&@..@&&&&@..@&&&&@..@&&&&@..@&&&&&             ",
"             &&&&&@..@&&&&@..@&&&&@..@&&&&@..@&&&&&             ",
"             &&&&&@..@&&&&@..@&&&&@..@&&&&@..@&&&&&             ",
"             &&&&&@..@&&&&@..@&&&&@..@&&&&@..@&&&&&             ",
"             &&&&&@..@&&&&@..@&&&&@..@&&&&@..@&&&&&             ",
"             &&&&&@..@&&&&@..@&&&&@..@&&&&@..@&&&&&             ",
"             &&&&&@..@&&&&@..@&&&&@..@&&&&@..@&&&&&             ",
"             &&&&&@..@&&&&@..@&&&&@..@&&&&@..@&&&&&             ",
"             &&&&&@..@&&&&@..@&&&&@..@&&&&@..@&&&&&             ",
"             &&&&&@..@&&&&@..@&&&&@..@&&&&%@@%&&&&&             ",
"             &&&&&@..@&&&&@..@&&&&@..@&&&&&&&&&&&&&             ",
"             &&&&&@..@&&&&@..@&&&&@..@&&&&&&&&&&&&&             ",
"             &&&&&&&&&&&&&@..@&&&&&&&&&&&&&&&&&&&&&             ",
"             &&&&&&&&&&&&&@..@&&&&&&&&&&&&&&&&&&&&&             ",
"             &&&&&&&&&&&&&$OO$&&&&&&&&&&&&&&&&&&&&&             ",
"           &&&&&&&&&&&&&&&&&&&&&&&&&&&&&&&&&&&&&&&&&&&&&        ",
"           &&&&&&&&&&&&&&&&&&&&&&&&&&&&&&&&&&&&&&&&&&&&&        ",
"      &&&&@OOOOOOOOOO$&&&&&&&&&&&&&&&&&&&&&&&+OOOOOOOOOO&&      ",
"     &&&&&@..........@&&&&&&&&&&&&&&&&&&&&&&&O..........&&&     ",
"     &&&&&@..........@&&&&&&&&&&&&&&&&&&&&&&&O..........&&&     ",
"     &&&&&&&&&&&................................&&&&&&&&&&&     ",
"     &&&&&&&&&&&................................&&&&&&&&&&&     ",
"     &&&&&&&&&&&OOOOOOOOOOOOOOOOOOOOOOOOOOOOOOOO&&&&&&&&&&&     ",
"     &&&&&&&&&&&&&&&&&&&&&&&&&&&&&&&&&&&&&&&&&&&&&&&&&&&&&&     ",
"     &&&&&&&&&&&&&&&&&&&&&&&&&&&&&&&&&&&&&&&&&&&&&&&&&&&&&&     ",
"        &&&&&&&&&&&&&&&&&&&&&&&&&&&&&&&&&&&&&&&&&&&&&&&&        ",
"        &&&&&&&&&&&&&&&&&&&&&&&&&&&&&&&&&&&&&&&&&&&&&&&&        ",
"        &&&&&&&&&&&&&&&&&&&&&&&&&&&&&&&&&&&&&&&&&&&&&&&&        "
};
