/* XPM */
static char *dcde1dd30c19408f9ab116888f092683_1[] = {
/* columns rows colors chars-per-pixel */
"20 20 3 1 ",
"  c None",
". c #6E281C",
"X c #E5533B",
/* pixels */
"          XXX       ",
"          XX        ",
"         XX         ",
"         XX         ",
"    XXXX XX XXX     ",
"  XXXXXXXX.XXXXXX   ",
" XXXXXXXXXXXXXXXXX  ",
" XXXXXXXXXXXXXXXXXX ",
" XXXXXXXXXXXXXXXXXX ",
"XXXXXXXXXXXXXXXXXXX ",
"XX.XXXXXXXXXXXXXXXXX",
"XX.XXXXXXXXXXXXXXXXX",
"XX.XXXXXXXXXXXXXXXXX",
"XX.XXXXXXXXXXXXXXXXX",
"XXX.XXXXXXXXXXXXXXXX",
" XX..XXXXXXXXXXXXXXX",
" XXX..XXXXXXXXXXXXX ",
"  XXXX..XXXXXXXXXXX ",
"   XXXXXXXXXXXXXXX  ",
"     XXXX  XXXXX    "
};
