/* XPM */
static char *daefbc2bd1cc4789abe2e6829bdd5fc9_2[] = {
/* columns rows colors chars-per-pixel */
"19 20 2 1 ",
"  c None",
". c #EDE285",
/* pixels */
"    ..        .... ",
"    .. ...   ..... ",
"    .. ........... ",
"   ... ........... ",
"   .. ............ ",
"   .. ...........  ",
"   .. ...........  ",
"  ... ...........  ",
"  .. ............  ",
"  ..  ......    .  ",
"  ..    ..         ",
"  ..               ",
" ...               ",
" ...               ",
" ..                ",
" ..                ",
" ..                ",
"...                ",
"......             ",
".......            "
};
