/* XPM */
static char *wall_west_frame_1[] = {
/* columns rows colors chars-per-pixel */
"64 61 21 1 ",
"  c #13171E",
". c #14181F",
"X c #151921",
"o c #171B24",
"O c #171C25",
"+ c #181D26",
"@ c #191E28",
"# c #1A202A",
"$ c #1C222C",
"% c #1E242F",
"& c #1E2430",
"* c #202632",
"= c #212734",
"- c #232A37",
"; c #232A38",
": c #242B39",
"> c #252D3B",
", c #272F3E",
"< c #282F3F",
"1 c #293141",
"2 c None",
/* pixels */
"1111111111111111111111111111111111111111111111111111112222222222",
"1111111111111111111111111111111111111111111111111111112222222222",
"1111111111111111111111111111111111111111111111111111112222222222",
"1111111111111111111111111111111111111111111111111111111111122222",
"1111111111111111111111111111111111111111111111111111111111122222",
"XXXXXXXXXXXXXXXXXXXXXXXXXXXXXXXXXXXXXXXXXXXXXXXX$111111111122222",
"                                                #111111111122222",
"                                                +====-1111122222",
"                                                     +1111111222",
"                                                     +1111111222",
">>>>>>>>>>>>>>>>>>>>>>>>>>>>>>>>>>>>>>>>>>>>>>>>&    .oO;1111111",
"111111111111111111111111111111111111111111111111-       -1111111",
"111111111111111111111111111111111111111111111111-@@X    -1111111",
"111111111111111111111111111111111111111111111111111O    -1111111",
"111111111111111111111111111111111111111111111111111O    -<111111",
"111111111111111111111111111111111111111111111111111O   .X+#11111",
"111111111111111111111111111111111111111111111111111O      X11111",
"111111111111111111111111111111111111111111111111,:>X      o11111",
"111111111111111111111111111111111111111111111111-         X11111",
"111111111111111111111111111111111111111111111111=         X11111",
"############################################@###O       $-:11111",
"                                                       .-1111111",
"                                                     .XX-1111111",
"                                                     +1111111111",
"                                                     +1111111111",
"*****************************************************-1111111-$$",
"1111111111111111111111111111111111111111111111111111111111111$  ",
"11111111111111111111111111111111111111111111111111111111111<<$  ",
"1111111111111111111111111111111111111111111111111111111111,     ",
"1111111111111111111111111111111111111111111111111111111111,     ",
"&%%%%%%%%%%%%%%%%%%%%%%%&%%%%%%%&&&&&&&&%%%%%%%%%%%%&&&&$&&&&&&&",
"                                                          X11111",
"                                                          X11111",
"<1<<<1<<1<+    *1<<1<<1<<1<1X    -<<1<1<<,1<<<<1*       -1,11111",
"1111111111@.   =111111111111O    -11111111111111-       =1111111",
"1111111111&$#  *111111111111&$@  -11111111111111:$$X X$$>1111111",
"111111111111>  -11111111111111-  -11111111111111111O +1111111111",
"111111111111>  *11111111111111-  ;11111111111111111O +1111111111",
"111111111111:  *11111111111111-  XX@111111111111111O +1111111&XX",
"111111111111>  -11111111111111-   .X111111111111111O +1111111$ X",
"----*-=---*-%  $-=--*-=--=-=-=%    X--*-=-=--=-==--X.X=-----*@  ",
"                                   .                            ",
"                                                                ",
"  @:>::;:>:>::>:::>:#  -:>:>::>::>:>:>#       ->>::>:>>>::>:>#  ",
"  $11111111111111111%  111111111111111$       <11111111111111$. ",
"++*11111111111111111$. <11111111111111&+O XX++<11111111111111&++",
"11111111111111111111$  <1111111111111111,  $11111111111111111111",
"11111111111111111111%  11111111111111111<  %11111111111111111111",
"11-@@@@&111111111111$. @@*11111111111111<  %11111111111111111111",
"11&   .@111111111111%    $111111111111111  %11111111111111111111",
">,%   .+,>>>>>>>>>>>$   .@>>>>>>>>>>>>>>:  #>>>>>>>>>>>>>>>>>>>>",
"                                                                ",
"                              .                                 ",
"***-=*==*-X   .#==============$    X========*--*#  &============",
"1111111111+    -11111111111111-    O111111111111-  :111111111111",
"1111111111@XX  *11111111111111-  XX+111111111111*  >111111111111",
"111111111111>  -11111111111111-  -11111111111111*  >111111111111",
"111111111111:  *11111111111111-  -11111111111111-  >111111111111",
"111111111111>  @$%111111111111-  -111111111111$$+  :111111111122",
"111111111111:    X111111111111-  -111111111111X    >111111111222",
"111111111111>    X111111111111-  -111111111111X    >111111111222"
};
