/* XPM */
static char *wall_west_frame_0[] = {
/* columns rows colors chars-per-pixel */
"64 61 21 1 ",
"  c #13171E",
". c #151921",
"X c #171B24",
"o c #171C25",
"O c #181D26",
"+ c #1A1F29",
"@ c #1A202A",
"# c #1B212B",
"$ c #1D232E",
"% c #1E242F",
"& c #1E2430",
"* c #202632",
"= c #212734",
"- c #222936",
"; c #232A38",
": c #242B39",
"> c #252D3B",
", c #262E3D",
"< c #282F3F",
"1 c #293141",
"2 c None",
/* pixels */
"1111111111111111111111111111111111111111111111111111111111122222",
"1111111111111111111111111111111111111111111111111111111111122222",
"1111111111111111111111111111111111111111111111111111111111122222",
"1111111111111111111111111111111111111111111111111111111111111222",
"1111111111111111111111111111111111111111111111111111111111111222",
".....................................................+1111111222",
"                                                     +1111111222",
"                                                     .==,1111122",
"                                                        -1111111",
"                                                        -1111111",
">>>>>>>>>>>>>>>>>>>>>>>>>>>>>>>>>>>>>>>>>>>>>>>>*       .o+11111",
"111111111111111111111111111111111111111111111111-         .11111",
"111111111111111111111111111111111111111111111111;++.      X11111",
"111111111111111111111111111111111111111111111111111o      .11111",
"111111111111111111111111111111111111111111111111111o      .11111",
"111111111111111111111111111111111111111111111111111o      .11111",
"111111111111111111111111111111111111111111111111111o      .11111",
"111111111111111111111111111111111111111111111111111o    XO+11111",
"111111111111111111111111111111111111111111111111111o    -1111111",
"111111111111111111111111111111111111111111111111111o    -1111111",
"@@@@@@@@@@@@@@@@@@@@@@@@@@@@@@@@@@@@@@@@@@@@@@@@+@+.    -1111111",
"                                                        -1111111",
"                                                   ...X.;1111<,,",
"                                                   >111111111$  ",
"                                                   >111111111$  ",
"***************************************************,111111111$  ",
"1111111111111111111111111111111111111111111111111111111111111$  ",
"111111111111111111111111111111111111111111111111111111111111<@  ",
"1111111111111111111111111111111111111111111111111111111111,     ",
"1111111111111111111111111111111111111111111111111111111111,     ",
"&%%%%%%%%%%%%%%%%%%%%%%%%%%%%%%%%%%%%%%%%%%%%%%%%&&&&&&&&&$  +&&",
"                                                             &11",
"                                                             $11",
"<1<<<1<<1<O      .<1<<1<<1<<X    -<11<1<1,<<<11<<<<o    -1<<1111",
"1111111111O      .1111111111X    ;11111111111111111o    -1111111",
"1111111111&$@  O$$1111111111%$@  -11111111111111111o .@$>1111111",
"111111111111>  -11111111111111;  ;11111111111111111o O1111111111",
"111111111111>  *11111111111111-  :11111111111111111o O1111111111",
"111111111111:  *11111111111111-  .....=111111111111O O1111111&..",
"111111111111>  -11111111111111;     . *111111111111o O1111111$ .",
"------------%  $-=--=------=--$       $-=----------. .-------O  ",
"                                                                ",
"                                                                ",
"  @::>:::>:>:>:::>:>@  ->:>:::>:::>>:>:>-     ;>::>:>>:>:,:>>+  ",
"  $11111111111111111%  111111111111111111     ,11111111111111$  ",
"  $11111111111111111%  <1111111111111111<  .O+<11111111111111$  ",
"  $11111111111111111$  <1111111111111111<  $11111111111111111@  ",
"  $11111111111111111$  111111111111111111  $11111111111111111$  ",
"  .O+,11111111111111%  11111111111111111<  $11111111111111,++.  ",
"     ,11111111111111$  <1111111111111111<  $11111111111111,     ",
"     ->>,>>>>>>>>>>>$  :>>>>>>>>>>>>>>>>>  $>>>>>>>>>>>>>>;     ",
"                                                                ",
"                                                                ",
"*-=====$       $========-*=*.    $======*-=*====$  %-*=*====--=*",
"1111111-       =111111111111X    ;11111111111111*  :111111111111",
"1111111-....   -111111111111O..  -11111111111111-  >111111111111",
"111111111111>  *11111111111111;  ;11111111111111-  :111111111111",
"111111111111>  -11111111111111;  -11111111111111=  >111111111111",
"111111111111>  O$&111111111111-  ;111111111111$$+  :111111111122",
"111111111111>    .111111111111;  ;111111111111.    >111111111222",
"111111111111:    .111111111111;  -111111111111.    >111111111222"
};
