/* XPM */
static char *keke_down_frame_move_0[] = {
/* columns rows colors chars-per-pixel */
"48 64 10 1 ",
"  c red",
". c #EC1208",
"X c #D92511",
"o c #C63719",
"O c #B34921",
"+ c #8D6E32",
"@ c #7A803A",
"# c #679343",
"$ c #54A54B",
"% c None",
/* pixels */
"%%%%%%%%%%%%%                   %%%%%%%%%%%%%%%%",
"%%%%%%%%%%%%%                   %%%%%%%%%%%%%%%%",
"%%%%%%%%%%%%%                   %%%%%%%%%%%%%%%%",
"%%%%%%%%%%%                        %%%%%%%%%%%%%",
"%%%%%%%%%%%                        %%%%%%%%%%%%%",
"%%%%%%%%                             %%%%%%%%%%%",
"%%%%%%%%                             %%%%%%%%%%%",
"%%%%%%%%                             %%%%%%%%%%%",
"%%%%%                                   %%%%%%%%",
"%%%%%                                   %%%%%%%%",
"%%%%%     .oooooooX          XooooX     %%%%%%%%",
"%%%%%     o$$$$$$$+          +$$$$+     %%%%%%%%",
"%%%%%     o$$$$$$$+          +$$$$+     %%%%%%%%",
"%%%     ++@$$$$$$$+       X++#$$$$#++X    %%%%%%",
"%%%     $$$$$$$$$$+       o$$$$$$$$$$o     %%%%%",
"%%%     $$$$$$$$$$+       o$$$$$$$$$$o     %%%%%",
"%%%     $$$$$$$$$$+       o$$$$$$$$$$o     %%%%%",
"%%%     $$$$$$$$$$+       o$$$$$$$$$$o     %%%%%",
"%%%     ++@$$$$$++O       o$$$$$$$#++X     %%%%%",
"%%%       o$$$$$          o$$$$$$$+        %%%%%",
"%%%       o$$$$$          o$$$$$$$+        %%%%%",
"%%%       .ooooo          .oooooooX        %%%%%",
"%%%                                        %%%%%",
"%%%                                        %%%%%",
"%%%                                        %%%%%",
"%%%                                        %%%%%",
"%%                                         %%%%%",
"                                             %%%",
"                                             %%%",
"                                             %%%",
"                                             %%%",
"                                             %%%",
"                                             %%%",
"                                             %%%",
"                                              %%",
"                                                ",
"                                                ",
"                                        %%      ",
"                                        %%%     ",
"                                        %%%     ",
"                                        %%%     ",
"                                        %%%     ",
"                                        %%%     ",
"%%%%%                                %%%%%%%%%%%",
"%%%%%                                %%%%%%%%%%%",
"%%%%%                                %%%%%%%%%%%",
"%%%%%                                %%%%%%%%%%%",
"%%%%%                                %%%%%%%%%%%",
"%%%%%                              %%%%%%%%%%%%%",
"%%%%%                              %%%%%%%%%%%%%",
"%%%%%                             %%%%%%%%%%%%%%",
"%%%%%                           %%%%%%%%%%%%%%%%",
"%%%%%                           %%%%%%%%%%%%%%%%",
"%%%%%%%%        %%%%%         %%%%%%%%%%%%%%%%%%",
"%%%%%%%%        %%%%%        %%%%%%%%%%%%%%%%%%%",
"%%%%%%%%        %%%%%        %%%%%%%%%%%%%%%%%%%",
"%%%%%%%%        %%%%%      %%%%%%%%%%%%%%%%%%%%%",
"%%%%%%%%        %%%%%      %%%%%%%%%%%%%%%%%%%%%",
"%%%%%%%%        %%%%%      %%%%%%%%%%%%%%%%%%%%%",
"%%%%%%%%%%%%%%%%%%%%%           %%%%%%%%%%%%%%%%",
"%%%%%%%%%%%%%%%%%%%%%           %%%%%%%%%%%%%%%%",
"%%%%%%%%%%%%%%%%%%%%%           %%%%%%%%%%%%%%%%",
"%%%%%%%%%%%%%%%%%%%%%           %%%%%%%%%%%%%%%%",
"%%%%%%%%%%%%%%%%%%%%%           %%%%%%%%%%%%%%%%"
};
