/* XPM */
static char *keke_down_frame_0[] = {
/* columns rows colors chars-per-pixel */
"51 64 15 1 ",
"  c red",
". c #E41A0C",
"X c #E11D0D",
"o c #DE200E",
"O c #D22B14",
"+ c #C63719",
"@ c #C93418",
"# c #AE4E24",
"$ c #9C602B",
"% c #8D6E32",
"& c #78823B",
"* c #6C8E40",
"= c #609946",
"- c #54A54B",
"; c None",
/* pixels */
";;;;;;;;;;;;;;;;                   ;;;;;;;;;;;;;;;;",
";;;;;;;;;;;;;;;;                   ;;;;;;;;;;;;;;;;",
";;;;;;;;;;;;;;;;                   ;;;;;;;;;;;;;;;;",
";;;;;;;;;;;;;                         ;;;;;;;;;;;;;",
";;;;;;;;;;;;;                         ;;;;;;;;;;;;;",
";;;;;;;;;;;                             ;;;;;;;;;;;",
";;;;;;;;;;;                             ;;;;;;;;;;;",
";;;;;;;;;;;                             ;;;;;;;;;;;",
";;;;;;;;                                   ;;;;;;;;",
";;;;;;;;                                   ;;;;;;;;",
";;;;;;;;     o+++++++.          O++++o     ;;;;;;;;",
";;;;;;;;     $-------#          &----$     ;;;;;;;;",
";;;;;;;;     $-------#          &----$     ;;;;;;;;",
";;;;;;    X%%*-------#       @%%=----*%%X    ;;;;;;",
";;;;;     O----------#       #----------O     ;;;;;",
";;;;;     O----------#       #----------O     ;;;;;",
";;;;;     O----------#       #----------O     ;;;;;",
";;;;;     O----------#       #----------O     ;;;;;",
";;;;;     X%%*----=%%@       #-------*%%X     ;;;;;",
";;;;;        $----&          #-------$        ;;;;;",
";;;;;        $----&          #-------$        ;;;;;",
";;;;;        o++++O          .+++++++o        ;;;;;",
";;;;;                                         ;;;;;",
";;;;;                                         ;;;;;",
";;;;;                                         ;;;;;",
";;;;;                                         ;;;;;",
";;;;;                                         ;;;;;",
";;;                                             ;;;",
";;;                                             ;;;",
";;;                                             ;;;",
";;;                                             ;;;",
";;;                                             ;;;",
";;;                                             ;;;",
";;;                                             ;;;",
";;                                               ;;",
"                                                   ",
"                                                   ",
"                                           ;;      ",
"                                           ;;;     ",
"                                           ;;;     ",
"     ;;;                                   ;;;     ",
"     ;;;                                   ;;;     ",
"     ;;;                                   ;;;     ",
"     ;;;                                ;;;;;;     ",
"     ;;;                                ;;;;;;     ",
"     ;;;                                ;;;;;;     ",
"     ;;;                                ;;;;;;     ",
"     ;;;                                ;;;;;;     ",
";;;;;;;;;;;                           ;;;;;;;;;;;;;",
";;;;;;;;;;;                           ;;;;;;;;;;;;;",
";;;;;;;;;;;                          ;;;;;;;;;;;;;;",
";;;;;;;;;;;;;                      ;;;;;;;;;;;;;;;;",
";;;;;;;;;;;;;                      ;;;;;;;;;;;;;;;;",
";;;;;;;;;;;;;      ;;;;;;;;;;      ;;;;;;;;;;;;;;;;",
";;;;;;;;;;;;;      ;;;;;;;;;;;     ;;;;;;;;;;;;;;;;",
";;;;;;;;;;;;;      ;;;;;;;;;;;     ;;;;;;;;;;;;;;;;",
";;;;;;;;;;;;;      ;;;;;;;;;;;     ;;;;;;;;;;;;;;;;",
";;;;;;;;;;;;;      ;;;;;;;;;;;     ;;;;;;;;;;;;;;;;",
";;;;;;;;;;;;;      ;;;;;;;;;;;     ;;;;;;;;;;;;;;;;",
";;;;;;;;           ;;;;;;;;;;;          ;;;;;;;;;;;",
";;;;;;;;           ;;;;;;;;;;;          ;;;;;;;;;;;",
";;;;;;;;           ;;;;;;;;;;;          ;;;;;;;;;;;",
";;;;;;;;           ;;;;;;;;;;;          ;;;;;;;;;;;",
";;;;;;;;           ;;;;;;;;;;;          ;;;;;;;;;;;"
};
