/* XPM */
static char *keke_down_frame_move_1[] = {
/* columns rows colors chars-per-pixel */
"48 64 10 1 ",
"  c red",
". c #EC1208",
"X c #D92511",
"o c #C63719",
"O c #B34921",
"+ c #8D6E32",
"@ c #7A803A",
"# c #679343",
"$ c #54A54B",
"% c None",
/* pixels */
"%%%%%%%%%%%%%%%%                   %%%%%%%%%%%%%",
"%%%%%%%%%%%%%%%%                   %%%%%%%%%%%%%",
"%%%%%%%%%%%%%%%%                   %%%%%%%%%%%%%",
"%%%%%%%%%%%%%                        %%%%%%%%%%%",
"%%%%%%%%%%%%%                        %%%%%%%%%%%",
"%%%%%%%%%%%                             %%%%%%%%",
"%%%%%%%%%%%                             %%%%%%%%",
"%%%%%%%%%%%                             %%%%%%%%",
"%%%%%%%%                                   %%%%%",
"%%%%%%%%                                   %%%%%",
"%%%%%%%%     Xooooooo.          ooooo.     %%%%%",
"%%%%%%%%     +$$$$$$$o          $$$$$o     %%%%%",
"%%%%%%%%     +$$$$$$$o          $$$$$o     %%%%%",
"%%%%%%    X++#$$$$$$$o       O++$$$$$@++     %%%",
"%%%%%     o$$$$$$$$$$o       +$$$$$$$$$$     %%%",
"%%%%%     o$$$$$$$$$$o       +$$$$$$$$$$     %%%",
"%%%%%     o$$$$$$$$$$o       +$$$$$$$$$$     %%%",
"%%%%%     o$$$$$$$$$$o       +$$$$$$$$$$     %%%",
"%%%%%     X++#$$$$#++X       +$$$$$$$@++     %%%",
"%%%%%        +$$$$+          +$$$$$$$o       %%%",
"%%%%%        +$$$$+          +$$$$$$$o       %%%",
"%%%%%        XooooX          Xooooooo.       %%%",
"%%%%%                                        %%%",
"%%%%%                                        %%%",
"%%%%%                                        %%%",
"%%%%%                                        %%%",
"%%%%%                                         %%",
"%%%                                             ",
"%%%                                             ",
"%%%                                             ",
"%%%                                             ",
"%%%                                             ",
"%%%                                             ",
"%%%                                             ",
"%%                                              ",
"                                                ",
"                                                ",
"      %%                                        ",
"     %%%                                        ",
"     %%%                                        ",
"     %%%                                        ",
"     %%%                                        ",
"     %%%                                        ",
"%%%%%%%%%%%                                %%%%%",
"%%%%%%%%%%%                                %%%%%",
"%%%%%%%%%%%                                %%%%%",
"%%%%%%%%%%%                                %%%%%",
"%%%%%%%%%%%                                %%%%%",
"%%%%%%%%%%%%%                              %%%%%",
"%%%%%%%%%%%%%                              %%%%%",
"%%%%%%%%%%%%%%                             %%%%%",
"%%%%%%%%%%%%%%%%                           %%%%%",
"%%%%%%%%%%%%%%%%                           %%%%%",
"%%%%%%%%%%%%%%%%%%         %%%%%        %%%%%%%%",
"%%%%%%%%%%%%%%%%%%%        %%%%%        %%%%%%%%",
"%%%%%%%%%%%%%%%%%%%        %%%%%        %%%%%%%%",
"%%%%%%%%%%%%%%%%%%%%%      %%%%%        %%%%%%%%",
"%%%%%%%%%%%%%%%%%%%%%      %%%%%        %%%%%%%%",
"%%%%%%%%%%%%%%%%%%%%%      %%%%%        %%%%%%%%",
"%%%%%%%%%%%%%%%%           %%%%%%%%%%%%%%%%%%%%%",
"%%%%%%%%%%%%%%%%           %%%%%%%%%%%%%%%%%%%%%",
"%%%%%%%%%%%%%%%%           %%%%%%%%%%%%%%%%%%%%%",
"%%%%%%%%%%%%%%%%           %%%%%%%%%%%%%%%%%%%%%",
"%%%%%%%%%%%%%%%%           %%%%%%%%%%%%%%%%%%%%%"
};
