/* XPM */
static char *wall_south_plus_west_frame_01[] = {
/* columns rows colors chars-per-pixel */
"64 64 10 1 ",
"  c #13171E",
". c #151A22",
"X c #181D26",
"o c #1A202A",
"O c #1D232E",
"+ c #222835",
"@ c #242B39",
"# c #272E3D",
"$ c #293141",
"% c None",
/* pixels */
"$$$$$$$$$$$$$$$$$$$$$$$$$$$$$$$$$$$$$$$$$$$$$$$$$$$$$%%%%%%%%%%%",
"$$$$$$$$$$$$$$$$$$$$$$$$$$$$$$$$$$$$$$$$$$$$$$$$$$$$$%%%%%%%%%%%",
"$$$$$$$$$$$$$$$$$$$$$$$$$$$$$$$$$$$$$$$$$$$$$$$$$$$$$$%%%%%%%%%%",
"$$$$$$$$$$$$$$$$$$$$$$$$$$$$$$$$$$$$$$$$$$$$$$$$$$$$$$$$$$$%%%%%",
"$$$$$$$$$$$$$$$$$$$$$$$$$$$$$$$$$$$$$$$$$$$$$$$$$$$$$$$$$$$%%%%%",
"oooooooooooooooooooooooooooooooooooooooooooooooo$$$$$$$$$$$%%%%%",
"                                                $$$$$$$$$$$%%%%%",
"                                                $$$$$$$$$$$%%%%%",
"                                                     +$$$$$$$%%%",
"                                                     +$$$$$$$%%%",
"ooooooooooooooooooooooooooooooooooooooooooooo.       O++$$$$$$%%",
"$$$$$$$$$$$$$$$$$$$$$$$$$$$$$$$$$$$$$$$$$$$$$o          $$$$$$$$",
"$$$$$$$$$$$$$$$$$$$$$$$$$$$$$$$$$$$$$$$$$$$$$o          $$$$$$$$",
"$$$$$$$$$$$$$$$$$$$$$$$$$$$$$$$$$$$$$$$$$$$$$@++        $$$$$$$$",
"$$$$$$$$$$$$$$$$$$$$$$$$$$$$$$$$$$$$$$$$$$$$$$$$        $$$$$$$$",
"$$$$$$$$$$$$$$$$$$$$$$$$$$$$$$$$$$$$$$$$$$$$$$$$        $$$$$$$$",
"$$$$$$$$$$$$$$$$$$$$$$$$$$$$$$$$$$$$$$$$$$$$$$$$$$+       o$$$$$",
"$$$$$$$$$$$$$$$$$$$$$$$$$$$$$$$$$$$$$$$$$$$$$$$$$$+       o$$$$$",
"$$$$$$$$$$$$$$$$$$$$$$$$$$$$$$$$$$$$$$$$$$$$$$$$$$+       o$$$$$",
"$$$$$$$$$$$$$$$$$$$$$$$$$$$$$$$$$$$$$$$$$$$$$$$$$$+       o$$$$$",
"$$$$$$$$$$$$$$$$$$$$$$$$$$$$$$$$$$$$$$$$$$$$$$$$$$+       o$$$$$",
"oooooooo$$$$$$$$$$$$$$$$$$$$$$$$$$$$$$$$$$$$$$$$$$#++X    o$$$$$",
"        $$$$$$$$$$$$$$$$$$$$$$$$$$$$$$$$$$$$$$$$$$$$$o    o$$$$$",
"        $$$$$$$$$$$$$$$$$$$$$$$$$$$$$$$$$$$$$$$$$$$$$o    o$$$$$",
"        $$$$$$$$$$$$$$$$$$$$$$$$$$$$$$$$$$$$$$$$$$$$$o    o$$$$$",
"        $$$$$$$$$$$$$$$$$$$$$$$$$$$$$$$$$$$$$$$$$$$$$o    o$$$$$",
"ooX     ++@$$$$$$$$$$$$$$$$$$$$$$$$$$$$$$$$$$$$$$$$$$o    o$$$$$",
"$$+       o$$$$$$$$$$$$$$$$$$$$$$$$$$$$$$$$$$$$$$$$$$o    o$$$$$",
"$$+       o$$$$$$$$$$$$$$$$$$$$$$$$$$$$$$$$$$$$$$$$$$o    o$$$$$",
"$$#++X    o$$$$$$$$$$$$$$$$$$$$$$$$$$$$$$$$$$$$$$$$$$o    o$$$$$",
"$$$$$o    o$$$$$$$$$$$$$$$$$$$$$$$$$$$$$$$$$$$$$$$$$$o    o$$$$$",
"$$$$$o    o$$$$$$$$$$$$$$$$$$$$$$$$$$$$$$$$$$$$$$$$$$o    o$$$$$",
"$$$$$o    o$$$$$$$$$$$$$$$$$$$$$$$$$$$$$$$$$$$$$$$$$$o    o$$$$$",
"$$$$$o    o$$$$$$$$$$$$$$$$$$$$$$$$$$$$$$$$$$$$$$$$$$o    o$$$$$",
"$$$$$o    o$$$$$$$$$$$$$$$$$$$$$$$$$$$$$$$$$$$$$$$$$$o    o$$$$$",
"$$$$$o    o$$$$$$$$$$$$$$$$$$$$$$$$$$$$$$$$$$$$$$$$$$o    o$$$$$",
"$$$$$o    o$$$$$$$$$$$$$$$$$$$$$$$$$$$$$$$$$$$$$$$$$$o    o$$$$$",
"$$$$$o    o$$$$$$$$$$$$$$$$$$$$$$$$$$$$$$$$$$$$$$$$$$o    o$$$$$",
"$$$$$o    o$$$$$$$$$$$$$$$$$$$$$$$$$$$$$$$$$$$$$$$$$$o    o$$$$$",
"$$$$$o    o$$$$$$$$$$$$$$$$$$$$$$$$$$$$$$$$$$$$$$$$$$o    o$$$$$",
"$$$$$o    o$$$$$$$$$$$$$$$$$$$$$$$$$$$$$$$$$$$$$$$$$$o    o$$$$$",
"$$$$$o    o$$$$$$$$$$$$$$$$$$$$$$$$$$$$$$$$$$$$$$$$$$o    o$$$$$",
"$$$$$o    o$$$$$$$$$$$$$$$$$$$$$$$$$$$$$$$$$$$$$$$$$$o    o$$$$$",
"$$$$$o    o$$$$$$$$$$$$$$$$$$$$$$$$$$$$$$$$$$$$$$$$$$o    o$$$$$",
"$$$$$o    o$$$$$$$$$$$$$$$$$$$$$$$$$$$$$$$$$$$$$$$$$$o    o$$$$$",
"$$$$$o    o$$$$$$$$$$$$$$$$$$$$$$$$$$$$$$$$$$$$$$$$$$o    o$$$$$",
"$$$$$o    o$$$$$$$$$$$$$$$$$$$$$$$$$$$$$$$$$$$$$$$$$$o    o$$$$$",
"$$$$$o    o$$$$$$$$$$$$$$$$$$$$$$$$$$$$$$$$$$$$$$$$$$o    o$$$$$",
"$$$$$o    o$$$$$$$$$$$$$$$$$$$$$$$$$$$$$$$$$$$$$$$$$$o    o$$$$$",
"$$$$$o    o$$$$$$$$$$$$$$$$$$$$$$$$$$$$$$$$$$$$$$$$$$o    o$$$$$",
"$$$$$o    o$$$$$$$$$$$$$$$$$$$$$$$$$$$$$$$$$$$$$$$$$$o    o$$$$$",
"$$$$$o    o$$$$$$$$$$$$$$$$$$$$$$$$$$$$$$$$$$$$$$$$$$o    o$$$$$",
"$$$$$o    o$$$$$$$$$$$$$$$$$$$$$$$$$$$$$$$$$$$$$$$$$$o    o$$$$$",
"$$$$$o    o$$$$$$$$$$$$$$$$$$$$$$$$$$$$$$$$$$$$$$$$$$o    o$$$$$",
"$$$$$o    o$$$$$$$$$$$$$$$$$$$$$$$$$$$$$$$$$$$$$$$$$$o    o$$$$$",
"$$$$$o    o$$$$$$$$$$$$$$$$$$$$$$$$$$$$$$$$$$$$$$$$$$o    o$$$$$",
"$$$$$o    o$$$$$$$$$$$$$$$$$$$$$$$$$$$$$$$$$$$$$$$$$$o    o$$$$$",
"$$$$$o    o$$$$$$$$$$$$$$$$$$$$$$$$$$$$$$$$$$$$$$$$$$o    o$$$$$",
"$$$$$o    o$$$$$$$$$$$$$$$$$$$$$$$$$$$$$$$$$$$$$$$$$$o    o$$$$$",
"$$$$$o    o$$$$$$$$$$$$$$$$$$$$$$$$$$$$$$$$$$$$$$$$$$o    o$$$$$",
"$$$$$o    o$$$$$$$$$$$$$$$$$$$$$$$$$$$$$$$$$$$$$$$$$$o    o$$$$$",
"$$$$$o    o$$$$$$$$$$$$$$$$$$$$$$$$$$$$$$$$$$$$$$$$$$o    o$$$$$",
"$$$$$o    o$$$$$$$$$$$$$$$$$$$$$$$$$$$$$$$$$$$$$$$$$$o    o$$$$$",
"$$$$$o    o$$$$$$$$$$$$$$$$$$$$$$$$$$$$$$$$$$$$$$$$$$o    o$$$$$"
};
