/* XPM */
static char *player_right_frame_move[] = {
/* columns rows colors chars-per-pixel */
"64 63 19 1 ",
"  c None",
". c #060606",
"X c #171717",
"o c #454545",
"O c #484848",
"+ c #525252",
"@ c #595959",
"# c #5A5A5A",
"$ c #666666",
"% c #8A8A8A",
"& c #A8A8A8",
"* c #ABABAB",
"= c #B2B2B2",
"- c #C1C1C1",
"; c #C7C7C7",
": c #EEEEEE",
"> c #F2F2F2",
", c #F4F4F4",
"< c white",
/* pixels */
"                                                                ",
"                                                                ",
"                                                                ",
"                                                                ",
"                           <<<<<                                ",
"                          <<<<<<                                ",
"                          <<<<<<                                ",
"                          <<<<<<        <<<<<                   ",
"                          <<<<<<        <<<<<                   ",
"                          <<<<<<        <<<<<<                  ",
"                          <<<<<<<<<     <<<<<<<<                ",
"                          <<<<<<<<<     <<<<<<<<                ",
"                          <<<<<<<<<     <<<<<<<<                ",
"                          <<<<<<<<<     <<<<<<<<                ",
"                          <<<<<<<<<     <<<<<<<<                ",
"                <<<<<<<<<<<<<<<<<<<<<<<<<<<<<<<<                ",
"                <<<<<<<<<<<<<<<<<<<<<<<<<<<<<<<<                ",
"                <<<<<<<<<<<<<<<<<<<<<<<<<<<<<<<<                ",
"          <<<<<<<<<<<<<<<<<<<<<<<<<<<<<<<<<<<<<<<<<<<           ",
"          <<<<<<<<<<<<<<<<<<<<<<<<<<<<<<<<<<<<<<<<<<<           ",
"          <<<<<<<<<<<<<<<<<<<<<<<<<<<<<<<<<<<<<<<<<<<<          ",
"        <<<<<<<<<<<<<<<<<<<<<<<<<<<<<<<<<<<<<<<<<<<<<<<<        ",
"        <<<<<<<<<<<<<<<<<<<<<<<<<<<<<<<<<<<<<<<<<<<<<<<<        ",
"        <<<<<<<<<<<<<<<<<<<<<<<<<<<<<<<<<<<<<<<<+oooo&<<        ",
"        <<<<<<<<<<<<<<<<<<<<<<<<<<<<<<<<<<<<<<<<X....%<<        ",
"        <<<<<<<<<<<<<<<<<<<<<<<<<<<<<<<<<<<<<<<<X....%<<        ",
"        <<<<<<<<<<<<<<<<<<<<<<<<<<<<<<<<<<<<<<<<X....%<<<<<     ",
"        <<<<<<<<<<<<<<<<<<<<<<<<<<<<<<<<<<<<<<<<X....%<<<<<     ",
"        <<<<<<<<<<<<<<<<<<<<<<<<<<<<<;&&&&;<<<<<$@@@@=<<<<<     ",
"        <<<<<<<<<<<<<<<<<<<<<<<<<<<<<O....@<<<<<<<<<<<<<<<<     ",
"        <<<<<<<<<<<<<<<<<<<<<<<<<<<<<O....@<<<<<<<<<<<<<<<<     ",
"        <<<<<<<<<<<<<<<<<<<<<<<<<<<<<O....@<<<<<<<<<<<<<<<<     ",
"        <<<<<<<<<<<<<<<<<<<<<<<<<<<<<O....@<<<<<<<<<<<<<<<<     ",
"        <<<<<<<<<<<<<<<<<<<<<<<<<<<<<O....@<<<<<<<<<<<<<<<<     ",
"          <<<<<<<<<<<<<<<<<<<<<<<<<<<>::::><<<<<<<<<<<<<<<<     ",
"          <<<<<<<<<<<<<<<<<<<<<<<<<<<<<<<<<<<<<<<<<<<<<<<<<     ",
"          <<<<<<<<<<<<<<<<<<<<<<<<<<<<<<<<<<<<<<<<<<<<<<<<<     ",
"             <<<<<<<<<<<<<<<<<<<<<<<<<<<<<<<<<<<<<<<<<<<<<<     ",
"             <<<<<<<<<<<<<<<<<<<<<<<<<<<<<<<<<<<<<<<<<<<<<<     ",
"             <<<<<<<<<<<<<<<<<<<<<<<<<<<<<<<<<<<<<<<<<<<<<<     ",
"             <<<<<<<<<<<<<<<<<<<<<<<<<<<<<<<<<<<<<<<<<<<<<<     ",
"             <<<<<<<<<<<<<<<<<<<<<<<<<<<<<<<<<<<<<<<<<<<<<<     ",
"                <<<<<<<<<<<<<<<<<<<<<<<<<<<<<<<<<<<<<<<<        ",
"                <<<<<<<<<<<<<<<<<<<<<<<<<<<<<<<<<<<<<<<<        ",
"                <<<<<<<<<<<<<<<<<<<<<<<<<<<<<<<<<<<<<<<<        ",
"                <<<<<<<<<<         <<<<<      <<<<<<<           ",
"                <<<<<<<<<<         <<<<<      <<<<<<<           ",
"                <<<<<<<<<<<       <<<<<<     <<<<<<<<           ",
"                  <<<<<<<<<<<   <<<<<<<<   <<<<<<<<             ",
"                  <<<<<<<<<<<   <<<<<<<<   <<<<<<<<             ",
"                     <<<<<<<< <<<<<<<     <<<<<<                ",
"                     <<<<<<<<<<<<<<<<   <<<<<<<<                ",
"                     <<<<<<<<<<<<<<<<   <<<<<<<<                ",
"                        <<<<<<<<<<<<<   <<<<<                   ",
"                        <<<<<<<<<<<<<   <<<<<                   ",
"                        <<<<<<<<<<<<<   <<<<<                   ",
"                                                                ",
"                                                                ",
"                                                                ",
"                                                                ",
"                                                                ",
"                                                                ",
"                                                                "
};
