/* XPM */
static char *player_right_frame_0[] = {
/* columns rows colors chars-per-pixel */
"64 63 57 1 ",
"  c None",
". c #060606",
"X c #0C0C0C",
"o c #0D0D0D",
"O c #131313",
"+ c #181818",
"@ c #1E1E1E",
"# c #1F1F1F",
"$ c #202020",
"% c #212121",
"& c #222222",
"* c #232323",
"= c #272727",
"- c #2B2B2B",
"; c #2C2C2C",
": c #2D2D2D",
"> c #383838",
", c #3B3B3B",
"< c #3D3D3D",
"1 c #4B4B4B",
"2 c #575757",
"3 c #797979",
"4 c #828282",
"5 c #8C8C8C",
"6 c #939393",
"7 c #999999",
"8 c #B5B5B5",
"9 c #B6B6B6",
"0 c #BCBCBC",
"q c #C2C2C2",
"w c #C3C3C3",
"e c #C4C4C4",
"r c #C5C5C5",
"t c #C8C8C8",
"y c #C9C9C9",
"u c #D0D0D0",
"i c #D5D5D5",
"p c #DDDDDD",
"a c #DEDEDE",
"s c #E0E0E0",
"d c #E1E1E1",
"f c #E3E3E3",
"g c #E7E7E7",
"h c #E8E8E8",
"j c #EAEAEA",
"k c #F2F2F2",
"l c #F3F3F3",
"z c #F4F4F4",
"x c #F6F6F6",
"c c #F7F7F7",
"v c #F8F8F8",
"b c #F9F9F9",
"n c #FBFBFB",
"m c #FCFCFC",
"M c #FDFDFD",
"N c #FEFEFE",
"B c #FFFFFF",
/* pixels */
"                                                                ",
"                                                                ",
"                                                                ",
"                                                                ",
"                                                                ",
"                                                                ",
"                                                                ",
"                                                                ",
"                                                                ",
"                          BBBBB            BBBB                 ",
"                          BBBBB           BBBBBB                ",
"                          BBBBB           BBBBBB                ",
"                          BBBBBBBB        BBBBBB                ",
"                          BBBBBBBB        BBBBBB                ",
"                          BBBBBBBB        BBBBBB                ",
"                          BBBBBBBB        BBBBBB                ",
"                          BBBBBBBB        BBBBBB                ",
"                          BBBBBBBB        BBBBBB                ",
"            BBBBBBBBBBBBBBBBBBBBBBBBBBBBBBBBBBBBBB              ",
"            BBBBBBBBBBBBBBBBBBBBBBBBBBBBBBBBBBBBBB              ",
"          BBBBBBBBBBBBBBBBBBBBBBBBBBBBBBBBBBBBBBBBBBB           ",
"          BBBBBBBBBBBBBBBBBBBBBBBBBBBBBBBBBBBBBBBBBBB           ",
"          BBBBBBBBBBBBBBBBBBBBBBBBBBBBBBBBBBcdddadcBB           ",
"          BBBBBBBBBBBBBBBBBBBBBBBBBBBBBBBBBBw<%%%;yBBBBB        ",
"          BBBBBBBBBBBBBBBBBBBBBBBBBBBBBBBBBB0%...OwBBBBB        ",
"         BBBBBBBBBBBBBBBBBBBBBBBBBBBBBBBBBBB0%...OwBBBBB        ",
"       BBBBBBBBBBBBBBBBBBBBBBBBBBBBBBBBBBBBB0%...OwBBBBB        ",
"       BBBBBBBBBBBBBBBBBBBBBBBBBBBBBchdddhBBw<%%%;wBBBBB        ",
"       BBBBBBBBBBBBBBBBBBBBBBBBBBBBBu43335aBa75556dBBBBB        ",
"       BBBBBBBBBBBBBBBBBBBBBBBBBBBBc9#ooo;wBBccccBBBBBBB        ",
"       BBBBBBBBBBBBBBBBBBBBBBBBBBBBc9#...%wBBBBBBBBBBBBB        ",
"       BBBBBBBBBBBBBBBBBBBBBBBBBBBBc9#...%wBBBBBBBBBBBBB        ",
"       BBBBBBBBBBBBBBBBBBBBBBBBBBBBc9#ooo;wBBBBBBBBBBBBB        ",
"       BBBBBBBBBBBBBBBBBBBBBBBBBBBBBw1<<<2uBBBBBBBBBBBBB        ",
"          BBBBBBBBBBBBBBBBBBBBBBBBBBBcccccBBBBBBBBBBBBBB        ",
"          BBBBBBBBBBBBBBBBBBBBBBBBBBBBBBBBBBBBBBBBBBBBBB        ",
"          BBBBBBBBBBBBBBBBBBBBBBBBBBBBBBBBBBBBBBBBBBBBBB        ",
"          BBBBBBBBBBBBBBBBBBBBBBBBBBBBBBBBBBBBBBBBBBBBBB        ",
"          BBBBBBBBBBBBBBBBBBBBBBBBBBBBBBBBBBBBBBBBBBBBBB        ",
"            BBBBBBBBBBBBBBBBBBBBBBBBBBBBBBBBBBBBBBBBBBBB        ",
"            BBBBBBBBBBBBBBBBBBBBBBBBBBBBBBBBBBBBBBBBBBBB        ",
"            BBBBBBBBBBBBBBBBBBBBBBBBBBBBBBBBBBBBBBBBBBBB        ",
"            BBBBBB   BBBBBBBBBBBBBBBBBBBBBBBBBBBBBBBB           ",
"            BBBBBB   BBBBBBBBBBBBBBBBBBBBBBBBBBBBBBBB           ",
"            BBBBBB   BBBBBBBB       BBBBBBBBBBBBBBBBB           ",
"            BBBBBB     BBBBB         BBBBB      BBBBB           ",
"            BBBBBB     BBBBB         BBBBB      BBBBB           ",
"            BBBBBB   BBBBBBB         BBBBB      BBBBBBB         ",
"            BBBBBB   BBBBBBB         BBBBB      BBBBBBBB        ",
"            BBBBBB   BBBBBBB         BBBBB      BBBBBBBB        ",
"            BBBBBB   BBBBBBB         BBBBB      BBBBBBBB        ",
"            BBBBBB   BBBBBBB         BBBBB      BBBBBBBB        ",
"            BBBBBB   BBBBBBB         BBBBB      BBBBBBBB        ",
"            BBBBBB   BBBBB           BBBBB        BBBBBB        ",
"            BBBBB    BBBBB           BBBBB        BBBBBB        ",
"                                                                ",
"                                                                ",
"                                                                ",
"                                                                ",
"                                                                ",
"                                                                ",
"                                                                ",
"                                                                "
};
