/* XPM */
static char *monster_up_frame_1[] = {
/* columns rows colors chars-per-pixel */
"45 64 2 1 ",
"  c #D9396A",
". c None",
/* pixels */
"................                  ...........",
"................                   ..........",
"...............                    ..........",
"...........                            ......",
"..........                              .....",
"......                                   ....",
".....                                     ...",
".....                                     ...",
"...                                       ...",
"...                                       ...",
"..                                        ...",
"                                          ...",
"                                          ...",
"                                          ...",
"                                          ...",
"                                           ..",
"                                             ",
"                                             ",
"                                             ",
"                                             ",
"                                             ",
"                                             ",
"                                             ",
"                                             ",
"                                             ",
"                                             ",
"                                             ",
"                                             ",
"                                             ",
"                                             ",
"                                             ",
"                                             ",
"                                             ",
"                                             ",
"                                             ",
"                                             ",
"                                             ",
"                                             ",
"                                             ",
"                                             ",
"                                             ",
"                                             ",
"                                             ",
"..                                           ",
"...                                          ",
"...                                        ..",
"...                                       ...",
"...                                       ...",
"...                                       ...",
"...                                       ...",
"....                                     ....",
".....                                   .....",
".....                                  ......",
".....                                 .......",
".....                                ........",
"......                               ........",
".......                              ........",
"........                             ........",
"........                             ........",
"........        ...............      ........",
"........        ................     ........",
"........      ..................     ........",
"........     ...................     ........",
"........     ...................     ........"
};
