/* XPM */
static char *wall_north_plus_east_frame_0[] = {
/* columns rows colors chars-per-pixel */
"62 64 26 1 ",
"  c #13171F",
". c #13181F",
"X c #14181F",
"o c #151A22",
"O c #161B23",
"+ c #171C24",
"@ c #171C25",
"# c #181C25",
"$ c #1A1F29",
"% c #1A2029",
"& c #1B202B",
"* c #1B212B",
"= c #1C212C",
"- c #1E242F",
"; c #1F2531",
": c #202633",
"> c #212734",
", c #222936",
"< c #232937",
"1 c #242B3A",
"2 c #272F3E",
"3 c #282F3F",
"4 c #28303F",
"5 c #283040",
"6 c #293141",
"7 c None",
/* pixels */
"6666,,..  ::666666666666666666666666666666666666666633XX  $$66",
"6666,,..  ::666666666666666666666666666666666666666633XX  $$66",
"6666,,    ::666666666666666666666666666666666666666633XX  $$66",
"6666,,    ::666666666666666666666666666666666666666633XX  $$66",
"6666,,    >>666666666666666666666666666666666666666655XX  ##,,",
"6666,,    >>666666666666666666666666666666666666666622..  ##,,",
"6666,,..  >>666666666666666666666666666666666666666655 .      ",
"6666,,..  >>666666666666666666666666666666666666666652..      ",
"6666,,    ::66666666666666666666666666666666666666666643$$    ",
"6666,,    ::66666666666666666666666666666666666666666643$$    ",
"6666,,    ;;66666666666666666666666666666666666666666666,<,,,,",
"6666,,    ;;666666666666666666666666666666666666666666661,,,,,",
"6666,,    ::66666666666666666666666666666666666666666666666666",
"6666,,    ::66666666666666666666666666666666666666666666666666",
"6666,,    >>66666666666666666666666666666666666666666666666666",
"6666,,    >>66666666666666666666666666666666666666666666666666",
"6666,,    ;;66666666666666666666666666666666666666666666666666",
"6666,,    ;;66666666666666666666666666666666666666666666666666",
"6666,,    ++;;656666666666666666666666666666666666666666666666",
"6666,,  oo++;;556666666666666666666666666666666666666666666666",
"666611$$    ++>>;<;;>><<;<<<;<;;,,,,::,,,,,,::,,,,::<,::,,:,<,",
"666611$$    ++>><;<;>>><;;;1<;<;,,,,::,,,,,,::,,,,,:,,,:,<::,,",
"66666666XX      oo    oo    oo                      X   X     ",
"66666666X.                                                   X",
"6666666666&&.               .                                 ",
"6666666666&&..      oo      oo                         X   X  ",
"$$1166666611,,,,;<;;;1;<;<;;;11;::,,,,::,,,,::,,,,,,::,,::<,:,",
"$$1166666611,,,,<<<;<<<<<;;;1;1<::,,,,::,,,,::,,,,,,::,<,:,,::",
"  ==1166666666666666666666666666666666666666666644666666666666",
"  ==1166666666666666666666666666666666666666666644666666666666",
"    $$65666666666666666666666666666666666666666666666666666666",
"    $$26666666666666666666666666666666666666666666666666666666",
"66**..XX    ...X        ....            XXXX                  ",
"66**..XX    ...X        ....   X        XXXX                  ",
"6611>>;;      oo;;,,>>,,,,##  oo--,,,,,,,,,,,,,,,,*$  XX==,,,,",
"6611>>;;      oo;;,,>>,,,,##  oo--,,,,,,,,,,,,,,,,$=  XX==,,,,",
"66666666&&oooo+#2266666666,,##oo116644666666666666::  **116644",
"66666666&&oooo+#2266666666,,##oo116644666666666666::XX**116644",
"6666666666&*&&33666666666644<<oo116666666666666666>:XX66666666",
"6666666666**&&34666666666644<,oo116666666666666666>:XX66666666",
"..,,666644&***4466446666666611oo    ##666666666666::oo66666666",
"..,,666644&***4466226666646611oo    ##666666666666::oo64666666",
"..o###**%%ooXX**&&&%**&&&%&&+#XX    XX**$$##$$$$&###XX%%$$##=$",
"..oo##**%&ooXX**&&&%***&&#%###XX    XX**$$##$$$$&&##XX%&$$##$*",
"%%**********%%****ooXX##&&&%$$$$##**##$$oo  XX$$%&&&&&+#&&$$=&",
"#&**********%&****ooXX##&&&%$$$$##**##$$oo  XX$$#&&&&&##&&$&==",
"646666446666446666-***666666666666666666$$XXoo6666466666666666",
"446666446664446666****666666666666666666$$XXoo6666666666666666",
"666666666666666666==$$526666666666666633$$==666666666666666666",
"666666666666666666==$$566666666666666634$&==666666666666666666",
"**1166666666666666==##666666662666666666##==6666666666666611#%",
"**1166666666666666==##666666664266666666##==6666666666666611&&",
"XX==,,,,,,::,,,,>;$$+#:,,,,,,,,,,,:,>>>>++$$::,,,,>>>>>>>>==XX",
"XX=*,,,,,,::,,,,;;$$+#::,,,>,,,,,,::>:>>++$$,:,,,,>>>>>>>>=*XX",
"X                   o   o         X             XX..XXXXXX   .",
".                      X                        XX..XXXXXX   .",
"6666<<    ..++656666666666==    1166666666666633$$XXoo33666666",
"6666,; o  .X++256666666666==    1166666666666633$$XXoo33666666",
"666622,,::##**66666666666611--oo1166666666666633####>>66666666",
"665522,<::##**66666666666611--oo1166666666666633####>>66666666",
"7766666665$$++<<66666666666611oo11666666666633>>##==6666666666",
"7766666665$$++,<64666666666611oo11666666666633>>##==6666666666",
"7777666666**  oo32666666666611oo11666666666632ooXX==6666666666",
"7777666666*$ ooo33666666666611oo11666666666622ooXX==6666666666"
};
