/* XPM */
static char *wall_north_plus_east_frame_1[] = {
/* columns rows colors chars-per-pixel */
"61 64 20 1 ",
"  c #13171E",
". c #151A22",
"X c #171C24",
"o c #171C25",
"O c #181D26",
"+ c #1A1F29",
"@ c #1B202A",
"# c #1C212C",
"$ c #1E242F",
"% c #1F2632",
"& c #202733",
"* c #212834",
"= c #222835",
"- c #232A38",
"; c #242B39",
": c #252C3A",
"> c #272F3E",
", c #28303F",
"< c #293141",
"1 c None",
/* pixels */
"<<<<<+    #<<<<<<<<<<<<<<<<<<<<<<<<<<<<<<<<<<<<<<<<<<.    =,<",
"<<<<<+    #<<<<<<<<<<<<<<<<<<<<<<<<<<<<<<<<<<<<<<<<<<     =,<",
"<<<<<+    #<<<<<<<<<<<<<<<<<<<<<<<<<<<<<<<<<<<<<<<<<<.    #--",
"<<<<<+    #<<<<<<<<<<<<<<<<<<<<<<<<<<<<<<<<<<<<<<<<<,        ",
"<<<<<+    #<<<<<<<<<<<<<<<<<<<<<<<<<<<<<<<<<<<<<<<<<< .      ",
"<<<<<+    #<<<<<<<<<<<<<<<<<<<<<<<<<<<<<<<<<<<<<<<<<,-=#     ",
"<<<<<+    #<<<<<<<<<<<<<<<<<<<<<<<<<<<<<<<<<<<<<<<<<,<<-     ",
"<<<<<+    #<<<<<<<<<<<<<<<<<<<<<<<<<<<<<<<<<<<<<<<<<<<<-     ",
"<<<<<+    #<<<<<<<<<<<<<<<<<<<<<<<<<<<<<<<<<<<<<<<<<<<<<,<#  ",
"<<<<<+    #<<<<<<<<<<<<<<<<<<<<<<<<<<<<<<<<<<<<<<<<<<<<<<<+  ",
"<<<<<+    #<<<<<<<<<<<<<<<<<<<<<<<<<<<<<<<<<<<<<<<<<<<<<<<&++",
"<<<<<+    #<<<<<<<<<<<<<<<<<<<<<<<<<<<<<<<<<<<<<<<<<<<<<<<,<<",
"<<<<<+    #<<<<<<<<<<<<<<<<<<<<<<<<<<<<<<<<<<<<<<<<<<<<<<<<<<",
"<<<<<+    #<<<<<<<<<<<<<<<<<<<<<<<<<<<<<<<<<<<<<<<<<<<<<<<<<<",
"<<<<<+    #<<<<<<<<<<<<<<<<<<<<<<<<<<<<<<<<<<<<<<<<<<<<<<<<<<",
"<<<<<+    #<<<<<<<<<<<<<<<<<<<<<<<<<<<<<<<<<<<<<<<<<<<<<<<<<<",
"<<<<<+       ;<<<<<<<<<<<<<<<<<<<<<<<<<<<<<<<<<<<<<<<<<<<<<<<",
"<<<<<+       -<<<<<<<<<<<<<<<<<<<<<<<<<<<<<<<<<<<<<<<<<<<<<<<",
"<<<<<+       $-&==;<<<<<<<<<<<<<<<<<<<<<<<<<<<<<<<<<<<<<<<<<<",
"<<<<<+            #<<<<<<<<,<<<<<<<<<<<<<<<<<<<<<<<<<<<<<<<<<",
"<<<<<+            #,<<<<,,<,<,,,<,,<,,<,<,<<,,<,<<,<<<,<<,,,<",
"<<<<<;**          .##++#+####+####+#++#@#+###+#++##+#+++#+###",
"<<<<<<<<                                                     ",
"<<<<<<<,                                                     ",
"<<<<<<<<<<&                                                  ",
"<<<<<<<<<<&                                                  ",
"**;<<<<<<<-+#O#+###+#+#####+#++###+#+#+###+#+####+#+#+#++###+",
"  +<<<<<<<<<<<,<,<<,<,,<,<,,<<,<,,,<,<,,<<,<,,,,,,<<<,<<,<,,,",
"  +<<<<<<<<<<<<<,<<<<<<<,<<<<<<<<<<<<<<<<<<<<<<<<<<<<<<<<<<<<",
"  .#+##+<<<<<<<<<<<<<<<<<<<<<<<<<<<<<<<<<<<<<<<<<<<<<<<<<<<<<",
"        <<<<<<<<<<<<<<<<<<<<<<<<<<<<<<<<<<<<<<<<<<<<<<<<<<<<<",
"       .<<<<<<<<<<<<<<<<<<<<<<<<<<<<<<<<<<<<<<<<<<<<<<<<<<<<<",
"<<=                                                          ",
"<<=                                                          ",
"<<:++.       ++++@##++##+@O     ##+####+@+@+@@+O       .++@+@",
"<<<<<+       -<<,,<<,,<<,,%    O,<,<,<,,<<<<<<<:       +,<<<<",
"<<<<<+       -<<<<<<<<<<<<=    .<<<<,<<<<<<<<<,;       +<<<<<",
"<<<<<:====#  -<<<<<<<<<<<<:==. O<<<<<<<<<<<<<<<,==+  ==:<<<<<",
"<<<<<<<<<,=  -<<<<<<<<<<<<,,<O +<<<<<<<<<<<<<<<<,<#  ,,<<<<<<",
"<<<<<<<<<,&  -<<<<<<<<<<<<<<,. .<<<<<<<<<<<<<<<<<<#  ,<<<<<<<",
"<<<<<<<<<<=  -<<<<<<<<<<<<<<<.    =,<<<<<<<<<<<<<<+  ,<<<<<<<",
"<<<<<<<<<<=  -,,<<<,<<<<<,<<,+    $,,,<<<<<<<,<<<<#  ,<<<<<<<",
"==========#  $==-=====-======.    #====-==-=======+  ========",
"                                                             ",
"                                                             ",
"===============-=-+  %===-=====-===-=.       ==-=============",
"<<<<<<<<<<<<,<<<,,$  :,,<<<<,,<<,<<<,.       >,<<<<<<<<<<<<<<",
"<<<<<<<<<<<<<<<<<<=  :<<<<<<<<<<<<<<<.       >,<<<<<<<<<<<<<<",
"<<<<<<<<<<<<<<<<<<&  -<<<<<<<<<<<<<<<<<;  &<<<<<<<<<<<<<<<<<<",
"<<<<,,<<<<<<<<<<<<&  ;<,<<<<<<<<<<<<<<<;  &<<<<<<<<<<<<<<<<<<",
"=====,<<<<<<<<<<<<&  &==<<<<<<<<<<<<<<<;  &,<<<<<<<<<<<<<<<<<",
"     -<<<<<<<<<<<,&    .<<<<<<<<<<<<<<<:  &<<<<<<<<<<<<<<<<<<",
"     =<<<,<,<<<<,<=    .<<<<<<,<<<<<<<<:  &,<<<<<<<<<<<<<<<<<",
"     O++#+##+#+++#.     #++++##++++++++O  O++++#@++@@@@++@@+@",
"                                                             ",
"                                                             ",
"<<<<<+       -,,<<<<<<<<<<<<,O    &,<<<<<<<<<<<-  &<<<<<<<<<<",
"<<<<<+       -<<<<<<<<<<<<<<<.    &<<<<<<<<<<<<-  &<<<<<<<<<<",
"<<<<<&+++++  -<<<<<<<<<<<<<<<O .+#=<<<<<<<<<<<<;  =,<<<<<<<<<",
"111<<<<<<<&  -<<<<<<<<<<<<<<<. .<<<<<<<<<<<<<<<=  =<<<<<<<<<<",
"111<<<<<<<&  -,<<<<<<<<<<<<<<O +<<<<<<<<<<<<<<<;  &<<<<<<<<<<",
"111<<<<<<,&  ++#<<<<<<<<<<-++. .<<<<<<<<<<<<<#+O  O++,<<<<<<<",
"111<<<<<<<&    .<<<<<<<<<<&    .<<<<<<<<<<<<<.       ,<<<<<<<",
"111<<<<<<<=    .<<<<<<<<<<$    .<<<<<<<<<<<<<.       <<<<<<<<"
};
