/* XPM */
static char *wall_north_plus_east_frame_2[] = {
/* columns rows colors chars-per-pixel */
"61 64 22 1 ",
"  c #13171E",
". c #14181F",
"X c #151921",
"o c #171C24",
"O c #171C25",
"+ c #191E27",
"@ c #1A1F29",
"# c #1A202A",
"$ c #1C212C",
"% c #1E242F",
"& c #1F2632",
"* c #202733",
"= c #212834",
"- c #222835",
"; c #232A38",
": c #242B39",
"> c #252C3A",
", c #272F3E",
"< c #282F3F",
"1 c #28303F",
"2 c #293141",
"3 c None",
/* pixels */
"22222@    $222222222222222222222222222222222222222222X    -22",
"22222@    $222222222222222222222222222222222222222222.    -22",
"22222@    $222222222222222222222222222222222222222222.    $--",
"22222@    $222222222222222222222222222222222222222222.       ",
"22222@    $222222222222222222222222222222222222222222X       ",
"22222@    $222222222222222222222222222222222222222222.       ",
"22222@    $222222222222222222222222222222222222222222X       ",
"22222@    $222222222222222222222222222222222222222222.       ",
"22222@    $22222222222222222222222222222222222222222222222#  ",
"22222@    $22222222222222222222222222222222222222222222222#  ",
"22222@    +--,22222222222222222222222222222222222222222222&@#",
"22222@       ;22222222222222222222222222222222222222222222222",
"22222@       ;22222222222222222222222222222222222222222222222",
"22222@       ;22222222222222222222222222222222222222222222222",
"22222@       ;22222222222222222222222222222222222222222222222",
"22222@       ;22222222222222222222222222222222222222222222222",
"22222@       -22222222222222222222222222222222222222222222222",
"22222@      .;22222222222222222222222222222222222222222222222",
"22222@      .%--222222222222222222222222222222222222222222222",
"22222@         X222222222222222222222222222222222222222222222",
"22222@         X222222222222222222222222222222222222222222222",
"22222:--       .#############################################",
"22222221                                                     ",
"22222221                                                     ",
"222222222222222,                                             ",
"222222222222222,                                             ",
"-----,2222222221#############################################",
"     -2222222222222222222222222222222222222222222222222222222",
"     -2222222222222222222222222222222222222222222222222222222",
"     +#@##-22222222222222222222222222222222222222222222222222",
"          #22222222222222222222222222222222222222222222222222",
"          $22222222222222222222222222222222222222222222222222",
"22-                                                          ",
"22-.                                                         ",
"22;####@          O#######@##X    O@###########+       X@####",
"22222221          $2222222222o    &222222222222;       @22222",
"22222222          $2222222222o    &222222222222;       @22222",
"22222222--$  %---->2222222222o X-->222222222222,--+  --;22222",
"2222222222&. ;222222222222222o o222222222222222222$  22222222",
"2222222222&  ;222222222222222o O222222222222222222$  ,2222222",
"  #2222222*  -222222222222222o O222222222222222222#  ,2222222",
"  #2222222* .:222222222222222o O222222222222222222$  22222222",
"  +=------$  %---------------X X------------------+  --------",
"                .                                .           ",
"                                                             ",
"---------------*     &---------------X      .&---------------",
"222222222222222,     :222222222222222X.      ,222222222222222",
"222222222222222,     :222222222222222X.      ,222222222222222",
"222222222222222222&  :22222222222222222:  &222222222222222222",
"222222222222222222&  :22222222222222222:  &222222222222222222",
"--;222222222222222&  :22222222222222222:  &222222222222222222",
" .#222222222222222&  :22222222222222222>  &222222222222222222",
"  #222222222222222*  :22222222222222222;  &222222222222222222",
"  X###############o  +#@#############@#@  O##################",
"    .                                                        ",
"                                                             ",
"22222221     ;222222222222222O    &222222222222;     ,2222222",
"22222222     -222222222222222X    &222222222222;     22222222",
"22222222##+ .;222222222222222O X##-222222222222;  O#@22222222",
"2222222222&. ;222222222222222O o222222222222222;  *2222222222",
"2222222222&  -222222222222222o o222222222222222;  *2222222222",
"3322222222&  +##2222222222222o o222222222222222;  *2222222222",
"3332222222&.  XX2222222222222o O222222222222222;  *2222222222",
"3332222222=   .X2222222222222O X222222222222222;  *2222222222"
};
