/* XPM */
static char *_3c55a9de555474b9af4a1ddbdf01addyeluf0Irm2bJXqf4[] = {
/* columns rows colors chars-per-pixel */
"50 50 50 1 ",
"  c None",
". c red",
"X c #FF0101",
"o c #FF0202",
"O c #FF0404",
"+ c #FF0505",
"@ c #FF0606",
"# c #FF0707",
"$ c #FF1D1D",
"% c #FF1E1E",
"& c #FF1F1F",
"* c #FF2626",
"= c #FF2B2B",
"- c #FF2C2C",
"; c #FF3232",
": c #FF3939",
"> c #FF3B3B",
", c #FF4444",
"< c #FF4949",
"1 c #FF4C4C",
"2 c #FF4F4F",
"3 c #FF5050",
"4 c #FF5353",
"5 c #FF5555",
"6 c #FF5556",
"7 c #FF5656",
"8 c #FF5757",
"9 c #FF5858",
"0 c #FFC0C0",
"q c #FFC1C1",
"w c #FFC1C2",
"e c #FFC2C2",
"r c #FFC3C3",
"t c #FFC4C4",
"y c #FFC6C6",
"u c #FFCBCB",
"i c #FFD1D1",
"p c #FFD2D2",
"a c #FFD8D8",
"s c #FFDEDE",
"d c #FFE5E5",
"f c #FFE8E8",
"g c #FFF1F1",
"h c #FFF2F2",
"j c #FFF3F3",
"k c #FFF4F4",
"l c #FFF5F5",
"z c #FFF7F7",
"x c #FFFEFE",
"c c white",
/* pixels */
"   cccccccccccccccccccccccccccccccccccccccccccc   ",
"  y55555555555955555955555955555955555955555555y  ",
" 09............................................50 ",
"c3.O$$$**O..............................O$*$*$O.3c",
"c5.$fzggg:..............................:gzggf$.5c",
"c5.*zccccu5............................5uccccz*.5c",
"c5.$gccccc03..........................3ycccccg$.5c",
"c5.$zccccccd-O......................O-sccccccz$.5c",
"c5.*gcccccccg;......................;gcccccccg*.5c",
"c5.O>pcccccccp3....................5pcccccccp:O.5c",
"c5...50ccccccc05..................50ccccccc05...5c",
"c5....3accccccca;O..............O;accccccca3....5c",
"c5.....-gcccccccg-..............=gcccccccg=.....5c",
"c5.....O;accccccca3............3accccccca;O.....5c",
"c5.......50ccccccc05..........50ccccccc05.......5c",
"c5........5pcccccccp>O......O>pcccccccp5........5c",
"c5.........;gcccccccg*......*gcccccccg;.........5c",
"c9.........O-scccccccs2....2scccccccs=O.........5c",
"c5...........30ccccccc05..90cccccccy3...........5c",
"c5............9ucccccccu<<ucccccccu5............5c",
"c5.............:gccccccccccccccccg:.............5c",
"c5.............O*dccccccccccccccd*O.............5c",
"c9...............3yccccccccccccy3...............5c",
"c5................9yccccccccccy9................5c",
"c5.................,cccccccccc,.................5c",
"c5.................,cccccccccc,.................5c",
"c5................9yccccccccccy5................5c",
"c5...............3yccccccccccccy3...............5c",
"c9.............O*dccccccccccccccd*O.............5c",
"c5.............:gccccccccccccccccg:.............5c",
"c5............9ucccccccu<<ucccccccu9............5c",
"c5...........50ccccccc09..90ccccccc05...........5c",
"c5.........O-scccccccs2....2scccccccs=O.........5c",
"c5.........;gcccccccg*......=gcccccccg;.........5c",
"c9........5pcccccccp>O......O:pcccccccp5........5c",
"c5.......50ccccccc05..........50ccccccc05.......5c",
"c5.....O;accccccca3............3accccccca;O.....5c",
"c5.....-gcccccccg-..............=gcccccccg-.....5c",
"c5....3accccccca;O..............O;accccccca2....5c",
"c5...50ccccccc05..................50ccccccc05...5c",
"c5.O:pcccccccp3....................3pcccccccp>#.5c",
"c5.$gcccccccg;......................;gcccccccg*.5c",
"c5.*zccccccs-O......................O-sccccccz$.5c",
"c5.$gccccc05..........................3ycccccg$.5c",
"c5.*zccccu9............................9uccccz$.5c",
"c5.$dzgzg:..............................:ggzzd$.5c",
"c3..$$$*$O..............................O$$$*$O.3c",
" 09............................................90 ",
"  y55555555555555955555555555555955555555555555y  ",
"   cccccccccccccccccccccccccccccccccccccccccccc   "
};
