/* XPM */
static char *player_up_frame_1[] = {
/* columns rows colors chars-per-pixel */
"63 64 2 1 ",
"  c None",
". c white",
/* pixels */
"                                                               ",
"                                                               ",
"                                                               ",
"                                                               ",
"                                                               ",
"                                                               ",
"                      ......        ......                     ",
"                      ......        ......                     ",
"                     ........................                  ",
"                     ........................                  ",
"                     ........................                  ",
"                     ........................                  ",
"                     ........................                  ",
"                   ............................                ",
"                  .............................                ",
"                  .............................                ",
"                ...............................                ",
"                ...............................                ",
"                ...............................                ",
"                ...............................                ",
"                ...............................                ",
"                ...............................                ",
"                ...............................                ",
"                ...............................                ",
"                ..................................             ",
"                ..................................             ",
"                ..................................             ",
"                ..................................             ",
"                ..................................             ",
"                ..................................             ",
"                ..................................             ",
"                ..................................             ",
"                ..................................             ",
"                ..................................             ",
"                ..................................             ",
"                ..................................             ",
"                ..................................             ",
"                ..................................             ",
"                ..................................             ",
"                ..................................             ",
"                  .............................                ",
"                  .............................                ",
"                  .............................                ",
"                  .............................                ",
"                  .............................                ",
"                  .............................                ",
"                  .............................                ",
"                  .............................                ",
"                  .....   ...................                  ",
"                  .....   ...................                  ",
"                   ....    .................                   ",
"                                                               ",
"                                                               ",
"                                                               ",
"                                                               ",
"                                                               ",
"                                                               ",
"                                                               ",
"                                                               ",
"                                                               ",
"                                                               ",
"                                                               ",
"                                                               ",
"                                                               "
};
