/* XPM */
static char *player_right[] = {
/* columns rows colors chars-per-pixel */
"64 63 19 1 ",
"  c None",
". c #060606",
"X c #161616",
"o c #3F3F3F",
"O c #474747",
"+ c #4B4B4B",
"@ c #5A5A5A",
"# c #616161",
"$ c #6B6B6B",
"% c #8B8B8B",
"& c #A4A4A4",
"* c #A6A6A6",
"= c #B6B6B6",
"- c #BCBCBC",
"; c #C3C3C3",
": c #F4F4F4",
"> c #F7F7F7",
", c #F8F8F8",
"< c white",
/* pixels */
"                                                                ",
"                                                                ",
"                                                                ",
"                                                                ",
"                                                                ",
"                                                                ",
"                                                                ",
"                           <<<<<                                ",
"                           <<<<<                                ",
"                           <<<<<                                ",
"                           <<<<<        <<<<<<                  ",
"                           <<<<<        <<<<<<                  ",
"                           <<<<<<<      <<<<<<<<                ",
"                           <<<<<<<<     <<<<<<<<                ",
"                           <<<<<<<<     <<<<<<<<                ",
"                           <<<<<<<<     <<<<<<<<                ",
"                           <<<<<<<<     <<<<<<<<                ",
"                           <<<<<<<<     <<<<<<<<                ",
"                <<<<<<<<<<<<<<<<<<<<<<<<<<<<<<<<                ",
"                <<<<<<<<<<<<<<<<<<<<<<<<<<<<<<<<                ",
"                <<<<<<<<<<<<<<<<<<<<<<<<<<<<<<<<<               ",
"           <<<<<<<<<<<<<<<<<<<<<<<<<<<<<<<<<<<<<<<<<<<          ",
"           <<<<<<<<<<<<<<<<<<<<<<<<<<<<<<<<<<<<<<<<<<<          ",
"        <<<<<<<<<<<<<<<<<<<<<<<<<<<<<<<<<<<<<<<<<<<<<<<<        ",
"        <<<<<<<<<<<<<<<<<<<<<<<<<<<<<<<<<<<<<<<<<<<<<<<<        ",
"        <<<<<<<<<<<<<<<<<<<<<<<<<<<<<<<<<<<<<<<<<:::::<<        ",
"        <<<<<<<<<<<<<<<<<<<<<<<<<<<<<<<<<<<<<<<<@....O<<        ",
"        <<<<<<<<<<<<<<<<<<<<<<<<<<<<<<<<<<<<<<<<@....O<<        ",
"        <<<<<<<<<<<<<<<<<<<<<<<<<<<<<<<<<<<<<<<<@....O<<<       ",
"        <<<<<<<<<<<<<<<<<<<<<<<<<<<<<<<<<<<<<<<<@....O<<<<<     ",
"        <<<<<<<<<<<<<<<<<<<<<<<<<<<<<<<<<<<<<<<<@....O<<<<<     ",
"        <<<<<<<<<<<<<<<<<<<<<<<<<<<<<=####$<<<<<;****-<<<<<     ",
"        <<<<<<<<<<<<<<<<<<<<<<<<<<<<<%....X<<<<<<<<<<<<<<<<     ",
"        <<<<<<<<<<<<<<<<<<<<<<<<<<<<<%....X<<<<<<<<<<<<<<<<     ",
"        <<<<<<<<<<<<<<<<<<<<<<<<<<<<<%....X<<<<<<<<<<<<<<<<     ",
"        <<<<<<<<<<<<<<<<<<<<<<<<<<<<<%....X<<<<<<<<<<<<<<<<     ",
"        <<<<<<<<<<<<<<<<<<<<<<<<<<<<<*oooo+<<<<<<<<<<<<<<<<     ",
"           <<<<<<<<<<<<<<<<<<<<<<<<<<<<<<<<<<<<<<<<<<<<<<<<     ",
"           <<<<<<<<<<<<<<<<<<<<<<<<<<<<<<<<<<<<<<<<<<<<<<<<     ",
"             <<<<<<<<<<<<<<<<<<<<<<<<<<<<<<<<<<<<<<<<<<<<<<     ",
"             <<<<<<<<<<<<<<<<<<<<<<<<<<<<<<<<<<<<<<<<<<<<<<     ",
"             <<<<<<<<<<<<<<<<<<<<<<<<<<<<<<<<<<<<<<<<<<<<<<     ",
"             <<<<<<<<<<<<<<<<<<<<<<<<<<<<<<<<<<<<<<<<<<<<<<     ",
"             <<<<<<<<<<<<<<<<<<<<<<<<<<<<<<<<<<<<<<<<<<<<<<     ",
"             <<<<<<<<<<<<<<<<<<<<<<<<<<<<<<<<<<<<<<<<<<<<<<     ",
"             <<<<<<  <<<<<<<<<<<<<<<<<<<<<<<<<<<<<<<<<<<        ",
"             <<<<<<  <<<<<<<<<<<<<<<<<<<<<<<<<<<<<<<<<<<        ",
"             <<<<<<  <<<<<<<<<<<<<<<<<<<<<<<<<<<<<<<<<<<        ",
"           <<<<<<<<  <<<<<<<<         <<<<<<<<     <<<<<        ",
"           <<<<<<<<  <<<<<<<<         <<<<<<<<     <<<<<        ",
"           <<<<<     <<<<<<             <<<<<<     <<<<<        ",
"           <<<<<     <<<<<<             <<<<<<     <<<<<        ",
"           <<<<<     <<<<<<             <<<<<<     <<<<<        ",
"           <<<<<     <<<<<<             <<<<<<     <<<<<        ",
"           <<<<<     <<<<<               <<<<<     <<<<<        ",
"           <<<<<      <<<<               <<<<<     <<<<<        ",
"                                         <<<<<                  ",
"                                        <<<<<<                  ",
"                                                                ",
"                                                                ",
"                                                                ",
"                                                                ",
"                                                                "
};
