/* XPM */
static char *f4f184cd883140488ad4a092e9da80b8_2[] = {
/* columns rows colors chars-per-pixel */
"23 16 2 1 ",
"  c None",
". c #EDE285",
/* pixels */
"     ...               ",
"    ......             ",
"   ........            ",
"  ...   ...            ",
"  ...    ...           ",
" ...     ...     ......",
" ..       .............",
" ..       .............",
" ...      .............",
" ...      ...   ... ...",
" ...     ...    ... ...",
"  ..    ....    ... ...",
"  ...  .....    ...  ..",
"  .........            ",
"   .......             ",
"    ....               "
};
