/* XPM */
static char *frame_2_delay_0_2s[] = {
/* columns rows colors chars-per-pixel */
"32 32 2 1 ",
"  c #EB91CA",
". c None",
/* pixels */
"................................",
"................................",
"................................",
".....        .......       .....",
"....            .           ....",
"...                          ...",
"..                           ...",
".                            ...",
".                            ...",
".                            ...",
".                            ...",
".                            ...",
"...                          ...",
"...                         ....",
"...                         ....",
"....                       .....",
".....                      .....",
"......                    ......",
".......                  .......",
"........                ........",
".........              .........",
"..........            ..........",
"...........          ...........",
"............        ............",
"............       .............",
".............     ..............",
".............    ...............",
".............    ...............",
".............   ................",
"................................",
"................................",
"................................"
};
