/* XPM */
static char *snail_frame_2[] = {
/* columns rows colors chars-per-pixel */
"64 64 2 1 ",
"  c #C29E46",
". c None",
/* pixels */
"................................................................",
"................................................................",
"................................................................",
"................................................................",
"................................................................",
"................................................................",
"................................................................",
"................................................................",
"................             ...................................",
"................             ...................................",
"................              ..................................",
"...........                        .............................",
"...........                        .............................",
"........        ..........           ...........................",
"........        ...........          ...........................",
"........        ...........          ...........................",
".....        ......        ..           ........................",
".....        ......        ..           ........................",
".....        .....         ..           ........................",
"...        ..                ...        ........     ......     ",
"...        ..                ...        ........     ......     ",
"...     ...           ..        ..        ......     ...        ",
"...     ...          ...        ...        .....     ...        ",
"...     ...          ...        ...        .....     ...        ",
"...     ...        ..        ......        ..   ................",
"...     ...        ..        ......        ..   ................",
"...     ...        ..        .....         ..   ................",
"...     ...     ...        .....           ..      .....     ...",
"...     ...     ...        .....           ..      .....     ...",
"...     ...        ........             .....      ...       ...",
"...     ...        ........             .....      ..        ...",
"...     ...        ........             .....      ..        ...",
"...     ...                          ........                ...",
"...     ...                          ........                ...",
"...     ...                          ........                ...",
".....      ..                      .....   ..                ...",
".....      ..                      .....   ..                ...",
".....        ......................        ..              .....",
".....        ......................        ..              .....",
".....        ......................        ..              .....",
"........                                   ..              .....",
"........                                   ..              .....",
"........                                   ..             ......",
"...     ...                          ......             ........",
"...     ...                          ......             ........",
"           .......         ..........                   ........",
"           ........        ..........                   ........",
"           ........        ..........                   ........",
"                   ........                          ...........",
"                   ........                          ...........",
"                   .......                           ...........",
"...                                                .............",
"...                                                .............",
".....                                   ........................",
".....                                   ........................",
".....                                   ........................",
"................................................................",
"................................................................",
"................................................................",
"................................................................",
"................................................................",
"................................................................",
"................................................................",
"................................................................"
};
