/* XPM */
static char *portal_2_frame_1[] = {
/* columns rows colors chars-per-pixel */
"64 64 2 1 ",
"  c gold",
". c None",
/* pixels */
"................................................................",
"................................................................",
"................................................................",
"................................................................",
"................................................................",
"................................................................",
"................................................................",
"................................................................",
"................................................................",
".........                                              .........",
".........                                              .........",
".........                                              .........",
".........                                              .........",
".........                                              .........",
".........                                              .........",
".........                                              .........",
".........                                              .........",
".........                                              .........",
"                                                       .........",
"                                                       .........",
"                                                       .........",
"                                                       .........",
"                                                       .........",
"                                                       .........",
"                                                       .........",
"                                                       .........",
"                                                       .........",
"                                                                ",
"                                                                ",
"                                                                ",
"                                                                ",
"                                                                ",
"                                                                ",
"                                                                ",
"                                                                ",
"                                                                ",
"                                                                ",
"                                                                ",
"                                                                ",
"                                                                ",
"                                                                ",
"                                                                ",
"                                                                ",
"                                                                ",
"                                                                ",
"                                                                ",
".........                                              .........",
".........                                              .........",
".........                                              .........",
".........                                              .........",
".........                                              .........",
".........                                              .........",
".........                                              .........",
".........                                              .........",
".........                                              .........",
"..................                            ..................",
"..................                            ..................",
"..................                            ..................",
"..................                            ..................",
"..................                            ..................",
"..................                            ..................",
"..................                            ..................",
"..................                            ..................",
"..................                            .................."
};
