/* XPM */
static char *love_small_icon[] = {
/* columns rows colors chars-per-pixel */
"32 32 2 1 ",
"  c #EB91CA",
". c None",
/* pixels */
"................................",
"................................",
"................................",
".......         ...          ...",
"......          ...          ...",
"......          ...          ...",
"....                         ...",
"...                          ...",
"...                          ...",
"...                          ...",
"                                ",
"                                ",
"                                ",
"...                          ...",
"...                          ...",
"...                          ...",
"......                    ......",
"......                    ......",
"......                    ......",
".........              .........",
"..........            ..........",
"..........            ..........",
"............        ............",
".............      .............",
".............      .............",
".............      .............",
".............      .............",
".............      .............",
".............      .............",
"................................",
"................................",
"................................"
};
