/* XPM */
static char *player_down[] = {
/* columns rows colors chars-per-pixel */
"64 64 7 1 ",
"  c None",
". c gray3",
"X c #5A5A5A",
"o c #919191",
"O c #ADADAD",
"+ c #E4E4E4",
"@ c white",
/* pixels */
"                                                                ",
"                                                                ",
"                                                                ",
"                                                                ",
"                                                                ",
"                                                                ",
"                                                                ",
"                                                                ",
"                           @@@@@@@@@@@@@                        ",
"                           @@@@@@@@@@@@@                        ",
"                          @@@@@@@@@@@@@@                        ",
"        @@@@@@@@     @@@@@@@@@@@@@@@@@@@@@@                     ",
"        @@@@@@@@     @@@@@@@@@@@@@@@@@@@@@@                     ",
"        @@@@@@@@@@@@@@@@@@@@@@@@@@@@@@@@@@@@@                   ",
"        @@@@@@@@@@@@@@@@@@@@@@@@@@@@@@@@@@@@@                   ",
"        @@@@@@@@@@@@@@@@@@@@@@@@@@@@@@@@@@@@@                   ",
"           @@@@@@@@@@@@@@@@@@@@@@@@@@@@@@@@@@                   ",
"           @@@@@@@@@@@@@@@@@@@@@@@@@@@@@@@@@@                   ",
"           @@@@@@@@@@@@@@@@@@@@@@@@@@@@@@@@@@                   ",
"                   @@@@@@@@@@@@@@@@@@@@@@@@@@                   ",
"                   @@@@@@@@@@@@@@@@@@@@@@@@@@                   ",
"                   @@@@@@@@@@@@@@@@@@@@@@@@@@                   ",
"                   @@@@@@@@@@@@@@@@@@@@@@@@@@                   ",
"                   @@@@@@@@@@@@@@@@@@@@@@@@@@                   ",
"        @@@@@@@@@@@@@@@@@@@@@@@@@@@@@@@@@@@@@@@@@@@@@           ",
"        @@@@@@@@@@@@@@@@@@@@@@@@@@@@@@@@@@@@@@@@@@@@@           ",
"        @@@@@@@@@@@@@@@@@@@@@@@@@@@@@@@@@@@@@@@@@@@@@           ",
"        @@@@@@@@@@@@@@@@@@@@@@@@@@@@@@@@@@@@@@@@@@@@@           ",
"        @@@@@@@@@@@@@@@@@@@@@@@@@@@@@@@@@@@@@@@@@@@@@           ",
"                  @@@@@@@@@@@@@@@@@@@@@@@@@@@@@@@@@             ",
"                   @@@@@@@@@@@@@@@@@@@@@@@@@@@@@@@@             ",
"                   @@@@@@@@@@@@@@@@@@@@@@@@@@@@@@@@             ",
"                   @@@@@@@@@@@@@@@@@@@@@@@@@@                   ",
"                   @@@@@@@@@@@@@@@@@@@@@@@@@@                   ",
"                   @@@@@@@@@@@@@@@@@@@@@@@@@@                   ",
"                   @@@@@@@@@@@@@@@@@@@@@@@@@@                   ",
"                   @@@@@@@@@@@@@@@@@@@@@@@@@@                   ",
"              @@@@@@@@@@@@@@@oXXXXo@@@@@@@@@@                   ",
"             @@@@@@@@@@@@@@@@X....X@@@@@@@@@@                   ",
"             @@@@@@@@@@@@@@@@X....X@@@@@@@@@@                   ",
"        @@@@@@@@@@@@@@@@@@@@@X....X@@@@@@@@@@@@@@@@@@@@@        ",
"        @@@@@@@@@@@@@@@@@@@@@X....X@@@@@@@@@@@@@@@@@@@@@        ",
"        @@@@@@@@@@@@@@@@@@@@@oXXXXo@@@@@@@@@@@@@@@@@@@@@        ",
"        @@@@@@@@   @@@@@@@@@@@@@@@@@@@@@@@@@@@@@@@@@@@@@        ",
"        @@@@@@@@   @@@@@@@@@@@@@@@@@@@@@@@@@@@@@@@@@@@@@        ",
"                   @@@@@@@@@@@@@@@@@@@@@@@@@@@@@@@@             ",
"                   @@@@@@@@@@@@@@@@@@@@@@@@@@@@@@@@             ",
"                   @@@@@@@@@@@@@@@@@@@@@@@@@@@@@@@@             ",
"                   @@@@@@@@@@@@@@@O.....@@@@@                   ",
"                   @@@@@@@@@@@@@@@O.....@@@@@                   ",
"                  @@@@@@@@@@@@@@@@O.....@@@@@                   ",
"        @@@@@@@@@@@@@@@@@@@@@@@@@@O.....@@@@@                   ",
"        @@@@@@@@@@@@@@@@@@@@@@@@@@O.....@@@@@                   ",
"        @@@@@@@@@@@@@@@@@@@@@@@@@@+OOOOO@@@                     ",
"        @@@@@@@@@@@@@@@@@@@@@@@@@@@@@@@@@@@                     ",
"        @@@@@@@@@@@@@@@@@@@@@@@@@@@@@@@@@@@                     ",
"                        @@@@@@@@@@@@@@@@                        ",
"                        @@@@@@@@@@@@@@@@                        ",
"                        @@@@@@@@@@@@@@@@                        ",
"                                                                ",
"                                                                ",
"                                                                ",
"                                                                ",
"                                                                "
};
