/* XPM */
static char *_[] = {
/* columns rows colors chars-per-pixel */
"64 64 2 1 ",
"  c None",
". c #27071c",
/* pixels */
"                                                                ",
"                                                                ",
"                                                                ",
"                                                                ",
"                                                                ",
"                ........                   ..........           ",
"                ........                   ..........           ",
"                ........                   ..........           ",
"           ..................        ...................        ",
"           ..................        ...................        ",
"          ....................       ...................        ",
"        ........................   ........................     ",
"        ........................   ........................     ",
"      .....................................................     ",
"     ......................................................     ",
"     ......................................................     ",
"     ........................................................   ",
"     ........................................................   ",
"     ........................................................   ",
"   ..........................................................   ",
"   ..........................................................   ",
"   ..........................................................   ",
"   ..........................................................   ",
"   ..........................................................   ",
"   ..........................................................   ",
"   ..........................................................   ",
"   ..........................................................   ",
"     ......................................................     ",
"     ......................................................     ",
"     ......................................................     ",
"     ......................................................     ",
"     ......................................................     ",
"        ................................................        ",
"        ................................................        ",
"        ................................................        ",
"           ..........................................           ",
"           ..........................................           ",
"             ......................................             ",
"             ......................................             ",
"             ......................................             ",
"                ................................                ",
"                ................................                ",
"                ................................                ",
"                   ..........................                   ",
"                   ..........................                   ",
"                     ......................                     ",
"                     ......................                     ",
"                     ......................                     ",
"                        ................                        ",
"                        ................                        ",
"                        ................                        ",
"                           ..........                           ",
"                           ..........                           ",
"                           ........                             ",
"                           ........                             ",
"                           ........                             ",
"                             ......                             ",
"                             ......                             ",
"                              ....                              ",
"                                                                ",
"                                                                ",
"                                                                ",
"                                                                ",
"                                                                "
};
