/* XPM */
static char *f4f184cd883140488ad4a092e9da80b8_0[] = {
/* columns rows colors chars-per-pixel */
"24 24 2 1 ",
"  c None",
". c #EDE285",
/* pixels */
"                        ",
"                        ",
"                        ",
"                        ",
"    .....               ",
"   .......              ",
"  .........             ",
"  ...   ...             ",
" ...     ...            ",
" ...     ...      ..... ",
" ..      .............. ",
" ..       ............. ",
" ..       ............. ",
" ...      ...   ... ... ",
" ...     ...    ... ... ",
"  ..     ...    ... ... ",
"  ...   ...      ..  .. ",
"   ........             ",
"    ......              ",
"     ....               ",
"                        ",
"                        ",
"                        ",
"                        "
};
