/* XPM */
static char *player_down[] = {
/* columns rows colors chars-per-pixel */
"64 63 17 1 ",
"  c None",
". c #060606",
"X c #0E0E0E",
"o c #161616",
"O c #171717",
"+ c #1F1F1F",
"@ c #262626",
"# c #888888",
"$ c #8B8B8B",
"% c #8C8C8C",
"& c #909090",
"* c #939393",
"= c #999999",
"- c #9A9A9A",
"; c #CBCBCB",
": c #E5E5E5",
"> c white",
/* pixels */
"                                                                ",
"                                                                ",
"                                                                ",
"                                                                ",
"                                                                ",
"                                                                ",
"                                                                ",
"                        >>>>>>>>>>>>>>>>>>>                     ",
"                        >>>>>>>>>>>>>>>>>>>                     ",
"                        >>>>>>>>>>>>>>>>>>>                     ",
"                     >>>>>>>>>>>>>>>>>>>>>>>>>                  ",
"                     >>>>>>>>>>>>>>>>>>>>>>>>>                  ",
"                   >>>>>>>>>>>>>>>>>>>>>>>>>>>>>                ",
"                   >>>>>>>>>>>>>>>>>>>>>>>>>>>>>                ",
"                   >>>>>>>>>>>>>>>>>>>>>>>>>>>>>                ",
"                   >>>>>>>>>>>>>>>>>>>>>>>>>>>>>                ",
"                   >>>>>>>>>>>>>>>>>>>>>>>>>>>>>                ",
"                   >>>>>>>>>>>>>>>>>>>>>>>>>>>>>                ",
"                >>>>>>>>>>>>>>>>>>>>>>>>>>>>>>>>                ",
"                >>>>>>>>>>>>>>>>>>>>>>>>>>>>>>>>                ",
"                >>>>>>>>>>>>>>>>>>>>>>>>>>>>>>>>>               ",
"                >>>>>>>>>>>>>>>>>>>>>>>>>>>>>>>>>>>             ",
"                >>>>>>>>>>>>>>>>>>>>>>>>>>>>>>>>>>>             ",
"                >>>>>>>>>>>>>>>>>>>>>>>>>>>>>>>>>>>             ",
"                >>>>>>>>>>>>>>>>>>>>>>>>>>>>>>>>>>>             ",
"                >>>>>>>>>>>>>>>>>>>>>>>>>>>>>>>>>>>             ",
"                >>>>>>>>>>>>>>>>>>>>>>>>>>>>>>>>>>>             ",
"                >>>>>>>>>>>>>>>>>>>>>>>>>>>>>>>>>>>             ",
"                >>>>>>>>>>>>>>>>>>>>>>>>>>>>>>>>>>>             ",
"                >>>>>>>>>>>>>>>>>>>>>>>>>>>>>>>>>>>             ",
"                >>>>>>>>>>>>>>>>>>>>>>>>>>>>>>>>>>>             ",
"                >>>>>>>>>>>>>>>>>>>>>>>>>>>>>>>>>>>             ",
"                >>>>>>>>>>>>>>>>>>>>>>>>>>>>>>>>>>>             ",
"                >>>>>>>>>>>>>>>>>>>>>>>>>>>>>>>>>>>             ",
"                >>>>>>>>+OOOO->>>>>>>*OOOO@>>>>>>>>             ",
"                >>>>>>>>X....*>>>>>>>%....O>>>>>>>>             ",
"                >>>>>>>>X....*>>>>>>>%....O>>>>>>>>             ",
"                >>>>>>>>X....*>>>>>>>%....O>>>>>>>>             ",
"                >>>>>>>>X....*>>>>>>>-....O>>>>>>>>             ",
"                >>>>>>>>%%%%%;>>>>>>>:%%%%*>>>>>>>>             ",
"                >>>>>>>>>>>>>>>>>>>>>>>>>>>>>>>>>>>             ",
"                >>>>>>>>>>>>>>>>>>>>>>>>>>>>>>>>>>>             ",
"                >>>>>>>>>>>>>>>>>>>>>>>>>>>>>>>>                ",
"                >>>>>>>>>>>>>>>>>>>>>>>>>>>>>>>>                ",
"                >>>>>>>>>>>>>>>>>>>>>>>>>>>>>>>>                ",
"                   >>>>>>>>>>>>>>>>>>>>>>>>>>>>>                ",
"                   >>>>>>>>>>>>>>>>>>>>>>>>>>>>>                ",
"                   >>>>>>>>>>>>>>>>>>>>>>>>>>>>>                ",
"                   >>>>>>>>                >>>>>                ",
"                   >>>>>>>>                >>>>>                ",
"                   >>>>>                   >>>>>                ",
"                   >>>>>                   >>>>>                ",
"                   >>>>>                   >>>>>                ",
"                   >>>>>                   >>>>>                ",
"                   >>>>>                   >>>>>                ",
"                   >>>>>                   >>>>>                ",
"                                                                ",
"                                                                ",
"                                                                ",
"                                                                ",
"                                                                ",
"                                                                ",
"                                                                "
};
