/* XPM */
static char *player_left_frame_move[] = {
/* columns rows colors chars-per-pixel */
"64 63 12 1 ",
"  c None",
". c #060606",
"X c #111111",
"o c gray56",
"O c #9F9F9F",
"+ c #A4A4A4",
"@ c #B9B9B9",
"# c #DFDFDF",
"$ c gray89",
"% c gray93",
"& c #F4F4F4",
"* c white",
/* pixels */
"                                                                ",
"                                                                ",
"                                                                ",
"                                                                ",
"                                                                ",
"                                                                ",
"                                                                ",
"               *****           *****                            ",
"               *****           *****                            ",
"               *****           *****                            ",
"               *****        ********                            ",
"               *****        ********                            ",
"               *****        ********                            ",
"               *****        ********                            ",
"               *****        ********                            ",
"            **************************************              ",
"            **************************************              ",
"            **************************************              ",
"         *******************************************            ",
"         *******************************************            ",
"         **&ooooo#**********************************            ",
"      *****$.....@**********************************            ",
"      *****$.....@**********************************            ",
"      *****$.....@*************************************         ",
"      *****$.....@*************************************         ",
"      *****$XXXXX@**&&&&&******************************         ",
"      **************.....O*****************************         ",
"      **************.....O*****************************         ",
"      **************.....O*****************************         ",
"      **************.....O*****************************         ",
"      **************.....O*****************************         ",
"      **************+++++%***************************           ",
"      **********************************************            ",
"      **********************************************            ",
"      **********************************************            ",
"      **********************************************            ",
"      **********************************************            ",
"      ********************************************              ",
"      ********************************************              ",
"         *****************************************              ",
"         *****************************************              ",
"         *****************************************              ",
"         ********   ********   *****   ********                 ",
"         ********   ********   *****   ********                 ",
"         ********   ********   *****   ********                 ",
"         ***********************************                    ",
"         ***********************************                    ",
"          **********************************                    ",
"            ********************************                    ",
"            ********************************                    ",
"              *********  *********  ******                      ",
"               ********  ********   ******                      ",
"               ********  ********   ******                      ",
"                                                                ",
"                                                                ",
"                                                                ",
"                                                                ",
"                                                                ",
"                                                                ",
"                                                                ",
"                                                                ",
"                                                                ",
"                                                                "
};
