/* XPM */
static char *you_win[] = {
/* columns rows colors chars-per-pixel */
"100 77 57 1 ",
"  c None",
". c #FAB01B",
"X c #FAB11B",
"o c #FAB21B",
"O c #FAB31B",
"+ c #FAB41B",
"@ c #FAB41C",
"# c #FAB51C",
"$ c #FAB61C",
"% c #FAB71C",
"& c #FAB81C",
"* c #FAB91C",
"= c #FABB1C",
"- c #FABC1C",
"; c #FABD1D",
": c #FABE1D",
"> c #FABF1D",
", c #FAC01D",
"< c #FAC11D",
"1 c #FAC21D",
"2 c #FAC31D",
"3 c #FAC41D",
"4 c #FAC61E",
"5 c #FACA1E",
"6 c #FACB1E",
"7 c #FACC1E",
"8 c #FACD1E",
"9 c #FACE1F",
"0 c #FACF1F",
"q c #FAD01F",
"w c #FAD11F",
"e c #FAD21F",
"r c #FAD41F",
"t c #FAD820",
"y c #FAD920",
"u c #FADA20",
"i c #FADB20",
"p c #FADD20",
"a c #FADE21",
"s c #FADF21",
"d c #FAE121",
"f c #FAE221",
"g c #FAE321",
"h c #FAE421",
"j c #FAE521",
"k c #FAE621",
"l c #FAE822",
"z c #FAE922",
"x c #FAEA22",
"c c #FAEB22",
"v c #FAEC22",
"b c #FAED22",
"n c #FAEE22",
"m c #FAEF22",
"M c #FAF123",
"N c #FAF223",
"B c #FAF323",
/* pixels */
"                                                                                                    ",
"                                                                                                    ",
"                                                                                                    ",
"                                                                                                    ",
"                                                                                                    ",
"                                                                                                    ",
"                                                                                                    ",
"           ......................          .kB          BBB   ...............   ..BB        BBB     ",
"           ...;kkkkkkkkkkkkkkkkkk          .kB          BBB   ..kkkkkkkkkkkkk   ..BB        BBB     ",
"            ..,BBBBBBBBBBBBBBBBBB          .kB          BBB   ..BBBBBBBBBBBBB   ..BB        BBB     ",
"             .,BBBBBBBBBBBBBBBB            .kB          BBB   ..BB        BBB   ..BB        BBB     ",
"             .,BBBBBBBBBBBBBBBB            .kB          BBB   ..BB        BBB   ..BB        BBB     ",
"             .,BBBBBBBBBBBBBBBB            .kB          BBB   ..BB        BBB   ..BB        BBB     ",
"        ........sBBBBBBBBBBBBBB;....       .kB          BBB   ..BB        BBB   ..BB        BBB     ",
"        ,,,,,,;.sBBBBBBBBBBBBzk..,,,       .kB          BBB   ..BB        BBB   ..BB        BBB     ",
"       .kBBBBBk.sBBBBBBBBBBBBr..;BBB..     .kB          BBB   ..BB        BBB   ..BB        BBB     ",
"       .kB    r.,5BBBBBBBBBBBk  5BBB..     .kBBBBBBBBBBBBBB   ..BB        BBB   ..BB        BBB     ",
"       .kB     ...BBBBBBBBBBBB   BBB..     .kBBBBBBBBBBBBBB   ..BB        BBB   ..BB        BBB     ",
"       .kB      ..BBBBBBBBBB     BBB..     .......;BBBBBBBB   ..BB        BBB   ..BB        BBB     ",
"       .kB      ..skBBBBBBBB     BBB..     .......;BBBBBBBB   ..BB        BBB   ..BB        BBB     ",
"       .kB      ...,BBBBBBBB      BB..           .;B          ..BB        BBB   ..BB        BBB     ",
"       .kB        ..,kBBBB        BB..           .;B          ..BB        BBB   ..BB        BBB     ",
"       .kB        ...sBBBz        BB..           .;B          ..BB        BBB   ..BB        BBB     ",
"       .kB          .sBBs.        BB..           .;B          ..BB        BBB   ..BB        BBB     ",
"       .kB         ..sBBt.        BB..           .;B          ..BB        BBB   ..BB        BBB     ",
"       .kB        ...sBBt.     BBBBB..           .;B          ..BB        BBB   ..BB        BBB     ",
"       .kBBBBBBBBB...sBBt.kBBBBBz;;;             .;B          ..BB        BBB   ..BB        BBB     ",
"       .szzzzzzzzz...sBBs.szzzzzs...             .;B          ..BB        BBB   ..BB        BBB     ",
"        ..........  .sBBB .......                .;B          ..BB        BBB   ..BB        BBB     ",
"                    .sBBB                        .;B          ..BB        BBB   ..BB        BBB     ",
"                    .sBBB                        .;B          ..BB        BBB   ..BB        BBB     ",
"                    .sBBB                        .;B          ..BB        BBB   ..BB        BBB     ",
"                    ,kBBB                        .;B          ..BB        BBB   ..BB        BBB     ",
"                  .,BBBBBB                       .;B          ..BBBBBBBBBBBBB   ..BBBBBBBBBBBBB     ",
"                 ..;555555;.                     .;B          ..5555555555555     55555555555s      ",
"                ............                     .;B          ...............     ...........       ",
"                                                                                                    ",
"                                                                                                    ",
"                                                                                                    ",
"                                                                                                    ",
"                                                                                                    ",
"                                                                                          BBBBB     ",
"                                                                                          BBBBB     ",
"           .....                    BBBBB   ..BBBBBBBBBBBBBBBBBBBBBBB   .;BBBBB           BBBBB     ",
"           ..skk                    BBBBB   ..BBBBBBBBBBBBBBBBBBBBBBB   .;BBBBBB          BBBBB     ",
"           ..zBB                    BBBBB   ..zzzzzzzzzzBBBBBBBBBBBBB   .;BBBBBB          BBBBB     ",
"           ..zBB                    BBBBB   ...........,BBBBBBBBBBBBB   .,BBBBBBBB        BBBBB     ",
"           ..zBB                    BBBBB    ..........,BBBBBBBBBBBB    .,BBBBBBBB        BBBBB     ",
"           ..zBB                    BBBBB             .,BBB             .;BBBBBBBBBB      BBBBB     ",
"           ..zBB                    BBBBB             .,BBB             .;BBBBBBBBBBB     BBBBB     ",
"           ..zBB                    BBBBB             .,BBB             .,BBBkkkzBBBB     BBBBB     ",
"           ..zBB                    BBBBB             .,BBB             .;BBB...sBBBB     BBBBB     ",
"           ..zBB                    BBBBB             .,BBB             .,BBB ..,5BBBBB   BBBBB     ",
"           ..zBB                    BBBBB             .,BBB             .,BBB  ...BBBBB   BBBBB     ",
"           ..zBB         BBB        BBBBB             .,BBB             .;BBB   ..BBBBBB  BBBBB     ",
"           ..zBB         BBB        BBBBB             .,BBB             .;BBB    .ssszBBB BBBBB     ",
"           ..zBB         BBB        BBBBB             .,BBB             .;BBB     ...kBBBBBBBBB     ",
"           ..zBB       BBBBBB       BBBBB             .,BBB             .;BBB      ..kBBBBBBBBB     ",
"           ..zBB       BBBBBBB      BBBBB             .,BBB             .;BBB       .kBBBBBBBBB     ",
"           ..zBB     BBBBBBBBBB     BBBBB             .,BBB             .;BBB        .;BBBBBBBB     ",
"           ..zBB     BBBBBssBBB     BBBBB             .,BBB             .,BBB        ..skBBBBBB     ",
"           ..zBB    BBBBBB;;BBBBB   BBBBB             .,BBB             .,BBB        ...rBBBBBB     ",
"           ..zBB  BBBBBBB   ,sBBBB  BBBBB             .,BBB             .,BBB          .;,zBBBB     ",
"           ..zBB  BBBBBBB   .5zBBB  BBBBB             .,BBB             .,BBB          ...zBBBB     ",
"           ..zBBBBBBBBB       .zBBBBBBBBB             .,BBB             .;BBB            .zBBBB     ",
"           ..zBBBBBBBBB       .rsBBBBBBBB             .,BBB             .;BBB            .zBBBB     ",
"           ..zBBBBBBB          .;BBBBBBBB             .,BBB             .,BBB             BBBBB     ",
"           ..zBBBBBB             ;sBBBBBB   ...........,BBBBBBBBBBBBB   .,BBB             BBBBB     ",
"           ..zBBBBBB             .rkBBBBB   ..;;;;;;;;;5BBBBBBBBBBBBB   .,BBB             BBBBB     ",
"           ..zBBBB                ..zBBBB   ..BBBBBBBBBBBBBBBBBBBBBBB   .,BBB             BBBBB     ",
"           ..555s                   5sBBB   ..BBBBBBBBBBBBBBBBBBBBBBB   ..555             BBBBB     ",
"           .....                    .,BBB   ..BBBBBBBBBBBBBBBBBBBBBBB   .....             BBBBB     ",
"                                                                                                    ",
"                                                                                                    ",
"                                                                                                    ",
"                                                                                                    ",
"                                                                                                    "
};
