/* XPM */
static char *wall_north_plus_south_plus_west_frame_02[] = {
/* columns rows colors chars-per-pixel */
"64 64 4 1 ",
"  c #13171E",
". c #151A22",
"X c #1A202A",
"o c #293141",
/* pixels */
"oooooX    XooooooooooooooooooooooooooooooooooooooooooX    Xooooo",
"oooooX    XooooooooooooooooooooooooooooooooooooooooooX    Xooooo",
"oooooX    XooooooooooooooooooooooooooooooooooooooooooX    Xooooo",
"oooooX    XooooooooooooooooooooooooooooooooooooooooooX    Xooooo",
"oooooX    XooooooooooooooooooooooooooooooooooooooooooX    Xooooo",
"XXXXX.    XooooooooooooooooooooooooooooooooooooooooooX    Xooooo",
"          XooooooooooooooooooooooooooooooooooooooooooX    Xooooo",
"          XooooooooooooooooooooooooooooooooooooooooooX    Xooooo",
"        oooooooooooooooooooooooooooooooooooooooooooooX    Xooooo",
"        oooooooooooooooooooooooooooooooooooooooooooooX    Xooooo",
"XXXXXXXXoooooooooooooooooooooooooooooooooooooooooooooX    Xooooo",
"oooooooooooooooooooooooooooooooooooooooooooooooooooooX    Xooooo",
"oooooooooooooooooooooooooooooooooooooooooooooooooooooX    Xooooo",
"oooooooooooooooooooooooooooooooooooooooooooooooooooooX    Xooooo",
"oooooooooooooooooooooooooooooooooooooooooooooooooooooX    Xooooo",
"oooooooooooooooooooooooooooooooooooooooooooooooooooooX    Xooooo",
"oooooooooooooooooooooooooooooooooooooooooooooooooooooX    Xooooo",
"oooooooooooooooooooooooooooooooooooooooooooooooooooooX    Xooooo",
"oooooooooooooooooooooooooooooooooooooooooooooooooooooX    Xooooo",
"oooooooooooooooooooooooooooooooooooooooooooooooooooooX    Xooooo",
"oooooooooooooooooooooooooooooooooooooooooooooooooooooX    Xooooo",
"XXXXXXXXoooooooooooooooooooooooooooooooooooooooooooooX    Xooooo",
"        oooooooooooooooooooooooooooooooooooooooooooooX    Xooooo",
"        oooooooooooooooooooooooooooooooooooooooooooooX    Xooooo",
"          XooooooooooooooooooooooooooooooooooooooooooX    Xooooo",
"          XooooooooooooooooooooooooooooooooooooooooooX    Xooooo",
"XXXXX.    XooooooooooooooooooooooooooooooooooooooooooX    Xooooo",
"oooooX    XooooooooooooooooooooooooooooooooooooooooooX    Xooooo",
"oooooX    XooooooooooooooooooooooooooooooooooooooooooX    Xooooo",
"oooooX    XooooooooooooooooooooooooooooooooooooooooooX    Xooooo",
"oooooX    XooooooooooooooooooooooooooooooooooooooooooX    Xooooo",
"oooooX    XooooooooooooooooooooooooooooooooooooooooooX    Xooooo",
"oooooX    XooooooooooooooooooooooooooooooooooooooooooX    Xooooo",
"oooooX    XooooooooooooooooooooooooooooooooooooooooooX    Xooooo",
"oooooX    XooooooooooooooooooooooooooooooooooooooooooX    Xooooo",
"oooooX    XooooooooooooooooooooooooooooooooooooooooooX    Xooooo",
"oooooX    XooooooooooooooooooooooooooooooooooooooooooX    Xooooo",
"oooooX    XooooooooooooooooooooooooooooooooooooooooooX    Xooooo",
"oooooX    XooooooooooooooooooooooooooooooooooooooooooX    Xooooo",
"oooooX    XooooooooooooooooooooooooooooooooooooooooooX    Xooooo",
"oooooX    XooooooooooooooooooooooooooooooooooooooooooX    Xooooo",
"oooooX    XooooooooooooooooooooooooooooooooooooooooooX    Xooooo",
"oooooX    XooooooooooooooooooooooooooooooooooooooooooX    Xooooo",
"oooooX    XooooooooooooooooooooooooooooooooooooooooooX    Xooooo",
"oooooX    XooooooooooooooooooooooooooooooooooooooooooX    Xooooo",
"oooooX    XooooooooooooooooooooooooooooooooooooooooooX    Xooooo",
"oooooX    XooooooooooooooooooooooooooooooooooooooooooX    Xooooo",
"oooooX    XooooooooooooooooooooooooooooooooooooooooooX    Xooooo",
"oooooX    XooooooooooooooooooooooooooooooooooooooooooX    Xooooo",
"oooooX    XooooooooooooooooooooooooooooooooooooooooooX    Xooooo",
"oooooX    XooooooooooooooooooooooooooooooooooooooooooX    Xooooo",
"oooooX    XooooooooooooooooooooooooooooooooooooooooooX    Xooooo",
"oooooX    XooooooooooooooooooooooooooooooooooooooooooX    Xooooo",
"oooooX    XooooooooooooooooooooooooooooooooooooooooooX    Xooooo",
"oooooX    XooooooooooooooooooooooooooooooooooooooooooX    Xooooo",
"oooooX    XooooooooooooooooooooooooooooooooooooooooooX    Xooooo",
"oooooX    XooooooooooooooooooooooooooooooooooooooooooX    Xooooo",
"oooooX    XooooooooooooooooooooooooooooooooooooooooooX    Xooooo",
"oooooX    XooooooooooooooooooooooooooooooooooooooooooX    Xooooo",
"oooooX    XooooooooooooooooooooooooooooooooooooooooooX    Xooooo",
"oooooX    XooooooooooooooooooooooooooooooooooooooooooX    Xooooo",
"oooooX    XooooooooooooooooooooooooooooooooooooooooooX    Xooooo",
"oooooX    XooooooooooooooooooooooooooooooooooooooooooX    Xooooo",
"oooooX    XooooooooooooooooooooooooooooooooooooooooooX    Xooooo"
};
