/* XPM */
static char *flower_frame_2[] = {
/* columns rows colors chars-per-pixel */
"64 64 2 1 ",
"  c #557AE0",
". c None",
/* pixels */
"................................................................",
"................................................................",
"................................................................",
"................................................................",
"................................................................",
"................................................................",
"................................................................",
"................................................................",
".....................................        ......          ...",
".....................................        ......          ...",
".....................................         ....           ...",
".....................................                      .....",
".....................................                      .....",
"......          ........................                ........",
".....           ........................                ........",
".....           ........................                ........",
"........                     ........        ...     ...........",
"........                     ........        ...     ...........",
"........                     ........         ..      ..........",
"...........                ..........                   ........",
"...........                ..........                   ........",
"........        ..      ...........        .....          ......",
"........        ...     ...........        .....           .....",
"........        ...     ...........        .....           .....",
".....                      .....................................",
".....                      .....................................",
".....                      .....................................",
".....        ...           .....................................",
".....        ...           .....................................",
"........................................          ..............",
"........................................           .............",
"........................................           .............",
".....................................              .............",
".....................................              .............",
".....................................             ..............",
"...................................             ................",
"...................................             ................",
"...................             ...             ................",
"...................             ...             ................",
"...................             ...             ................",
"...................                             ................",
"...................                             ................",
"...................                             ................",
"...................                ..        ...................",
"...................                ..        ...................",
".....................                                ...........",
".....................                                ...........",
".....................                                ...........",
"...........................                        .............",
"...........................                        .............",
"..........................                         .............",
"........................           ..              .............",
"........................           ..              .............",
"......................             .............................",
".....................              .............................",
".....................              .............................",
"........................        ................................",
"........................        ................................",
"........................        ................................",
"................................................................",
"................................................................",
"................................................................",
"................................................................",
"................................................................"
};
