/* XPM */
static char *fungi_frame_1[] = {
/* columns rows colors chars-per-pixel */
"58 64 2 1 ",
"  c #90673E",
". c None",
/* pixels */
"..........................................................",
"..........................................................",
"..........................................................",
"...       ................................................",
"...       ................................................",
"...       ................................................",
"             .............................................",
"             .............................................",
"             .............................................",
"             .............................................",
"                ..........................................",
"                ..........................................",
"                ..........................................",
"                ..........................................",
"                ..........................................",
"                ..........................................",
"...       ................................................",
"...       ................................................",
"...       ................................................",
"...       ................................................",
"...       ................................................",
"...       ................................................",
"...       ...................................      .......",
"...       ...................................       ......",
"...       ...................................       ......",
"....     ....................................       ......",
".......................................                ...",
".......................................                ...",
".......................................                ...",
"...................................                    ...",
"...................................                    ...",
"...................................                    ...",
"..........................................      ..........",
"..........................................      ..........",
"..........................................      ..........",
"..........................................      ..........",
"..........................................      ..........",
"..........................................      ..........",
"..........................................      ..........",
"..........................................      ..........",
"..........................................      ..........",
"..........................................      ..........",
".............................................   ..........",
".............................................   ..........",
".............................................   ..........",
"..........             ...................................",
"..........             ...................................",
"..........             ...................................",
"......                    ................................",
"......                    ................................",
"......                    ................................",
"......                    ................................",
"......                    ................................",
"......                    ................................",
".............       ......................................",
".............      .......................................",
".............      .......................................",
".............      .......................................",
"..........         .......................................",
"..........         .......................................",
"..........         .......................................",
"..........      ..........................................",
"..........      ..........................................",
"..........      .........................................."
};
