/* XPM */
static char *fungi_frame_0[] = {
/* columns rows colors chars-per-pixel */
"64 64 2 1 ",
"  c #90673E",
". c None",
/* pixels */
"................................................................",
"................................................................",
"................................................................",
"................................................................",
"................................................................",
"................................................................",
"................................................................",
"................................................................",
"...........          ...........................................",
"...........          ...........................................",
"..........            ..........................................",
"........                ........................................",
"........                ........................................",
"........                ........................................",
"........                ........................................",
"........                ........................................",
"........                ........................................",
"........                ........................................",
"........                ........................................",
".............      .............................................",
".............      .............................................",
".............      .............................................",
".............      .............................................",
".............      .............................................",
".............   ...........................             ........",
".............   ...........................             ........",
"..............  ..........................              ........",
"........................................                   .....",
"........................................                   .....",
"......................................                     .....",
".....................................                      .....",
".....................................                      .....",
".............................................      .............",
".............................................      .............",
".............................................      .............",
".............................................      .............",
".............................................      .............",
".............................................      .............",
".............................................      .............",
".............................................      .............",
".............................................      .............",
".............................................      .............",
"..............................................    ..............",
"...................          ...................................",
"...................          ...................................",
"................                ................................",
"................                ................................",
"................                ................................",
".............                   ................................",
".............                   ................................",
"..............                  ................................",
".....................      .....................................",
".....................      .....................................",
".....................      .....................................",
".....................      .....................................",
".....................      .....................................",
".....................      .....................................",
".....................      .....................................",
"......................    ......................................",
"................................................................",
"................................................................",
"................................................................",
"................................................................",
"................................................................"
};
