/* XPM */
static char *digit_2_frame_2[] = {
/* columns rows colors chars-per-pixel */
"32 32 2 1 ",
"  c #7d0800",
". c None",
/* pixels */
"................................",
"................................",
"................................",
"............     ...............",
".........           ............",
"........             ...........",
"........              ..........",
"........     ....      .........",
".......    ........    .........",
"........  .........     ........",
"........ ..........     ........",
"....................    ........",
"....................    ........",
"...................    .........",
"..................     .........",
".................      .........",
"................     ...........",
"...............     ............",
"..............      ............",
"............       .............",
".........        ...............",
"........        ................",
"........        ................",
".......          ...............",
"........                ........",
".........                .......",
"..........               .......",
"................        ........",
"................................",
"................................",
"................................",
"................................"
};
