/* XPM */
static char *wall_frame_0[] = {
/* columns rows colors chars-per-pixel */
"64 64 9 1 ",
"  c None",
". c #13171E",
"X c #151A22",
"o c #181D26",
"O c #1A202A",
"+ c #1F2531",
"@ c #222835",
"# c #242B39",
"$ c #293141",
/* pixels */
"     $$$$$$$$$$$$$$$$$$$$$$$$$$$$$$$$$$$$$$$$$$$$$$$$$$$$$$     ",
"     $$$$$$$$$$$$$$$$$$$$$$$$$$$$$$$$$$$$$$$$$$$$$$$$$$$$$$     ",
"     $$$$$$$$$$$$$$$$$$$$$$$$$$$$$$$$$$$$$$$$$$$$$$$$$$$$$$     ",
"   $$$$$$$$$$$$$$$$$$$$$$$$$$$$$$$$$$$$$$$$$$$$$$$$$$$$$$$$$$   ",
"   $$$$$$$$$$$$$$$$$$$$$$$$$$$$$$$$$$$$$$$$$$$$$$$$$$$$$$$$$$   ",
"$$$$$$$$$$$$$+OOOOOOOOOOOOOOOOOOOOOOOOOOOOOOOOOOOOOOO#$$$$$$$   ",
"$$$$$$$$$$$$$O.......................................@$$$$$$$   ",
"$$$$$$$$$$$$$O.......................................@$$$$$$$   ",
"$$$$$$$$................................................$$$$$$$$",
"$$$$$$$$................................................$$$$$$$$",
"$$$$$$$$........OOOOOOOOOOOOOOOOOOOOOOOOOOOOOOOO........@@#$$$$$",
"$$$$$$$$........$$$$$$$$$$$$$$$$$$$$$$$$$$$$$$$$..........O$$$$$",
"$$$$$$$$........$$$$$$$$$$$$$$$$$$$$$$$$$$$$$$$$..........O$$$$$",
"$$$$$+OO..o@@@@@$$$$$$$$$$$$$$$$$$$$$$$$$$$$$$$$@@O.......O$$$$$",
"$$$$$O....O$$$$$$$$$$$$$$$$$$$$$$$$$$$$$$$$$$$$$$$@.......O$$$$$",
"$$$$$O....O$$$$$$$$$$$$$$$$$$$$$$$$$$$$$$$$$$$$$$$@.......O$$$$$",
"$$$$$O....O$$$$$$$$$$$$$$$$$$$$$$$$$$$$$$$$$$$$$$$@.......O$$$$$",
"$$$$$O....O$$$$$$$$$$$$$$$$$$$$$$$$$$$$$$$$$$$$$$$@.......O$$$$$",
"$$$$$O....o@@#$$$$$$$$$$$$$$$$$$$$$$$$$$$$$$$$$$$$@.....OO+$$$$$",
"$$$$$O.......@$$$$$$$$$$$$$$$$$$$$$$$$$$$$$$$$$$$$@.....$$$$$$$$",
"$$$$$O.......@$$$$$$$$$$$$$$$$$$$$$$$$$$$$$$$$$$$$@.....$$$$$$$$",
"$$$$$#@@.....oOOOOOOOOOOOOOOOOOOOOOOOOOOOOOOOOOOOOo.....$$$$$$$$",
"$$$$$$$$................................................$$$$$$$$",
"$$$$$$$$................................................$$$$$$$$",
"$$$$$$$$$$@.......................................O$$$$$$$$$$O..",
"$$$$$$$$$$@.......................................O$$$$$$$$$$O..",
"@@#$$$$$$$#OOOOOOOOOOOOOOOOOOOOOOOOOOOOOOOOOOOOOOO+$$$$$$$$$$O..",
"..O$$$$$$$$$$$$$$$$$$$$$$$$$$$$$$$$$$$$$$$$$$$$$$$$$$$$$$$$$$O..",
"..O$$$$$$$$$$$$$$$$$$$$$$$$$$$$$$$$$$$$$$$$$$$$$$$$$$$$$$$$$$O..",
"..XOO#$$$$$$$$$$$$$$$$$$$$$$$$$$$$$$$$$$$$$$$$$$$$$$$$$$$$#OOX..",
".....@$$$$$$$$$$$$$$$$$$$$$$$$$$$$$$$$$$$$$$$$$$$$$$$$$$$$@.....",
".....@$$$$$$$$$$$$$$$$$$$$$$$$$$$$$$$$$$$$$$$$$$$$$$$$$$$$@.....",
"$$@..........................................................@$$",
"$$@..........................................................@$$",
"$$#OOOOO........OOOOOOOOOOo.....OOOOOOOOOOOOOOOOOOo.....OOOOO#$$",
"$$$$$$$$........$$$$$$$$$$@.....$$$$$$$$$$$$$$$$$$@.....$$$$$$$$",
"$$$$$$$$........$$$$$$$$$$@.....$$$$$$$$$$$$$$$$$$@.....$$$$$$$$",
"$$$$$$$$@@O..O@@$$$$$$$$$$#@@o..$$$$$$$$$$$$$$$$$$@..O@@$$$$$$$$",
"$$$$$$$$$$@..@$$$$$$$$$$$$$$$O..$$$$$$$$$$$$$$$$$$@..@$$$$$$$$$$",
"$$$$$$$$$$@..@$$$$$$$$$$$$$$$O..$$$$$$$$$$$$$$$$$$@..@$$$$$$$$$$",
"..O$$$$$$$@..@$$$$$$$$$$$$$$$O.......@$$$$$$$$$$$$@..@$$$$$$$O..",
"..O$$$$$$$@..@$$$$$$$$$$$$$$$O.......@$$$$$$$$$$$$@..@$$$$$$$O..",
"..o@@@@@@@O..O@@@@@@@@@@@@@@@o.......O@@@@@@@@@@@@O..O@@@@@@@o..",
"................................................................",
"................................................................",
"@@@@@@@@@@@@@@@@@@O..O@@@@@@@@@@@@@@@@@@.....O@@@@@@@@@@@@@@@o..",
"$$$$$$$$$$$$$$$$$$@..@$$$$$$$$$$$$$$$$$$.....@$$$$$$$$$$$$$$$O..",
"$$$$$$$$$$$$$$$$$$@..@$$$$$$$$$$$$$$$$$$.....@$$$$$$$$$$$$$$$O..",
"$$$$$$$$$$$$$$$$$$@..@$$$$$$$$$$$$$$$$$$..O$$$$$$$$$$$$$$$$$$O..",
"$$$$$$$$$$$$$$$$$$@..@$$$$$$$$$$$$$$$$$$..O$$$$$$$$$$$$$$$$$$O..",
"@@#$$$$$$$$$$$$$$$@..@$$$$$$$$$$$$$$$$$$..O$$$$$$$$$$$$$$$#@@o..",
"..O$$$$$$$$$$$$$$$@..@$$$$$$$$$$$$$$$$$$..O$$$$$$$$$$$$$$$@.....",
"..O$$$$$$$$$$$$$$$@..@$$$$$$$$$$$$$$$$$$..O$$$$$$$$$$$$$$$@.....",
"..XOOOOOOOOOOOOOOOo..oOOOOOOOOOOOOOOOOOO..XOOOOOOOOOOOOOOOo.....",
"................................................................",
"................................................................",
"$$$$$O.......@$$$$$$$$$$$$@.....$$$$$$$$$$$$$$$$..O$$$$$$$$$$$$$",
"$$$$$O.......@$$$$$$$$$$$$@.....$$$$$$$$$$$$$$$$..O$$$$$$$$$$$$$",
"$$$$$+OOOOo..@$$$$$$$$$$$$#OOX..$$$$$$$$$$$$$$$$..O$$$$$$$$$$$$$",
"$$$$$$$$$$@..@$$$$$$$$$$$$$$$O..$$$$$$$$$$$$$$$$..O$$$$$$$$$$$$$",
"$$$$$$$$$$@..@$$$$$$$$$$$$$$$O..$$$$$$$$$$$$$$$$..O$$$$$$$$$$$$$",
"  $$$$$$$$@..oOO$$$$$$$$$$$$$O..$$$$$$$$$$$$$+OO..O$$$$$$$$$$$  ",
"   $$$$$$$@.....$$$$$$$$$$$$$O..$$$$$$$$$$$$$O....O$$$$$$$$$$   ",
"   $$$$$$$@.....$$$$$$$$$$$$$O..$$$$$$$$$$$$$O....O$$$$$$$$$$   "
};
