/* XPM */
static char *wall_south_plus_west_frame_02[] = {
/* columns rows colors chars-per-pixel */
"64 64 9 1 ",
"  c #13171E",
". c #151A22",
"X c #181D26",
"o c #1A202A",
"O c #222835",
"+ c #242B39",
"@ c #272E3D",
"# c #293141",
"$ c None",
/* pixels */
"###################################################$$$$$$$$$$$$$",
"###################################################$$$$$$$$$$$$$",
"###################################################$$$$$$$$$$$$$",
"########################################################$$$$$$$$",
"########################################################$$$$$$$$",
"oooooooooooooooooooooooooooooooooooooooooooooooo##########$$$$$$",
"                                                ###########$$$$$",
"                                                ###########$$$$$",
"                                                  o##########$$$",
"                                                  o##########$$$",
"ooooooooooooooooooooooooooooooooooooooooooX       XOO@#######$$$",
"##########################################O          O#######$$$",
"##########################################O          O#######$$$",
"##########################################@OOOOO     Xoo########",
"################################################        ########",
"################################################        ########",
"##################################################O     ########",
"##################################################O     ########",
"##################################################O     OO+#####",
"##################################################O       o#####",
"##################################################O       o#####",
"oooooooo##########################################O       o#####",
"        ##########################################O       o#####",
"        ##########################################O       o#####",
"          o##########################################o    o#####",
"          o##########################################o    o#####",
"ooooo.    o##########################################o    o#####",
"#####o    o##########################################o    o#####",
"#####o    o##########################################o    o#####",
"#####o    o##########################################o    o#####",
"#####o    o##########################################o    o#####",
"#####o    o##########################################o    o#####",
"#####o    o##########################################o    o#####",
"#####o    o##########################################o    o#####",
"#####o    o##########################################o    o#####",
"#####o    o##########################################o    o#####",
"#####o    o##########################################o    o#####",
"#####o    o##########################################o    o#####",
"#####o    o##########################################o    o#####",
"#####o    o##########################################o    o#####",
"#####o    o##########################################o    o#####",
"#####o    o##########################################o    o#####",
"#####o    o##########################################o    o#####",
"#####o    o##########################################o    o#####",
"#####o    o##########################################o    o#####",
"#####o    o##########################################o    o#####",
"#####o    o##########################################o    o#####",
"#####o    o##########################################o    o#####",
"#####o    o##########################################o    o#####",
"#####o    o##########################################o    o#####",
"#####o    o##########################################o    o#####",
"#####o    o##########################################o    o#####",
"#####o    o##########################################o    o#####",
"#####o    o##########################################o    o#####",
"#####o    o##########################################o    o#####",
"#####o    o##########################################o    o#####",
"#####o    o##########################################o    o#####",
"#####o    o##########################################o    o#####",
"#####o    o##########################################o    o#####",
"#####o    o##########################################o    o#####",
"#####o    o##########################################o    o#####",
"#####o    o##########################################o    o#####",
"#####o    o##########################################o    o#####",
"#####o    o##########################################o    o#####"
};
