/* XPM */
static char *lava_frame_2[] = {
/* columns rows colors chars-per-pixel */
"64 64 2 1 ",
"  c None",
". c #009cff",
/* pixels */
"                           ..........                           ",
"                           ..........                           ",
"                          ............                          ",
"                     ...................                        ",
"                     ...................                        ",
"           ...............................      ........        ",
"           ................................     ........        ",
"           ................................     ........        ",
"         ..................................................     ",
"        ...................................................     ",
"        ...................................................     ",
"     ........................................................   ",
"     ........................................................   ",
"     ........................................................   ",
"     ........................................................   ",
"     ........................................................   ",
"   ..........................................................   ",
"   ..........................................................   ",
"   ...........................................................  ",
"   .............................................................",
"   .............................................................",
"   .............................................................",
"   .............................................................",
"   .............................................................",
"................................................................",
"................................................................",
"................................................................",
"................................................................",
"................................................................",
"................................................................",
"................................................................",
"................................................................",
".............................................................   ",
".............................................................   ",
".............................................................   ",
".............................................................   ",
".............................................................   ",
"................................................................",
"................................................................",
"................................................................",
"   .............................................................",
"   .............................................................",
"   .............................................................",
"   .............................................................",
"   .............................................................",
"     .........................................................  ",
"     ........................................................   ",
"     ........................................................   ",
"        .....................................................   ",
"        .....................................................   ",
"        .....................................................   ",
"        .....................................................   ",
"        .....................................................   ",
"        ...................................................     ",
"        ...................................................     ",
"         ..................................................     ",
"           .............................................        ",
"           .............................................        ",
"           .............................................        ",
"                .....................................           ",
"                .....................................           ",
"                  ....................                          ",
"                   ..................                           ",
"                   ..................                           "
};
