/* XPM */
static char *wall_south_plus_east_frame_02[] = {
/* columns rows colors chars-per-pixel */
"64 64 9 1 ",
"  c #13171E",
". c #181D26",
"X c #1A202A",
"o c #1F2531",
"O c #222835",
"+ c #242B39",
"@ c #272E3D",
"# c #293141",
"$ c None",
/* pixels */
"$$$$$$$$$$$#####################################################",
"$$$$$$$$$$$#####################################################",
"$$$$$$$$$$######################################################",
"$$$$$###########################################################",
"$$$$$###########################################################",
"$$$##########oXXXXXXXXXXXXXXXXXXXXXXXXXXXXXXXXXXXXXXXXXXXXXXXXXX",
"$$$##########X                                                  ",
"$$$##########X                                                  ",
"########                                                        ",
"########                                                        ",
"#####+OO        XXXXXXXXXXXXXXXXXXXXXXXXXXXXXXXXXXXXXXXXXXXXXXXX",
"#####X          ################################################",
"#####X          ################################################",
"#####X          ################################################",
"#####X          ################################################",
"#####X          ################################################",
"#####X       O##################################################",
"#####X       O##################################################",
"#####X       O##################################################",
"#####X       O##################################################",
"#####X       O##################################################",
"#####X    .OO@############################################+XXXXX",
"#####X    X###############################################O     ",
"#####X    X###############################################O     ",
"#####X    X#############################################        ",
"#####X    X#############################################        ",
"#####X    X##########################################+OO     .XX",
"#####X    X##########################################X       O##",
"#####X    X##########################################X       O##",
"#####X    X##########################################X    .OO@##",
"#####X    X##########################################X    X#####",
"#####X    X##########################################X    X#####",
"#####X    X##########################################X    X#####",
"#####X    X##########################################X    X#####",
"#####X    X##########################################X    X#####",
"#####X    X##########################################X    X#####",
"#####X    X##########################################X    X#####",
"#####X    X##########################################X    X#####",
"#####X    X##########################################X    X#####",
"#####X    X##########################################X    X#####",
"#####X    X##########################################X    X#####",
"#####X    X##########################################X    X#####",
"#####X    X##########################################X    X#####",
"#####X    X##########################################X    X#####",
"#####X    X##########################################X    X#####",
"#####X    X##########################################X    X#####",
"#####X    X##########################################X    X#####",
"#####X    X##########################################X    X#####",
"#####X    X##########################################X    X#####",
"#####X    X##########################################X    X#####",
"#####X    X##########################################X    X#####",
"#####X    X##########################################X    X#####",
"#####X    X##########################################X    X#####",
"#####X    X##########################################X    X#####",
"#####X    X##########################################X    X#####",
"#####X    X##########################################X    X#####",
"#####X    X##########################################X    X#####",
"#####X    X##########################################X    X#####",
"#####X    X##########################################X    X#####",
"#####X    X##########################################X    X#####",
"#####X    X##########################################X    X#####",
"#####X    X##########################################X    X#####",
"#####X    X##########################################X    X#####",
"#####X    X##########################################X    X#####"
};
