/* XPM */
static char *wall_north_frame_01[] = {
/* columns rows colors chars-per-pixel */
"64 64 11 1 ",
"  c #13171E",
". c #151A22",
"X c #181D26",
"o c #1A202A",
"O c #1D232E",
"+ c #1F2531",
"@ c #222835",
"# c #242B39",
"$ c #272E3D",
"% c #293141",
"& c None",
/* pixels */
"%%%%%o    o%%%%%%%%%%%%%%%%%%%%%%%%%%%%%%%%%%%%%%%%%%o    o%%%%%",
"%%%%%o    o%%%%%%%%%%%%%%%%%%%%%%%%%%%%%%%%%%%%%%%%%%o    o%%%%%",
"%%%%%o    o%%%%%%%%%%%%%%%%%%%%%%%%%%%%%%%%%%%%%%%%%%o    o%%%%%",
"%%%%%o    o%%%%%%%%%%%%%%%%%%%%%%%%%%%%%%%%%%%%%%%%%%o    o%%%%%",
"%%%%%o    o%%%%%%%%%%%%%%%%%%%%%%%%%%%%%%%%%%%%%%%%%%o    o%%%%%",
"%%%%%o    o%%%%%%%%%%%%%%%%%%%%%%%%%%%%%%%%%%%%%%%%%%o    o%%%%%",
"%%%%%o    o%%%%%%%%%%%%%%%%%%%%%%%%%%%%%%%%%%%%%%%%%%o    o%%%%%",
"%%%%%o    o%%%%%%%%%%%%%%%%%%%%%%%%%%%%%%%%%%%%%%%%%%o    o%%%%%",
"%%%%%o    o%%%%%%%%%%%%%%%%%%%%%%%%%%%%%%%%%%%%%%%%%%o    o%%%%%",
"%%%%%o    o%%%%%%%%%%%%%%%%%%%%%%%%%%%%%%%%%%%%%%%%%%o    o%%%%%",
"%%%%%o    o%%%%%%%%%%%%%%%%%%%%%%%%%%%%%%%%%%%%%%%%%%o    o%%%%%",
"%%%%%o    o%%%%%%%%%%%%%%%%%%%%%%%%%%%%%%%%%%%%%%%%%%o    o%%%%%",
"%%%%%o    o%%%%%%%%%%%%%%%%%%%%%%%%%%%%%%%%%%%%%%%%%%o    o%%%%%",
"%%%%%o    o%%%%%%%%%%%%%%%%%%%%%%%%%%%%%%%%%%%%%%%#oo.    o%%%%%",
"%%%%%o    o%%%%%%%%%%%%%%%%%%%%%%%%%%%%%%%%%%%%%%%@       o%%%%%",
"%%%%%o    o%%%%%%%%%%%%%%%%%%%%%%%%%%%%%%%%%%%%%%%@       o%%%%%",
"%%%%%o       @%%%%%%%%%%%%%%%%%%%%%%%%%%%%%%%%%%%%@       o%%%%%",
"%%%%%o       @%%%%%%%%%%%%%%%%%%%%%%%%%%%%%%%%%%%%@       o%%%%%",
"%%%%%o       @%%%%%%%%%%%%%%%%%%%%%%%%%%%%%%%%%%@@O       o%%%%%",
"%%%%%o       @%%%%%%%%%%%%%%%%%%%%%%%%%%%%%%%%%%          o%%%%%",
"%%%%%o       @%%%%%%%%%%%%%%%%%%%%%%%%%%%%%%%%%%          o%%%%%",
"%%%%%#@@     Xoooooooooooooooooooooooooooooooooo        @@#%%%%%",
"%%%%%%%%                                                %%%%%%%%",
"%%%%%%%%                                                %%%%%%%%",
"%%%%%%%%%%@                                          @%%%%%%%%%%",
"%%%%%%%%%%@                                          @%%%%%%%%%%",
"@@#%%%%%%%#oooooooooooooooooooooooooooooooooooooooooo#%%%%%%%#@@",
"  o%%%%%%%%%%%%%%%%%%%%%%%%%%%%%%%%%%%%%%%%%%%%%%%%%%%%%%%%%%o  ",
"  o%%%%%%%%%%%%%%%%%%%%%%%%%%%%%%%%%%%%%%%%%%%%%%%%%%%%%%%%%%o  ",
"  .ooooo%%%%%%%%%%%%%%%%%%%%%%%%%%%%%%%%%%%%%%%%%%%%%%%%%%#oo.  ",
"        %%%%%%%%%%%%%%%%%%%%%%%%%%%%%%%%%%%%%%%%%%%%%%%%%%@     ",
"        %%%%%%%%%%%%%%%%%%%%%%%%%%%%%%%%%%%%%%%%%%%%%%%%%%@     ",
"%%@                                                       o%%%%%",
"%%@                                                       o%%%%%",
"%%#oo.       XooooooooooooX     oooooooooooooooo        oo+%%%%%",
"%%%%%o       @%%%%%%%%%%%%@     %%%%%%%%%%%%%%%%        %%%%%%%%",
"%%%%%o       @%%%%%%%%%%%%@     %%%%%%%%%%%%%%%%        %%%%%%%%",
"%%%%%#@@@@O  @%%%%%%%%%%%%$@@X  %%%%%%%%%%%%%%%%@@O  O@@%%%%%%%%",
"%%%%%%%%%%@  @%%%%%%%%%%%%%%%o  %%%%%%%%%%%%%%%%%%@  @%%%%%%%%%%",
"%%%%%%%%%%@  @%%%%%%%%%%%%%%%o  %%%%%%%%%%%%%%%%%%@  @%%%%%%%%%%",
"%%%%%%%%%%@  @%%%%%%%%%%%%%%%o    o%%%%%%%%%%%%%%%@  @%%%%%%%o  ",
"%%%%%%%%%%@  @%%%%%%%%%%%%%%%o    o%%%%%%%%%%%%%%%@  @%%%%%%%o  ",
"@@@@@@@@@@O  O@@@@@@@@@@@@@@@X    X@@@@@@@@@@@@@@@O  O@@@@@@@X  ",
"                                                                ",
"                                                                ",
"@@@@@@@@@@@@@@@@@@O  O@@@@@@@@@@@@@@@X       O@@@@@@@@@@@@@@@X  ",
"%%%%%%%%%%%%%%%%%%@  @%%%%%%%%%%%%%%%o       @%%%%%%%%%%%%%%%o  ",
"%%%%%%%%%%%%%%%%%%@  @%%%%%%%%%%%%%%%o       @%%%%%%%%%%%%%%%o  ",
"%%%%%%%%%%%%%%%%%%@  @%%%%%%%%%%%%%%%%%%  o%%%%%%%%%%%%%%%%%%%%%",
"%%%%%%%%%%%%%%%%%%@  @%%%%%%%%%%%%%%%%%%  o%%%%%%%%%%%%%%%%%%%%%",
"@@@@@$%%%%%%%%%%%%@  O@@%%%%%%%%%%%%%%%%  o%%%%%%%%%%%%%%%%%%%%%",
"     @%%%%%%%%%%%%@     %%%%%%%%%%%%%%%%  o%%%%%%%%%%%%%%%%%%%%%",
"     @%%%%%%%%%%%%@     %%%%%%%%%%%%%%%%  o%%%%%%%%%%%%%%%%%%%%%",
"     XooooooooooooX     oooooooooooooooo  .ooooooooooooooooooooo",
"                                                                ",
"                                                                ",
"%%%%%o       @%%%%%%%%%%%%%%%o    o%%%%%%%%%%%%%  o%%%%%%%%%%%%%",
"%%%%%o       @%%%%%%%%%%%%%%%o    o%%%%%%%%%%%%%  o%%%%%%%%%%%%%",
"%%%%%+ooooX  @%%%%%%%%%%%%%%%o  oo+%%%%%%%%%%%%%  o%%%%%%%%%%%%%",
"&&&%%%%%%%@  @%%%%%%%%%%%%%%%o  %%%%%%%%%%%%%%%%  o%%%%%%%%%%%%%",
"&&&%%%%%%%@  @%%%%%%%%%%%%%%%o  %%%%%%%%%%%%%%%%  o%%%%%%%%%%%%%",
"&&&%%%%%%%@  Xoo%%%%%%%%%%#oo.  %%%%%%%%%%%%%+oo  o%%%%%%%%%%%&&",
"&&&%%%%%%%@     %%%%%%%%%%@     %%%%%%%%%%%%%o    o%%%%%%%%%%&&&",
"&&&%%%%%%%@     %%%%%%%%%%@     %%%%%%%%%%%%%o    o%%%%%%%%%%&&&"
};
