/* XPM */
static char *wall_north_frame_00[] = {
/* columns rows colors chars-per-pixel */
"64 64 11 1 ",
"  c #13171E",
". c #151A22",
"X c #181D26",
"o c #1A202A",
"O c #1D232E",
"+ c #1F2531",
"@ c #222835",
"# c #242B39",
"$ c #272E3D",
"% c #293141",
"& c None",
/* pixels */
"%%%%%o    o%%%%%%%%%%%%%%%%%%%%%%%%%%%%%%%%%%%%%%%%%%o    o%%%%%",
"%%%%%o    o%%%%%%%%%%%%%%%%%%%%%%%%%%%%%%%%%%%%%%%%%%o    o%%%%%",
"%%%%%o    o%%%%%%%%%%%%%%%%%%%%%%%%%%%%%%%%%%%%%%%%%%o    o%%%%%",
"%%%%%o    o%%%%%%%%%%%%%%%%%%%%%%%%%%%%%%%%%%%%%%%%%%o    o%%%%%",
"%%%%%o    o%%%%%%%%%%%%%%%%%%%%%%%%%%%%%%%%%%%%%%%%%%o    o%%%%%",
"%%%%%o    o%%%%%%%%%%%%%%%%%%%%%%%%%%%%%%%%%%%%%%%%%%o    o%%%%%",
"%%%%%o    o%%%%%%%%%%%%%%%%%%%%%%%%%%%%%%%%%%%%%%%%%%o    o%%%%%",
"%%%%%o    o%%%%%%%%%%%%%%%%%%%%%%%%%%%%%%%%%%%%%%%%%%o    o%%%%%",
"%%%%%o    o%%%%%%%%%%%%%%%%%%%%%%%%%%%%%%%%%%%%%%%%%%o    o%%%%%",
"%%%%%o    o%%%%%%%%%%%%%%%%%%%%%%%%%%%%%%%%%%%%%%%%%%o    o%%%%%",
"%%%%%o    o%%%%%%%%%%%%%%%%%%%%%%%%%%%%%%%%%%%%%%%$@@X    o%%%%%",
"%%%%%o    o%%%%%%%%%%%%%%%%%%%%%%%%%%%%%%%%%%%%%%%@       o%%%%%",
"%%%%%o    o%%%%%%%%%%%%%%%%%%%%%%%%%%%%%%%%%%%%%%%@       o%%%%%",
"%%%%%o    o%%%%%%%%%%%%%%%%%%%%%%%%%%%%%%%%%%%%%%%@       o%%%%%",
"%%%%%o    o%%%%%%%%%%%%%%%%%%%%%%%%%%%%%%%%%%%%%%%@       o%%%%%",
"%%%%%o    o%%%%%%%%%%%%%%%%%%%%%%%%%%%%%%%%%%%%%%%@       o%%%%%",
"%%%%%o    o%%%%%%%%%%%%%%%%%%%%%%%%%%%%%%%%%%%%%          o%%%%%",
"%%%%%o    o%%%%%%%%%%%%%%%%%%%%%%%%%%%%%%%%%%%%%          o%%%%%",
"%%%%%o    X@@$%%%%%%%%%%%%%%%%%%%%%%%%%%%%%%%#@@        oo+%%%%%",
"%%%%%o       @%%%%%%%%%%%%%%%%%%%%%%%%%%%%%%%o          %%%%%%%%",
"%%%%%o       @%%%%%%%%%%%%%%%%%%%%%%%%%%%%%%%o          %%%%%%%%",
"%%%%%#@@     Xooooooooooooooooooooooooooooooo.          %%%%%%%%",
"%%%%%%%%                                                %%%%%%%%",
"%%%%%%%%                                                %%%%%%%%",
"%%%%%%%%%%@                                       o%%%%%%%%%%o  ",
"%%%%%%%%%%@                                       o%%%%%%%%%%o  ",
"@@#%%%%%%%#ooooooooooooooooooooooooooooooooooooooo+%%%%%%%%%%o  ",
"  o%%%%%%%%%%%%%%%%%%%%%%%%%%%%%%%%%%%%%%%%%%%%%%%%%%%%%%%%%%o  ",
"  o%%%%%%%%%%%%%%%%%%%%%%%%%%%%%%%%%%%%%%%%%%%%%%%%%%%%%%%%%%o  ",
"  .oo#%%%%%%%%%%%%%%%%%%%%%%%%%%%%%%%%%%%%%%%%%%%%%%%%%%%%#oo.  ",
"     @%%%%%%%%%%%%%%%%%%%%%%%%%%%%%%%%%%%%%%%%%%%%%%%%%%%%@     ",
"     @%%%%%%%%%%%%%%%%%%%%%%%%%%%%%%%%%%%%%%%%%%%%%%%%%%%%@     ",
"%%@                                                          @%%",
"%%@                                                          @%%",
"%%#ooooo        ooooooooooX     ooooooooooooooooooX     ooooo#%%",
"%%%%%%%%        %%%%%%%%%%@     %%%%%%%%%%%%%%%%%%@     %%%%%%%%",
"%%%%%%%%        %%%%%%%%%%@     %%%%%%%%%%%%%%%%%%@     %%%%%%%%",
"%%%%%%%%@@O  O@@%%%%%%%%%%$@@X  %%%%%%%%%%%%%%%%%%@  O@@%%%%%%%%",
"%%%%%%%%%%@  @%%%%%%%%%%%%%%%o  %%%%%%%%%%%%%%%%%%@  @%%%%%%%%%%",
"%%%%%%%%%%@  @%%%%%%%%%%%%%%%o  %%%%%%%%%%%%%%%%%%@  @%%%%%%%%%%",
"  o%%%%%%%@  @%%%%%%%%%%%%%%%o       @%%%%%%%%%%%%@  @%%%%%%%o  ",
"  o%%%%%%%@  @%%%%%%%%%%%%%%%o       @%%%%%%%%%%%%@  @%%%%%%%o  ",
"  X@@@@@@@O  O@@@@@@@@@@@@@@@X       O@@@@@@@@@@@@O  O@@@@@@@X  ",
"                                                                ",
"                                                                ",
"@@@@@@@@@@@@@@@@@@O  O@@@@@@@@@@@@@@@@@@     O@@@@@@@@@@@@@@@X  ",
"%%%%%%%%%%%%%%%%%%@  @%%%%%%%%%%%%%%%%%%     @%%%%%%%%%%%%%%%o  ",
"%%%%%%%%%%%%%%%%%%@  @%%%%%%%%%%%%%%%%%%     @%%%%%%%%%%%%%%%o  ",
"%%%%%%%%%%%%%%%%%%@  @%%%%%%%%%%%%%%%%%%  o%%%%%%%%%%%%%%%%%%o  ",
"%%%%%%%%%%%%%%%%%%@  @%%%%%%%%%%%%%%%%%%  o%%%%%%%%%%%%%%%%%%o  ",
"@@#%%%%%%%%%%%%%%%@  @%%%%%%%%%%%%%%%%%%  o%%%%%%%%%%%%%%%$@@X  ",
"  o%%%%%%%%%%%%%%%@  @%%%%%%%%%%%%%%%%%%  o%%%%%%%%%%%%%%%@     ",
"  o%%%%%%%%%%%%%%%@  @%%%%%%%%%%%%%%%%%%  o%%%%%%%%%%%%%%%@     ",
"  .oooooooooooooooX  Xoooooooooooooooooo  .oooooooooooooooX     ",
"                                                                ",
"                                                                ",
"%%%%%o       @%%%%%%%%%%%%@     %%%%%%%%%%%%%%%%  o%%%%%%%%%%%%%",
"%%%%%o       @%%%%%%%%%%%%@     %%%%%%%%%%%%%%%%  o%%%%%%%%%%%%%",
"%%%%%+ooooX  @%%%%%%%%%%%%#oo.  %%%%%%%%%%%%%%%%  o%%%%%%%%%%%%%",
"%%%%%%%%%%@  @%%%%%%%%%%%%%%%o  %%%%%%%%%%%%%%%%  o%%%%%%%%%%%%%",
"%%%%%%%%%%@  @%%%%%%%%%%%%%%%o  %%%%%%%%%%%%%%%%  o%%%%%%%%%%%%%",
"&&%%%%%%%%@  Xoo%%%%%%%%%%%%%o  %%%%%%%%%%%%%+oo  o%%%%%%%%%%%&&",
"&&&%%%%%%%@     %%%%%%%%%%%%%o  %%%%%%%%%%%%%o    o%%%%%%%%%%&&&",
"&&&%%%%%%%@     %%%%%%%%%%%%%o  %%%%%%%%%%%%%o    o%%%%%%%%%%&&&"
};
