/* XPM */
static char *return_to_main_menu[] = {
/* columns rows colors chars-per-pixel */
"172 20 188 2 ",
"   c #1E4432",
".  c #164E35",
"X  c #1B4D36",
"o  c #1E4E3A",
"O  c #0F5839",
"+  c #155236",
"@  c #195237",
"#  c #15543A",
"$  c #1D513B",
"%  c #13583A",
"&  c #18583D",
"*  c #224536",
"=  c #204B37",
"-  c #23473A",
";  c #2A4639",
":  c #234D3B",
">  c #294B3C",
",  c #314A3F",
"<  c #22513C",
"1  c #29503E",
"2  c #20593E",
"3  c #1E5541",
"4  c #1A5840",
"5  c #254F40",
"6  c #2A4E40",
"7  c #334E40",
"8  c #235340",
"9  c #2B5343",
"0  c #2C5946",
"q  c #2F594A",
"w  c #325445",
"e  c #385247",
"r  c #325748",
"t  c #3D564A",
"y  c #355A4B",
"u  c #3A5B4C",
"i  c #3D5E51",
"p  c #176746",
"a  c #1D6746",
"s  c #34604F",
"d  c #3D6353",
"f  c #3F6856",
"g  c #3E6959",
"h  c #2B7751",
"j  c #2F7958",
"k  c #40574F",
"l  c #455E54",
"z  c #436B43",
"x  c #426355",
"c  c #4A6356",
"v  c #446659",
"b  c #4E6659",
"n  c #446A5B",
"m  c #496A5C",
"M  c #4E7B57",
"N  c #4C6C62",
"B  c #576D61",
"V  c #4D7162",
"C  c #497568",
"Z  c #537365",
"A  c #517967",
"S  c #557668",
"D  c #5B756B",
"F  c #547A6A",
"G  c #5A7D6E",
"H  c #657770",
"J  c #637D72",
"K  c #6C7E75",
"L  c #3F9B6B",
"P  c #3E9A71",
"I  c #44946D",
"U  c #49946F",
"Y  c #5A976A",
"T  c #4F8F74",
"R  c #5D8171",
"E  c #469672",
"W  c #4B9672",
"Q  c #469972",
"!  c #4B9973",
"~  c #4D9678",
"^  c #4B9C79",
"/  c #539575",
"(  c #509975",
")  c #5E9E76",
"_  c #519378",
"`  c #5E9E7B",
"'  c #638275",
"]  c #688175",
"[  c #65867A",
"{  c #6B867C",
"}  c #668A7C",
"|  c #6B8B7D",
" . c #74837D",
".. c #72887D",
"X. c #629F79",
"o. c #4FA36C",
"O. c #4AA076",
"+. c #4CAB7B",
"@. c #56A576",
"#. c #5AA476",
"$. c #54A976",
"%. c #56A47A",
"&. c #5BA37B",
"*. c #53A97C",
"=. c #5AA87B",
"-. c #63A27C",
";. c #68A27E",
":. c #6D8D82",
">. c #738C83",
",. c #7B8983",
"<. c #6F9183",
"1. c #749185",
"2. c #799184",
"3. c #7B958B",
"4. c #7C998E",
"5. c #7F9990",
"6. c #5DA481",
"7. c #56AC83",
"8. c #65A580",
"9. c #68A680",
"0. c #849A8F",
"q. c #869790",
"w. c #829B91",
"e. c #8A9B95",
"r. c #889F98",
"t. c #909F9A",
"y. c #85A296",
"u. c #8CA097",
"i. c #84A59B",
"p. c #8CA69C",
"a. c #8CAC9F",
"s. c #92A59D",
"d. c #93A89F",
"f. c #89AAA0",
"g. c #96A6A0",
"h. c #95ACA2",
"j. c #9CABA4",
"k. c #9AB1A5",
"l. c #9CB2A9",
"z. c #9AB9AD",
"x. c #9CB6B1",
"c. c #A3B3AD",
"v. c #A8B7B2",
"b. c #A4B9B2",
"n. c #ACBDB5",
"m. c #A7C2B6",
"M. c #ADC4BC",
"N. c #AAC8BE",
"B. c #B1C0B7",
"V. c #B2C5BC",
"C. c #BBC4BE",
"Z. c #B5CBC3",
"A. c #BCCCC3",
"S. c #BDD1C6",
"D. c #B7D3C8",
"F. c #BDD3CB",
"G. c #C0CBC5",
"H. c #C6CFC8",
"J. c #C3D3CD",
"K. c #C8D5CF",
"L. c #C6D5D2",
"P. c #CADAD3",
"I. c #D1DAD5",
"U. c #D3DFD9",
"Y. c #CCE3DB",
"T. c #D5E2DD",
"R. c #D9E4DE",
"E. c #DBE5E1",
"W. c #D5EBE3",
"Q. c #DAEBE4",
"!. c #D7EDE8",
"~. c #DEF2E9",
"^. c #DEFAEF",
"/. c #E3ECE6",
"(. c #E3EDE9",
"). c #E8EBE8",
"_. c #E4F2EB",
"`. c #E8F3ED",
"'. c #E5F5F2",
"]. c #ECF6F1",
"[. c #E6FEF5",
"{. c #EBFCF5",
"}. c #EEFFFA",
"|. c #F5F7F6",
" X c #F3FDF6",
".X c #F9FBF7",
"XX c #F5FEFA",
"oX c #FAFEFC",
/* pixels */
"M &.&.X.&.&.` 6.` 6.` 6.6.6.6.6.( ` %.6.&.&.&.%.=.%.%.6.6.6.6.6.6.6.6.6.6.&.&.6.` 6.` 6.&.&.&.` &.&.` &.%.%.&.%.%.%.` ` %.` ` ` ` ` &.&.#.=.#.&.#.&.&.&.&.&.&.&.&.&.&.&.&.&.&.%.%.%.%.&.` &.&.&.` &.%.` &.&.&.&.&.&.&.&.#.&.#.%.%.&.&.&.&.&.#.` ` &.#.=.&.&.=.&.&.&.&.%.%.&.&.%.&.6.%.6.6.6.( 6.&.&.` %.&.&.&.&.&.&.8.&.-.-.&.&.-.-.6.=.6.&.6.%.` 6.%.M ",
"&.*.^ W ~ ~ ~ E ~ E E E E E ~ ~ ~ ~ ~ E U U Q ! ! ^ ^ ~ Q ~ ~ ~ ~ E ~ T E E ~ E P E T ~ ~ ~ ~ W T W ~ ~ E ~ ~ E E E E T E E I I E E E E U U Q ! Q ! ! Q Q Q Q ! Q E W E W W E E E E ~ ! E ~ ~ E W W T ~ E E W W ! ! U U W U ! U W E E W E ~ E W U U Q ! ! U W W ~ ! ! ! ! ~ ~ ~ _ ~ ~ ~ T T T ~ ~ _ ~ T ~ ~ W W ! W ~ W ! ~ W ! ! ! ! ! E E E ~ E ^ +.@.",
"%.O.a + # # # # # # + + # . # # + + + + + + + + % % % % 4 # % 4 & # + + # + + + # % # & 3 4 & 3 $ $ & # % # + & O O + $ # 4 # 3 $ & & + & & & @ + & + % + O O + # & # 4 & 4 3 4 3 $ & # # # # 4 & 4 4 # & 4 & + + + # + # # # # # & + & & & + & < @ O % @ & $ & + + + & % + & & $ 4 & # . 3 3 # o # o 3 $ + + . # + # # # # + + + + & & . # . # O p ^ @.",
"%.I & $ . X X . X X X X o o o . X X . . X . @ & & o o - o 5 o # 4 $ X $ - : : < . o o : - 5 o - : o . @ . $ @ o $ @ @ . @ o o o : : : = = = = : : < 8 > = 2 < < $ o o o o o 3 o : : 6 : 5 o o 3 $ $ o 3 : : : : < $ $ $ $ $ = < 3 o 8 o 8 < : < > = $ @ : : = = : o < < < : < 1 : 8 9 : o o o o o o 3 . o @ X X o X o o o o o o @ $ o o o . 3 3 3 # P @.",
"&.W < : o X o o o o o o o o o o X = = = X X @ = : 4.F.H.F.s.5 5 $ $ } D.S.H.A.D.- o : 7 c.F.F.J.F.i.o X = $ $ = - : : $ - N F.F.F.S.> * 1 : : 2.J.m > V.N.= = 1 5 o o 5 5 o o 3 5 H J.L.F.F.F.r o 5 - g.K.A.D - o $ $ o $ = = 1 : - > G F.| ; p.S.u o : n F.J.J.F.F.n 1 : : 5 Z.m.5 N D.<.3 o - 8 - o : : o o o o o o o o o o o X = o o : o o o $ $ ! #.",
"&.W < : X o o X o $ X X o X $ $ X X @ X X X = : 3.L.XXoX|.E.5.  o : i. XoX.X X'.: : ] j.(.XXXXoX}.M.  R h.n = : >.h.q o F n.XXoXXXXXk.f = = < d.{.R 1 Q.W.1 < = o o o o o 3 3 q f.Z.XXXXXX XXXu 3 F j.E.oXXXZ.: o + # o & @ < < : : : {  XK.k.E.{.d o o S XX X XXX[.A $ : 5 - ~.W.: :.[.f.6 :.h.y - F a.n $ X o o o o $ o o o o @ $ @ $ @ o o o : < U #.",
"%.E 3 o o o o o $ $ $ = o o $ o o $ o @ = @ = : K..XXXK t '.!.5 < 8 y.XX,.w r w o o z.[. X|..XH w 9 o s. X' < : M.XXd o q.oXoXv.e b. Xm o $ X h.oXK , )./.> = $ 3 o o 3 3 o 5 N [.XXXXoXi r q 8 5 r.oXXX XXXoX].n o X X o $ < @ : < : ' [. XoX X Xd X o S XXb.y y w : + 8 1 6 `.E.  J XXt.: Z.XXm o 4.}.| = $ o o o o 3 o o o o = o $ < $ $ 5 5 : & E &.",
"%.E $ o o o o o = $ = X $ o o o $ = = $ @ = $ - K. XJ y 5 (.E.5 < 1 y.XX .: : - 3 - n G D A..XD : o : d.oX' = : M.XXd o w.oXj.v ; c. XZ o $ < c.oXI..._./.- o $   o o o o 5   w H H T.oXw - 3 o y E.oXp.H L.|.oXn X o o $ o @ < $ $ $ ] }..XXX.X.Xx - o S oXl.: 1 - : # $ 8 l ].].:.J XXg.5 n.XXx o 4.}.<.$ = $ o o o o o 3 3 o < $ = $ : $ $ 3 o $ W 7.",
"%.Q & o $ $ o o = $ : $ $ o < $ o < : o o o - : K.}.9 : 6 `.!.: 5 > i.XX .- o o $ 1 $ < > k. XS : o : g.XX' $ : M.oXd o 5.XX>.: ; l.XXZ o < d }.oX Xt././.; o o X o 5 3 o 3 o   - ; J.XXw : : $ u XX{.{ : > n.oXm o o o o o = = = = < ' }.XXoX.XoXx : o Z oXc.; 5 3   . . v }.XXoXr.J XXs.: N.XXl o 3.}.:.o $ o $ o 3 o $ o 8 o - o o o : 3 : 3 o $ I =.",
"%.Q & o : $ < $ $ < < $ $ : $ : < $ $ $ o 3 o : K.XX{ >.!.Q.z.o : : y. X_.!.g 8 : < $ < > c. XS : o : g.XX' : : V.oXd o w.oXl.K L.'.Z.g $ : x  XoXoXs.).(.> @ o o o o o 3 o 3 o : - L.oXr : o o i  XK.6 $ o n.XXm o o o o o < = 2 < = R.`.T..XoXoXx : o S oX|.!.:.  5 3 3 v XXoXoXr.K oXg.> N.oXd 5 w.}.:.< 8 o 5 $ 5 o o o o o 3 o 3 o 3 o o 3 - # E =.",
"%.E & : o < : $ : $ o $ < $ $ : $ o o < o o o 5 K..XoXXX}.v.- : 6 y h.XX~.!.g 3 > < < < > k.XXS : : : g. X' < < Z.oXg o 5.oXoXoXXX'.6 3 3 : c  XoXoXj.(.~.5 X o o @ $ o o o 3 o o : L.oXw : o : t XXA.- 2 < B.oXN - - 5 : : < = = < 1 /.Q.u.(.|.oXl - : J  X|.!.:.3   o . v XXoXoXg.,.XXp.: M.oXx - w.XX>.$ $ o o 3 o o $ : o o o o : 3 o o : : 3 # E *.",
"%.E & $ < $ $ < $ < o < o < $ $ $ < $ < $ : $ : K..X.XoXXXi 5 6 > Z.XXh.N $ 3 o : < < < = l. XS > : > g. XR < 3.U.oXi o q.oXoXoXXXq.: o : o c  XoXoXXX.X~.o o o $ $ o $ o o # o o : J.XXw o o o u  XA.* < 1.U. Xv o o o o < < : = < < `.R.> 1 V..Xj.n ; T.|.J - 5 5 5 o 5 i |.XXoXoXoXXXp.> V.oXb : A.XX..o $ $ o o o o = o o o o o o o o o o $ - # Q %.",
"%.E & o < o $ o $ < o < $ : o < : < o < $ : $ 8 L..XXXXX|.D 6 5 5 Z.XXd $ o o o o $ 8 : : k. XF : : > d..Xu.x R.oXoXf o 5.XX|.oXXXj.- - : d >. X/./.oXoX~.> - : o o $ o o < < < o : J.XX0 = $ o y  XI.k * T. XG.u o $ $ $ $ $ $ = @ < _.Q.: 1 N.|.}.J 5 E.{.5 5 3   5 o 5 J }.!.L.oXXXXXp.: V.oXK 7  X.X..$ $ $ o $ $ o o o $ $ o $ o $ $ o o : $ # Q $.",
"%.~ & o < $ < $ = $ < $ $ $ $ < $ $ : $ < $ $ : L.XX,.q.|.).x.3 : V.XXl o : - : $ $ $ < < l.XXA < < < p.XX XY.].].{ 9 o 5.oXc. .E.XXM.x o | {.n.B A..X.Xs.; - : : o o : : : : : o : J.oXw = o X ; B..XJ.B.`.].; : o $ $ $ $ $ $ & < = _.Q.: $ A n.XX:.5 U.'.6   - 6 o o o F.XXD k oXXXh.b > V.oX(.V..XR.x < $ < $ : : o : : o o o o o o o : = : < + Q $.",
"%.E & $ o < $ : $ < < o < o < o o < $ $ $ : < < K.XXe u g.].'.C o V..Xs.w.0.0.4.: & $ < 1 l. XA : : o G V.XX{. Xn.: o o 4.XX1.6 3.L.oXf.: .. X0.> C..XoX] > : : X $ o = < = : : o : J.oXw = = < 1 y. X X.XoX].; = o X $ $ $ $ $ @ < < `.E.1 : 5 r.oX:.  T.|.q.q.e.q.i : 6 F.}.q i oXoXJ > ; 2. X}.}.P.3.= < = < : : : : : = : : o o o : : : - : : @ U $.",
"%.Q & $ $ $ $ $ $ $ $ $ $ $ $ $ $ $ $ $ $ $ $ - J.{.6 5 6 3.}.5.8 V..X X X X[.^.: $ < : : l. XA < = o ; e c c c w : $ : q.}.1.5 5 t }.I.1 .. Xy.> V.oX.X] = o $ $ $ $ & $ $ $ $ @ : F. X, : : = < y >. X X Xu.* : o o o $ $ $ $ < @ < _.W.6 5 - r.oX:.5 T.oX}.XXXXXXV - 6 F.}.q i XXXXJ < > > x n v y = $ < $ $ $ < o o o o $ o $ o $ o o o < $ : @ Q $.",
"*.Q % & $ $ $ $ $ $ $ $ $ $ $ $ $ $ $ $ $ $ $ : R [ 1 =   d | n - R } | | ....} = = 1 = > M | y = $ = = : : > > : 1 : < x :.x 1 - 6 | [ : x | x   G | ..f @ @ $ $ $ & @ $ & $ $ @ = R | 1 1 - : 1 > y 1.| | d = o o : = $ $ $ $ $ & $ | ] - : - N :.x 5 { <.:.:.>.| r < > R | 1 y ....s o o o $ $ $ $ @ X $ o $ $ = $ $ $ $ $ @ $ # $ $ # o $ # o + L $.",
"@.7.j @ = @ $ o @ = $ = < $ = @ < $ $ $ $ $ @ $ . . @ @ @ 2 @ @ @ & @ @ @ @ @ @ @ & @ & & @ $ + + @ @ @ @ + @ @ $ @ @ @ $ + + @ @ o $ $ & @ + @ + @ & @ @ @ + + # @ + @ @ @ & + & & + + . @ @ @ @ @ @ < @ + + + + @ @ $ $ $ @ & @ + @ 2 @ $ @ $ 8 $ @ o o o o o @ X < < 2 < @ < @ @ @ @ + + + @ @ @ @ @ @ @ o $ < @ $ @ @ @ @ @ @ X @ @ @ @ @ X @ h +.o.",
"Y *.O.! U ( Y U ( / U / W / / / / / / U Y U U U U I U U U U U ( U ! U U ! ! ! U U Y ( U U ( U I U ! U U U U O.! U U ! ! ! U U U E E ! W ! ! U W ! Q ! ! ! Q ! O.U ! ( U U U U U U U ! U U I U Y ( ( ( ( ! @.! ! U ( Y / / / / ( ( ! ! ( W ( ( W ^ ~ ~ ~ ~ ~ E E U I U U ( U U ! U U ! U ! Q Q ! ! Q U U U ( Y W U ( ! ! U U U ! ! E U I U U W W ! O.*.Y ",
"z ) #.-.X.-.X.X.X.-.X.X.X.-.X.X.X.X.X.X.X.X.X.) -.-.-.-.) -.#.-.-.-.-.-.-.#.-.#.-.;.) -.-.-.;.X.;.;.;.-.;.;.-.-.-.;.-.-.-.-.-.-.8.X.9.8.-.-.;.;.-.-.-.-.-.;.;.-.-.;.;.;.;.-.-.-.;.-.-.-.-.-.-.-.-.-.X.-.&.&.-.#.-.-.X.X.-.-.X.-.-.-.-.-.X.-.X.-.X.X.` 8.` X.X.` -.-.-.X.-.-.-.;.-.-.-.-.-.#.-.-.#.-.X.X.-.-.;.-.-.-.-.-.-.;.-.-.-.-.-.-.-.-.-.&.X.` X.z "
};
