/* XPM */
static char *pillar_frame_1[] = {
/* columns rows colors chars-per-pixel */
"64 64 9 1 ",
"  c #272727",
". c #2F2F2F",
"X c #383838",
"o c #404040",
"O c #515151",
"+ c #5A5A5A",
"@ c #626262",
"# c gray45",
"$ c None",
/* pixels */
"$$$$$$$$#############################################$$$$$$$$$$$",
"$$$$$$$$#############################################$$$$$$$$$$$",
"$$$$$$$$################++++++++++++++++++@###########$$$$$$$$$$",
"$$$$$###################                  o#############$$$$$$$$",
"$$$$$###################                  o#############$$$$$$$$",
"$$$$$########Ooooooooooo                  .oooooooO#######$$$$$$",
"$$$$$########o                                    o########$$$$$",
"$$$$$########o                                    o########$$$$$",
"$$$$$######################################################$$$$$",
"$$$$$######################################################$$$$$",
"$$$$$$####################################################$$$$$$",
"$$$$$$$$################################################$$$$$$$$",
"$$$$$$$$################################################$$$$$$$$",
"$$$$$$$$$$$$$#####@oooooooooooooooooooooooooo@#####$$$$$$$$$$$$$",
"$$$$$$$$$$$$$#####+                          +#####$$$$$$$$$$$$$",
"$$$$$$$$$$$$$#####+                          +#####$$$$$$$$$$$$$",
"$$$$$$$$$$$$$#####+  +####+                  +#####$$$$$$$$$$$$$",
"$$$$$$$$$$$$$#####+  +####+                  +#####$$$$$$$$$$$$$",
"$$$$$$$$$$$$$#####+  +####+  XooooX  XooooX  +#####$$$$$$$$$$$$$",
"$$$$$$$$$$$$$#####+  +####+  +####+  +####+  +#####$$$$$$$$$$$$$",
"$$$$$$$$$$$$$#####+  +####+  +####+  +####+  +#####$$$$$$$$$$$$$",
"$$$$$$$$$$$$$#####+  +####+  +####+  +####+  +#####$$$$$$$$$$$$$",
"$$$$$$$$$$$$$#####+  +####+  +####+  +####+  +#####$$$$$$$$$$$$$",
"$$$$$$$$$$$$$#####+  +####+  +####+  +####+  +#####$$$$$$$$$$$$$",
"$$$$$$$$$$$$$#####+  +####+  +####+  +####+  +#####$$$$$$$$$$$$$",
"$$$$$$$$$$$$$#####+  +####+  +####+  +####+  +#####$$$$$$$$$$$$$",
"$$$$$$$$$$$$$#####+  +####+  +####+  +####+  +#####$$$$$$$$$$$$$",
"$$$$$$$$$$$$$#####+  +####+  +####+  +####+  +#####$$$$$$$$$$$$$",
"$$$$$$$$$$$$$#####+  +####+  +####+  +####+  +#####$$$$$$$$$$$$$",
"$$$$$$$$$$$$$#####+  +####+  +####+  +####+  +#####$$$$$$$$$$$$$",
"$$$$$$$$$$$$$#####+  +####+  +####+  +####+  +#####$$$$$$$$$$$$$",
"$$$$$$$$$$$$$#####+  +####+  +####+  +####+  +#####$$$$$$$$$$$$$",
"$$$$$$$$$$$$$#####+  +####+  +####+  +####+  +#####$$$$$$$$$$$$$",
"$$$$$$$$$$$$$#####+  +####+  +####+  +####+  +#####$$$$$$$$$$$$$",
"$$$$$$$$$$$$$#####+  +####+  +####+  +####+  +#####$$$$$$$$$$$$$",
"$$$$$$$$$$$$$#####+  +####+  +####+  +####+  +#####$$$$$$$$$$$$$",
"$$$$$$$$$$$$$#####+  +####+  +####+  +####+  +#####$$$$$$$$$$$$$",
"$$$$$$$$$$$$$#####+  +####+  +####+  +####+  +#####$$$$$$$$$$$$$",
"$$$$$$$$$$$$$#####+  +####+  +####+  +####+  +#####$$$$$$$$$$$$$",
"$$$$$$$$$$$$$#####+  +####+  +####+  +####+  +#####$$$$$$$$$$$$$",
"$$$$$$$$$$$$$#####+  +####+  +####+  +####+  +#####$$$$$$$$$$$$$",
"$$$$$$$$$$$$$#####+  +####+  +####+  +####+  +#####$$$$$$$$$$$$$",
"$$$$$$$$$$$$$#####+  +####+  +####+  +####+  +#####$$$$$$$$$$$$$",
"$$$$$$$$$$$$$#####+  +####+  +####+  +####+  +#####$$$$$$$$$$$$$",
"$$$$$$$$$$$$$#####+  +####+  +####+  +####+  +#####$$$$$$$$$$$$$",
"$$$$$$$$$$$$$#####+  +####+  +####+  +####+  +#######$$$$$$$$$$$",
"$$$$$$$$$$$$$#####+  +####+  +####+  +####+  +#######$$$$$$$$$$$",
"$$$$$$$$$$$$$#####+  +####+  +####+  +####+  +#######$$$$$$$$$$$",
"$$$$$$$$$$$$$#####+  +####+  +#######################$$$$$$$$$$$",
"$$$$$$$$$$$$$#####+  +####+  +#######################$$$$$$$$$$$",
"$$$$$$$$$$$$$#####@oo@####@oo@#######################$$$$$$$$$$$",
"$$$$$$$$#############################################$$$$$$$$$$$",
"$$$$$$$$#############################################$$$$$$$$$$$",
"$$$$$$$$#####OooooO#############################ooO#######$$$$$$",
"$$$$$$$$#####o    o#############################  o########$$$$$",
"$$$$$$$$#####o    o#############################  o########$$$$$",
"$$$$$###########                                  o########$$$$$",
"$$$$$###########                                  o########$$$$$",
"$$$$$###########ooooooooooooooooooooooooooooooooooO########$$$$$",
"$$$$$######################################################$$$$$",
"$$$$$######################################################$$$$$",
"$$$$$$$$################################################$$$$$$$$",
"$$$$$$$$################################################$$$$$$$$",
"$$$$$$$$################################################$$$$$$$$"
};
