/* XPM */
static char *pillar_frame_2[] = {
/* columns rows colors chars-per-pixel */
"64 64 9 1 ",
"  c #272727",
". c #383838",
"X c #404040",
"o c #494949",
"O c #515151",
"+ c #5A5A5A",
"@ c #626262",
"# c gray45",
"$ c None",
/* pixels */
"$$$$$$$$$$$$$###########################################$$$$$$$$",
"$$$$$$$$$$$$$###########################################$$$$$$$$",
"$$$$$$$$$$$$$###########++++++++++++++++++++++++++@#####$$$$$$$$",
"$$$$$$$$################                          X########$$$$$",
"$$$$$$$$################                          X########$$$$$",
"$$$$$$##########XXXXXXXX                     o++++@########$$$$$",
"$$$$$###########                             +#############$$$$$",
"$$$$$###########                             +#############$$$$$",
"$$$$$###################################################$$$$$$$$",
"$$$$$###################################################$$$$$$$$",
"$$$$$$##################################################$$$$$$$$",
"$$$$$$$$################################################$$$$$$$$",
"$$$$$$$$################################################$$$$$$$$",
"$$$$$$$$$$$$$#####@XXXXXXXXXXXXXXXXXXXXXXXXXX@#####$$$$$$$$$$$$$",
"$$$$$$$$$$$$$#####+                          +#####$$$$$$$$$$$$$",
"$$$$$$$$$$$$$#####+                          +#####$$$$$$$$$$$$$",
"$$$$$$$$$$$$$#####+                  +####+  +#####$$$$$$$$$$$$$",
"$$$$$$$$$$$$$#####+                  +####+  +#####$$$$$$$$$$$$$",
"$$$$$$$$$$$$$#####+  .XXXX.          +####+  +#####$$$$$$$$$$$$$",
"$$$$$$$$$$$$$#####+  +####+          +####+  +#####$$$$$$$$$$$$$",
"$$$$$$$$$$$$$#####+  +####+          +####+  +#####$$$$$$$$$$$$$",
"$$$$$$$$$$$$$#####+  +####+  o++++o  +####+  +#####$$$$$$$$$$$$$",
"$$$$$$$$$$$$$#####+  +####+  +####+  +####+  +#####$$$$$$$$$$$$$",
"$$$$$$$$$$$$$#####+  +####+  +####+  +####+  +#####$$$$$$$$$$$$$",
"$$$$$$$$$$$$$#####+  +####+  +####+  +####+  +#####$$$$$$$$$$$$$",
"$$$$$$$$$$$$$#####+  +####+  +####+  +####+  +#####$$$$$$$$$$$$$",
"$$$$$$$$$$$$$#####+  +####+  +####+  +####+  +#####$$$$$$$$$$$$$",
"$$$$$$$$$$$$$#####+  +####+  +####+  +####+  +#####$$$$$$$$$$$$$",
"$$$$$$$$$$$$$#####+  +####+  +####+  +####+  +#####$$$$$$$$$$$$$",
"$$$$$$$$$$$$$#####+  +####+  +####+  +####+  +#####$$$$$$$$$$$$$",
"$$$$$$$$$$$$$#####+  +####+  +####+  +####+  +#####$$$$$$$$$$$$$",
"$$$$$$$$$$$$$#####+  +####+  +####+  +####+  +#####$$$$$$$$$$$$$",
"$$$$$$$$$$$$$#####+  +####+  +####+  +####+  +#####$$$$$$$$$$$$$",
"$$$$$$$$$$$$$#####+  +####+  +####+  +####+  +#####$$$$$$$$$$$$$",
"$$$$$$$$$$$$$#####+  +####+  +####+  +####+  +#####$$$$$$$$$$$$$",
"$$$$$$$$$$$$$#####+  +####+  +####+  +####+  +#####$$$$$$$$$$$$$",
"$$$$$$$$$$$$$#####+  +####+  +####+  +####+  +#####$$$$$$$$$$$$$",
"$$$$$$$$$$$$$#####+  +####+  +####+  +####+  +#####$$$$$$$$$$$$$",
"$$$$$$$$$$$$$#####+  +####+  +####+  +####+  +#####$$$$$$$$$$$$$",
"$$$$$$$$$$$$$#####+  +####+  +####+  +####+  +#####$$$$$$$$$$$$$",
"$$$$$$$$$$$$$#####+  +####+  +####+  +####+  +#####$$$$$$$$$$$$$",
"$$$$$$$$$$$$$#####+  +####+  +####+  +####+  +#####$$$$$$$$$$$$$",
"$$$$$$$$$$$$$#####+  +####+  +####+  +####+  +#####$$$$$$$$$$$$$",
"$$$$$$$$$$$$$#####+  +####+  +####+  +####+  +#####$$$$$$$$$$$$$",
"$$$$$$$$$$$$$#####+  +####+  +####+  +####+  +#####$$$$$$$$$$$$$",
"$$$$$$$$$$$$$#####+  +####+  +####+  +####+  +#####$$$$$$$$$$$$$",
"$$$$$$$$$$$$$#####+  +####+  +####+  +####+  +#####$$$$$$$$$$$$$",
"$$$$$$$$$$$$$#####+  +####+  +####+  +####+  +#####$$$$$$$$$$$$$",
"$$$$$$$$$$$########################################$$$$$$$$$$$$$",
"$$$$$$$$$$$########################################$$$$$$$$$$$$$",
"$$$$$$$$$$#########################################$$$$$$$$$$$$$",
"$$$$$$$$################################################$$$$$$$$",
"$$$$$$$$################################################$$$$$$$$",
"$$$$$$#######OXXXXXXX@#######################OXXXXO#######$$$$$$",
"$$$$$########X       +#######################X    X########$$$$$",
"$$$$$########X       +#######################X    X########$$$$$",
"$$$$$#############+                               X########$$$$$",
"$$$$$#############+                               X########$$$$$",
"$$$$$$############@XXXXXXXXXXXXXXXXXXXXXXXXXXXXXXXO########$$$$$",
"$$$$$$$$###################################################$$$$$",
"$$$$$$$$###################################################$$$$$",
"$$$$$$$$$$##############################################$$$$$$$$",
"$$$$$$$$$$$#############################################$$$$$$$$",
"$$$$$$$$$$$#############################################$$$$$$$$"
};
