/* XPM */
static char *player_down_frame_move[] = {
/* columns rows colors chars-per-pixel */
"64 63 13 1 ",
"  c None",
". c gray4",
"X c #1B1B1B",
"o c gray33",
"O c gray37",
"+ c #606060",
"@ c gray54",
"# c #AEAEAE",
"$ c gray81",
"% c LightGray",
"& c #E7E7E7",
"* c gray91",
"= c white",
/* pixels */
"                                                                ",
"                                                                ",
"                                                                ",
"                                                                ",
"                                                                ",
"                                                                ",
"                                                                ",
"                        ===================                     ",
"                        ===================                     ",
"                        ===================                     ",
"                      ========================                  ",
"                      ========================                  ",
"                   =============================                ",
"                   ==============================               ",
"                   ==============================               ",
"                   ==============================               ",
"                   ==============================               ",
"                   ==============================               ",
"                =================================               ",
"                =================================               ",
"                =================================               ",
"                ===================================             ",
"                ===================================             ",
"                ===================================             ",
"                ===================================             ",
"                ===================================             ",
"                ===================================             ",
"                ===================================             ",
"                ===================================             ",
"                ===================================             ",
"                ===================================             ",
"                ===================================             ",
"                ===================================             ",
"                ===================================             ",
"                ========+XXXXO=======%XXXXX%=======             ",
"                ========o....o=======$.....$=======             ",
"                ========o....o=======$.....$=======             ",
"                ========o....o=======$.....$=======             ",
"                ========o....o=======$.....$=======             ",
"                ========#@@@@#=======*@@@@@&=======             ",
"                ===================================             ",
"                ===================================             ",
"                =================================               ",
"                =================================               ",
"                =================================               ",
"                   ==============================               ",
"                   ==============================               ",
"                   ==============================               ",
"                   ========                ======               ",
"                   ========                ======               ",
"                                                                ",
"                                                                ",
"                                                                ",
"                                                                ",
"                                                                ",
"                                                                ",
"                                                                ",
"                                                                ",
"                                                                ",
"                                                                ",
"                                                                ",
"                                                                ",
"                                                                "
};
