/* XPM */
static char *_c6731abd3f14cf9a0a5423e06a660f6_0[] = {
/* columns rows colors chars-per-pixel */
"24 24 3 1 ",
"  c None",
". c #421811",
"X c #E5533B",
/* pixels */
"     XXXXXXXXXXX        ",
"    XXXXXXXXXXXXXXX     ",
"   XXXXXXXXXXXXXXXXX    ",
"   XXX.........XXXXXX   ",
"  XXX...XXXXXX....XXXX  ",
" XXXX.XXXXXXXXXX...XXX  ",
" XXX..XXXXXXXXXXX..XXXX ",
" XXX.XXXXXXXXXXXXX..XXX ",
"XXXX.XXXXXXXXXXXXXX.XXX ",
"XXX..XXXXXXXXXXXXXX.XXXX",
"XXX..XXXXXXXXXXXXXX..XXX",
"XXX.XXXXXXXXXXXXXXXX.XXX",
"XXX.XXXXXXXXXXX..XXX.XXX",
"XXX.XXXXXXXXXX....XX.XXX",
"XXX.XXXXXXXXXX....XX.XXX",
"XXX.XXXXXXXXXX...XXX.XXX",
"XXX.XXXXXXXXXXX..XXX.XXX",
"XXX.XXXXXXXXXXXXXXXX.XXX",
"XXX.XXXXXXXXXXXXXXXX.XXX",
"XXX.XXXXXXXXXXXXXXXX.XXX",
"XXX.XXXXXXXXXXXXXXXX.XXX",
"XXX.XXXXXXXXXXXXXXXX.XXX",
"XXX.XXXXXXXXXXXXXXXX.XXX",
"XX...XXXXXXXXXXXXXX..XXX"
};
