/* XPM */
static char *_[] = {
/* columns rows colors chars-per-pixel */
"64 64 11 1 ",
"  c None",
". c #421811",
"X c #541F16",
"o c #66251A",
"O c #782C1F",
"+ c #8A3224",
"@ c #9D3928",
"# c #AF3F2D",
"$ c #C14632",
"% c #D34C36",
"& c #00FF00",
/* pixels */
"                   &&&&&&&&&&&&&&&&&&&&&&&&                     ",
"                   &&&&&&&&&&&&&&&&&&&&&&&&                     ",
"                  &&&&&&&&&&&&&&&&&&&&&&&&&                     ",
"             &&&&&&&&&&&&&&&&&&&&&&&&&&&&&&&&&&&&&&&&           ",
"             &&&&&&&&&&&&&&&&&&&&&&&&&&&&&&&&&&&&&&&&           ",
"           &&&&&&&&&&&&&&&&&&&&&&&&&&&&&&&&&&&&&&&&&&&&&        ",
"           &&&&&&&&&&&&&&&&&&&&&&&&&&&&&&&&&&&&&&&&&&&&&        ",
"           &&&&&&&&&&&&&&&&&&&&&&&&&&&&&&&&&&&&&&&&&&&&&        ",
"           &&&&&&&&&&O....................O&&&&&&&&&&&&&        ",
"           &&&&&&&&&&O....................O&&&&&&&&&&&&&        ",
"          &&&&&&#####o....XOOOOOOOOOOX....o#####&&&&&&&&        ",
"        &&&&&&&&..........O&&&&&&&&&&O..........&&&&&&&&&&&     ",
"        &&&&&&&&..........O&&&&&&&&&&O..........&&&&&&&&&&&     ",
"      &&&&&&&&&&##########$&&&&&&&&&&$####+.....OO@&&&&&&&&&&   ",
"     &&&&&&&&&&&&&&&&&&&&&&&&&&&&&&&&&&&&&#.......O&&&&&&&&&&   ",
"     &&&&&&&&&&&&&&&&&&&&&&&&&&&&&&&&&&&&&#.......O&&&&&&&&&&   ",
"   &&&&&&&&&&O..&&&&&&&&&&&&&&&&&&&&&&&&&&&&&O.......#&&&&&&&   ",
"   &&&&&&&&&&O..&&&&&&&&&&&&&&&&&&&&&&&&&&&&&O.......#&&&&&&&   ",
"   &&&&&&&%##+OO&&&&&&&&&&&&&&&&&&&&&&&&&&&&&@OO.....#&&&&&&&   ",
"   &&&&&&&#..#&&&&&&&&&&&&&&&&&&&&&&&&&&&&&&&&&&.....#&&&&&&&   ",
"   &&&&&&&#..#&&&&&&&&&&&&&&&&&&&&&&&&&&&&&&&&&&.....#&&&&&&&   ",
"   &&&&&&&#..#&&&&&&&&&&&&&&&&&&&&&&&&&&&&&&&&&&.....#&&&&&&&&&&",
"   &&&&&&&#..#&&&&&&&&&&&&&&&&&&&&&&&&&&&&&&&&&&.....#&&&&&&&&&&",
"   &&&&&&&#..#&&&&&&&&&&&&&&&&&&&&&&&&&&&&&&&&&&.....#&&&&&&&&&&",
"&&&&&&&&&&#..#&&&&&&&&&&&&&&&&&&&&&&&&&&&&&&&&&&&&#.....&&&&&&&&",
"&&&&&&&&&&#..#&&&&&&&&&&&&&&&&&&&&&&&&&&&&&&&&&&&&#.....&&&&&&&&",
"&&&&&&&&##@OO$&&&&&&&&&&&&&&&&&&&&&&&&&&&&&&&&&&&&#.....&&&&&&&&",
"&&&&&&&&..O&&&&&&&&&&&&&&&&&&&&&&&&&&&&&&&&&&&&&&&#.....&&&&&&&&",
"&&&&&&&&..O&&&&&&&&&&&&&&&&&&&&&&&&&&&&&&&&&&&&&&&#.....&&&&&&&&",
"&&&&&&&&..O&&&&&&&&&&&&&&&&&&&&&&&&&&&&&&&&&&&&&&&%##o..&&&&&&&&",
"&&&&&&&&..O&&&&&&&&&&&&&&&&&&&&&&&&&&&&&&&&&&&&&&&&&&O..&&&&&&&&",
"&&&&&&&&..O&&&&&&&&&&&&&&&&&&&&&&&&&&&&&&&&&&&&&&&&&&O..&&&&&&&&",
"&&&&&&&&..O&&&&&&&&&&&&&&&&&&&&&&&&&&O.......#&&&&&&&O..&&&&&&&&",
"&&&&&&&&..O&&&&&&&&&&&&&&&&&&&&&&&&&&O.......#&&&&&&&O..&&&&&&&&",
"&&&&&&&&..O&&&&&&&&&&&&&&&&&&&&&&&&&&O.......+##&&&&&O..&&&&&&&&",
"&&&&&&&&..O&&&&&&&&&&&&&&&&&&&&&&&&&&O..........&&&&&O..&&&&&&&&",
"&&&&&&&&..O&&&&&&&&&&&&&&&&&&&&&&&&&&O..........&&&&&O..&&&&&&&&",
"&&&&&&&&..O&&&&&&&&&&&&&&&&&&&&&&&&&&O..........&&&&&O..&&&&&&&&",
"&&&&&&&&..O&&&&&&&&&&&&&&&&&&&&&&&&&&O..........&&&&&O..&&&&&&&&",
"&&&&&&&&..O&&&&&&&&&&&&&&&&&&&&&&&&&&O..........&&&&&O..&&&&&&&&",
"&&&&&&&&..O&&&&&&&&&&&&&&&&&&&&&&&&&&&&&........&&&&&O..&&&&&&&&",
"&&&&&&&&..O&&&&&&&&&&&&&&&&&&&&&&&&&&&&&........&&&&&O..&&&&&&&&",
"&&&&&&&&..O&&&&&&&&&&&&&&&&&&&&&&&&&&&&&OOOOOOOO&&&&&O..&&&&&&&&",
"&&&&&&&&..O&&&&&&&&&&&&&&&&&&&&&&&&&&&&&&&&&&&&&&&&&&O..&&&&&&&&",
"&&&&&&&&..O&&&&&&&&&&&&&&&&&&&&&&&&&&&&&&&&&&&&&&&&&&O..&&&&&&&&",
"&&&&&&&&..O&&&&&&&&&&&&&&&&&&&&&&&&&&&&&&&&&&&&&&&&&&O..&&&&&&&&",
"&&&&&&&&..O&&&&&&&&&&&&&&&&&&&&&&&&&&&&&&&&&&&&&&&&&&O..&&&&&&&&",
"&&&&&&&&..O&&&&&&&&&&&&&&&&&&&&&&&&&&&&&&&&&&&&&&&&&&O..&&&&&&&&",
"&&&&&&&&..O&&&&&&&&&&&&&&&&&&&&&&&&&&&&&&&&&&&&&&&&&&O..&&&&&&&&",
"&&&&&&&&..O&&&&&&&&&&&&&&&&&&&&&&&&&&&&&&&&&&&&&&&&&&O..&&&&&&&&",
"&&&&&&&&..O&&&&&&&&&&&&&&&&&&&&&&&&&&&&&&&&&&&&&&&&&&O..&&&&&&&&",
"&&&&&&&&..O&&&&&&&&&&&&&&&&&&&&&&&&&&&&&&&&&&&&&&&&&O...&&&&&&&&",
"&&&&&&&&..O&&&&&&&&&&&&&&&&&&&&&&&&&&&&&&&&&&&&&&&&O....&&&&&&&&",
"&&&&&&&&..O&&&&&&&&&&&&&&&&&&&&&&&&&&&&&&&&&&&&&O.......&&&&&&&&",
"&&&&&&&&..O&&&&&&&&&&&&&&&&&&&&&&&&&&&&&&&&&&O..........&&&&&&&&",
"&&&&&&&&..O&&&&&&&&&&&&&&&&&&&&&&&&&&&&&&&&&O...........&&&&&&&&",
"&&&&&&&&..O&&&&&&&&&&&&&&&&&&&&&&&&&&&&&&O..............&&&&&&&&",
"&&&&&&&&..O&&&&&&&&&&&&&&&&&&&&&&&&&&&&O................&&&&&&&&",
"&&&&&&&&..O&&&&&&&&&&&&&&&&&&&&&&&&O....................&&&&&&&&",
"&&&&&&&&..O&&&&&&&&&&&&&&&&&&&O.........................&&&&&&&&",
"&&&&&&&&..O&&&&&&&&&&&&&&&&&O...........................&&&&&&&&",
"  &&&@OO..XOO$&&&&&&&&&&$OOX............................OO@&&&  ",
"   &&O.......#&&&&&&&&#...................................O&&   ",
"   &&O.......#&&&&&#......................................O&&   "
};

