/* XPM */
static char *_3057_688dbbf9a64d92fa91cf3856631e42a781c73d7d3c365f545d8d509b1f4cffa3_2[] = {
/* columns rows colors chars-per-pixel */
"24 24 2 1 ",
"  c None",
". c white",
/* pixels */
"                        ",
"                        ",
"                        ",
"                        ",
"                        ",
"                        ",
"                        ",
"         .......        ",
"        ........        ",
"       ....   ...       ",
"       ..      ..       ",
"       ..     ...       ",
"       ...    ...       ",
"       ..... ...        ",
"        ........        ",
"          .....         ",
"                        ",
"                        ",
"                        ",
"                        ",
"                        ",
"                        ",
"                        ",
"                        "
};
