/* XPM */
static char *a9c37dfb2ebc4b1a8e1acd048cf1a58f_2[] = {
/* columns rows colors chars-per-pixel */
"20 21 2 1 ",
"  c None",
". c #86603A",
/* pixels */
"         ....  ...  ",
"        .....  ...  ",
"      ........ ...  ",
"     .............  ",
"    ......  ....    ",
"   .....     ....   ",
" .....   ... .....  ",
".....   ..... ..... ",
"....   ......  .....",
" ..  .........  ....",
"    ....     ..     ",
"   .... .. .. ...   ",
"   .... .. .. ...   ",
"   ....       ....  ",
"   .... .. .. ....  ",
"   ....  . .  ....  ",
"   .....    ......  ",
"   ...............  ",
"   ...............  ",
"   ...............  ",
"    ..............  "
};
