/* XPM */
static char *resume[] = {
/* columns rows colors chars-per-pixel */
"172 20 164 2 ",
"   c #1C4536",
".  c #164F35",
"X  c #1D4E37",
"o  c red",
"O  c red",
"+  c #0F563A",
"@  c #165236",
"#  c #195237",
"$  c #15543A",
"%  c #1C513A",
"&  c #19583D",
"*  c #224537",
"=  c #204E36",
"-  c #25463A",
";  c #2A443A",
":  c #224D3B",
">  c #294C3E",
",  c #215037",
"<  c #22503C",
"1  c #1E5140",
"2  c #254E40",
"3  c #2A4D41",
"4  c #314D41",
"5  c #255241",
"6  c #2B5343",
"7  c #2E5C4A",
"8  c #345347",
"9  c #385247",
"0  c #355548",
"q  c #335A4B",
"w  c #3A5A4C",
"e  c #365D50",
"r  c #3B5D51",
"t  c #1C6645",
"y  c #3B6254",
"u  c #337755",
"i  c #317859",
"p  c #435E53",
"a  c #4E754E",
"s  c #436457",
"d  c #456659",
"f  c #4A655A",
"g  c #43695A",
"h  c #496A5B",
"j  c #4A7E58",
"k  c #476D60",
"l  c #4F6D62",
"z  c #516D62",
"x  c #586D64",
"c  c #517064",
"v  c #577468",
"b  c #5A766B",
"n  c #56796C",
"m  c #5D796E",
"M  c #5E7B71",
"N  c #637C72",
"B  c #3C9E74",
"V  c #4D805B",
"C  c #489866",
"Z  c #4B946F",
"A  c #4B9A6E",
"S  c #5D996E",
"D  c #5D8676",
"F  c #4C9772",
"G  c #469A75",
"H  c #4A9973",
"J  c #459D78",
"K  c #4D9879",
"L  c #529773",
"P  c #519A75",
"I  c #529C7B",
"U  c #5C9F7A",
"Y  c #648176",
"T  c #648479",
"R  c #6C857C",
"E  c #658B7B",
"W  c #6C8B7F",
"Q  c #72877E",
"!  c #708A7F",
"~  c #629D77",
"^  c #639F79",
"/  c #47A277",
"(  c #4AA279",
")  c #4CAB7A",
"_  c #5CA376",
"`  c #56A67B",
"'  c #5BA37B",
"]  c #55A87C",
"[  c #59A97E",
"{  c #61A177",
"}  c #60A976",
"|  c #63A27B",
" . c #69A27D",
".. c #61A97E",
"X. c #6D8D81",
"o. c #728C82",
"O. c #769187",
"+. c #759489",
"@. c #7C928A",
"#. c #7E998F",
"$. c #7D9B91",
"%. c #4EAB81",
"&. c #5CA281",
"*. c #53AA80",
"=. c #5DAB82",
"-. c #63A483",
";. c #86938D",
":. c #849B93",
">. c #899D94",
",. c #909B95",
"<. c #87A59B",
"1. c #8BA49B",
"2. c #91A29A",
"3. c #91A99D",
"4. c #8EAFA3",
"5. c #92ACA2",
"6. c #98AAA3",
"7. c #9BAEA9",
"8. c #A1B1AC",
"9. c #A4B5B2",
"0. c #A3BCB3",
"q. c #ABBCB6",
"w. c #ACBFB8",
"e. c #A9C1B6",
"r. c #ABC2B9",
"t. c #ACCABD",
"y. c #B3C5BE",
"u. c #B9C4BF",
"i. c #ADCAC4",
"p. c #B3CBC5",
"a. c #BBCCC5",
"s. c #B1CDC8",
"d. c #B9CDC8",
"f. c #AFD3C5",
"g. c #B7D3C9",
"h. c #BCD3CB",
"j. c #C4CEC8",
"k. c #C3D2CC",
"l. c #CCD0CF",
"z. c #C6D8D5",
"x. c #CFDBD6",
"c. c #CCDED8",
"v. c #D2DDD9",
"b. c #C9E0D7",
"n. c #CEE3DC",
"m. c #D6E3DE",
"M. c #D6E7E1",
"N. c #DAE7E3",
"B. c #DBE9E5",
"V. c #DCEEE9",
"C. c #E1E4E2",
"Z. c #E3E9E6",
"A. c #E3EEEB",
"S. c #E3F3ED",
"D. c #E5F6F1",
"F. c #EDF5F3",
"G. c #E7FEF7",
"H. c #EBFCF6",
"J. c #EDFFF9",
"K. c #F3F7F6",
"L. c #F2FAF6",
"P. c #FAF8F7",
"I. c #F4FEFB",
"U. c #FBFDFC",
/* pixels */
"V _ _ -.| &.&.[ [ | ' &.&.[ -.' &.&.-.[ &.&.[ _ } _ ..-.' ' ' ..' &....._ } _ ' -.&.&.&.[ ' &.&.&.&.&.&.&.I U ' &.` ' I &.=.[ | -.-.U ~ ^ -.-.^ ' [ _ _ ' _ _ ' ' U ' U ' | ' _ ' ' ' ' ' ' ' ' _ ' _ _ ' ' ' ' ' ' ' ` ' I ` I ' ` ` I ' ' ' U _ ' ' ` U ` I ' ' ' ' U ' ' ' ' _ I _ ' ' ' ' ` I ' ' _ ' I ' ' ' ' ' _ ' I ' ` U ` U ` ' ' _ _ _ U ' j ",
"' ) G F H F H H H H H F H H F J H F H F F K F F A C A F F H F A H H H H A C A F K %.K F F G F F F K F G F G F G G F G G G H J H K H F F K J P F K P H H H G H H F F K K K K H H H H G G G G G G G G H H G G G G F J F F H G F F F F H F G F G G G G G F F F H G H H G G G G F G G G G G H H F G G F H H G G F G F H G G A H H F F G G F F G G G A / %.&.",
"[ / t @ $ o @ @ @ @ @ # $ @ @ @ @ $ @ @ @ $ @ $ @ @ @ @ $ @ @ $ # @ @ @ @ @ @ @ $ 1 o @ # @ @ @ o $ $ @ @ @ # $ & $ + + $ % $ & $ & $ $ % 1 + 1 & & $ & & @ & & & @ 1 $ o 1 & $ $ & @ $ 1 + & $ @ $ $ @ $ & o $ $ o o & $ $ $ & $ 1 & $ @ $ & @ o $ $ & $ $ $ $ $ $ $ @ . $ $ $ $ $ # @ $ $ $ $ @ $ $ $ $ & @ @ $ $ $ $ $ $ $ @ $ & o $ $ $ & @ @ t ( =.",
"[ G @ O O O O O X % % : : O O O O O O O O O O O % < % % O O O O X < % O % , % % o O O O O % : % O O O O O O O O o 2 $ 1 o : -   : - o 1 O o $ O : : - : : O : 5   : : : : 2 $ % % % % % % % % :   : : : % : - $ : 1 O : - > 6 : 5 O 1 o O O O O O O @ o $ O $ O % : % O O O O O % O O O O O O O O O % O O O O % % X < O O O $ O O : % o @ O O O   & F =.",
"=.G o O o O O o O O O % O O : % O O O O O O O O O O O O O O O O O % : O O O % : O O : % O O O O O O O O O O O o O 2 % % - f h.k.k.k.6 : : 2 q f.h.h.g.h.c : : 2 R g.h.h.h.Y , , - < < % : : < & < E g.n : e.t.% : % D h.k.l.d.d.q O 1 % O O O O O % % X O % O O % X < % O O O X O O O O % O O O O O % O O O O O O O O O O O O O O O : % % O O $ : % F =.",
"] G $ O O O O O O X O O O O % : O O O O O % O % O $ O O O O O O O O % O O % : % O O % O O O O O O O O O O O O O O O 1 5 b q.J.I.I.I.5.r O : s G.J.J.I.I.T : ; 3 a.J.I.J.J.@.: w 3.E O < 1.:.: 1 5 <.H.y.6.D.D.: < O +.I.P.I.J.G.6 2 % O : O O O O O % % : O O O : % O O : O O : O O O O O O % : O O O O O O O O % O O O O O O O O O % : O O % O O $ F [ ",
"] F o O O O O   : % = X O O O % O O O O O O O : O O O O O O O O O O % : O O O O % O O O O % : O O % O O O O O 1 2 1 % - :.U.J.9.8 0.J.v   : d G.i.9 0 0 - : M F.U.k.9 4 4 4 : f H.0.% < S.m.* % 1 <.I.U.I.U.H.2 < : +.I.,.0 6 7 o : 1 O O O O O O % % : O O O % % : O O % O O $ % O O O O O O % O O O O O O O O O O % O % O O O O o % % O O % % O $ F [ ",
"] G @ O O O O O % = % % : % O = O O O O O O O % O O O O O O O O O % : % O O O O O O O O O O % O O O O O O O O O % % % : :.I.5.k > 8.I.b : 2 s J.r.; - 5 5 : m U.l.N - : - > X h I.0.< : F.B.> : 5 <.U.U.U.U.F.2 : - ;.L.;.: 2 O : 1 O O O O O O O O O O O O O O X : % O % O % O % O % O % O O O O % O O O O O O O X % % O % O O O O : % O % O O : $ H [ ",
"] J $ : , % X = % = O O O O O % O O O O O O O O O O % O O % : % O O O O O % O O O O O O O O O O O O O O % O O < % % < O $.I.o.3 3 9.I.M : 5 d I.u.; :   O 2 M U.U.k.* < O   : f J.0.1 - F.N.3 1   1.U.U.U.U.L.2 2 - @.I.#.; : O : O O O O % O O O O O % O % O : O O O % O % O % O O O O $ O O O O O O O O O O O O O O % $ O O O % O O O X O O O : # H ` ",
"] F # O X % = % = % = % O % O O O O O % O O O O O O : % O O O = O O O O % : % : O O O O O O O O O O : % : % O X % $ % O $.I.7.R z.F.s.y o : p U.K.A.$.: % : k a.L.I.6.d : % % f I.q.  - F.N.3 2 q D.A.A.I.U.K.2 2 O +.I.D.A.l : O O : O : O O O O O O O : O O X O O O % % O O O O $ O $ O O O O O O O : O O % % $ O X % O O O $ O O O O O O : O < # H ` ",
"` G # O % : : % X O O O % : O O % : % : O O O O X X , = O O % : O O O O O O O % O O O O O O O O O O % O % = % X O % % O $.U.U.U.I.D.3 2 1 6 x U.K.V.$.< % 5 > 0 S.U.U.0.3 O X f J.0.O 2 F.N.2   e I.d.q.V.K.K.;   2 :.U.D.V.l 2 2 O : O % X % O : O : O : O : O X O O O % O O $ % O O O O O O O O O O O O O O O % O % % O $ O O % O O O : O : : : @ G ` ",
"` G . X = X % : < = % O : % O O O % O O O O O O : % % X O O O % O O O O O O O O O O O O O O O O O O O O : % = O % $ % : $.I.U.U.U.@.2 1 1 X.I.j.Q > O O 1 % : > x 1.c.I.8.c : h J.w.2 m K.N.2 1 e J.i.2 - M.K.>.e 3 I.A.z : 2 : O O O % : : : X O O = : : = : : : O O O O O O O O O O O O O O O O O : : O O O O O O O O O O O O O O : X : : = : , @ G ` ",
"` G @ = X % = % X % = % = % O O O O 1 O O O O O O O O O O : O O O O O : O = : X O X % O O 1   1 O O O O O   % = : : : X :.I.U.U.P.A.3 2 : X.I.>.: 2 1 % 1 5 v v.: 3 0 2.I.@.6 z I.F.c 5.I.B.3 1 e J.s.: - c.I.P.g 3 I.v.> > O o 1 1 O O : = - : : : = : : : = : : : : : : : = : : : = : : : : : : : : = : : : : : : = : : : : : : : : O : : = : % @ A ` ",
"] G @ = X : % X % = % X O = O O O O 1 O O O O O O O O O O % O O 1 O 1   O % % % O O O O O O 2 O 1 O O O O : : % : : < : #.I.8.Q C.U.r.s > o.K.>.5 1 O 2 < < N I.e.1.> ;.U.@.> z U.L.h.n.I.>.2 O e I.s.- 2 N l.P.f 2 I.v.; > : O O   2 O O O : : O O : : O O O : O O X : X O : : O O O : O O O : : O : : O O X : : X : : O O O O = : : O : = : O , @ G ] ",
"] J @ , < O % % = % = < X % = % O 1 O O O O : % X % O O O O O O 1 O O O % = X , % = O % O O O O O O O O O % = O % > < : :.J.o.: $.v.I.1.- o.U.a.:.:.>.>.s : M U.L.M.:.u.K.O.> r x.I.G.G.4.y O O e H.p.- - - w.I.g 2 I.Z.>.:.:.:.3 2 O O O O $ O O O O O O O O O O O O O O O O O O O O O O O O O X % O O O O O O O O % O O O O O O O X O : % % , , @ B ) ",
") G @ , % < < : % = O X % : % : O O - 1 O : % = % = O O O O O O O O O O O O = % = X % : O 1 O O O 1 1 O O X % = = : : < @.H.X.$ : w G.b.3 X.I.I.I.I.I.I.T : 6 d 6.J.I.J.N q   : w f d s   o 1 O e I.p.- 3 2 0.J.g 2 J.I.U.I.I.I.0 2 O o O O O O O O $ O O $ O O % O O O $ O $ O O $ O O % % O O % O O $ O O $ O % O O $ O O # O O O $ O % % X # # @ B ) ",
"] / # , < % < % % X % X X O % : o 1 O O O O O O X O O O O O O O O O O O O O O X O X % : % O O : O O = % % , X O : , < < f ! h % % % E Y 3 r X.X.W Q o.Q y : O O f W Q W 6 % % o : > : > O % % O 6 X.n 6 : : b W q 5 W o.o.O.Q Q 6 O % o : < = < : % < % , < < % , % : , % = % , % , % = : O O : % < , % % < % < < < % < % : : % O O O % O % O O > @ B ) ",
"[ ] u % $ @ # # # @ # # # # # $ o o @ % X $ # # # # X # # % % % @ # @ $ $ @ # $ # # # # # # # $ $ # # % # # % # % % % < % % % % & % $ . # . % # X X $ % % % $ # $ $ $ X # $ $ $ # # $ % $ @ % $ $ . # # % % $ # $ @ % $ % % % % o . $ $ @ @ @ @ @ @ @ % @ @ @ # # % % # # % % % % % # % % % $ $ @ $ @ @ # @ @ @ # @ @ @ % % $ % % $ % @ % $ $ $ $ i %.' ",
"S ` P L L L L F F F F L H F F H L F F F F F H F F H H F F F A A F H H F F L F F F F F F F F F F F L F F Z F H H A F H H A A H H P H P F F Z H F L F F L L L F L L L P F F L L F F L F L L F F F P F L F L P L F F F L L L F L F Z F L L L A F F A A A A A H A F A H H A A H A A H H F H H J H H F H F L A A F F A H H A F H H H H K H H F F L F L U *.S ",
"a ~ | ~ | |  .^ { | | ^ ~ | ^ ^ ^ ^ -. .~ ~ |  .| _ | _ _ | | |  .~ |  .^  .^ ~ | | | | | | { | ~ ^ | | { | | _ | ..| _ | | { | | | |  .~ ~ | ^ ^ ^ | ^ | { | | ^  .| ~ ^ ^ ^ ^ ^ ^ ^ ^ ~ ^  .^  .| | |  .| ^ |  .{ | ~ { { { ~ ~ ~ ~ ~ ~ ~ ~ ~ |  .| | ..| { } ...._ ..| ' .._ ' | [ ..| | [  .|  ... .| { { ~ } { { _ | _ | ' | ' | | | | | | -.-. .a "
};
