/* XPM */
static char *monster_down_frame_move_1[] = {
/* columns rows colors chars-per-pixel */
"45 64 210 2 ",
"   c #D6285D",
".  c #D6295E",
"X  c #D62A5F",
"o  c #D62B5F",
"O  c #D62B60",
"+  c #D62C60",
"@  c #D72E61",
"#  c #D72E62",
"$  c #D72F63",
"%  c #D73063",
"&  c #D73164",
"*  c #D83164",
"=  c #D83264",
"-  c #D83265",
";  c #D83365",
":  c #D83366",
">  c #D83466",
",  c #D83467",
"<  c #D83567",
"1  c #D83667",
"2  c #D83668",
"3  c #D93668",
"4  c #D93768",
"5  c #D93769",
"6  c #D93869",
"7  c #D9386A",
"8  c #D9396A",
"9  c #D93A6A",
"0  c #D93A6B",
"q  c #D93B6B",
"w  c #D93B6C",
"e  c #D93C6C",
"r  c #DA3C6C",
"t  c #DA3C6D",
"y  c #DA3D6D",
"u  c #DA3E6D",
"i  c #DA3E6E",
"p  c #DA3F6E",
"a  c #DA3F6F",
"s  c #DA406F",
"d  c #DA4070",
"f  c #DB4170",
"g  c #DB4271",
"h  c #DB4371",
"j  c #DB4372",
"k  c #DB4472",
"l  c #DB4573",
"z  c #DB4673",
"x  c #DB4674",
"c  c #DC4674",
"v  c #DC4774",
"b  c #DC4775",
"n  c #DC4875",
"m  c #DC4876",
"M  c #DC4976",
"N  c #DC4A77",
"B  c #DC4B77",
"V  c #DD4B78",
"C  c #DD4C78",
"Z  c #DD4C79",
"A  c #DD4D79",
"S  c #DD4E7A",
"D  c #DD4F7A",
"F  c #DD4F7B",
"G  c #DD507B",
"H  c #DE517C",
"J  c #DE527D",
"K  c #DE537E",
"L  c #DE547E",
"P  c #DE557F",
"I  c #DF5680",
"U  c #DF5780",
"Y  c #DF5881",
"T  c #DF5882",
"R  c #DF5982",
"E  c #DF5A83",
"W  c #E05B84",
"Q  c #E05C84",
"!  c #E05D85",
"~  c #E05F86",
"^  c #E05F87",
"/  c #E06087",
"(  c #E16087",
")  c #E16188",
"_  c #E16289",
"`  c #E16389",
"'  c #E1648A",
"]  c #E1648B",
"[  c #E1658B",
"{  c #E2658B",
"}  c #E2668C",
"|  c #E2678D",
" . c #E2698E",
".. c #E26A8F",
"X. c #E36B8F",
"o. c #E36B90",
"O. c #E36C90",
"+. c #E36D91",
"@. c #E36E92",
"#. c #E36F93",
"$. c #E47094",
"%. c #E47194",
"&. c #E47295",
"*. c #E47496",
"=. c #E57698",
"-. c #E57798",
";. c #E57799",
":. c #E5789A",
">. c #E5799A",
",. c #E67C9C",
"<. c #E67D9D",
"1. c #E67D9E",
"2. c #E67E9E",
"3. c #E7809F",
"4. c #E780A0",
"5. c #E781A0",
"6. c #E782A1",
"7. c #E783A2",
"8. c #E784A2",
"9. c #E885A3",
"0. c #E888A6",
"q. c #E889A6",
"w. c #E98AA7",
"e. c #E98BA8",
"r. c #E98CA8",
"t. c #E98CA9",
"y. c #E98DA9",
"u. c #E98EAA",
"i. c #EA8FAB",
"p. c #EA90AB",
"a. c #EA91AC",
"s. c #EA91AD",
"d. c #EA92AD",
"f. c #EA93AE",
"g. c #EA94AE",
"h. c #EA94AF",
"j. c #EB95AF",
"k. c #EB96B0",
"l. c #EB97B1",
"z. c #EB98B2",
"x. c #EB99B2",
"c. c #EC9AB3",
"v. c #EC9BB4",
"b. c #EC9CB4",
"n. c #EC9EB6",
"m. c #EC9FB6",
"M. c #EDA1B8",
"N. c #EDA2B9",
"B. c #EDA3B9",
"V. c #EEA5BB",
"C. c #EEA6BC",
"Z. c #EEA7BD",
"A. c #EEA8BE",
"S. c #EEA9BE",
"D. c #EFACC0",
"F. c #EFADC1",
"G. c #EFADC2",
"H. c #EFAEC2",
"J. c #F0B1C4",
"K. c #F0B1C5",
"L. c #F0B2C5",
"P. c #F0B3C6",
"I. c #F1B4C6",
"U. c #F1B5C7",
"Y. c #F1B6C8",
"T. c #F1B7C9",
"R. c #F2B9CB",
"E. c #F2BACB",
"W. c #F2BBCB",
"Q. c #F2BCCD",
"!. c #F2BDCD",
"~. c #F2BDCE",
"^. c #F2BECE",
"/. c #F3C1D0",
"(. c #F3C1D1",
"). c #F3C2D1",
"_. c #F4C3D2",
"`. c #F4C6D4",
"'. c #F4C7D4",
"]. c #F4C7D5",
"[. c #F5C8D6",
"{. c #F5C9D6",
"}. c #F5C9D7",
"|. c #F5CAD7",
" X c #F5CBD8",
".X c #F5CCD9",
"XX c #F6CEDA",
"oX c #F6CFDB",
"OX c #F6D0DB",
"+X c #F6D0DC",
"@X c #F7D3DE",
"#X c #F7D4DE",
"$X c #F7D5DF",
"%X c #F8DBE4",
"&X c #F9DFE7",
"*X c #F9E0E7",
"=X c #F9E1E9",
"-X c #F9E2E9",
";X c #FAE3EA",
":X c #FAE4EB",
">X c #FAE5EB",
",X c #FAE6EC",
"<X c #FBE8EE",
"1X c #FBE9EE",
"2X c #FCEDF1",
"3X c #FCF1F5",
"4X c #FCF2F5",
"5X c #FDF6F8",
"6X c white",
"7X c None",
/* pixels */
"7X7X7X7X7X7X7X7X7X7X7X7X7X7X7X7X7X7X7X7X7X7X7X7X7X7X7X7X7X7X7X7X7X7X7X7X7X7X7X7X7X7X7X7X7X",
"7X7X7X7X7X7X7X7X7X7X7X7X7X7X7X7X7X7X7X7X7X7X7X7X7X7X7X7X7X7X7X7X7X7X7X7X7X7X7X7X7X7X7X7X7X",
"7X7X7X7X7X7X7X7X7X7X7X7X7X7X7X7X7X7X7X7X7X7X7X7X7X7X7X7X7X7X7X7X7X7X7X7X7X7X7X7X7X7X7X7X7X",
"7X7X7X7X7X7X7X7X7X7X7X7X7X7X8 8 8 8 8 8 8 8 8 8 8 8 8 8 8 8 8 7X7X7X7X7X7X7X7X7X7X7X7X7X7X",
"7X7X7X7X7X7X7X7X7X7X7X7X7X8 8 8 8 8 8 8 8 8 8 8 8 8 8 8 8 8 8 8 7X7X7X7X7X7X7X7X7X7X7X7X7X",
"7X7X7X7X7X7X7X7X7X8 8 8 8 8 8 8 8 8 8 8 8 8 8 8 8 8 8 8 8 8 8 8 8 8 8 8 7X7X7X7X7X7X7X7X7X",
"7X7X7X7X7X7X7X7X8 8 8 8 8 8 8 8 8 8 8 8 8 8 8 8 8 8 8 8 8 8 8 8 8 8 8 8 8 7X7X7X7X7X7X7X7X",
"7X7X7X7X7X7X7X8 8 8 8 8 8 8 8 8 8 8 8 8 8 8 8 8 8 8 8 8 8 8 8 8 8 8 8 8 8 8 7X7X7X7X7X7X7X",
"7X7X7X7X7X7X8 8 8 8 8 8 8 8 8 8 8 8 8 8 8 8 8 8 8 8 8 8 8 8 8 8 8 8 8 8 8 8 8 7X7X7X7X7X7X",
"7X7X7X7X7X8 8 8 8 8 8 8 8 8 8 8 8 8 8 8 8 8 8 8 8 8 8 8 8 8 8 8 8 8 8 8 8 8 8 8 7X7X7X7X7X",
"7X7X7X7X8 8 8 8 8 8 8 8 8 8 8 8 8 8 8 8 8 8 8 8 8 8 8 8 8 8 8 8 8 8 8 8 8 8 8 8 8 7X7X7X7X",
"7X7X7X8 8 8 8 8 8 8 8 8 8 8 8 8 8 8 8 8 8 8 8 8 8 8 8 8 8 8 8 8 8 8 8 8 8 8 8 8 8 8 7X7X7X",
"7X7X7X8 8 8 8 8 8 8 8 8 8 8 8 8 8 8 8 8 8 8 8 8 8 8 8 8 8 4 4 4 4 8 8 8 8 8 8 8 8 8 7X7X7X",
"7X7X7X8 8 8 8 8 8 8 8 8 8 8 8 8 8 8 8 8 8 8 8 8 8 8 8 8 4 < ; & & ; 4 8 8 8 8 8 8 8 7X7X7X",
"7X7X7X8 8 8 8 8 8 8 8 8 8 8 8 8 8 8 8 8 8 8 8 8 8 8 8 8 8 t t t t t t 8 8 8 8 8 8 8 7X7X7X",
"7X7X8 8 8 8 8 8 8 8 8 8 8 4 < < < < 4 8 8 8 8 8 8 8 8 8 N _ *.>.>.o.L s 4 4 8 8 8 8 8 7X7X",
"8 8 8 8 8 8 8 8 8 8 8 8 8 < ; ; ; < < 8 8 8 8 8 8 8 ; 8 ! g.!..X`.H.>.N < 4 8 8 8 8 8 8 8 ",
"8 8 8 8 8 8 8 8 8 8 4 8 t j N C N N j w 8 8 8 8 8 8 ; 8 ..R.4X6X6X%Xd.G ; < 8 8 8 8 8 8 8 ",
"8 8 8 8 8 8 8 8 8 8 < 8 C #.0.g.d.8.' l 4 4 8 8 8 4 ; w #.R.5X6X6X*Xk.C ; < 8 8 8 8 8 8 8 ",
"8 8 8 8 8 8 8 8 8 8 < 8 ! c..X>X=X`.y.G < < 8 8 8 8 ; t ..R.5X6X6X*Xk.C ; < 8 8 8 8 8 8 8 ",
"8 8 8 8 8 8 8 8 8 8 ; 4 ' K.4X6X6X,Xb.U < ; 8 8 8 8 ; 8 _ B.@X>X&X/.8.N < < 8 8 8 8 8 8 8 ",
"8 8 8 8 8 8 8 8 8 4 ; 8 ' K.4X6X6X,XM.L < ; 8 8 8 8 < 8 C %.e.g.d.4._ j 4 4 8 8 8 8 8 8 8 ",
"8 8 8 8 8 8 8 8 8 8 ; 8 _ H.2X6X6X=Xb.L < < 8 8 8 8 8 8 s l N C N N j 8 8 8 8 8 8 8 8 8 8 ",
"8 8 8 8 8 8 8 8 8 8 < 8 U y.R..X|.K.4.C < < 8 8 8 8 8 8 8 < ; ; ; ; < 8 8 8 8 8 8 8 8 8 8 ",
"8 8 8 8 8 8 8 8 8 8 4 8 x ! %.>.;.#.R j 4 8 8 8 8 8 8 8 8 < < < < < 4 8 8 8 8 8 8 8 8 8 8 ",
"8 8 8 8 8 8 8 8 8 8 8 8 8 t t s t t t 8 8 8 8 8 8 8 8 8 8 8 8 8 8 8 8 8 8 8 8 8 8 8 8 8 8 ",
"8 8 8 8 8 8 8 8 8 8 8 8 4 < ; & ; ; < 8 8 8 8 8 8 8 8 8 8 8 8 8 8 8 8 8 8 8 8 8 8 8 8 8 8 ",
"8 8 8 8 8 8 8 8 8 8 8 8 8 8 4 4 4 4 4 8 8 8 8 8 8 8 8 8 8 8 8 8 8 8 8 8 8 8 8 8 8 8 8 8 8 ",
"8 8 8 8 8 8 8 8 8 8 8 8 8 8 4 8 8 8 8 8 8 8 4 8 8 8 8 8 8 8 8 8 8 8 8 8 8 8 8 8 8 8 8 8 8 ",
"8 8 8 8 8 8 8 8 8 8 8 8 4 < ; < 4 8 8 8 4 < ; ; 4 8 8 8 8 8 8 8 8 8 8 8 8 8 8 8 8 8 8 8 8 ",
"8 8 8 8 8 8 8 8 8 8 8 8 8 t t t 8 8 8 8 8 t t t 8 8 8 8 8 8 8 8 8 8 8 8 8 8 8 8 8 8 8 8 8 ",
"8 8 8 8 8 8 8 8 8 8 4 8 v / #._ N 8 < 8 N / #._ N 8 4 8 4 4 < 4 8 8 4 < < 8 8 8 8 8 8 8 8 ",
"8 8 8 8 8 8 8 8 8 8 < 8 R d.K.c.! 8 @ 8 ! g.U.g.! 8 < 8 4 < ; 4 4 8 < ; < 8 8 8 8 8 8 8 8 ",
"8 8 8 8 8 8 8 8 8 8 ; 8 ' Y.>X!.#.8 @ 4 ..R.>XR...8 & 8 t l N l t w j N x t 8 8 8 8 8 8 8 ",
"8 8 8 8 8 8 8 8 8 4 % ; _ Y.<X/.$.8 X ; ' W.<X!...4 O ; C ;.e.%.C v | 8.>.R t 4 8 8 8 8 8 ",
"8 8 8 8 8 8 8 8 8 8 & 4 ' Y.<X/.$.8 X < ..!.<X!...8 @ 8 ' A. Xb.! J p.`.K.%.t ; 4 8 8 8 8 ",
"8 8 8 8 8 8 8 8 4 t v R 2.H. XV.' t j U 2.K. XB./ t j R 4.R. Xv.W R V.>X.X2.j & 4 8 8 8 8 ",
"8 8 8 8 8 8 8 4 4 l %.b.H.B.y.#.C N #.c.A.b.y.o.N N $.v.A.B.p...N R C.,X.X2.t ; 4 8 8 8 8 ",
"8 8 8 8 8 8 8 < < C d..X|.y.L w 8 C g.@X Xy.J 8 4 J c.$X|.0.J 8 4 R C.=X|.,.j ; 4 8 8 8 8 ",
"8 8 8 8 8 8 8 4 < N 4.K.H.%.t @ % J B.=X$X8.t X % U C.>X.X2.t X ; G 0.K.B...t ; 8 8 8 8 8 ",
"8 8 8 8 8 8 8 4 4 s R $.o.J 8 @ & J B.=X$X8.j X & U V.>X@X2.t @ < j W #.| C t 4 8 8 8 8 8 ",
"8 8 8 8 8 8 8 8 8 8 w t t w 8 ; < J k.@X`.3.j @ ; J v.$X/.,.j ; 4 8 t t t 8 8 8 8 8 8 8 8 ",
"8 8 8 8 8 8 8 8 8 8 < ; ; < 8 4 < v *.c.d.' t ; < N ;.c.p._ t < 8 4 < ; ; 4 8 8 8 8 8 8 8 ",
"7X7X8 8 8 8 8 8 8 8 8 4 8 8 8 8 8 t C R L N w 4 8 t C R L v t 8 8 8 8 4 8 4 8 8 8 8 8 7X7X",
"7X7X7X8 8 8 8 8 8 8 8 8 8 8 8 8 8 8 8 4 4 8 8 8 8 8 4 4 4 8 8 8 8 8 8 8 8 8 8 8 8 8 7X7X7X",
"7X7X7X8 8 8 8 8 8 8 8 8 8 8 8 8 8 8 < ; < 4 8 8 8 8 < < < 4 8 8 8 8 8 8 8 8 8 8 8 8 7X7X7X",
"7X7X7X8 8 8 8 8 8 8 8 8 8 8 8 8 8 8 8 8 8 8 8 8 8 8 8 8 8 8 8 8 8 8 8 8 8 8 8 8 8 8 7X7X7X",
"7X7X7X8 8 8 8 8 8 8 8 8 8 8 8 8 8 8 8 8 8 8 8 8 8 8 8 8 8 8 8 8 8 8 8 8 8 8 8 8 8 8 7X7X7X",
"7X7X7X7X7X8 8 8 8 8 8 8 8 8 8 8 8 8 8 8 8 8 8 8 8 8 8 8 8 8 8 8 8 8 8 8 8 8 8 8 7X7X7X7X7X",
"7X7X7X7X7X8 8 8 8 8 8 8 8 8 8 8 8 8 8 8 8 8 8 8 8 8 8 8 8 8 8 8 8 8 8 8 8 8 8 8 7X7X7X7X7X",
"7X7X7X7X7X8 8 8 8 8 8 8 8 8 8 8 8 8 8 8 8 8 8 8 8 8 8 8 8 8 8 8 8 8 8 8 8 8 8 8 7X7X7X7X7X",
"7X7X7X7X7X8 8 8 8 8 8 8 8 8 8 8 8 8 8 8 8 8 8 8 8 8 8 8 8 8 8 8 8 8 8 8 8 8 8 8 7X7X7X7X7X",
"7X7X7X7X7X7X8 8 8 8 8 8 8 8 8 8 8 8 8 8 8 8 8 8 8 8 8 8 8 8 8 8 8 8 8 8 8 8 8 7X7X7X7X7X7X",
"7X7X7X7X7X7X7X8 8 8 8 8 8 8 8 8 8 8 8 8 8 8 8 8 8 8 8 8 8 8 8 8 8 8 8 8 8 8 7X7X7X7X7X7X7X",
"7X7X7X7X7X7X7X7X8 8 8 8 8 8 8 8 8 8 8 8 8 8 8 8 8 8 8 8 8 8 8 8 8 8 8 8 8 7X7X7X7X7X7X7X7X",
"7X7X7X7X7X7X7X7X7X8 8 8 8 8 8 8 8 8 8 8 8 8 8 8 8 8 8 8 8 8 8 8 8 8 8 8 8 7X7X7X7X7X7X7X7X",
"7X7X7X7X7X7X7X7X7X7X8 8 8 8 8 8 7X7X7X7X7X7X7X7X7X7X7X7X7X8 8 8 8 8 8 8 8 7X7X7X7X7X7X7X7X",
"7X7X7X7X7X7X7X7X7X7X7X8 8 8 8 8 7X7X7X7X7X7X7X7X7X7X7X7X7X8 8 8 8 8 8 8 8 7X7X7X7X7X7X7X7X",
"7X7X7X7X7X7X7X7X7X7X7X7X8 8 8 7X7X7X7X7X7X7X7X7X7X7X7X7X8 8 8 8 8 8 8 8 7X7X7X7X7X7X7X7X7X",
"7X7X7X7X7X7X7X7X7X7X7X7X7X7X7X7X7X7X7X7X7X7X7X7X7X7X7X8 8 8 8 8 8 8 8 7X7X7X7X7X7X7X7X7X7X",
"7X7X7X7X7X7X7X7X7X7X7X7X7X7X7X7X7X7X7X7X7X7X7X7X7X7X8 8 8 8 8 8 8 8 7X7X7X7X7X7X7X7X7X7X7X",
"7X7X7X7X7X7X7X7X7X7X7X7X7X7X7X7X7X7X7X7X7X7X7X7X7X7X8 8 8 8 8 8 8 7X7X7X7X7X7X7X7X7X7X7X7X",
"7X7X7X7X7X7X7X7X7X7X7X7X7X7X7X7X7X7X7X7X7X7X7X7X7X7X8 8 8 8 8 8 7X7X7X7X7X7X7X7X7X7X7X7X7X",
"7X7X7X7X7X7X7X7X7X7X7X7X7X7X7X7X7X7X7X7X7X7X7X7X7X7X8 8 8 8 8 8 7X7X7X7X7X7X7X7X7X7X7X7X7X"
};
