/* XPM */
static char *monster_down_frame_0[] = {
/* columns rows colors chars-per-pixel */
"45 64 94 2 ",
"   c #D5255B",
".  c #D6275C",
"X  c #D6295E",
"o  c #D72D61",
"O  c #D73063",
"+  c #D73164",
"@  c #D83365",
"#  c #D83466",
"$  c #D93668",
"%  c #D9396A",
"&  c #D93B6C",
"*  c #DA3E6E",
"=  c #DA406F",
"-  c #DB4271",
";  c #DB4472",
":  c #DB4674",
">  c #DC4774",
",  c #DC4A77",
"<  c #DD4B78",
"1  c #DD4C78",
"2  c #DD507B",
"3  c #DE517C",
"4  c #DE557F",
"5  c #DF5680",
"6  c #DF5A83",
"7  c #E05B84",
"8  c #E05D85",
"9  c #E06087",
"0  c #E1638A",
"q  c #E1648A",
"w  c #E2668C",
"e  c #E26A8F",
"r  c #E36D91",
"t  c #E37093",
"y  c #E47194",
"u  c #E47497",
"i  c #E57799",
"p  c #E5799A",
"a  c #E67B9C",
"s  c #E67E9E",
"d  c #E7809F",
"f  c #E781A0",
"g  c #E784A2",
"h  c #E886A4",
"j  c #E889A6",
"k  c #E98CA9",
"l  c #EA92AD",
"z  c #EA94AE",
"x  c #EB97B1",
"c  c #EB98B1",
"v  c #EC9AB3",
"b  c #EC9DB5",
"n  c #EDA1B8",
"m  c #EEA5BB",
"M  c #EEA6BC",
"N  c #EFAABF",
"B  c #EFADC1",
"V  c #F0B1C5",
"C  c #F1B5C7",
"Z  c #F1B7C9",
"A  c #F2BACB",
"S  c #F2BBCC",
"D  c #F2BCCC",
"F  c #F3C0CF",
"G  c #F3C1D0",
"H  c #F4C3D2",
"J  c #F4C5D3",
"K  c #F4C7D5",
"L  c #F5C9D6",
"P  c #F5CBD8",
"I  c #F5CCD8",
"U  c #F6D0DB",
"Y  c #F6D1DC",
"T  c #F7D4DE",
"R  c #F7D6E0",
"E  c #F7D8E1",
"W  c #F8D9E2",
"Q  c #F8DBE4",
"!  c #F9DFE7",
"~  c #F9E0E7",
"^  c #F9E2E9",
"/  c #FAE4EB",
"(  c #FAE6EC",
")  c #FBE9EE",
"_  c #FBEBF0",
"`  c #FBEDF1",
"'  c #FCEFF3",
"]  c #FCF2F5",
"[  c #FDF4F7",
"{  c #FDF6F9",
"}  c #FEF9FA",
"|  c #FEFBFC",
" . c white",
".. c None",
/* pixels */
"..........................% % % % % % % % % % % % % % % % % % % ..........................",
"..........................% % % % % % % % % % % % % % % % % % % ..........................",
"........................% % % % % % % % % % % % % % % % % % % % % ........................",
"................% % % % % % % % % % % % % % % % % % % % % % % % % % % % % ................",
"................% % % % % % % % % % % % % % % % % % % % % % % % % % % % % ................",
"............% % % % % % % % % % % % % % % % % % % % % % % % % % % % % % % % % ............",
"..........% % % % % % % % % % % % % % % % % % % % % % % % % % % % % % % % % % % ..........",
"..........% % % % % % % % % % % % % % % % % % % % % % % % % % % % % % % % % % % ..........",
"......% % % % % % % % % % % % % % % % % % % % % % % % % % % % % % % % % % % % % % % ......",
"......% % % % % % % % % % % % % % % % % % % % % % % % % % % % % % % % % % % % % % % ......",
"......% % % % % % % % % % % % % % % % % % % % % % % % % $ # @ @ @ # $ % % % % % % % ......",
"......% % % % % % % % % % % % % % % % % % % % % % % % % % % $ $ $ $ $ % % % % % % % ......",
"....% % % % % % % % % % % % $ $ $ % % % % % % % % % $ % - 3 8 9 8 6 , * % % % % % % % ....",
"% % % % % % % % % % % % % # @ + + @ # % % % % % % % $ % 5 g m V B c r > # $ % % % % % % % ",
"% % % % % % % % % % % % % * * * * * * % % % % % % % @ % w B / } ] U k 1 # # % % % % % % % ",
"% % % % % % % % % % $ % : 8 y p p r 5 - $ $ % % % % + * r S {  . .^ z 1 # # % % % % % % % ",
"% % % % % % % % % % # % 5 k A I L V d 1 $ # % % % % + * r A {  . .~ x 1 # # % % % % % % % ",
"% % % % % % % % % % @ % q B `  . .^ b 4 # # % % % $ @ % e B / } ] Y k 1 # $ % % % % % % % ",
"% % % % % % % % % % @ $ q V ]  . .( b 5 # # % % % % $ % 4 f m V B c r ; $ $ % % % % % % % ",
"% % % % % % % % % % + % q V ]  . .( b 5 $ # % % % % % % - 2 8 9 8 6 , * % % % % % % % % % ",
"% % % % % % % % % % @ % 8 v U / ^ K k 2 $ # % % % % % % % % $ $ $ % % % % % % % % % % % % ",
"% % % % % % % % % % $ % , r j z l g q ; $ $ % % % % % % $ # # + @ # $ $ % % % % % % % % % ",
"% % % % % % % % % % % % * ; , 1 1 , - & % % % % % % % % % % % % % % % % % % % % % % % % % ",
"% % % % % % % % % % % % % # # # @ @ $ % % % % % % % % % % % % % % % % % % % % % % % % % % ",
"% % % % % % % % % % % % % $ # # # # % % % % % % % % % % % % % % % % % % % % % % % % % % % ",
"% % % % % % % % % % % % % % % % % % % % % % % % % % % % % % % % % % % % % % % % % % % % % ",
"% % % % % % % % % % % % $ # # # $ % % % $ # @ # % % % % $ # # # $ % % % % % % % % % % % % ",
"% % % % % % % % % % % % % % $ % % % % % % % $ % % % % % % % $ % % % % % % % % % % % % % % ",
"% % % % % % % % % % % % - 3 6 3 - % $ % - 3 6 3 - % $ % ; 3 6 3 - % $ $ % % % % % % % % % ",
"% % % % % % % % % % # % 3 f b h 6 % + % 4 g b g 4 % @ % 6 h b f 3 % + @ @ $ % % % % % % % ",
"% % % % % % % % % % # % 0 B E C e % o % w V E V q % o % e C E B 0 % $ * * * % % % % % % % ",
"% % % % % % % % % % O # q Z ) G r # X # e S ) D e # . # r F ) C 0 * 3 r w 1 % $ % % % % % ",
"% % % % % % % % % % o @ 0 Z ) D r #   @ w S ) S w @   # r D ) V 8 , s V n e * # % % % % % ",
"% % % % % % % % % % * , y G ` K s 1 * 1 p H _ H p , * 1 s K _ A t e N ^ L a = + $ % % % % ",
"% % % % % % % $ $ - 8 f N W ] Q B k h k N W ] Q N k h l B ! ] T M n I ' L s = + $ % % % % ",
"% % % % % % % $ # , f G ( {  .] / Q W Q / ] | ] / Q E W / ] | ] ^ ^ [ } L p = @ $ % % % % ",
"% % % % % % % $ # 2 x !  . . . . . . . . . . . . . . . . . . . . . . .} L p = + $ % % % % ",
"% % % % % % % # # 1 z ~  . . . . . . . . . . . . . . . . . . . . . . . .K p = @ % % % % % ",
"% % % % % % % # # 2 x !  . .| | } }  . . .| | } | }  . . .} | | }  . .| L p = + $ % % % % ",
"% % % % % % % # # 1 x ~ [ ^ L D G P ^ [ ] Q K F G I ^ { ] W K D G I ) { L p = @ $ % % % % ",
"% % % % % % % # # 2 v ^ / V s r y h D ' ^ B s r t j G ` ! M a r y k K ` I s = @ $ % % % % ",
"% % % % % % % # # 1 l Y P h , # $ 6 n / R j , @ % 6 N / Y h > @ % 7 n R D i * @ % % % % % ",
"% % % % % % % % $ ; y c l q % X X 1 b ^ T d *   X 3 n / Y s % X o ; i v k 0 * # % % % % % ",
"% % % % % % % % $ * < 6 5 > % @ @ 3 b ^ T h - X O 4 m / Y f - o # * 1 6 4 : % % % % % % % ",
"% % % % % % % % % % $ $ $ % % # $ 1 k G A p - o # 3 l J C u = # % % % $ $ % % % % % % % % ",
"....% % % % % % % % $ # # $ % $ % ; w f s 6 * # # ; e f p 6 * $ % % # @ # $ % % % % % ....",
"......% % % % % % % % % % % % % % & - , > - % % % * - , > = % % % % % % % % % % % % ......",
"......% % % % % % % % % % % % % % % $ @ # $ % % % % # # # $ % % % % % % % % % % % % ......",
"......% % % % % % % % % % % % % % % % # $ $ % % % % $ $ $ $ % % % % % % % % % % % % ......",
"......% % % % % % % % % % % % % % % % % % % % % % % % % % % % % % % % % % % % % % % ......",
"........% % % % % % % % % % % % % % % % % % % % % % % % % % % % % % % % % % % % % ........",
"..........% % % % % % % % % % % % % % % % % % % % % % % % % % % % % % % % % % % ..........",
"..........% % % % % % % % % % % % % % % % % % % % % % % % % % % % % % % % % % % ..........",
"..........% % % % % % % % % % % % % % % % % % % % % % % % % % % % % % % % % % % ..........",
"..........% % % % % % % % % % % % % % % % % % % % % % % % % % % % % % % % % % % ..........",
"............% % % % % % % % % % % % % % % % % % % % % % % % % % % % % % % % % ............",
"..............% % % % % % % % % % % % % % % % % % % % % % % % % % % % % % % ..............",
"................% % % % % % % % % % % % % % % % % % % % % % % % % % % % % ................",
"................% % % % % % % % % % % % % % % % % % % % % % % % % % % % % ................",
"................% % % % % % ..................................% % % % % % ................",
"................% % % % % ......................................% % % % % ................",
"................% % % % % ......................................% % % % % ................",
"................% % % % % ......................................% % % % % ................",
"................% % % % % ......................................% % % % % ................"
};
