/* XPM */
static char *monster_down_frame_2[] = {
/* columns rows colors chars-per-pixel */
"45 64 231 2 ",
"   c #D5255B",
".  c #D5275C",
"X  c #D6275C",
"o  c #D6285D",
"O  c #D62B5F",
"+  c #D62B60",
"@  c #D62C60",
"#  c #D72D61",
"$  c #D72E62",
"%  c #D72F62",
"&  c #D73164",
"*  c #D83164",
"=  c #D83265",
"-  c #D83365",
";  c #D83366",
":  c #D83466",
">  c #D83467",
",  c #D83567",
"<  c #D83667",
"1  c #D83668",
"2  c #D93668",
"3  c #D93768",
"4  c #D93769",
"5  c #D93869",
"6  c #D9386A",
"7  c #D9396A",
"8  c #D93A6A",
"9  c #D93A6B",
"0  c #D93B6B",
"q  c #D93B6C",
"w  c #D93C6C",
"e  c #DA3C6C",
"r  c #DA3D6D",
"t  c #DA3E6D",
"y  c #DA3E6E",
"u  c #DA3F6E",
"i  c #DA3F6F",
"p  c #DA406F",
"a  c #DB4170",
"s  c #DB4271",
"d  c #DB4371",
"f  c #DB4372",
"g  c #DB4573",
"h  c #DB4673",
"j  c #DB4674",
"k  c #DC4674",
"l  c #DC4774",
"z  c #DC4775",
"x  c #DC4875",
"c  c #DC4976",
"v  c #DC4A77",
"b  c #DC4B77",
"n  c #DD4B78",
"m  c #DD4C78",
"M  c #DD4D79",
"N  c #DD4F7A",
"B  c #DD4F7B",
"V  c #DD507B",
"C  c #DE517C",
"Z  c #DE527D",
"A  c #DE537D",
"S  c #DE547E",
"D  c #DE547F",
"F  c #DE557F",
"G  c #DF5680",
"H  c #DF5881",
"J  c #DF5982",
"K  c #DF5A83",
"L  c #DF5B83",
"P  c #E05B84",
"I  c #E05C84",
"U  c #E05D85",
"Y  c #E05E86",
"T  c #E05F86",
"R  c #E05F87",
"E  c #E06087",
"W  c #E16188",
"Q  c #E16289",
"!  c #E1638A",
"~  c #E1648A",
"^  c #E2668C",
"/  c #E2678D",
"(  c #E2688D",
")  c #E26A8F",
"_  c #E36B8F",
"`  c #E36C90",
"'  c #E36C91",
"]  c #E36D91",
"[  c #E36E92",
"{  c #E36F93",
"}  c #E37093",
"|  c #E47094",
" . c #E47194",
".. c #E47395",
"X. c #E47396",
"o. c #E47496",
"O. c #E47597",
"+. c #E57698",
"@. c #E57798",
"#. c #E57799",
"$. c #E57899",
"%. c #E5799A",
"&. c #E67A9B",
"*. c #E67B9B",
"=. c #E67B9C",
"-. c #E67C9C",
";. c #E67C9D",
":. c #E67D9D",
">. c #E67E9E",
",. c #E781A0",
"<. c #E783A1",
"1. c #E783A2",
"2. c #E784A2",
"3. c #E886A4",
"4. c #E887A5",
"5. c #E888A5",
"6. c #E889A6",
"7. c #E98CA8",
"8. c #E98CA9",
"9. c #E98DA9",
"0. c #E98DAA",
"q. c #E98EAA",
"w. c #E98FAB",
"e. c #EA8FAB",
"r. c #EA90AB",
"t. c #EA91AC",
"y. c #EA92AD",
"u. c #EB95AF",
"i. c #EB96B0",
"p. c #EB97B1",
"a. c #EB98B1",
"s. c #EB98B2",
"d. c #EC99B3",
"f. c #EC9AB3",
"g. c #EC9BB4",
"h. c #EC9DB5",
"j. c #EC9EB6",
"k. c #EDA2B9",
"l. c #EEA4BB",
"z. c #EEA5BB",
"x. c #EEA6BC",
"c. c #EEA8BD",
"v. c #EEA8BE",
"b. c #EFAABF",
"n. c #EFABC0",
"m. c #EFADC1",
"M. c #EFADC2",
"N. c #EFAEC2",
"B. c #F0AFC3",
"V. c #F0B0C4",
"C. c #F0B1C4",
"Z. c #F0B1C5",
"A. c #F0B3C6",
"S. c #F1B5C7",
"D. c #F1B6C8",
"F. c #F1B7C9",
"G. c #F2BBCB",
"H. c #F2BBCC",
"J. c #F2BCCC",
"K. c #F2BDCD",
"L. c #F3BFCF",
"P. c #F3C0CF",
"I. c #F3C0D0",
"U. c #F3C1D0",
"Y. c #F3C1D1",
"T. c #F3C3D2",
"R. c #F4C3D2",
"E. c #F4C5D3",
"W. c #F4C6D4",
"Q. c #F4C7D4",
"!. c #F4C7D5",
"~. c #F4C8D5",
"^. c #F4C8D6",
"/. c #F5CAD7",
"(. c #F5CBD8",
"). c #F5CCD8",
"_. c #F5CCD9",
"`. c #F6CEDA",
"'. c #F6D0DB",
"]. c #F6D0DC",
"[. c #F6D1DC",
"{. c #F6D2DD",
"}. c #F7D4DF",
"|. c #F7D7E1",
" X c #F7D8E1",
".X c #F8D9E2",
"XX c #F8D9E3",
"oX c #F8DAE3",
"OX c #F8DBE4",
"+X c #F8DCE5",
"@X c #F9DFE7",
"#X c #F9E0E7",
"$X c #F9E0E8",
"%X c #F9E1E8",
"&X c #F9E1E9",
"*X c #FAE2E9",
"=X c #FAE3EA",
"-X c #FAE4EA",
";X c #FAE4EB",
":X c #FAE5EB",
">X c #FAE5EC",
",X c #FAE6EC",
"<X c #FBE8EE",
"1X c #FBE9EE",
"2X c #FBEAEF",
"3X c #FBEBF0",
"4X c #FBECF1",
"5X c #FBEDF1",
"6X c #FCF1F5",
"7X c #FCF2F5",
"8X c #FDF2F5",
"9X c #FDF2F6",
"0X c #FDF3F6",
"qX c #FDF4F6",
"wX c #FDF5F7",
"eX c #FDF5F8",
"rX c #FDF6F8",
"tX c #FDF6F9",
"yX c #FDF7F9",
"uX c #FEF8F9",
"iX c #FEF9FA",
"pX c #FEF9FB",
"aX c #FEFAFB",
"sX c #FEFAFC",
"dX c #FEFBFC",
"fX c #FEFCFC",
"gX c #FEFCFD",
"hX c #FFFDFD",
"jX c #FFFEFE",
"kX c white",
"lX c None",
/* pixels */
"lXlXlXlXlXlXlXlXlXlXlXlXlX7 7 7 7 7 7 7 7 7 7 7 7 7 7 7 7 lXlXlXlXlXlXlXlXlXlXlXlXlXlXlXlX",
"lXlXlXlXlXlXlXlXlXlXlXlXlX7 7 7 7 7 7 7 7 7 7 7 7 7 7 7 7 lXlXlXlXlXlXlXlXlXlXlXlXlXlXlXlX",
"lXlXlXlXlXlXlXlXlXlXlXlX7 7 7 7 7 7 7 7 7 7 7 7 7 7 7 7 7 7 lXlXlXlXlXlXlXlXlXlXlXlXlXlXlX",
"lXlXlXlXlXlXlXlXlXlXlX7 7 7 7 7 7 7 7 7 7 7 7 7 7 7 7 7 7 7 7 7 7 7 7 7 7 lXlXlXlXlXlXlXlX",
"lXlXlXlXlXlXlXlXlXlX7 7 7 7 7 7 7 7 7 7 7 7 7 7 7 7 7 7 7 7 7 7 7 7 7 7 7 lXlXlXlXlXlXlXlX",
"lXlXlXlXlXlX7 7 7 7 7 7 7 7 7 7 7 7 7 7 7 7 7 7 7 7 7 7 7 7 7 7 7 7 7 7 7 7 7 lXlXlXlXlXlX",
"lXlXlXlXlX7 7 7 7 7 7 7 7 7 7 7 7 7 7 7 7 7 7 7 7 7 7 7 7 7 7 7 7 7 7 7 7 7 7 7 lXlXlXlXlX",
"lXlXlXlXlX7 7 7 7 7 7 7 7 7 7 7 7 7 7 7 7 7 7 7 7 7 7 7 7 7 7 7 7 7 7 7 7 7 7 7 lXlXlXlXlX",
"lXlXlX7 7 7 7 7 7 7 7 7 7 7 7 7 7 7 7 7 7 7 7 7 7 7 7 7 7 7 7 7 7 7 7 7 7 7 7 7 lXlXlXlXlX",
"lXlXlX7 7 7 7 7 7 7 7 7 7 7 7 7 7 7 7 7 7 7 7 7 7 7 7 7 7 7 7 7 7 7 7 7 7 7 7 7 lXlXlXlXlX",
"lXlXlX7 7 7 7 7 7 7 7 7 2 > ; ; & > > 7 7 7 7 7 7 7 7 7 7 > > & ; ; 2 7 7 7 7 7 7 lXlXlXlX",
"lXlXlX7 7 7 7 7 7 7 7 7 7 7 2 2 2 2 7 7 7 7 7 7 7 7 7 7 7 2 2 2 2 2 7 7 7 7 7 7 7 7 lXlXlX",
"lXlX7 7 7 7 7 7 7 7 7 7 a B P E Y K B e 7 7 7 7 7 7 7 7 a C Y W Y K v e 7 2 7 7 7 7 lXlXlX",
"7 7 7 7 7 7 7 7 7 7 > 7 C :.k.V.N.h.| v 2 2 7 7 7 7 > 7 G ,.z.V.N.i.{ a 2 2 7 7 7 7 lXlXlX",
"7 7 7 7 7 7 7 7 7 7 ; 2 W x.%XuXwX|.i.C > > 7 7 7 7 ; 7 ~ N.,XuX7X].8.B > > 7 7 7 7 lXlXlX",
"7 7 7 7 7 7 7 7 7 7 ; 7 ~ V.7XkXkX,Xh.F > ; 7 7 7 7 & e { G.yXkXkX@Xu.B ; > 7 7 7 7 7 lXlX",
"7 7 7 7 7 7 7 7 7 7 & 7 W V.7XkXkX,Xh.G > > 7 7 7 7 & q { G.yXkXkX@Xy.B ; > 7 7 7 7 7 7 7 ",
"7 7 7 7 7 7 7 7 7 7 ; 7 W x.%XyXwX|.i.C 2 > 7 7 7 7 & e ^ N.,XuX7X].7.B > 2 7 7 7 7 7 7 7 ",
"7 7 7 7 7 7 7 7 7 7 > 7 C :.k.V.N.h...v 2 > 7 7 7 7 2 7 G ,.x.V.N.i.{ g 2 2 7 7 7 7 7 7 7 ",
"7 7 7 7 7 7 7 7 7 7 7 7 a V L W Y K n e 7 7 7 7 7 7 2 7 a C L W Y K v e 2 7 7 7 7 7 7 7 7 ",
"7 7 7 7 7 7 7 7 7 7 7 7 7 7 2 2 2 2 2 7 7 7 7 7 7 7 7 7 7 7 2 2 2 2 7 7 7 7 7 7 7 7 7 7 7 ",
"7 7 7 7 7 7 7 7 7 7 7 7 2 > ; ; ; ; 2 7 7 7 7 7 7 7 7 7 2 > > & ; ; 2 2 7 7 7 7 7 7 7 7 7 ",
"7 7 7 7 7 7 7 7 7 7 7 7 7 7 7 7 7 7 7 7 7 7 7 7 7 7 7 7 7 7 7 7 7 7 7 7 7 7 7 7 7 7 7 7 7 ",
"7 7 7 7 7 7 7 7 7 7 7 7 7 7 7 7 7 7 7 7 7 7 7 7 7 7 7 7 7 7 7 7 7 7 7 7 7 7 7 7 7 7 7 7 7 ",
"7 7 7 7 7 7 7 7 7 7 7 7 7 7 7 7 7 7 7 7 7 7 7 7 7 7 7 7 7 7 7 7 7 7 7 7 7 7 7 7 7 7 7 7 7 ",
"7 7 7 7 7 7 7 7 7 7 7 7 7 7 7 7 7 7 7 7 7 7 7 7 7 7 7 7 7 7 7 7 7 7 7 7 7 7 7 7 7 7 7 7 7 ",
"7 7 7 7 7 7 7 7 7 7 7 7 7 7 7 7 7 7 7 7 2 > > > 2 7 7 7 2 > > > 2 7 7 7 7 7 7 7 7 7 7 7 7 ",
"7 7 7 7 7 7 7 7 7 7 7 7 7 7 7 7 7 7 7 7 7 7 2 7 7 7 7 7 7 7 2 2 7 7 7 7 7 7 7 7 7 7 7 7 7 ",
"7 7 7 7 7 7 7 7 7 7 7 7 7 7 2 7 7 7 7 7 a C K C a 7 7 7 a C K V a 7 2 7 7 7 7 7 7 7 7 7 7 ",
"7 7 7 7 7 7 7 7 7 7 7 7 2 > ; > 2 7 2 7 G 2.h.2.G 7 & 7 K 5.h.,.C 7 2 7 7 7 7 7 7 7 7 7 7 ",
"7 7 7 7 7 7 7 7 7 7 7 7 7 e e e 7 7 ; 7 ^ V.XXV.^ 7 @ 7 ( S. XN.W 7 > 7 7 7 7 7 7 7 7 7 7 ",
"7 7 7 7 7 7 7 7 7 7 > 2 g Y { W j > @ > ( J.1XJ.( > X 2 { I.1XF.W > @ > 2 7 7 7 7 7 7 7 7 ",
"7 7 7 7 7 7 7 7 7 7 & ; F 8.S.i.K ; X & ^ J.1XH.^ &   > ( I.,XG.W > @ ; > 7 7 7 7 7 7 7 7 ",
"7 7 7 7 7 7 7 7 7 7 q v o.J.,XI.*.B e B %.I.3XE.%.B e B :.!.3XJ.o.n j n j e 7 7 7 7 7 7 7 ",
"7 7 7 7 7 7 7 2 2 a Y ,.v.OX7X@XN.8.4.8.n.XX7XXXv.8.4.8.N.@X7X|.v.8.8.8.#.F e 2 7 7 7 7 7 ",
"7 7 7 7 7 7 7 > > n ,.I.,XyXdX7X%X@X XOX;X7XdX7X%X@X|.OX;X7XdX7X%X@X%X|.N.{ e ; 2 7 7 7 7 ",
"7 7 7 7 7 7 7 > ; B u.@XkXkXkXkXkXkXkXkXkXkXkXkXkXkXkXkXkXkXkXkXkXkXkXkX!.%.a & 2 7 7 7 7 ",
"7 7 7 7 7 7 7 > ; B u.@XkXkXkXkXkXkXkXkXkXkXkXkXkXkXkXkXkXkXkXkXkXkXkXdX^.%.a & 7 7 7 7 7 ",
"7 7 7 7 7 7 7 > ; B u.@XkXkXdXdXuXdXkXkXkXdXdXdXuXuXkXkXkXdXdXuXuXdXkXdX^.%.a & 2 7 7 7 7 ",
"7 7 7 7 7 7 7 > ; B i.%XyX%X!.J.I.(.%XwX7XOX!.I.I.`.%XyX7XXX!.J.I.`.3XyX^.*.a & 2 7 7 7 7 ",
"7 7 7 7 7 7 7 > ; B f.@X;XV.:.{ ..4.J.4X%XN.*.{ { 5.I.4X@Xv.%.{ ..8.!.3X(.:.e & 7 7 7 7 7 ",
"7 7 7 7 7 7 7 > ; B y.'.(.5.v > 2 F d.}.^.2.k ; 7 K v.,X].3.v ; 7 L k.|.I.#.a ; 2 7 7 7 7 ",
"7 7 7 7 7 7 7 2 2 g ..i.y.W 7 + @ a ..i.8.W 7 X @ C k.%X].:.e o @ g #.f.8.W e > 7 7 7 7 7 ",
"lXlX7 7 7 7 7 7 7 e v K G v 7 2 > e v K G k 7 & & F x.;X].,.a @ > q B K G j 7 7 7 7 7 lXlX",
"lXlXlX7 7 7 7 7 7 7 7 2 2 7 7 7 7 7 7 2 7 7 7 > > C y.!.S.o.p ; 2 7 7 2 2 7 7 7 7 7 lXlXlX",
"lXlXlX7 7 7 7 7 7 2 > > > 2 7 7 7 7 > ; > 2 7 2 2 g ( ,.*.K e 2 2 7 > > > 2 7 7 7 7 lXlXlX",
"lXlXlX7 7 7 7 7 7 7 7 7 7 7 7 7 7 7 7 7 7 7 7 7 7 q a v j a 7 7 7 7 7 7 7 7 7 7 7 7 lXlXlX",
"lXlXlX7 7 7 7 7 7 7 7 7 7 7 7 7 7 7 7 7 7 7 7 7 7 7 2 ; > 2 7 7 7 7 7 7 7 7 7 7 7 7 lXlXlX",
"lXlXlXlXlX7 7 7 7 7 7 7 7 7 7 7 7 7 7 7 7 7 7 7 7 7 2 2 2 7 7 7 7 7 7 7 7 7 7 7 lXlXlXlXlX",
"lXlXlXlXlX7 7 7 7 7 7 7 7 7 7 7 7 7 7 7 7 7 7 7 7 7 7 7 7 7 7 7 7 7 7 7 7 7 7 7 lXlXlXlXlX",
"lXlXlXlXlX7 7 7 7 7 7 7 7 7 7 7 7 7 7 7 7 7 7 7 7 7 7 7 7 7 7 7 7 7 7 7 7 7 7 lXlXlXlXlXlX",
"lXlXlXlXlX7 7 7 7 7 7 7 7 7 7 7 7 7 7 7 7 7 7 7 7 7 7 7 7 7 7 7 7 7 7 7 7 lXlXlXlXlXlXlXlX",
"lXlXlXlXlXlX7 7 7 7 7 7 7 7 7 7 7 7 7 7 7 7 7 7 7 7 7 7 7 7 7 7 7 7 7 7 7 lXlXlXlXlXlXlXlX",
"lXlXlXlXlXlXlX7 7 7 7 7 7 7 7 7 7 7 7 7 7 7 7 7 7 7 7 7 7 7 7 7 7 7 7 7 7 lXlXlXlXlXlXlXlX",
"lXlXlXlXlXlXlXlX7 7 7 7 7 7 7 7 7 7 7 7 7 7 7 7 7 7 7 7 7 7 7 7 7 7 7 7 7 lXlXlXlXlXlXlXlX",
"lXlXlXlXlXlXlXlX7 7 7 7 7 7 7 7 7 7 7 7 7 7 7 7 7 7 7 7 7 7 7 7 7 7 7 7 7 lXlXlXlXlXlXlXlX",
"lXlXlXlXlXlXlXlX7 7 7 7 7 7 7 7 7 7 7 7 7 7 7 7 7 7 7 7 7 7 7 7 7 7 7 7 7 lXlXlXlXlXlXlXlX",
"lXlXlXlXlXlXlXlX7 7 7 7 7 7 7 7 7 7 7 7 7 7 7 7 7 7 7 7 7 7 7 7 7 7 7 7 7 lXlXlXlXlXlXlXlX",
"lXlXlXlXlXlXlXlX7 7 7 7 7 7 7 7 7 7 7 7 7 7 7 7 7 7 7 7 7 7 7 7 7 7 7 7 7 lXlXlXlXlXlXlXlX",
"lXlXlXlXlXlXlXlX7 7 7 7 7 7 lXlXlXlXlXlXlXlXlXlXlXlXlXlXlXlXlX7 7 7 7 7 7 lXlXlXlXlXlXlXlX",
"lXlXlXlXlXlXlXlX7 7 7 7 7 lXlXlXlXlXlXlXlXlXlXlXlXlXlXlXlXlXlXlX7 7 7 7 7 lXlXlXlXlXlXlXlX",
"lXlXlXlXlXlXlXlX7 7 7 7 7 lXlXlXlXlXlXlXlXlXlXlXlXlXlXlXlXlXlXlX7 7 7 7 7 lXlXlXlXlXlXlXlX",
"lXlXlXlXlXlXlXlX7 7 7 7 7 lXlXlXlXlXlXlXlXlXlXlXlXlXlXlXlXlXlXlX7 7 7 7 7 lXlXlXlXlXlXlXlX",
"lXlXlXlXlXlXlXlX7 7 7 7 7 lXlXlXlXlXlXlXlXlXlXlXlXlXlXlXlXlXlXlX7 7 7 7 7 lXlXlXlXlXlXlXlX"
};
