/* XPM */
static char *monster_down_frame_move_0[] = {
/* columns rows colors chars-per-pixel */
"45 64 207 2 ",
"   c #D6285D",
".  c #D62A5F",
"X  c #D62B5F",
"o  c #D62B60",
"O  c #D62C60",
"+  c #D72E61",
"@  c #D72F63",
"#  c #D73063",
"$  c #D73164",
"%  c #D83164",
"&  c #D83264",
"*  c #D83265",
"=  c #D83365",
"-  c #D83366",
";  c #D83466",
":  c #D83467",
">  c #D83567",
",  c #D83667",
"<  c #D83668",
"1  c #D93668",
"2  c #D93768",
"3  c #D93769",
"4  c #D93869",
"5  c #D9386A",
"6  c #D9396A",
"7  c #D93A6A",
"8  c #D93A6B",
"9  c #D93B6B",
"0  c #D93B6C",
"q  c #D93C6C",
"w  c #DA3C6C",
"e  c #DA3D6D",
"r  c #DA3E6D",
"t  c #DA3E6E",
"y  c #DA3F6E",
"u  c #DA3F6F",
"i  c #DA406F",
"p  c #DA4070",
"a  c #DB4170",
"s  c #DB4271",
"d  c #DB4371",
"f  c #DB4372",
"g  c #DB4472",
"h  c #DB4573",
"j  c #DB4674",
"k  c #DC4674",
"l  c #DC4774",
"z  c #DC4775",
"x  c #DC4875",
"c  c #DC4876",
"v  c #DC4976",
"b  c #DC4A77",
"n  c #DC4B77",
"m  c #DD4B78",
"M  c #DD4C78",
"N  c #DD4C79",
"B  c #DD4D79",
"V  c #DD4E7A",
"C  c #DD4F7A",
"Z  c #DD4F7B",
"A  c #DD507B",
"S  c #DE517C",
"D  c #DE527D",
"F  c #DE537E",
"G  c #DE547E",
"H  c #DE557F",
"J  c #DF5680",
"K  c #DF5780",
"L  c #DF5881",
"P  c #DF5882",
"I  c #DF5982",
"U  c #DF5A83",
"Y  c #E05B84",
"T  c #E05C84",
"R  c #E05C85",
"E  c #E05D85",
"W  c #E05F86",
"Q  c #E05F87",
"!  c #E06087",
"~  c #E16087",
"^  c #E16188",
"/  c #E16289",
"(  c #E16389",
")  c #E1638A",
"_  c #E1648A",
"`  c #E1648B",
"'  c #E1658B",
"]  c #E2658B",
"[  c #E2668C",
"{  c #E2698E",
"}  c #E26A8F",
"|  c #E36B8F",
" . c #E36B90",
".. c #E36C90",
"X. c #E36D91",
"o. c #E36E92",
"O. c #E36F93",
"+. c #E47094",
"@. c #E47194",
"#. c #E47295",
"$. c #E47496",
"%. c #E47497",
"&. c #E57798",
"*. c #E57799",
"=. c #E5789A",
"-. c #E5799A",
";. c #E67C9C",
":. c #E67D9D",
">. c #E67D9E",
",. c #E67E9E",
"<. c #E7809F",
"1. c #E780A0",
"2. c #E781A0",
"3. c #E783A1",
"4. c #E783A2",
"5. c #E784A2",
"6. c #E885A3",
"7. c #E886A4",
"8. c #E888A6",
"9. c #E889A6",
"0. c #E98AA7",
"q. c #E98BA8",
"w. c #E98CA8",
"e. c #E98CA9",
"r. c #E98DA9",
"t. c #E98EAA",
"y. c #E98FAB",
"u. c #EA8FAB",
"i. c #EA91AC",
"p. c #EA91AD",
"a. c #EA92AD",
"s. c #EA93AE",
"d. c #EA94AE",
"f. c #EA94AF",
"g. c #EB95AF",
"h. c #EB96B0",
"j. c #EB97B1",
"k. c #EB98B2",
"l. c #EB99B2",
"z. c #EC9AB3",
"x. c #EC9BB4",
"c. c #EC9CB4",
"v. c #EC9EB6",
"b. c #EC9FB6",
"n. c #EDA0B8",
"m. c #EDA1B8",
"M. c #EDA2B9",
"N. c #EDA3B9",
"B. c #EEA5BB",
"V. c #EEA6BC",
"C. c #EEA7BD",
"Z. c #EFACC0",
"A. c #EFACC1",
"S. c #EFADC1",
"D. c #EFADC2",
"F. c #EFAEC2",
"G. c #F0B1C4",
"H. c #F0B1C5",
"J. c #F0B2C5",
"K. c #F0B3C6",
"L. c #F1B4C6",
"P. c #F1B5C7",
"I. c #F1B6C8",
"U. c #F1B7C9",
"Y. c #F2B9CB",
"T. c #F2BACB",
"R. c #F2BBCB",
"E. c #F2BCCD",
"W. c #F2BDCD",
"Q. c #F2BDCE",
"!. c #F2BECE",
"~. c #F3BFCF",
"^. c #F3C0D0",
"/. c #F3C1D0",
"(. c #F3C1D1",
"). c #F3C2D1",
"_. c #F4C4D3",
"`. c #F4C6D4",
"'. c #F4C7D4",
"]. c #F4C7D5",
"[. c #F5C9D6",
"{. c #F5C9D7",
"}. c #F5CAD7",
"|. c #F5CBD8",
" X c #F5CCD9",
".X c #F6CEDA",
"XX c #F6CFDB",
"oX c #F6D0DC",
"OX c #F7D3DE",
"+X c #F7D4DE",
"@X c #F8DBE4",
"#X c #F9DFE7",
"$X c #F9E0E7",
"%X c #F9E1E9",
"&X c #F9E2E9",
"*X c #FAE3EA",
"=X c #FAE4EB",
"-X c #FAE5EB",
";X c #FAE6EC",
":X c #FBE8EE",
">X c #FBE9EE",
",X c #FCEDF1",
"<X c #FCF1F5",
"1X c #FCF2F5",
"2X c #FDF6F8",
"3X c white",
"4X c None",
/* pixels */
"4X4X4X4X4X4X4X4X4X4X4X4X4X4X4X4X4X4X4X4X4X4X4X4X4X4X4X4X4X4X4X4X4X4X4X4X4X4X4X4X4X4X4X4X4X",
"4X4X4X4X4X4X4X4X4X4X4X4X4X4X4X4X4X4X4X4X4X4X4X4X4X4X4X4X4X4X4X4X4X4X4X4X4X4X4X4X4X4X4X4X4X",
"4X4X4X4X4X4X4X4X4X4X4X4X4X4X4X4X4X4X4X4X4X4X4X4X4X4X4X4X4X4X4X4X4X4X4X4X4X4X4X4X4X4X4X4X4X",
"4X4X4X4X4X4X4X4X4X4X4X4X4X4X6 6 6 6 6 6 6 6 6 6 6 6 6 6 6 6 6 4X4X4X4X4X4X4X4X4X4X4X4X4X4X",
"4X4X4X4X4X4X4X4X4X4X4X4X4X6 6 6 6 6 6 6 6 6 6 6 6 6 6 6 6 6 6 6 4X4X4X4X4X4X4X4X4X4X4X4X4X",
"4X4X4X4X4X4X4X4X4X6 6 6 6 6 6 6 6 6 6 6 6 6 6 6 6 6 6 6 6 6 6 6 6 6 6 6 4X4X4X4X4X4X4X4X4X",
"4X4X4X4X4X4X4X4X6 6 6 6 6 6 6 6 6 6 6 6 6 6 6 6 6 6 6 6 6 6 6 6 6 6 6 6 6 4X4X4X4X4X4X4X4X",
"4X4X4X4X4X4X4X6 6 6 6 6 6 6 6 6 6 6 6 6 6 6 6 6 6 6 6 6 6 6 6 6 6 6 6 6 6 6 4X4X4X4X4X4X4X",
"4X4X4X4X4X4X6 6 6 6 6 6 6 6 6 6 6 6 6 6 6 6 6 6 6 6 6 6 6 6 6 6 6 6 6 6 6 6 6 4X4X4X4X4X4X",
"4X4X4X4X4X6 6 6 6 6 6 6 6 6 6 6 6 6 6 6 6 6 6 6 6 6 6 6 6 6 6 6 6 6 6 6 6 6 6 6 4X4X4X4X4X",
"4X4X4X4X6 6 6 6 6 6 6 6 6 6 6 6 6 6 6 6 6 6 6 6 6 6 6 6 6 6 6 6 6 6 6 6 6 6 6 6 6 4X4X4X4X",
"4X4X4X6 6 6 6 6 6 6 6 6 6 6 6 6 6 6 6 6 6 6 6 6 6 6 6 6 6 6 6 6 6 6 6 6 6 6 6 6 6 6 4X4X4X",
"4X4X4X6 6 6 6 6 6 6 6 6 6 6 6 6 6 6 6 6 6 6 6 6 6 6 6 6 6 2 2 6 6 2 6 6 6 6 6 6 6 6 4X4X4X",
"4X4X4X6 6 6 6 6 6 6 6 6 6 6 6 6 6 6 6 6 6 6 6 6 6 6 6 6 2 > $ $ * * 2 6 6 6 6 6 6 6 4X4X4X",
"4X4X4X6 6 6 6 6 6 6 6 6 6 6 6 6 6 6 6 6 6 6 6 6 6 6 6 6 6 e e e e e 6 6 6 6 6 6 6 6 4X4X4X",
"4X4X6 6 6 6 6 6 6 6 6 6 6 2 > > > > 2 6 6 6 6 6 6 6 2 6 b ( $.=.=.o.G i 2 6 6 6 6 6 6 4X4X",
"6 6 6 6 6 6 6 6 6 6 6 6 2 > > * * * > 6 6 6 6 6 6 6 > 6 E g.E. X`.F.=.b > 2 6 6 6 6 6 6 6 ",
"6 6 6 6 6 6 6 6 6 6 6 6 e g b M M b s e 6 6 6 6 6 2 $ 6 } Y.1X3X3X@Xa.A * > 6 6 6 6 6 6 6 ",
"6 6 6 6 6 6 6 6 6 6 > 6 M o.9.g.a.5._ g 2 2 6 6 6 6 * 0  .Y.2X3X3X$Xg.M > > 6 6 6 6 6 6 6 ",
"6 6 6 6 6 6 6 6 6 6 * 6 E z. X-X%X`.r.A > > 6 6 6 6 * 0 o.Y.2X3X3X$Xh.M * > 6 6 6 6 6 6 6 ",
"6 6 6 6 6 6 6 6 6 2 * 6 _ H.1X3X3X:Xb.G > > 6 6 6 6 * 0 ( N.+X-X#X^.5.b > > 6 6 6 6 6 6 6 ",
"6 6 6 6 6 6 6 6 6 6 * 6 _ H.1X3X3X-Xb.G > * 6 6 6 6 > 6 M @.q.g.a.2.( s 2 2 6 6 6 6 6 6 6 ",
"6 6 6 6 6 6 6 6 6 6 * 6 ( F.,X3X3X%Xx.G > > 6 6 6 6 6 6 e z b M b b i 6 6 6 6 6 6 6 6 6 6 ",
"6 6 6 6 6 6 6 6 6 6 > 6 K r.Y. X}.H.<.M > > 6 6 6 6 6 6 6 > * * * > 2 6 6 6 6 6 6 6 6 6 6 ",
"6 6 6 6 6 6 6 6 6 6 2 6 j E @.=.=.o.P s 6 2 6 6 6 6 6 6 6 > > > > > 2 6 6 6 6 6 6 6 6 6 6 ",
"6 6 6 6 6 6 6 6 6 6 6 6 6 e e i e e e 6 6 6 6 6 6 6 6 6 6 6 6 6 6 6 6 6 6 6 6 6 6 6 6 6 6 ",
"6 6 6 6 6 6 6 6 6 6 6 6 2 > * $ * * > 6 6 6 6 6 6 6 6 6 6 6 6 6 6 6 6 6 6 6 6 6 6 6 6 6 6 ",
"6 6 6 6 6 6 6 6 6 6 6 6 6 6 2 2 2 2 2 6 6 6 6 6 6 6 6 6 6 6 6 6 6 6 6 6 6 6 6 6 6 6 6 6 6 ",
"6 6 6 6 6 6 6 6 6 6 6 6 6 2 2 6 6 6 6 6 6 6 6 2 6 6 6 6 6 2 6 2 6 6 6 6 6 6 6 6 6 6 6 6 6 ",
"6 6 6 6 6 6 6 6 6 6 6 6 2 > * > 2 6 6 6 2 > * * 2 6 6 6 2 > * > 2 6 6 6 6 6 6 6 6 6 6 6 6 ",
"6 6 6 6 6 6 6 6 6 6 6 6 6 e e e 6 6 6 6 6 0 e e 6 6 6 6 6 e e e 6 6 6 6 6 6 6 6 6 6 6 6 6 ",
"6 6 6 6 6 6 6 6 6 6 6 6 z ! o.( b 6 > 6 b ( o.( b 6 > 6 b ( o.! z 6 > > > 6 6 6 6 6 6 6 6 ",
"6 6 6 6 6 6 6 6 6 6 > 6 P a.P.l.! 0 O 6 U g.P.h.E 6 O 6 E l.P.a.P 2 $ * > 6 6 6 6 6 6 6 6 ",
"6 6 6 6 6 6 6 6 6 6 $ 6 _ I.=XE.o.6 O 6 } Y.=XR.} 6 O 6 o.E.=XP._ e e b z e 6 6 6 6 6 6 6 ",
"6 6 6 6 6 6 6 6 6 6 O > ( I.:X^.+.6 . $ [ R.:XE.} 6 . > o.E.:XI._ z ( 5.=.P e > 6 6 6 6 6 ",
"6 6 6 6 6 6 6 6 6 6 $ 2 ( Y.:X^.+.6 . 2 } E.:XE.} 6 . 6 o.^.:XP._ F r.`.H.@.e * 2 6 6 6 6 ",
"6 6 6 6 6 6 6 6 2 e j P ,.F.}.V._ e i P ,.H.|.N.E e g E 2.I.}.z.P P V.-X X,.s $ 2 6 6 6 6 ",
"6 6 6 6 6 6 6 2 > j @.b.F.N.r.o.M b o.l.V.b.r.} b b $.N.F.n.9.[ b P C.-X X<.i * 2 6 6 6 6 ",
"6 6 6 6 6 6 6 > > M i. X}.r.G e 2 A g.oX|.r.G 6 6 G h.oX_.7.F 6 6 P V.%X}.=.i * 2 6 6 6 6 ",
"6 6 6 6 6 6 6 > > b 2.H.F.@.e O O F N.=X+X5.e . $ M 9.I.V.} 6 O * A 9.H.N.} e > 6 6 6 6 6 ",
"6 6 6 6 6 6 6 6 6 i P o.o.F 6 O * G N.%X+X5.s O * s E +.} M 6 $ 2 s E o.[ M e 6 6 6 6 6 6 ",
"6 6 6 6 6 6 6 6 6 6 0 e e 6 6 > > A h.+X`.2.g * 2 6 e e e e 6 6 6 6 e e e 6 6 6 6 6 6 6 6 ",
"6 6 6 6 6 6 6 6 6 6 > * > > 6 > 2 j $.l.a._ i > 2 6 > * * > 6 6 6 2 > * * 2 6 6 6 6 6 6 6 ",
"4X4X6 6 6 6 6 6 6 6 6 2 2 6 6 6 6 e M P G b 6 6 6 6 6 6 6 6 6 6 6 6 6 2 6 6 6 6 6 6 6 4X4X",
"4X4X4X6 6 6 6 6 6 6 6 6 6 6 6 6 6 6 6 2 6 6 6 6 6 6 6 6 6 6 6 6 6 6 6 6 6 6 6 6 6 6 4X4X4X",
"4X4X4X6 6 6 6 6 6 6 6 6 6 6 6 6 6 6 > * > > 6 6 6 6 6 6 6 6 6 6 6 6 6 6 6 6 6 6 6 6 4X4X4X",
"4X4X4X6 6 6 6 6 6 6 6 6 6 6 6 6 6 6 6 6 6 6 6 6 6 6 6 6 6 6 6 6 6 6 6 6 6 6 6 6 6 6 4X4X4X",
"4X4X4X6 6 6 6 6 6 6 6 6 6 6 6 6 6 6 6 6 6 6 6 6 6 6 6 6 6 6 6 6 6 6 6 6 6 6 6 6 6 6 4X4X4X",
"4X4X4X4X4X6 6 6 6 6 6 6 6 6 6 6 6 6 6 6 6 6 6 6 6 6 6 6 6 6 6 6 6 6 6 6 6 6 6 6 4X4X4X4X4X",
"4X4X4X4X4X6 6 6 6 6 6 6 6 6 6 6 6 6 6 6 6 6 6 6 6 6 6 6 6 6 6 6 6 6 6 6 6 6 6 6 4X4X4X4X4X",
"4X4X4X4X4X6 6 6 6 6 6 6 6 6 6 6 6 6 6 6 6 6 6 6 6 6 6 6 6 6 6 6 6 6 6 6 6 6 6 6 4X4X4X4X4X",
"4X4X4X4X4X6 6 6 6 6 6 6 6 6 6 6 6 6 6 6 6 6 6 6 6 6 6 6 6 6 6 6 6 6 6 6 6 6 6 6 4X4X4X4X4X",
"4X4X4X4X4X4X6 6 6 6 6 6 6 6 6 6 6 6 6 6 6 6 6 6 6 6 6 6 6 6 6 6 6 6 6 6 6 6 6 4X4X4X4X4X4X",
"4X4X4X4X4X4X4X6 6 6 6 6 6 6 6 6 6 6 6 6 6 6 6 6 6 6 6 6 6 6 6 6 6 6 6 6 6 6 4X4X4X4X4X4X4X",
"4X4X4X4X4X4X4X4X6 6 6 6 6 6 6 6 6 6 6 6 6 6 6 6 6 6 6 6 6 6 6 6 6 6 6 6 6 4X4X4X4X4X4X4X4X",
"4X4X4X4X4X4X4X4X4X6 6 6 6 6 6 6 6 6 6 6 6 6 6 6 6 6 6 6 6 6 6 6 6 6 6 6 4X4X4X4X4X4X4X4X4X",
"4X4X4X4X4X4X4X4X4X4X6 6 6 6 6 6 4X4X4X4X4X4X4X4X4X4X4X4X4X6 6 6 6 6 6 4X4X4X4X4X4X4X4X4X4X",
"4X4X4X4X4X4X4X4X4X4X4X6 6 6 6 6 4X4X4X4X4X4X4X4X4X4X4X4X4X6 6 6 6 6 4X4X4X4X4X4X4X4X4X4X4X",
"4X4X4X4X4X4X4X4X4X4X4X6 6 6 6 6 6 4X4X4X4X4X4X4X4X4X4X4X4X4X6 6 6 4X4X4X4X4X4X4X4X4X4X4X4X",
"4X4X4X4X4X4X4X4X4X4X4X6 6 6 6 6 6 6 4X4X4X4X4X4X4X4X4X4X4X4X4X4X4X4X4X4X4X4X4X4X4X4X4X4X4X",
"4X4X4X4X4X4X4X4X4X4X4X6 6 6 6 6 6 6 6 4X4X4X4X4X4X4X4X4X4X4X4X4X4X4X4X4X4X4X4X4X4X4X4X4X4X",
"4X4X4X4X4X4X4X4X4X4X4X4X6 6 6 6 6 6 6 4X4X4X4X4X4X4X4X4X4X4X4X4X4X4X4X4X4X4X4X4X4X4X4X4X4X",
"4X4X4X4X4X4X4X4X4X4X4X4X4X6 6 6 6 6 6 4X4X4X4X4X4X4X4X4X4X4X4X4X4X4X4X4X4X4X4X4X4X4X4X4X4X",
"4X4X4X4X4X4X4X4X4X4X4X4X4X6 6 6 6 6 6 4X4X4X4X4X4X4X4X4X4X4X4X4X4X4X4X4X4X4X4X4X4X4X4X4X4X"
};
