/* XPM */
static char *monster_down_frame_1[] = {
/* columns rows colors chars-per-pixel */
"45 64 237 2 ",
"   c #D5255B",
".  c #D5275C",
"X  c #D6275C",
"o  c #D62A5F",
"O  c #D62B5F",
"+  c #D62C60",
"@  c #D72D61",
"#  c #D72F62",
"$  c #D72F63",
"%  c #D73063",
"&  c #D73064",
"*  c #D73164",
"=  c #D83164",
"-  c #D83264",
";  c #D83265",
":  c #D83365",
">  c #D83366",
",  c #D83466",
"<  c #D83467",
"1  c #D83567",
"2  c #D83667",
"3  c #D83668",
"4  c #D93668",
"5  c #D93768",
"6  c #D93769",
"7  c #D93869",
"8  c #D9386A",
"9  c #D9396A",
"0  c #D93A6A",
"q  c #D93A6B",
"w  c #D93B6B",
"e  c #D93B6C",
"r  c #D93C6C",
"t  c #DA3C6C",
"y  c #DA3D6D",
"u  c #DA3E6D",
"i  c #DA3E6E",
"p  c #DA3F6E",
"a  c #DA3F6F",
"s  c #DA406F",
"d  c #DB4170",
"f  c #DB4271",
"g  c #DB4371",
"h  c #DB4372",
"j  c #DB4472",
"k  c #DB4573",
"l  c #DB4673",
"z  c #DB4674",
"x  c #DC4774",
"c  c #DC4775",
"v  c #DC4875",
"b  c #DC4876",
"n  c #DC4976",
"m  c #DC4A77",
"M  c #DC4B77",
"N  c #DD4C78",
"B  c #DD4D79",
"V  c #DD4E7A",
"C  c #DD4F7A",
"Z  c #DD4F7B",
"A  c #DD507B",
"S  c #DE517C",
"D  c #DE527D",
"F  c #DE537D",
"G  c #DE547F",
"H  c #DE557F",
"J  c #DF5781",
"K  c #DF5881",
"L  c #DF5982",
"P  c #DF5A83",
"I  c #DF5B83",
"U  c #E05B83",
"Y  c #E05B84",
"T  c #E05D85",
"R  c #E05F86",
"E  c #E05F87",
"W  c #E06087",
"Q  c #E16087",
"!  c #E16188",
"~  c #E16289",
"^  c #E1638A",
"/  c #E1648A",
"(  c #E2668C",
")  c #E2678D",
"_  c #E2688D",
"`  c #E2698E",
"'  c #E26A8F",
"]  c #E36B8F",
"[  c #E36B90",
"{  c #E36C90",
"}  c #E36C91",
"|  c #E36E92",
" . c #E37093",
".. c #E47194",
"X. c #E47295",
"o. c #E47395",
"O. c #E47497",
"+. c #E47597",
"@. c #E57698",
"#. c #E57798",
"$. c #E57799",
"%. c #E5799A",
"&. c #E57A9B",
"*. c #E67A9B",
"=. c #E67B9C",
"-. c #E67C9C",
";. c #E67C9D",
":. c #E67D9D",
">. c #E67E9E",
",. c #E781A0",
"<. c #E782A1",
"1. c #E783A1",
"2. c #E783A2",
"3. c #E784A2",
"4. c #E886A4",
"5. c #E887A5",
"6. c #E889A6",
"7. c #E98BA7",
"8. c #E98BA8",
"9. c #E98CA8",
"0. c #E98DA9",
"q. c #E98DAA",
"w. c #E98EAA",
"e. c #EA8FAB",
"r. c #EA91AC",
"t. c #EA92AD",
"y. c #EA93AE",
"u. c #EA94AF",
"i. c #EB95AF",
"p. c #EC9AB3",
"a. c #EC9BB4",
"s. c #EC9DB5",
"d. c #EC9EB6",
"f. c #EDA0B7",
"g. c #EDA1B8",
"h. c #EDA1B9",
"j. c #EDA2B9",
"k. c #EDA3B9",
"l. c #EDA3BA",
"z. c #EEA5BB",
"x. c #EEA6BC",
"c. c #EEA8BD",
"v. c #EEA8BE",
"b. c #EFAABF",
"n. c #EFABC0",
"m. c #EFADC1",
"M. c #EFADC2",
"N. c #EFAEC2",
"B. c #F0B0C4",
"V. c #F0B1C4",
"C. c #F0B1C5",
"Z. c #F0B2C5",
"A. c #F0B3C6",
"S. c #F1B5C7",
"D. c #F1B6C8",
"F. c #F1B7C9",
"G. c #F1B8C9",
"H. c #F2BACB",
"J. c #F2BBCB",
"K. c #F2BDCD",
"L. c #F3BFCF",
"P. c #F3C0CF",
"I. c #F3C0D0",
"U. c #F3C1D0",
"Y. c #F3C1D1",
"T. c #F3C2D1",
"R. c #F4C3D2",
"E. c #F4C5D3",
"W. c #F4C6D4",
"Q. c #F4C7D4",
"!. c #F4C7D5",
"~. c #F4C8D5",
"^. c #F4C8D6",
"/. c #F5C9D6",
"(. c #F5CAD7",
"). c #F5CBD8",
"_. c #F5CCD8",
"`. c #F5CCD9",
"'. c #F6CEDA",
"]. c #F6D0DB",
"[. c #F6D1DC",
"{. c #F6D2DD",
"}. c #F7D3DE",
"|. c #F7D4DE",
" X c #F7D4DF",
".X c #F7D6E0",
"XX c #F7D7E1",
"oX c #F7D8E1",
"OX c #F8D9E2",
"+X c #F8D9E3",
"@X c #F8DAE3",
"#X c #F8DBE4",
"$X c #F8DCE5",
"%X c #F9DFE7",
"&X c #F9E0E7",
"*X c #F9E1E8",
"=X c #F9E1E9",
"-X c #F9E2E9",
";X c #FAE2E9",
":X c #FAE3EA",
">X c #FAE4EA",
",X c #FAE4EB",
"<X c #FAE5EB",
"1X c #FAE5EC",
"2X c #FAE6EC",
"3X c #FBE8EE",
"4X c #FBEAEF",
"5X c #FBEBF0",
"6X c #FBECF1",
"7X c #FBEDF1",
"8X c #FCEFF3",
"9X c #FCF1F4",
"0X c #FCF1F5",
"qX c #FCF2F5",
"wX c #FDF2F5",
"eX c #FDF2F6",
"rX c #FDF3F6",
"tX c #FDF4F6",
"yX c #FDF4F7",
"uX c #FDF5F7",
"iX c #FDF5F8",
"pX c #FDF6F8",
"aX c #FDF6F9",
"sX c #FDF7F9",
"dX c #FEF7F9",
"fX c #FEF8F9",
"gX c #FEF9FB",
"hX c #FEFAFB",
"jX c #FEFAFC",
"kX c #FEFBFC",
"lX c #FEFCFC",
"zX c #FEFCFD",
"xX c #FFFDFD",
"cX c #FFFDFE",
"vX c #FFFEFE",
"bX c white",
"nX c None",
/* pixels */
"nXnXnXnXnXnXnXnXnXnXnX9 9 9 9 9 9 9 9 9 9 9 9 9 9 9 9 9 9 nXnXnXnXnXnXnXnXnXnXnXnXnXnXnXnX",
"nXnXnXnXnXnXnXnXnXnX9 9 9 9 9 9 9 9 9 9 9 9 9 9 9 9 9 9 9 nXnXnXnXnXnXnXnXnXnXnXnXnXnXnXnX",
"nXnXnXnXnXnXnXnXnXnX9 9 9 9 9 9 9 9 9 9 9 9 9 9 9 9 9 9 9 9 nXnXnXnXnXnXnXnXnXnXnXnXnXnXnX",
"nXnXnXnXnXnX9 9 9 9 9 9 9 9 9 9 9 9 9 9 9 9 9 9 9 9 9 9 9 9 9 9 9 9 nXnXnXnXnXnXnXnXnXnXnX",
"nXnXnXnXnX9 9 9 9 9 9 9 9 9 9 9 9 9 9 9 9 9 9 9 9 9 9 9 9 9 9 9 9 9 9 nXnXnXnXnXnXnXnXnXnX",
"nXnXnXnX9 9 9 9 9 9 9 9 9 9 9 9 9 9 9 9 9 9 9 9 9 9 9 9 9 9 9 9 9 9 9 9 9 9 9 nXnXnXnXnXnX",
"nXnXnX9 9 9 9 9 9 9 9 9 9 9 9 9 9 9 9 9 9 9 9 9 9 9 9 9 9 9 9 9 9 9 9 9 9 9 9 9 nXnXnXnXnX",
"nXnXnX9 9 9 9 9 9 9 9 9 9 9 9 9 9 9 9 9 9 9 9 9 9 9 9 9 9 9 9 9 9 9 9 9 9 9 9 9 nXnXnXnXnX",
"nXnXnX9 9 9 9 9 9 9 9 9 9 9 9 9 9 9 9 9 9 9 9 9 9 9 9 9 9 9 9 9 9 9 9 9 9 9 9 9 9 9 nXnXnX",
"nXnXnX9 9 9 9 9 9 9 9 9 9 9 9 9 9 9 9 9 9 9 9 9 9 9 9 9 9 9 9 9 9 9 9 9 9 9 9 9 9 9 nXnXnX",
"nXnXnX9 9 9 9 9 9 9 9 9 9 < > > > > 4 9 9 9 9 9 9 9 9 9 9 9 9 9 9 9 9 9 9 9 9 9 9 9 9 nXnX",
"nXnXnX9 9 9 9 9 9 9 9 9 9 9 4 4 4 4 9 9 9 9 9 9 9 9 9 9 9 9 9 9 9 9 9 9 9 9 9 9 9 9 9 9 9 ",
"nXnXnX9 9 9 9 9 9 9 4 9 s C I Q T P C y 9 9 9 9 9 9 9 9 9 9 4 4 4 9 9 9 9 9 9 9 9 9 9 9 9 ",
"nXnXnX9 9 9 9 9 9 9 < 9 S :.j.B.M.s.X.v 4 < 9 9 9 9 9 9 9 < * * * > < 9 9 9 9 9 9 9 9 9 9 ",
"nXnXnX9 9 9 9 9 9 9 > 9 ! x.*XfXuXXXi.S < < 9 9 9 9 9 9 9 y y y y y y 9 9 9 9 9 9 9 9 9 9 ",
"nXnX9 9 9 9 9 9 9 9 > 9 / B.qXbXbX3Xs.G < < 9 9 9 9 9 9 v Q O.%.$.{ G s 4 9 9 9 9 9 9 9 9 ",
"9 9 9 9 9 9 9 9 9 9 * 9 ! B.qXbXbX2Xs.J < < 9 9 9 9 < e T u.K._.!.M.%.v < 4 9 9 9 9 9 9 9 ",
"9 9 9 9 9 9 9 9 9 9 > 9 Q c.*XfXuXXXi.S < < 9 9 9 4 * 9 ' F.qXbXbX$Xy.C < < 9 9 9 9 9 9 9 ",
"9 9 9 9 9 9 9 9 9 9 < 9 S :.j.B.M.a.X.v 4 4 9 9 9 9 > e { K.aXbXbX&Xu.C < < 9 9 9 9 9 9 9 ",
"9 9 9 9 9 9 9 9 9 9 9 9 d A P ! Q P C y 9 9 9 9 9 9 * e { G.aXbXbX&Xu.C > < 9 9 9 9 9 9 9 ",
"9 9 9 9 9 9 9 9 9 9 9 9 9 9 4 < 4 4 4 9 9 9 9 9 9 9 > e ! j.}.<X$XI.3.C < < 9 9 9 9 9 9 9 ",
"9 9 9 9 9 9 9 9 9 9 9 9 4 < < > > < < 9 9 9 9 9 9 9 < 9 A X.6.u.y.,.Q d 4 4 9 9 9 9 9 9 9 ",
"9 9 9 9 9 9 9 9 9 9 9 9 9 9 9 9 9 9 9 9 9 9 9 9 9 9 9 9 y z v C C v d 9 9 9 9 9 9 9 9 9 9 ",
"9 9 9 9 9 9 9 9 9 9 9 9 9 9 9 9 9 9 9 9 9 9 9 9 9 9 9 9 9 < > > * < 4 9 9 9 9 9 9 9 9 9 9 ",
"9 9 9 9 9 9 9 9 9 9 9 9 9 9 9 9 9 9 9 9 9 9 9 9 9 9 9 9 4 4 < < < < 4 9 9 9 9 9 9 9 9 9 9 ",
"9 9 9 9 9 9 9 9 9 9 9 9 9 9 9 9 9 9 9 9 9 9 9 9 9 9 9 9 9 9 9 9 9 9 9 9 9 9 9 9 9 9 9 9 9 ",
"9 9 9 9 9 9 9 9 9 9 9 9 4 < < < 4 9 9 9 9 9 9 9 9 9 9 9 9 < > < 9 9 9 9 9 9 9 9 9 9 9 9 9 ",
"9 9 9 9 9 9 9 9 9 9 9 9 9 9 4 9 9 9 9 9 9 9 9 9 9 9 9 9 9 4 4 9 9 9 9 9 9 9 9 9 9 9 9 9 9 ",
"9 9 9 9 9 9 9 9 9 9 9 9 d A P S d 9 9 9 9 4 4 9 9 9 9 9 d S P S d 9 4 4 4 9 9 9 9 9 9 9 9 ",
"9 9 9 9 9 9 9 9 9 9 < 9 S ,.s.4.P e < 9 4 < > < 4 9 4 e P 6.s.,.S 9 * > < 4 9 9 9 9 9 9 9 ",
"9 9 9 9 9 9 9 9 9 9 > 9 ! M.+XS.' 9 > 9 9 y y y 9 9 * 9 ' S.oXM.! 9 4 y y y 9 9 9 9 9 9 9 ",
"9 9 9 9 9 9 9 9 9 9 % < / G.3XI.{ 4 + < l Q { ! l < + 4 [ P.3XS.! s G { / C 9 4 9 9 9 9 9 ",
"9 9 9 9 9 9 9 9 9 9 % < ! F.3XK.' < . * J y.B.u.J < . < { K.5XB.Q v :.B.j.' y > 9 9 9 9 9 ",
"9 9 9 9 9 9 9 9 9 9 y v O.P.6X(.:.C y C $.P.3XI.$.v y N :.!.6XG.X.' n.*X(.:.s * 4 9 9 9 9 ",
"9 9 9 9 9 9 9 4 4 d T ,.c.+XqX$XM.9.4.9.n.+XqX+Xn.9.4.r.M.$XqX|.z.j._.8X_.:.s > 4 9 9 9 9 ",
"9 9 9 9 9 9 9 4 4 v ,.I.2XaXfXqX<X#X+X+X<XqXfXqX<X$XoX+X<XuXjXqX*X*XaXfX(.%.y * 4 9 9 9 9 ",
"9 9 9 9 9 9 9 < < C u.*XbXbXbXbXbXbXbXbXbXbXbXbXbXbXbXbXbXbXbXbXbXbXbXbX(.%.y > 4 9 9 9 9 ",
"9 9 9 9 9 9 9 < > C i.$XbXbXbXbXbXbXbXbXbXbXbXbXbXbXbXbXbXbXbXbXbXbXbXfX!.%.y > 9 9 9 9 9 ",
"9 9 9 9 9 9 9 < > C u.$XbXbXjXfXfXjXbXbXbXbXjXjXfXjXbXbXbXfXjXfXfXbXbXbX(.%.d > 4 9 9 9 9 ",
"9 9 9 9 9 9 9 4 < v %.M.!.!.E.I.I.).*XuXqX#X!.I.I._.*XaXqX+X!.P.I._.3XuX(.%.s * 4 9 9 9 9 ",
"9 9 9 9 9 9 9 9 4 y J { $.$.$.X.X.6.K.5X*XM.:.{ { 6.I.6X*Xc.=.{ X.9.!.6X_.:.y > 4 9 9 9 9 ",
"9 9 9 9 9 9 9 9 9 9 e y y y y 9 9 J z.<XXX6.v > 9 P c.2X}.4.z > 9 P j.XXP.%.s > 4 9 9 9 9 ",
"9 9 9 9 9 9 9 9 9 9 4 > > * > + + C s.*X|.3.y   o A j.<X_.:.y o + l $.p.9.! y < 9 9 9 9 9 ",
"9 9 9 9 9 9 9 9 9 9 9 4 4 9 4 > > S s.*X|.4.d o % G z.<X}.,.s + > y C P G z 9 9 9 9 9 nXnX",
"9 9 9 9 9 9 9 9 9 9 9 9 9 9 9 < < C 9.E.G.%.d % > A y.E.S.O.s > 4 9 9 4 4 9 9 9 9 9 nXnXnX",
"nXnX9 9 9 9 9 9 9 9 9 9 9 9 9 4 4 d ) 3.:.P y < < l ) ,.%.P y 4 4 9 < > < 4 9 9 9 9 nXnXnX",
"nXnXnX9 9 9 9 9 9 9 9 9 9 9 9 9 9 y d v c d 9 9 9 y d v v s 9 9 9 9 9 9 9 9 9 9 9 9 nXnXnX",
"nXnXnX9 9 9 9 9 9 9 9 9 9 9 9 9 9 9 < < < 4 9 9 9 9 4 < < 4 9 9 9 9 9 9 9 9 9 9 9 9 nXnXnX",
"nXnXnX9 9 9 9 9 9 9 9 9 9 9 9 9 9 9 4 4 4 4 9 9 9 9 4 < 4 9 9 9 9 9 9 9 9 9 9 9 9 9 nXnXnX",
"nXnXnX9 9 9 9 9 9 9 9 9 9 9 9 9 9 9 9 9 9 9 9 9 9 9 9 9 9 9 9 9 9 9 9 9 9 9 9 9 9 9 nXnXnX",
"nXnXnXnX9 9 9 9 9 9 9 9 9 9 9 9 9 9 9 9 9 9 9 9 9 9 9 9 9 9 9 9 9 9 9 9 9 9 9 9 9 nXnXnXnX",
"nXnXnXnXnX9 9 9 9 9 9 9 9 9 9 9 9 9 9 9 9 9 9 9 9 9 9 9 9 9 9 9 9 9 9 9 9 9 9 9 nXnXnXnXnX",
"nXnXnXnXnXnX9 9 9 9 9 9 9 9 9 9 9 9 9 9 9 9 9 9 9 9 9 9 9 9 9 9 9 9 9 9 9 9 9 9 nXnXnXnXnX",
"nXnXnXnXnXnXnX9 9 9 9 9 9 9 9 9 9 9 9 9 9 9 9 9 9 9 9 9 9 9 9 9 9 9 9 9 9 9 9 9 nXnXnXnXnX",
"nXnXnXnXnXnXnXnX9 9 9 9 9 9 9 9 9 9 9 9 9 9 9 9 9 9 9 9 9 9 9 9 9 9 9 9 9 9 9 9 nXnXnXnXnX",
"nXnXnXnXnXnXnXnX9 9 9 9 9 9 9 9 9 9 9 9 9 9 9 9 9 9 9 9 9 9 9 9 9 9 9 9 9 9 9 nXnXnXnXnXnX",
"nXnXnXnXnXnXnXnX9 9 9 9 9 9 9 9 9 9 9 9 9 9 9 9 9 9 9 9 9 9 9 9 9 9 9 9 9 9 nXnXnXnXnXnXnX",
"nXnXnXnXnXnXnXnX9 9 9 9 9 9 9 9 9 9 9 9 9 9 9 9 9 9 9 9 9 9 9 9 9 9 9 9 9 nXnXnXnXnXnXnXnX",
"nXnXnXnXnXnXnXnX9 9 9 9 9 9 9 9 9 9 9 9 9 9 9 9 9 9 9 9 9 9 9 9 9 9 9 9 9 nXnXnXnXnXnXnXnX",
"nXnXnXnXnXnXnXnX9 9 9 9 9 9 nXnXnXnXnXnXnXnXnXnXnXnXnXnXnX9 9 9 9 9 9 9 9 nXnXnXnXnXnXnXnX",
"nXnXnXnXnXnXnXnX9 9 9 9 9 nXnXnXnXnXnXnXnXnXnXnXnXnXnXnXnX9 9 9 9 9 9 9 9 nXnXnXnXnXnXnXnX",
"nXnXnXnXnXnXnXnX9 9 9 9 9 nXnXnXnXnXnXnXnXnXnXnXnXnXnXnXnXnXnX9 9 9 9 9 9 nXnXnXnXnXnXnXnX",
"nXnXnXnXnXnXnXnX9 9 9 9 9 nXnXnXnXnXnXnXnXnXnXnXnXnXnXnXnXnXnXnX9 9 9 9 9 nXnXnXnXnXnXnXnX",
"nXnXnXnXnXnXnXnX9 9 9 9 9 nXnXnXnXnXnXnXnXnXnXnXnXnXnXnXnXnXnXnX9 9 9 9 9 nXnXnXnXnXnXnXnX"
};
