/* XPM */
static char *key_frame_1[] = {
/* columns rows colors chars-per-pixel */
"64 45 2 1 ",
"  c None",
". c #ffd710",
/* pixels */
"           ...........                                          ",
"           ...........                                          ",
"           ...........                                          ",
"        .................                                       ",
"        .................                                       ",
"        .................                                       ",
"      ........   ...........                                    ",
"      ........   ...........                                    ",
"      ......          ........                                  ",
"      .....           .........                                 ",
"      .....           .........                                 ",
"   ......             .........                                 ",
"   .....              .........                                 ",
"   .....              .........                                 ",
"   .....                 ......              ................   ",
"   .....                 ......              ................   ",
"   .....                 ......             .................   ",
"   .....                 .......................................",
"   .....                 .......................................",
"   .....                 .......................................",
"   .....                 ............................   ........",
"   .....                 ............................   ........",
"   .....                 ............................   ........",
"   .....                 ............................   ........",
"   .....                 ............................   ........",
"   .....                 ...........        .........   ........",
"   .....                 ...........         ........   ........",
"   .....                 ...........         ........   ........",
"   ........              ........            ........   ........",
"   ........              ........            ........   ........",
"   ........              ........            ........   ........",
"   ...........        .........                ......   ........",
"   ...........        .........                ......   ........",
"   ...........        .........                ......   ........",
"      ...........  ............                ......   ........",
"      ...........  ............                ......   ........",
"      ...........  ............                 ....    ........",
"        .......................                                 ",
"        .......................                                 ",
"        ....................                                    ",
"        ....................                                    ",
"        ....................                                    ",
"           ..............                                       ",
"           ..............                                       ",
"           ..............                                       "
};
