/* XPM */
static char *algae_frame_2[] = {
/* columns rows colors chars-per-pixel */
"51 64 2 1 ",
"  c #5C8339",
". c None",
/* pixels */
"...................................................",
"...................................................",
"...................................................",
".....      .............................      .....",
".....      .............................      .....",
".....        ...........................      .....",
".....        ...........................      .....",
".....        ...........................      .....",
".....        .........................        .....",
".....        .........................        .....",
"......       ........................         .....",
"........     ......................           .....",
"........     ......................           .....",
"......       ......................        ........",
".....        ......................        ........",
".....        ......................        ........",
"...          ......................     ...........",
"...          ......................     ...........",
"...          ......................      ..........",
"...        ........................        ........",
"...        ........................        ........",
"        .............................        ......",
"        ..............................        .....",
"        ..............................        .....",
"        ..............................          ...",
"        ..............................          ...",
"        ..............................          ...",
"           ...................     .....        ...",
"           ...................     .....        ...",
"..           .................     .....        ...",
"...          .................     .....        ...",
"...          .................     .....        ...",
".....           ..............     .....      .....",
".....           ..............     .....      .....",
"......          .............      ......    ......",
"........        ........           ................",
"........        ........           ................",
"......          ......          ...................",
".....           .....           ...................",
".....           .....           ...................",
".....        ........         .....................",
".....        ........         .....................",
".....        ........         .....................",
".....      ..........         .....................",
".....      ..........         .....................",
".....      ..........           ...................",
".....      ..........           ...................",
".....      ..........           ...................",
".....      .............           ................",
".....      .............           ................",
"......    ..............           ................",
"...........................           .............",
"...........................           .............",
"................................      .............",
"................................      .............",
"................................      .............",
"................................      .............",
"................................      .............",
"................................      .............",
"...........................           .............",
"...........................           .............",
"...........................        ................",
"...........................        ................",
"...........................        ................"
};
