/* XPM */
static char *algae_frame_0[] = {
/* columns rows colors chars-per-pixel */
"64 64 2 1 ",
"  c #5C8339",
". c None",
/* pixels */
"................................................................",
"................................................................",
"................................................................",
"...........        ........................     ................",
"...........        ........................     ................",
"........           ........................     ................",
"........           ........................     ................",
"........           ........................     ................",
".....           ...........................          ...........",
".....           ...........................          ...........",
".....           ...........................           ..........",
".....        ................................           ........",
".....        ................................           ........",
".....      .....................................        ........",
".....      .....................................        ........",
".....      .....................................        ........",
".....           ...................................     ........",
".....           ...................................     ........",
"......          ..................................      ........",
"........           .............................        ........",
"........           .............................        ........",
"..........           .........................          ........",
"...........          ........................           ........",
"...........          ........................           ........",
".............        ........................        ...........",
".............        ........................        ...........",
"..............       ........................        ...........",
"................     ...........     ........      .............",
"................     ...........     ........      .............",
"..............       .........       ........      .............",
".............        ........        ........      .............",
".............        ........        ........      .............",
"...........          ........      ..........      .............",
"...........          ........      ..........      .............",
"..........           ........      ...........    ..............",
"........           ..........      .............................",
"........           ..........      .............................",
"........        .............           ........................",
"........        .............           ........................",
"........        .............           ........................",
"........     ................              .....................",
"........     ................              .....................",
"........     .................             .....................",
"........     ......................        .....................",
"........     ......................        .....................",
"........        .....................      .....................",
"........        .....................      .....................",
"........        .....................      .....................",
"...........     ................           .....................",
"...........     ................           .....................",
"...........     ................          ......................",
".............................           ........................",
".............................           ........................",
".............................      .............................",
".............................      .............................",
".............................      .............................",
".............................        ...........................",
".............................        ...........................",
".............................        ...........................",
".............................        ...........................",
".............................        ...........................",
"................................     ...........................",
"................................     ...........................",
"................................     ..........................."
};
