/* XPM */
static char *play_levels[] = {
/* columns rows colors chars-per-pixel */
"238 20 177 2 ",
"   c #131625",
".  c #232B42",
"X  c #202850",
"o  c #222951",
"O  c #222A52",
"+  c #232B52",
"@  c #232B53",
"#  c #242C53",
"$  c #252D54",
"%  c #262E55",
"&  c #283057",
"*  c #293157",
"=  c #2A3158",
"-  c #2B3359",
";  c #2C3359",
":  c #2C345A",
">  c #2D355A",
",  c #2E355B",
"<  c #2F375C",
"1  c #30385D",
"2  c #31385D",
"3  c #31395E",
"4  c #333A5F",
"5  c #343B60",
"6  c #343C60",
"7  c #353C60",
"8  c #373E62",
"9  c #383F63",
"0  c #3A4164",
"q  c #3A4165",
"w  c #3B4265",
"e  c #3E4568",
"r  c #3F4668",
"t  c #404769",
"y  c #42496B",
"u  c #434A6C",
"i  c #454B6D",
"p  c #454C6D",
"a  c #464D6E",
"s  c #474E6F",
"d  c #484E6F",
"f  c #4B5172",
"g  c #4B5272",
"h  c #4C5272",
"j  c #4D5373",
"k  c #4E5474",
"l  c #4E5574",
"z  c #505776",
"x  c #515776",
"c  c #525877",
"v  c #545A79",
"b  c #555B79",
"n  c #565C7B",
"m  c #565D7B",
"M  c #575D7B",
"N  c #585E7C",
"B  c #595F7D",
"V  c #5A607D",
"C  c #5A607E",
"Z  c #5C627F",
"A  c #354283",
"S  c #40509F",
"D  c #606582",
"F  c #636884",
"G  c #636985",
"H  c #646A85",
"J  c #646A86",
"K  c #676D88",
"L  c #686D88",
"P  c #696E89",
"I  c #6A6F8A",
"U  c #6A708A",
"Y  c #6B708B",
"T  c #6D728C",
"R  c #6D738D",
"E  c #6F748E",
"W  c #70758F",
"Q  c #70768F",
"!  c #717690",
"~  c #737891",
"^  c #757A93",
"/  c #777C94",
"(  c #797E96",
")  c #7A7F96",
"_  c #7B7F97",
"`  c #4557AC",
"'  c #4759B1",
"]  c #7D8299",
"[  c #7E839A",
"{  c #7F849B",
"}  c #81869C",
"|  c #858AA0",
" . c #888CA1",
".. c #898DA3",
"X. c #8A8EA3",
"o. c #8B8FA4",
"O. c #8D91A5",
"+. c #9296A9",
"@. c #9599AC",
"#. c #969AAD",
"$. c #979BAD",
"%. c #999DAF",
"&. c #9B9EB0",
"*. c #9CA0B2",
"=. c #9EA1B3",
"-. c #A1A4B5",
";. c #A1A5B6",
":. c #A2A5B6",
">. c #A3A6B7",
",. c #A4A7B7",
"<. c #A6AABA",
"1. c #A7AABA",
"2. c #A8ABBB",
"3. c #AAADBC",
"4. c #ADB0BE",
"5. c #AEB1C0",
"6. c #AFB2C0",
"7. c #B0B3C1",
"8. c #B1B4C2",
"9. c #B3B6C3",
"0. c #B4B7C4",
"q. c #B6B8C6",
"w. c #B7B9C6",
"e. c #B8BAC7",
"r. c #B8BBC8",
"t. c #B9BBC8",
"y. c #BEC1CC",
"u. c #BFC2CD",
"i. c #C0C2CE",
"p. c #C1C3CE",
"a. c #C2C4CF",
"s. c #C3C5D0",
"d. c #C3C6D0",
"f. c #C5C7D2",
"g. c #C7C9D3",
"h. c #C9CAD4",
"j. c #C9CBD4",
"k. c #CACCD6",
"l. c #CBCDD6",
"z. c #CED0D9",
"x. c #CFD1DA",
"c. c #D2D4DC",
"v. c #D3D4DC",
"b. c #D6D8DF",
"n. c #D7D8DF",
"m. c #DBDDE3",
"M. c #DEDFE5",
"N. c #E1E2E7",
"B. c #E2E3E8",
"V. c #E3E4E9",
"C. c #E4E5EA",
"Z. c #E5E6EB",
"A. c #E7E8EC",
"S. c #E8E9ED",
"D. c #E9EAEE",
"F. c #EBEBEF",
"G. c #EBECEF",
"H. c #ECEDF0",
"J. c #EDEDF1",
"K. c #EEEEF2",
"L. c #EEEFF2",
"P. c #EFF0F3",
"I. c #F0F0F3",
"U. c #F1F1F4",
"Y. c #F2F2F5",
"T. c #F3F4F6",
"R. c #F4F4F6",
"E. c #F4F5F7",
"W. c #F5F5F7",
"Q. c #F7F7F9",
"!. c #F9F9FA",
"~. c #FAFAFB",
"^. c #FBFBFC",
"/. c #FCFCFC",
"(. c #FDFDFD",
"). c #FEFEFE",
"_. c white",
/* pixels */
". ' ' ' ' ' ' ' ' ' ' ' ' ' ' ' ' ' ' ' ' ' ' ' ' ' ' ' ' ' ' ' ' ' ' ' ' ' ' ' ' ' ' ' ' ' ' ' ' ' ' ' ' ' ' ' ' ' ' ' ' ' ' ' ' ' ' ' ' ' ' ' ' ' ' ' ' ' ' ' ' ' ' ' ' ' ' ' ' ' ' ' ' ' ' ' ' ' ' ' ' ' ' ' ' ' ' ` ' ' ' ' ' ' ' ' ' ' ' ` ' ' ' ' ' ' ' ' ' ' ' ' ' ' ' ' ' ' ' ' ' ' ' ` ' ' ' ' ' ' ' ' ' ' ' ` ` ' ' ' ' ' ' ' ' ' ' ` ` ' ' ' ' ' ' ' ' ' ' ' ' ' ' ' ' ' ' ' ' ' ' ' ' ' ' ' ' ' ' ' ' ' ' ' ' ' ' ' ' ' ' ' ' ' ' ' ' ' ' ' ' ' ' ' ' ' ' ' ' ' ' ' ' ' ' ' '   ",
"' ' ` S S S S S S S S S S S S S S S S S S S S S S S S S S S S S S S S S S S S S S S S S S S S S S S S S S S S S S S S S S S S S S S S S S S S S S S S S S S S S S S S S S S S S S S S S S S S S S S S S S S S S A ` ` ` S S S S S S S S A ` ` ` ` A S S S S S S S S S S S S S S S S S S A ` ` ` ` A S S S S S S ` A ` ` ` A S S S S S S ` A ` ` ` A S S S S S S S S S S S S S S S S S S S S S S S S S S S S S S S S S S S S S S S S S S S S S S S S S S S S S S S S S S S S S S S S S ` ' ' ",
"' ` A X X X X X X X X X X X X X X X X X X X X X X X X X X X X X X X X X X X X X X X X X X X X X X X X X X X X X X X X X X X X X X X X X X X X X X X X X X X X X X X X X X X X X X X X X X X X X X X X X X X X X X X X X X X X X X X X X X X X X # X X X X X X X X X X X X X X X X X X X X X X X # X X X X X X X X X X X # X X X X X X X X X X X # X X X X X X X X X X X X X X X X X X X X X X X X X X X X X X X X X X X X X X X X X X X X X X X X X X X X X X X X X X X X X X X X X X A ` ' ",
"' S X X X X X X X X X X X X X X X X X X X X X X X X X X X X X X X X X X X X X X X X X X X X X X X X X X X X X X X X X X X X X X X X X X X X X X X X X X X X X X X X X X X X X X X X X X X X X X X X X X X X X X X X X X X X X X X X X X X X X X # X X X X X X X X X X X X X X X X X X X X X X X # X X X X X X X X X X X # X X X X X X X X X X X # X X X X X X X X X X X X X X X X X X X X X X X X X X X X X X X X X X X X X X X X X X X X X X X X X X X X X X X X X X X X X X X X X X X S ' ",
"' S X X X X X X X X X X X X X X X X X X X X X X X X X X X X X X X X X X X X X X X X X X X X X X X X X X X X X X X X X X X X X X X X X X X X X 9 | | | | r X X % | R X X X X X X X X 3 } | C X X X X ] X X X X h } s X X X X X X X X X X P } & X X X X X X X I | | | | P X X C } q X X  .| P X X N | | | | ) X X s | f X X X X X X X X c | | | | # X X X X X X X X X X X X X X X X X X X X X X X X X X X X X X X X X X X X X X X X X X X X X X X X X X X X X X X X X X X X X X X X X X X S ' ",
"' S X X X X X X X X X X X X X X X X X X X X X X X X X X X X X X X X X X X X X X X X X X X X X X X X X X X X X X X X X X X X X X X X X X X X X b _._._._.e.q X , _.h.X X X X X X X & 3._._.v.C X X X A.+.X X f g._.^ X X X X X X X X X X a._.5 X X X X X X X d._._._._.p.X X *._.N X X _._.u.X X =._._._._.C.X X / _.} X X X X X X X l l._._._._.> X X X X X X X X X X X X X X X X X X X X X X X X X X X X X X X X X X X X X X X X X X X X X X X X X X X X X X X X X X X X X X X X X X X S ' ",
"' S X X X X X X X X X X X X X X X X X X X X X X X X X X X X X X X X X X X X X X X X X X X X X X X X X X X X X X X X X X X X X X X X X X X X X b _.d.! g._.u.3 , _.h.X X X X X X X < _.m.;._. .X X X A.!.#.i l._._.~ X X X X X X X X X X a._.7 X X X X X X X d._.[ ! ! Z X X *._.C X # _.V.C X X =._.#.! ! K X X / _.{ X X X X X X g z._.4.! ! ! # X X X X X X X X X X X X X X X X X X X X X X X X X X X X X X X X X X X X X X X X X X X X X X X X X X X X X X X X X X X X X X X X X X X S ' ",
"' S X X X X X X X X X X X X X X X X X X X X X X X X X X X X X X X X X X X X X X X X X X X X X X X X X X X X X X X X X X X X X X X X X X X X X b _.;.X <._._.q , _.h.X X X X X X X a._.g.R _.o.X X X b _.W.c._._.2.9 X X X X X X X X X X a._.7 X X X X X X X d._.3 X X X X X *._.C X q._.c.X X X *._.M X X X X X / _.{ X X X X X X J _.5.q X X X X X X X X X X X X X X X X X X X X X X X X X X X X X X X X X X X X X X X X X X X X X X X X X X X X X X X X X X X X X X X X X X X X X X X S ' ",
"' S X X X X X X X X X X X X X X X X X X X X X X X X X X X X X X X X X X X X X X X X X X X X X X X X X X X X X X X X X X X X X X X X X X X X X n _.;.X <._._.q , _.h.X X X X X X X !.B.r R _. .X X X X ^._._._.5.3 X X X X X X X X X X X p._.7 X X X X X X X d._.3 X X X X X *._.N.e L._.v.X X X =._.N X X X X X _ _.{ X X X X X X J _.H.E X X X X X X X X X X X X X X X X X X X X X X X X X X X X X X X X X X X X X X X X X X X X X X X X X X X X X X X X X X X X X X X X X X X X X X X S ' ",
"' S X X X X X X X X X X X X X X X X X X X X X X X X X X X X X X X X X X X X X X X X X X X X X X X X X X X X X X X X X X X X X X X X X X X X X n _.;. .Q._.D X , _.!.<.X X X X X X !.m.X R _.W.R X X X y _._._.*.X X X X X X X X X X X X p._.L.X X X X X X X d._.L.b.X X X X - q._.s L.D.3 X X X =._.I.G., X X X ^ _.Y.J X X X X X F _._.T.F X X X X X X X X X X X X X X X X X X X X X X X X X X X X X X X X X X X X X X X X X X X X X X X X X X X X X X X X X X X X X X X X X X X X X X S ' ",
"' S X X X X X X X X X X X X X X X X X X X X X X X X X X X X X X X X X X X X X X X X X X X X X X X X X X X X X X X X X X X X X X X X X X X X X J _._._._.Y.h X , L._.0.X X X X X X ^._._._._._.^ X X X 3 _.!.,.X X X X X X X X X X X X X 9.^._.X X X X X X , h._.L.b.X X X X X 9._.n I.A.X X X ; <._.I.G., X X X R W._.Y X X X X X X E W._._.F X X X X X X X X X X X X X X X X X X X X X X X X X X X X X X X X X X X X X X X X X X X X X X X X X X X X X X X X X X X X X X X X X X X X X S ' ",
"' S X X X X X X X X X X X X X X X X X X X X X X X X X X X X X X X X X X X X X X X X X X X X X X X X X X X X X X X X X X X X X X X X X X X X t _._.L.b.b.N X X X y _.0.X X X X X X !.!.b.b.A._.^ X X X 3 _.d.X X X X X X X X X X X X X X X b._.X X X X X X 5._.M.< X X X X X X 7._._._.A.X X X  ._.C.l X X X X X X O._.Y X X X X X X X _ b.Y._.F # X X X X X X X X X X X X X X X X X X X X X X X X X X X X X X X X X X X X X X X X X X X X X X X X X X X X X X X X X X X X X X X X X X X S ' ",
"' S X X X X X X X X X X X X X X X X X X X X X X X X X X X X X X X X X X X X X X X X X X X X X X X X X X X X X X X X X X X X X X X X X X X X t _.G.[ X X X X X X y _.0.X X X X X X !.m.X X } _.^ X X X 3 _.d.X X X X X X X X X X X X X X X v._.X X X X X X 5._.s X X X X X X X  .L._._.7.X X X  ._.R X X X X X X X o._.P X X X X X 3 s X X O.P._.> X X X X X X X X X X X X X X X X X X X X X X X X X X X X X X X X X X X X X X X X X X X X X X X X X X X X X X X X X X X X X X X X X X X S ' ",
"' S X X X X X X X X X X X X X X X X X X X X X X X X X X X X X X X X X X X X X X X X X X X X X X X X X X X X X X X X X X X X X X X X X X X X t _.q.X X X X X X X y _.x.! ! ! Q 3 X ^.m.X X } _.^ X X X 3 _.d.X X X X X X X X X X X X X X X m._.! ! ! ! h X 5._.s X X X X X X X X d._._.X X X X O._.R X X X X X X X o._.-.! ! ! K X J g.Q u X l._.> X X X X X X X X X X X X X X X X X X X X X X X X X X X X X X X X X X X X X X X X X X X X X X X X X X X X X X X X X X X X X X X X X X X S ' ",
"' S X X X X X X X X X X X X X X X X X X X X X X X X X X X X X X X X X X X X X X X X X X X X X X X X X X X X X X X X X X X X X X X X X X X X t _.q.X X X X X X X y _._._._._._.l X ^.m.X X } _.^ X X X 3 _.g.X X X X X X X X X X X X X X X v._._._._._.%.X 5._.&.| | } P X X X X d._.!.X X X X  ._.5.} | | _ X X X O._._._._._.V.X J _._.w.| N._.> X X X X X X X X X X X X X X X X X X X X X X X X X X X X X X X X X X X X X X X X X X X X X X X X X X X X X X X X X X X X X X X X X X X S ' ",
"' S X X X X X X X X X X X X X X X X X X X X X X X X X X X X X X X X X X X X X X X X X X X X X X X X X X X X X X X X X X X X X X X X X X X X t _.q.X X X X X X X 3 ;._.l.| | | 7 X !.m.X X } _.^ X X X 3 _.d.X X X X X X X X X X X X X X X ~ T.W.| | | M X 5._._._._._.p.X X X X g._.^.X X X X  ._._._._._.C.X X X z l._.;.| | _ X y } p._._._.@.# X X X X X X X X X X X X X X X X X X X X X X X X X X X X X X X X X X X X X X X X X X X X X X X X X X X X X X X X X X X X X X X X X X X S ' ",
"' S X X X X X X X X X X X X X X X X X X X X X X X X X X X X X X X X X X X X X X X X X X X X X X X X X X X X X X X X X X X X X X X X X X X X ; ! n X X X X X X X X 5 ! l X X X X X E J X X u ! r X X X % Q Z X X X X X X X X X X X X X X X X P P X X X X X v Q Q ! ! ! Z X X X X Z Q Q X X X X s ! ! Q Q Q L X X X X z Q 4 X X X X X X s ! ! ! , X X X X X X X X X X X X X X X X X X X X X X X X X X X X X X X X X X X X X X X X X X X X X X X X X X X X X X X X X X X X X X X X X X X X S ' ",
"' ` A X X X X X X X X X X X X X X X X X X X X X X X X X X X X X X X X X X X X X X X X X X X X X X X X X X X X X X X X X X X X X X X X X X X X X X X X X X X X X X X X X X X X X X X X X X X X X X X X X X X X X X X X X X X X X X X X X X X X X X X X X X X X X X X X X X X X X X X X X X X X X X X X X X X X X X X X X X X X X X X X X X X X X X X X X X X X X X X X X X X X X X X X X X X X X X X X X X X X X X X X X X X X X X X X X X X X X X X X X X X X X X X X X X X X X X X X A ` ' ",
"' ' ` S S S S S S S S S S S S S S S S S S S S S S S S S S S S S S S S S S S S S S S S S S S S S S S S S S S S S S S S S S S S S S S S S S S S S S S S S S S S S S S S S S S S S S S S S S S S S S S S S S S S S S S S S S S S S S S S S S S S S ` A ` ` S S S S S S S S S S S S S S S S S S S S S S S S S S S S S S S S S S S S ` A ` ` S ` A ` S S S S S S S S S S S S S S S S S S S S S S S S S S S S S S S S S S S S S S S S S S S S S S S S S S S S S S S S S S S S S S S S S S S ` ' ' ",
". ' ' ' ' ' ' ' ' ' ' ' ' ' ' ' ' ' ' ' ' ' ' ' ' ' ' ' ' ' ' ' ' ' ' ' ' ' ' ' ' ' ' ' ' ' ' ' ' ' ' ' ' ' ' ' ' ' ' ' ' ' ' ' ' ' ' ' ' ' ' ' ' ' ' ' ' ' ' ' ' ' ' ' ' ' ' ' ' ' ' ' ' ' ' ' ' ' ' ' ' ' ' ' ' ' ' ' ' ' ' ' ' ' ' ' ' ' ' ' ` ' ' ' ' ' ' ' ' ' ' ' ' ' ' ' ' ' ' ' ' ' ' ' ' ' ' ' ' ' ' ' ' ' ' ' ' ' ' ' ` ` ' ' ' ' ' ' ' ' ' ' ' ' ' ' ' ' ' ' ' ' ' ' ' ' ' ' ' ' ' ' ' ' ' ' ' ' ' ' ' ' ' ' ' ' ' ' ' ' ' ' ' ' ' ' ' ' ' ' ' ' ' ' ' ' ' ' ' ' ' ' ' ' ' ' '   "
};
