/* XPM */
static char *wall_south_plus_west_plus_east_frame_00[] = {
/* columns rows colors chars-per-pixel */
"64 64 8 1 ",
"  c #13171E",
". c #151A22",
"X c #181D26",
"o c #1A202A",
"O c #222835",
"+ c #242B39",
"@ c #272E3D",
"# c #293141",
/* pixels */
"################################################################",
"################################################################",
"################################################################",
"################################################################",
"################################################################",
"oooooooooooooooooooooooooooooooooooooooooooooooooooooooooooooooo",
"                                                                ",
"                                                                ",
"                                                                ",
"                                                                ",
"oooooooooooooooooooooooooooooooooooooooooooooooooooooooooooooooo",
"################################################################",
"################################################################",
"################################################################",
"################################################################",
"################################################################",
"################################################################",
"################################################################",
"################################################################",
"################################################################",
"################################################################",
"ooooo+##################################################oooooooo",
"     O##################################################        ",
"     O##################################################        ",
"        #############################################o          ",
"        #############################################o          ",
"ooX     OO+##########################################o    .ooooo",
"##O       o##########################################o    o#####",
"##O       o##########################################o    o#####",
"##@OOX    o##########################################o    o#####",
"#####o    o##########################################o    o#####",
"#####o    o##########################################o    o#####",
"#####o    o##########################################o    o#####",
"#####o    o##########################################o    o#####",
"#####o    o##########################################o    o#####",
"#####o    o##########################################o    o#####",
"#####o    o##########################################o    o#####",
"#####o    o##########################################o    o#####",
"#####o    o##########################################o    o#####",
"#####o    o##########################################o    o#####",
"#####o    o##########################################o    o#####",
"#####o    o##########################################o    o#####",
"#####o    o##########################################o    o#####",
"#####o    o##########################################o    o#####",
"#####o    o##########################################o    o#####",
"#####o    o##########################################o    o#####",
"#####o    o##########################################o    o#####",
"#####o    o##########################################o    o#####",
"#####o    o##########################################o    o#####",
"#####o    o##########################################o    o#####",
"#####o    o##########################################o    o#####",
"#####o    o##########################################o    o#####",
"#####o    o##########################################o    o#####",
"#####o    o##########################################o    o#####",
"#####o    o##########################################o    o#####",
"#####o    o##########################################o    o#####",
"#####o    o##########################################o    o#####",
"#####o    o##########################################o    o#####",
"#####o    o##########################################o    o#####",
"#####o    o##########################################o    o#####",
"#####o    o##########################################o    o#####",
"#####o    o##########################################o    o#####",
"#####o    o##########################################o    o#####",
"#####o    o##########################################o    o#####"
};
