/* XPM */
static char *wall_north_plus_south_plus_west_frame_01[] = {
/* columns rows colors chars-per-pixel */
"64 64 8 1 ",
"  c #13171E",
". c #181D26",
"X c #1A202A",
"o c #1F2531",
"O c #222835",
"+ c #242B39",
"@ c #272E3D",
"# c #293141",
/* pixels */
"#####X    X##########################################X    X#####",
"#####X    X##########################################X    X#####",
"##@OO.    X##########################################X    X#####",
"##O       X##########################################X    X#####",
"##O       X##########################################X    X#####",
"XX.     OO+##########################################X    X#####",
"        #############################################X    X#####",
"        #############################################X    X#####",
"  X##################################################X    X#####",
"  X##################################################X    X#####",
"XXo##################################################X    X#####",
"#####################################################X    X#####",
"#####################################################X    X#####",
"#####################################################X    X#####",
"#####################################################X    X#####",
"#####################################################X    X#####",
"#####################################################X    X#####",
"#####################################################X    X#####",
"#####################################################X    X#####",
"#####################################################X    X#####",
"#####################################################X    X#####",
"XXXXXXXX#############################################X    X#####",
"        #############################################X    X#####",
"        #############################################X    X#####",
"        #############################################X    X#####",
"        #############################################X    X#####",
"XX.     OO+##########################################X    X#####",
"##O       X##########################################X    X#####",
"##O       X##########################################X    X#####",
"##@OO.    X##########################################X    X#####",
"#####X    X##########################################X    X#####",
"#####X    X##########################################X    X#####",
"#####X    X##########################################X    X#####",
"#####X    X##########################################X    X#####",
"#####X    X##########################################X    X#####",
"#####X    X##########################################X    X#####",
"#####X    X##########################################X    X#####",
"#####X    X##########################################X    X#####",
"#####X    X##########################################X    X#####",
"#####X    X##########################################X    X#####",
"#####X    X##########################################X    X#####",
"#####X    X##########################################X    X#####",
"#####X    X##########################################X    X#####",
"#####X    X##########################################X    X#####",
"#####X    X##########################################X    X#####",
"#####X    X##########################################X    X#####",
"#####X    X##########################################X    X#####",
"#####X    X##########################################X    X#####",
"#####X    X##########################################X    X#####",
"#####X    X##########################################X    X#####",
"#####X    X##########################################X    X#####",
"#####X    X##########################################X    X#####",
"#####X    X##########################################X    X#####",
"#####X    X##########################################X    X#####",
"#####X    X##########################################X    X#####",
"#####X    X##########################################X    X#####",
"#####X    X##########################################X    X#####",
"#####X    X##########################################X    X#####",
"#####X    X##########################################X    X#####",
"#####X    X##########################################X    X#####",
"#####X    X##########################################X    X#####",
"#####X    X##########################################X    X#####",
"#####X    X##########################################X    X#####",
"#####X    X##########################################X    X#####"
};
