/* XPM */
static char *wall_north_plus_south_plus_west_plus_east_frame_01[] = {
/* columns rows colors chars-per-pixel */
"64 64 9 1 ",
"  c #13171E",
". c #151A22",
"X c #181D26",
"o c #1A202A",
"O c #1F2531",
"+ c #222835",
"@ c #242B39",
"# c #272E3D",
"$ c #293141",
/* pixels */
"$$$$$o    o$$$$$$$$$$$$$$$$$$$$$$$$$$$$$$$$$$$$$$$$$$o    o$$$$$",
"$$$$$o    o$$$$$$$$$$$$$$$$$$$$$$$$$$$$$$$$$$$$$$$$$$o    o$$$$$",
"$$#++X    o$$$$$$$$$$$$$$$$$$$$$$$$$$$$$$$$$$$$$$$$$$o    o$$$$$",
"$$+       o$$$$$$$$$$$$$$$$$$$$$$$$$$$$$$$$$$$$$$$$$$o    o$$$$$",
"$$+       o$$$$$$$$$$$$$$$$$$$$$$$$$$$$$$$$$$$$$$$$$$o    o$$$$$",
"ooX     ++@$$$$$$$$$$$$$$$$$$$$$$$$$$$$$$$$$$$$$$$$$$o    .ooooo",
"        $$$$$$$$$$$$$$$$$$$$$$$$$$$$$$$$$$$$$$$$$$$$$o          ",
"        $$$$$$$$$$$$$$$$$$$$$$$$$$$$$$$$$$$$$$$$$$$$$o          ",
"     +$$$$$$$$$$$$$$$$$$$$$$$$$$$$$$$$$$$$$$$$$$$$$$$$$$        ",
"     +$$$$$$$$$$$$$$$$$$$$$$$$$$$$$$$$$$$$$$$$$$$$$$$$$$        ",
"ooooo@$$$$$$$$$$$$$$$$$$$$$$$$$$$$$$$$$$$$$$$$$$$$$$$$$$oooooooo",
"$$$$$$$$$$$$$$$$$$$$$$$$$$$$$$$$$$$$$$$$$$$$$$$$$$$$$$$$$$$$$$$$",
"$$$$$$$$$$$$$$$$$$$$$$$$$$$$$$$$$$$$$$$$$$$$$$$$$$$$$$$$$$$$$$$$",
"$$$$$$$$$$$$$$$$$$$$$$$$$$$$$$$$$$$$$$$$$$$$$$$$$$$$$$$$$$$$$$$$",
"$$$$$$$$$$$$$$$$$$$$$$$$$$$$$$$$$$$$$$$$$$$$$$$$$$$$$$$$$$$$$$$$",
"$$$$$$$$$$$$$$$$$$$$$$$$$$$$$$$$$$$$$$$$$$$$$$$$$$$$$$$$$$$$$$$$",
"$$$$$$$$$$$$$$$$$$$$$$$$$$$$$$$$$$$$$$$$$$$$$$$$$$$$$$$$$$$$$$$$",
"$$$$$$$$$$$$$$$$$$$$$$$$$$$$$$$$$$$$$$$$$$$$$$$$$$$$$$$$$$$$$$$$",
"$$$$$$$$$$$$$$$$$$$$$$$$$$$$$$$$$$$$$$$$$$$$$$$$$$$$$$$$$$$$$$$$",
"$$$$$$$$$$$$$$$$$$$$$$$$$$$$$$$$$$$$$$$$$$$$$$$$$$$$$$$$$$$$$$$$",
"$$$$$$$$$$$$$$$$$$$$$$$$$$$$$$$$$$$$$$$$$$$$$$$$$$$$$$$$$$$$$$$$",
"oooooooo$$$$$$$$$$$$$$$$$$$$$$$$$$$$$$$$$$$$$$$$$$$$$$$$$$$$$Ooo",
"        $$$$$$$$$$$$$$$$$$$$$$$$$$$$$$$$$$$$$$$$$$$$$$$$$$$$$o  ",
"        $$$$$$$$$$$$$$$$$$$$$$$$$$$$$$$$$$$$$$$$$$$$$$$$$$$$$o  ",
"        $$$$$$$$$$$$$$$$$$$$$$$$$$$$$$$$$$$$$$$$$$$$$$$$        ",
"        $$$$$$$$$$$$$$$$$$$$$$$$$$$$$$$$$$$$$$$$$$$$$$$$        ",
"ooX     ++@$$$$$$$$$$$$$$$$$$$$$$$$$$$$$$$$$$$$$$$$$$@++     Xoo",
"$$+       o$$$$$$$$$$$$$$$$$$$$$$$$$$$$$$$$$$$$$$$$$$o       +$$",
"$$+       o$$$$$$$$$$$$$$$$$$$$$$$$$$$$$$$$$$$$$$$$$$o       +$$",
"$$#++X    o$$$$$$$$$$$$$$$$$$$$$$$$$$$$$$$$$$$$$$$$$$o    X++#$$",
"$$$$$o    o$$$$$$$$$$$$$$$$$$$$$$$$$$$$$$$$$$$$$$$$$$o    o$$$$$",
"$$$$$o    o$$$$$$$$$$$$$$$$$$$$$$$$$$$$$$$$$$$$$$$$$$o    o$$$$$",
"$$$$$o    o$$$$$$$$$$$$$$$$$$$$$$$$$$$$$$$$$$$$$$$$$$o    o$$$$$",
"$$$$$o    o$$$$$$$$$$$$$$$$$$$$$$$$$$$$$$$$$$$$$$$$$$o    o$$$$$",
"$$$$$o    o$$$$$$$$$$$$$$$$$$$$$$$$$$$$$$$$$$$$$$$$$$o    o$$$$$",
"$$$$$o    o$$$$$$$$$$$$$$$$$$$$$$$$$$$$$$$$$$$$$$$$$$o    o$$$$$",
"$$$$$o    o$$$$$$$$$$$$$$$$$$$$$$$$$$$$$$$$$$$$$$$$$$o    o$$$$$",
"$$$$$o    o$$$$$$$$$$$$$$$$$$$$$$$$$$$$$$$$$$$$$$$$$$o    o$$$$$",
"$$$$$o    o$$$$$$$$$$$$$$$$$$$$$$$$$$$$$$$$$$$$$$$$$$o    o$$$$$",
"$$$$$o    o$$$$$$$$$$$$$$$$$$$$$$$$$$$$$$$$$$$$$$$$$$o    o$$$$$",
"$$$$$o    o$$$$$$$$$$$$$$$$$$$$$$$$$$$$$$$$$$$$$$$$$$o    o$$$$$",
"$$$$$o    o$$$$$$$$$$$$$$$$$$$$$$$$$$$$$$$$$$$$$$$$$$o    o$$$$$",
"$$$$$o    o$$$$$$$$$$$$$$$$$$$$$$$$$$$$$$$$$$$$$$$$$$o    o$$$$$",
"$$$$$o    o$$$$$$$$$$$$$$$$$$$$$$$$$$$$$$$$$$$$$$$$$$o    o$$$$$",
"$$$$$o    o$$$$$$$$$$$$$$$$$$$$$$$$$$$$$$$$$$$$$$$$$$o    o$$$$$",
"$$$$$o    o$$$$$$$$$$$$$$$$$$$$$$$$$$$$$$$$$$$$$$$$$$o    o$$$$$",
"$$$$$o    o$$$$$$$$$$$$$$$$$$$$$$$$$$$$$$$$$$$$$$$$$$o    o$$$$$",
"$$$$$o    o$$$$$$$$$$$$$$$$$$$$$$$$$$$$$$$$$$$$$$$$$$o    o$$$$$",
"$$$$$o    o$$$$$$$$$$$$$$$$$$$$$$$$$$$$$$$$$$$$$$$$$$o    o$$$$$",
"$$$$$o    o$$$$$$$$$$$$$$$$$$$$$$$$$$$$$$$$$$$$$$$$$$o    o$$$$$",
"$$$$$o    o$$$$$$$$$$$$$$$$$$$$$$$$$$$$$$$$$$$$$$$$$$o    o$$$$$",
"$$$$$o    o$$$$$$$$$$$$$$$$$$$$$$$$$$$$$$$$$$$$$$$$$$o    o$$$$$",
"$$$$$o    o$$$$$$$$$$$$$$$$$$$$$$$$$$$$$$$$$$$$$$$$$$o    o$$$$$",
"$$$$$o    o$$$$$$$$$$$$$$$$$$$$$$$$$$$$$$$$$$$$$$$$$$o    o$$$$$",
"$$$$$o    o$$$$$$$$$$$$$$$$$$$$$$$$$$$$$$$$$$$$$$$$$$o    o$$$$$",
"$$$$$o    o$$$$$$$$$$$$$$$$$$$$$$$$$$$$$$$$$$$$$$$$$$o    o$$$$$",
"$$$$$o    o$$$$$$$$$$$$$$$$$$$$$$$$$$$$$$$$$$$$$$$$$$o    o$$$$$",
"$$$$$o    o$$$$$$$$$$$$$$$$$$$$$$$$$$$$$$$$$$$$$$$$$$o    o$$$$$",
"$$$$$o    o$$$$$$$$$$$$$$$$$$$$$$$$$$$$$$$$$$$$$$$$$$o    o$$$$$",
"$$$$$o    o$$$$$$$$$$$$$$$$$$$$$$$$$$$$$$$$$$$$$$$$$$o    o$$$$$",
"$$$$$o    o$$$$$$$$$$$$$$$$$$$$$$$$$$$$$$$$$$$$$$$$$$o    o$$$$$",
"$$$$$o    o$$$$$$$$$$$$$$$$$$$$$$$$$$$$$$$$$$$$$$$$$$o    o$$$$$",
"$$$$$o    o$$$$$$$$$$$$$$$$$$$$$$$$$$$$$$$$$$$$$$$$$$o    o$$$$$",
"$$$$$o    o$$$$$$$$$$$$$$$$$$$$$$$$$$$$$$$$$$$$$$$$$$o    o$$$$$"
};
