/* XPM */
static char *monster_right_frame_move_1[] = {
/* columns rows colors chars-per-pixel */
"53 64 207 2 ",
"   c #D6285D",
".  c #D6295E",
"X  c #D62A5F",
"o  c #D62C60",
"O  c #D72C60",
"+  c #D72D61",
"@  c #D72E62",
"#  c #D72F63",
"$  c #D73063",
"%  c #D73164",
"&  c #D83264",
"*  c #D83265",
"=  c #D83365",
"-  c #D83366",
";  c #D83466",
":  c #D83467",
">  c #D83567",
",  c #D83667",
"<  c #D83668",
"1  c #D93668",
"2  c #D93768",
"3  c #D93769",
"4  c #D93869",
"5  c #D9386A",
"6  c #D9396A",
"7  c #D93A6A",
"8  c #D93A6B",
"9  c #D93B6B",
"0  c #D93B6C",
"q  c #DA3C6C",
"w  c #DA3C6D",
"e  c #DA3D6D",
"r  c #DA3E6E",
"t  c #DA3F6E",
"y  c #DA3F6F",
"u  c #DA406F",
"i  c #DA4070",
"p  c #DA4170",
"a  c #DB4170",
"s  c #DB4270",
"d  c #DB4271",
"f  c #DB4371",
"g  c #DB4372",
"h  c #DB4472",
"j  c #DB4473",
"k  c #DB4573",
"l  c #DB4673",
"z  c #DB4674",
"x  c #DC4774",
"c  c #DC4775",
"v  c #DC4875",
"b  c #DC4876",
"n  c #DC4976",
"m  c #DC4A77",
"M  c #DC4B78",
"N  c #DD4B78",
"B  c #DD4C78",
"V  c #DD4D79",
"C  c #DD4E7A",
"Z  c #DD4F7B",
"A  c #DD507B",
"S  c #DE517C",
"D  c #DE527D",
"F  c #DE537D",
"G  c #DE537E",
"H  c #DE547E",
"J  c #DE557F",
"K  c #DF5680",
"L  c #DF5881",
"P  c #DF5982",
"I  c #DF5A83",
"U  c #DF5B83",
"Y  c #E05B84",
"T  c #E05C84",
"R  c #E05D85",
"E  c #E05E86",
"W  c #E05F87",
"Q  c #E06087",
"!  c #E16289",
"~  c #E16389",
"^  c #E1638A",
"/  c #E1648A",
"(  c #E1658B",
")  c #E2668C",
"_  c #E2678C",
"`  c #E2678D",
"'  c #E2688E",
"]  c #E26A8F",
"[  c #E36B8F",
"{  c #E36B90",
"}  c #E36C90",
"|  c #E36D91",
" . c #E36E92",
".. c #E36F93",
"X. c #E37093",
"o. c #E47194",
"O. c #E47396",
"+. c #E47497",
"@. c #E57698",
"#. c #E57799",
"$. c #E57899",
"%. c #E5789A",
"&. c #E5799A",
"*. c #E67A9B",
"=. c #E67C9C",
"-. c #E67D9D",
";. c #E67E9E",
":. c #E67F9E",
">. c #E67F9F",
",. c #E780A0",
"<. c #E781A0",
"1. c #E782A1",
"2. c #E783A1",
"3. c #E784A2",
"4. c #E784A3",
"5. c #E885A3",
"6. c #E887A5",
"7. c #E888A5",
"8. c #E888A6",
"9. c #E889A6",
"0. c #E98AA7",
"q. c #E98BA8",
"w. c #E98CA8",
"e. c #E98CA9",
"r. c #E98DA9",
"t. c #E98FAB",
"y. c #EA8FAB",
"u. c #EA92AD",
"i. c #EA93AE",
"p. c #EA94AE",
"a. c #EB96B0",
"s. c #EB98B1",
"d. c #EB98B2",
"f. c #EB99B2",
"g. c #EC9AB3",
"h. c #EC9BB3",
"j. c #EC9CB4",
"k. c #EC9DB6",
"l. c #ED9FB7",
"z. c #EDA0B7",
"x. c #EDA0B8",
"c. c #EDA3B9",
"v. c #EDA3BA",
"b. c #EEA6BC",
"n. c #EEA9BE",
"m. c #EFA9BE",
"M. c #EFABC0",
"N. c #EFACC1",
"B. c #EFADC1",
"V. c #EFAEC2",
"C. c #F0AEC2",
"Z. c #F0B0C4",
"A. c #F0B1C4",
"S. c #F0B2C5",
"D. c #F0B3C6",
"F. c #F1B4C7",
"G. c #F1B5C7",
"H. c #F1B5C8",
"J. c #F1B6C8",
"K. c #F1B7C9",
"L. c #F1B8C9",
"P. c #F1B8CA",
"I. c #F2B9CA",
"U. c #F2B9CB",
"Y. c #F2BACB",
"T. c #F2BBCC",
"R. c #F2BCCD",
"E. c #F3BFCF",
"W. c #F3C1D0",
"Q. c #F3C2D1",
"!. c #F3C3D2",
"~. c #F4C4D3",
"^. c #F4C7D5",
"/. c #F4C8D6",
"(. c #F5C8D6",
"). c #F5C9D7",
"_. c #F5CBD8",
"`. c #F6CFDB",
"'. c #F6D0DC",
"]. c #F6D1DD",
"[. c #F6D3DE",
"{. c #F7D3DE",
"}. c #F7D4DF",
"|. c #F7D5DF",
" X c #F7D6E0",
".X c #F7D7E1",
"XX c #F8D8E2",
"oX c #F8DBE4",
"OX c #F9DDE6",
"+X c #F9DFE7",
"@X c #F9E0E8",
"#X c #F9E1E9",
"$X c #F9E2E9",
"%X c #FAE3EA",
"&X c #FAE4EA",
"*X c #FAE4EB",
"=X c #FAE5EB",
"-X c #FAE7ED",
";X c #FBE8EE",
":X c #FBE9EE",
">X c #FBECF1",
",X c #FCF1F4",
"<X c #FDF3F6",
"1X c #FDF4F7",
"2X c #FEF8FA",
"3X c white",
"4X c None",
/* pixels */
"4X4X4X4X4X4X4X4X4X4X4X4X4X4X4X4X4X4X4X4X4X4X4X4X4X4X4X4X4X4X4X4X4X4X4X4X4X4X4X4X4X4X4X4X4X4X4X4X4X4X4X4X4X",
"4X4X4X4X4X4X4X4X4X4X4X4X4X4X4X4X4X4X4X4X4X4X4X4X4X4X4X4X4X4X4X4X4X4X4X4X4X4X4X4X4X4X4X4X4X4X4X4X4X4X4X4X4X",
"4X4X4X4X4X4X4X4X4X4X4X4X4X4X4X4X4X4X4X4X4X4X4X4X4X4X4X4X4X4X4X4X4X4X4X4X4X4X4X4X4X4X4X4X4X4X4X4X4X4X4X4X4X",
"4X4X4X4X4X4X4X4X4X4X4X4X4X4X4X4X6 6 6 6 6 6 6 6 6 6 6 6 6 6 6 6 6 6 6 6 6 6 6 4X4X4X4X4X4X4X4X4X4X4X4X4X4X",
"4X4X4X4X4X4X4X4X4X4X4X4X4X4X4X4X6 6 6 6 6 6 6 6 6 6 6 6 6 6 6 6 6 6 6 < 6 < < 6 4X4X4X4X4X4X4X4X4X4X4X4X4X",
"4X4X4X4X4X4X4X4X4X4X4X4X6 6 6 6 6 6 6 6 6 6 6 6 6 6 6 6 6 6 6 6 6 6 > * * * * > 6 6 6 6 4X4X4X4X4X4X4X4X4X",
"4X4X4X4X4X4X4X4X4X4X4X6 6 6 6 6 6 6 6 6 6 6 6 6 6 6 6 6 6 6 6 6 6 6 0 t t t t t 6 6 6 6 6 4X4X4X4X4X4X4X4X",
"4X4X4X4X4X4X4X4X4X4X6 6 6 6 6 6 6 6 6 6 6 6 6 6 6 6 6 6 6 6 6 < < g U | #.$.X.U z 6 < 6 6 6 4X4X4X4X4X4X4X",
"4X4X4X4X4X4X4X4X4X6 6 6 6 6 6 6 6 6 6 6 6 6 6 6 6 6 6 6 6 6 6 > < Z ,.Z.^.).Y.r.K 6 > 6 6 6 6 4X4X4X4X4X4X",
"4X4X4X4X4X4X4X4X6 6 6 6 6 6 6 6 6 6 6 6 6 6 6 6 6 6 6 6 6 6 6 > > H j.=X3X3X>XN.! < * 6 6 6 6 6 4X4X4X4X4X",
"4X4X4X4X4X4X4X6 6 6 6 6 6 6 6 6 6 6 6 6 6 > * * % > > 6 6 6 6 * > K c.-X3X3X<XZ.! < * 6 6 6 6 6 4X4X4X4X4X",
"4X4X4X4X4X4X6 6 6 6 6 6 6 6 6 6 6 6 6 6 6 < 6 < < < 6 6 6 6 6 > > K z.-X3X3X<XZ.! 6 * 6 6 6 6 6 4X4X4X4X4X",
"4X4X4X4X4X6 6 6 6 6 6 6 6 6 6 6 6 6 < 6 g A U Q T U N t 6 < 6 > > A r.^.$X$X`.f.T 6 * 6 6 6 6 6 4X4X4X4X4X",
"4X4X4X4X4X6 6 6 6 6 6 6 6 6 6 6 6 6 > 6 A >.c.Z.Z.h.o.c < > 6 < 6 z ( 4.i.p.8.| N 6 < 6 6 6 6 6 4X4X4X4X4X",
"4X4X4X4X4X6 6 6 6 6 6 6 6 6 6 6 6 6 > 6 ! n.$X2X1X|.i.A > > 6 6 6 t g n Z Z n g t 6 6 6 6 6 6 6 4X4X4X4X4X",
"4X4X4X4X4X6 6 6 6 6 6 6 6 6 6 6 6 6 * 6 ) F.<X3X3X=Xj.H > > 6 6 6 < > * % * * > < 6 6 6 6 6 6 6 4X4X4X4X4X",
"4X4X4X6 6 6 6 6 6 6 6 6 6 6 6 6 6 6 * 6 ) F.<X3X3X=Xj.H > > 6 6 6 6 < > > > > < 6 6 6 6 6 6 6 6 4X4X4X4X4X",
"4X4X4X6 6 6 6 6 6 6 6 6 6 6 6 6 6 6 * 6 ! n.$X2X1X Xi.A > > 6 6 6 6 6 6 6 6 6 6 6 6 6 6 6 6 6 6 4X4X4X4X4X",
"4X4X4X6 6 6 6 6 6 6 6 6 6 6 6 6 6 6 > 6 A >.c.Z.N.j.o.z > < 6 6 6 6 6 6 6 6 6 6 6 6 6 6 6 6 6 6 4X4X4X4X4X",
"4X4X4X6 6 6 6 6 6 6 6 6 6 6 6 6 6 6 6 6 g A U Q T U N t 6 < 6 6 6 6 6 6 6 6 6 6 6 6 6 6 6 6 6 6 4X4X4X4X4X",
"4X4X4X6 6 6 6 6 6 6 6 6 6 6 6 6 6 6 6 6 6 6 < < < 6 6 6 6 6 6 6 6 6 6 6 6 6 6 6 6 6 6 6 6 6 6 6 4X4X4X4X4X",
"4X4X4X6 6 6 6 6 6 6 6 6 6 6 6 6 6 6 6 6 6 > * * * * > 6 6 6 6 6 6 6 6 6 6 6 6 6 6 6 6 6 6 6 6 6 4X4X4X4X4X",
"4X4X4X6 6 6 6 6 6 6 6 6 6 6 6 6 6 6 6 6 6 6 6 6 6 6 6 6 6 6 6 6 6 6 6 6 6 6 6 6 6 6 6 6 6 6 6 6 4X4X4X4X4X",
"4X4X4X6 6 6 6 6 6 6 6 6 6 6 6 6 6 6 6 6 6 6 6 6 6 6 6 6 6 < < < 6 6 6 6 6 < > < 6 6 6 6 6 6 6 6 4X4X4X4X4X",
"4X4X4X6 6 6 6 6 6 6 6 6 6 6 6 6 6 6 6 6 6 6 6 6 6 6 6 6 6 > * > < 6 6 6 6 > * > < 6 6 6 6 6 6 6 4X4X4X4X4X",
"4X4X4X6 6 6 6 6 6 6 6 6 6 6 6 6 6 6 6 6 6 6 6 6 6 6 6 6 t z n l t 6 6 6 t l n l t 6 6 6 6 6 6 6 4X4X4X4X4X",
"4X4X4X6 6 6 6 6 6 6 6 6 6 6 6 6 6 6 6 6 < > > < < 6 > 6 A o.4.o.Z 6 * 6 A +.4.| Z 6 > 6 6 6 6 4X4X4X4X4X4X",
"4X4X4X6 6 6 6 6 6 6 6 6 6 6 6 6 6 6 6 6 6 6 < 6 6 6 > 6 ! b.).c.T 6 # 6 ) n.).c.T < > 6 6 4X4X4X4X4X4X4X4X",
"4X4X4X6 6 6 6 6 6 6 6 6 6 6 6 6 6 6 6 6 g A T A g < # 6 | R.;XY.) < X t o.~.;XK.( < * 6 6 4X4X4X4X4X4X4X4X",
"4X4X4X6 6 6 6 6 6 6 6 6 6 6 6 6 6 6 > 6 K 8.v.8.A % X 6 | W.;XY.! %   6 o.W.;XF.T * $ 6 6 4X4X4X4X4X4X4X4X",
"4X4X4X6 6 6 6 6 6 6 6 6 6 6 6 6 6 6 * 6 ! N.|.Z.| t $ 6 | T.=XY.| t # 6 X.R.=XK.] 0 > 6 6 4X4X4X4X4X4X4X4X",
"4X4X4X6 6 6 6 6 6 6 6 6 6 6 6 6 6 6 > 6 U a.R.Z.r.| Z g U i.K.N.8.] Z g T p.Y.M.8.] A g < < 4X4X4X4X4X4X4X",
"4X4X4X6 6 6 6 6 6 6 6 6 6 6 6 6 6 6 < 6 n T $.f.K.Z.>.Z g U #.f.K.N.>.n l U $.g.K.N.$.c > > 6 4X4X4X4X4X4X",
"4X4X4X6 6 6 6 6 6 6 6 6 6 6 6 6 6 6 6 6 6 > n 6.'.OXj.H % % n 8.|.OXj.A % % Z r. XoXf.Z * > 6 6 4X4X4X4X4X",
"4X4X4X6 6 6 6 6 6 6 6 6 6 6 6 6 6 6 6 6 > # t >.'.=Xc.H # X t 4.|.$Xj.A #   u 8. X$Xg.Z > > 6 6 4X4X4X4X4X",
"4X4X4X6 6 6 6 6 6 6 6 6 6 6 6 6 6 6 6 6 > # g ,.'.$Xc.H % X l 8.|.$Xc.A # # l r. X$Xg.Z * > 6 6 4X4X4X4X4X",
"4X4X4X6 6 6 6 6 6 6 6 6 6 6 6 6 6 6 6 6 < > g +.Y.~.r.A * $ g *.Y.~.8.Z $ $ l >.T.W.8.n > < 6 6 4X4X4X4X4X",
"4X4X4X6 6 6 6 6 6 6 6 6 6 6 6 6 6 6 6 6 < < t U >.,.) l < * t U >.,.( l > * t T >.,.! g < < 6 6 4X4X4X4X4X",
"4X4X4X6 6 6 6 6 6 6 6 6 6 6 6 6 6 6 6 6 6 6 6 u z n g t 6 6 6 g z n g 6 6 6 6 g c n g 0 6 6 6 6 4X4X4X4X4X",
"4X4X4X6 6 6 6 6 6 6 6 6 6 6 6 6 6 6 6 6 6 6 6 < > > > < 6 6 < < > * < < 6 6 6 < > * > 6 6 6 6 6 4X4X4X4X4X",
"4X4X4X6 6 6 6 6 6 6 6 6 6 6 6 6 6 6 6 6 6 6 6 < < < < 6 6 6 6 6 > > < 6 6 6 6 6 > < < 6 6 6 6 6 4X4X4X4X4X",
"4X4X4X6 6 6 6 6 6 6 6 6 6 6 6 6 6 6 6 6 6 6 6 6 6 6 6 6 6 6 6 6 6 6 6 6 6 6 6 6 6 6 6 6 6 6 6 6 4X4X4X4X4X",
"4X4X4X6 6 6 6 6 6 6 6 6 6 6 6 6 6 6 6 6 6 6 6 6 6 6 6 6 6 6 6 6 6 6 6 6 6 6 6 6 6 6 6 6 6 6 6 6 4X4X4X4X4X",
"4X4X4X6 6 6 6 6 6 6 6 6 6 6 6 6 6 6 6 6 6 6 6 6 6 6 6 6 6 6 6 6 6 6 6 6 6 6 6 6 6 6 6 6 6 6 6 6 4X4X4X4X4X",
"4X4X4X6 6 6 6 6 6 6 6 6 6 6 6 6 6 6 6 6 6 6 6 6 6 6 6 6 6 6 6 6 6 6 6 6 6 6 6 6 6 6 6 6 6 6 6 4X4X4X4X4X4X",
"4X4X4X4X6 6 6 6 6 6 6 6 6 6 6 6 6 6 6 6 6 6 6 6 6 6 6 6 6 6 6 6 6 6 6 6 6 6 6 6 6 6 6 6 6 6 4X4X4X4X4X4X4X",
"4X4X4X4X4X6 6 6 6 6 6 6 6 6 6 6 6 6 6 6 6 6 6 6 6 6 6 6 6 6 6 6 6 6 6 6 6 6 6 6 6 6 6 6 6 4X4X4X4X4X4X4X4X",
"4X4X4X4X4X6 6 6 6 6 6 6 6 6 6 6 6 6 6 6 6 6 6 6 6 6 6 6 6 6 6 6 6 6 6 6 6 6 6 6 6 6 6 6 6 4X4X4X4X4X4X4X4X",
"4X4X4X4X4X6 6 6 6 6 6 6 6 6 6 6 6 6 6 6 6 6 6 6 6 6 6 6 6 6 6 6 6 6 6 6 6 6 6 6 6 6 6 6 6 4X4X4X4X4X4X4X4X",
"4X4X4X4X4X6 6 6 6 6 6 6 6 6 6 6 6 6 6 6 6 6 6 6 6 6 6 6 6 6 6 6 6 6 6 6 6 6 6 6 6 6 6 6 6 4X4X4X4X4X4X4X4X",
"4X4X4X4X4X4X6 6 6 6 6 6 6 6 6 6 6 6 6 6 6 6 6 6 6 6 6 6 6 6 6 6 6 6 6 6 6 6 6 6 6 6 6 6 6 4X4X4X4X4X4X4X4X",
"4X4X4X4X4X4X4X4X6 6 6 6 6 6 6 6 6 6 6 6 6 6 6 6 6 6 6 6 6 6 6 6 6 6 6 6 6 6 6 6 6 6 6 6 6 4X4X4X4X4X4X4X4X",
"4X4X4X4X4X4X4X4X6 6 6 6 6 6 6 6 6 6 6 6 6 6 6 6 6 6 6 6 6 6 6 6 6 6 6 6 6 6 6 6 6 6 6 6 6 4X4X4X4X4X4X4X4X",
"4X4X4X4X4X4X6 6 6 6 6 6 6 6 6 6 6 6 6 6 6 6 6 6 6 6 6 6 6 6 6 6 6 6 6 6 6 6 6 6 6 6 6 6 6 6 6 4X4X4X4X4X4X",
"4X4X4X4X4X6 6 6 6 6 6 6 6 6 6 6 6 6 6 6 6 6 6 6 6 6 6 6 6 6 6 6 6 6 6 6 6 6 6 6 6 6 6 6 6 6 6 6 4X4X4X4X4X",
"4X4X4X4X4X6 6 6 6 6 6 6 6 6 6 6 6 6 6 6 6 6 6 6 6 6 6 6 6 6 6 6 6 6 6 6 6 6 6 6 6 6 6 6 6 6 6 6 4X4X4X4X4X",
"4X4X4X6 6 6 6 6 6 6 6 4X4X4X4X4X4X4X4X4X4X4X4X4X4X4X4X4X4X4X4X4X4X4X4X4X4X4X4X4X4X4X6 6 6 6 6 6 6 6 4X4X4X",
"4X4X4X6 6 6 6 6 6 6 6 4X4X4X4X4X4X4X4X4X4X4X4X4X4X4X4X4X4X4X4X4X4X4X4X4X4X4X4X4X4X4X6 6 6 6 6 6 6 6 4X4X4X",
"4X4X6 6 6 6 6 6 6 6 4X4X4X4X4X4X4X4X4X4X4X4X4X4X4X4X4X4X4X4X4X4X4X4X4X4X4X4X4X4X4X4X4X6 6 6 6 6 6 6 6 4X4X",
"6 6 6 6 6 6 6 6 4X4X4X4X4X4X4X4X4X4X4X4X4X4X4X4X4X4X4X4X4X4X4X4X4X4X4X4X4X4X4X4X4X4X4X4X4X6 6 6 6 6 6 6 6 ",
"6 6 6 6 6 6 6 6 4X4X4X4X4X4X4X4X4X4X4X4X4X4X4X4X4X4X4X4X4X4X4X4X4X4X4X4X4X4X4X4X4X4X4X4X4X6 6 6 6 6 6 6 6 ",
"6 6 6 6 6 6 4X4X4X4X4X4X4X4X4X4X4X4X4X4X4X4X4X4X4X4X4X4X4X4X4X4X4X4X4X4X4X4X4X4X4X4X4X4X4X4X4X6 6 6 6 6 6 ",
"6 6 6 6 6 4X4X4X4X4X4X4X4X4X4X4X4X4X4X4X4X4X4X4X4X4X4X4X4X4X4X4X4X4X4X4X4X4X4X4X4X4X4X4X4X4X4X4X6 6 6 6 6 ",
"6 6 6 6 6 4X4X4X4X4X4X4X4X4X4X4X4X4X4X4X4X4X4X4X4X4X4X4X4X4X4X4X4X4X4X4X4X4X4X4X4X4X4X4X4X4X4X4X6 6 6 6 6 "
};
