/* XPM */
static char *monster_right_frame_move_0[] = {
/* columns rows colors chars-per-pixel */
"45 64 201 2 ",
"   c #D6275D",
".  c #D6285D",
"X  c #D62A5F",
"o  c #D62B5F",
"O  c #D62B60",
"+  c #D72E62",
"@  c #D72F62",
"#  c #D73063",
"$  c #D73164",
"%  c #D83164",
"&  c #D83264",
"*  c #D83265",
"=  c #D83365",
"-  c #D83366",
";  c #D83466",
":  c #D83467",
">  c #D83567",
",  c #D83667",
"<  c #D83668",
"1  c #D93668",
"2  c #D93768",
"3  c #D93769",
"4  c #D93869",
"5  c #D9386A",
"6  c #D9396A",
"7  c #D93A6A",
"8  c #D93A6B",
"9  c #D93B6B",
"0  c #D93B6C",
"q  c #DA3C6C",
"w  c #DA3D6D",
"e  c #DA3E6D",
"r  c #DA3E6E",
"t  c #DA3F6E",
"y  c #DA3F6F",
"u  c #DA406F",
"i  c #DA4170",
"p  c #DB4170",
"a  c #DB4271",
"s  c #DB4371",
"d  c #DB4372",
"f  c #DB4472",
"g  c #DB4573",
"h  c #DB4673",
"j  c #DB4674",
"k  c #DC4674",
"l  c #DC4774",
"z  c #DC4775",
"x  c #DC4875",
"c  c #DC4876",
"v  c #DC4976",
"b  c #DC4B77",
"n  c #DC4B78",
"m  c #DD4B78",
"M  c #DD4C79",
"N  c #DD4D79",
"B  c #DD4E7A",
"V  c #DD4F7B",
"C  c #DD507B",
"Z  c #DD507C",
"A  c #DE507C",
"S  c #DE517C",
"D  c #DE527D",
"F  c #DE547E",
"G  c #DE557F",
"H  c #DE5680",
"J  c #DF5680",
"K  c #DF5780",
"L  c #DF5881",
"P  c #DF5882",
"I  c #DF5982",
"U  c #DF5A83",
"Y  c #DF5B83",
"T  c #E05C84",
"R  c #E05E86",
"E  c #E05F87",
"W  c #E06087",
"Q  c #E16188",
"!  c #E16289",
"~  c #E1638A",
"^  c #E1648A",
"/  c #E1658B",
"(  c #E2668C",
")  c #E2688D",
"_  c #E2698E",
"`  c #E26A8F",
"'  c #E36B8F",
"]  c #E36B90",
"[  c #E36D91",
"{  c #E36E92",
"}  c #E36F93",
"|  c #E47093",
" . c #E47194",
".. c #E47295",
"X. c #E47395",
"o. c #E47496",
"O. c #E47497",
"+. c #E47597",
"@. c #E57597",
"#. c #E57698",
"$. c #E57798",
"%. c #E57799",
"&. c #E57899",
"*. c #E5789A",
"=. c #E5799A",
"-. c #E67B9C",
";. c #E67C9D",
":. c #E67D9D",
">. c #E7809F",
",. c #E780A0",
"<. c #E781A0",
"1. c #E782A1",
"2. c #E783A2",
"3. c #E784A2",
"4. c #E784A3",
"5. c #E885A3",
"6. c #E887A4",
"7. c #E98CA8",
"8. c #E98DA9",
"9. c #E98EAA",
"0. c #E98FAB",
"q. c #EA8FAB",
"w. c #EA91AC",
"e. c #EA93AE",
"r. c #EA94AE",
"t. c #EB95AF",
"y. c #EB95B0",
"u. c #EC9AB3",
"i. c #EC9DB5",
"p. c #ED9FB7",
"a. c #EDA1B8",
"s. c #EDA2B9",
"d. c #EDA3BA",
"f. c #EEA5BB",
"g. c #EEA5BC",
"h. c #EEA6BC",
"j. c #EEA7BD",
"k. c #EEA8BE",
"l. c #EFAABF",
"z. c #EFABBF",
"x. c #EFABC0",
"c. c #EFACC0",
"v. c #EFADC2",
"b. c #EFAEC2",
"n. c #F0AEC2",
"m. c #F0B0C3",
"M. c #F0B0C4",
"N. c #F0B1C4",
"B. c #F0B2C5",
"V. c #F0B3C6",
"C. c #F1B4C6",
"Z. c #F1B4C7",
"A. c #F1B5C7",
"S. c #F1B5C8",
"D. c #F1B6C8",
"F. c #F1B7C9",
"G. c #F1B8C9",
"H. c #F1B9CA",
"J. c #F2B9CA",
"K. c #F2BACB",
"L. c #F2BCCC",
"P. c #F2BCCD",
"I. c #F2BDCD",
"U. c #F2BDCE",
"Y. c #F3BFCF",
"T. c #F3C0CF",
"R. c #F3C1D0",
"E. c #F3C3D2",
"W. c #F4C4D2",
"Q. c #F4C4D3",
"!. c #F4C5D3",
"~. c #F4C6D4",
"^. c #F4C8D5",
"/. c #F4C8D6",
"(. c #F5C8D6",
"). c #F5CBD8",
"_. c #F5CDD9",
"`. c #F6CEDA",
"'. c #F6CFDB",
"]. c #F6D0DC",
"[. c #F6D1DC",
"{. c #F7D4DE",
"}. c #F7D4DF",
"|. c #F7D8E2",
" X c #F8DCE5",
".X c #F9E0E8",
"XX c #F9E2E9",
"oX c #FAE3EA",
"OX c #FAE4EB",
"+X c #FAE5EB",
"@X c #FAE5EC",
"#X c #FAE6EC",
"$X c #FBE8EE",
"%X c #FBE9EE",
"&X c #FDF4F6",
"*X c #FDF4F7",
"=X c #FDF7F9",
"-X c #FEF8FA",
";X c #FEFCFD",
":X c white",
">X c None",
/* pixels */
">X>X>X>X>X>X>X>X>X>X>X>X>X>X>X>X>X>X>X>X>X>X>X>X>X>X>X>X>X>X>X>X>X>X>X>X>X>X>X>X>X>X>X>X>X",
">X>X>X>X>X>X>X>X>X>X>X>X>X>X>X>X>X>X>X>X>X>X>X>X>X>X>X>X>X>X>X>X>X>X>X>X>X>X>X>X>X>X>X>X>X",
">X>X>X>X>X>X>X>X>X>X>X>X>X>X>X>X>X>X>X>X>X>X>X>X>X>X>X>X>X>X>X>X>X>X>X>X>X>X>X>X>X>X>X>X>X",
">X>X>X>X>X>X>X>X>X>X>X>X>X>X6 6 6 6 6 6 6 6 6 6 6 6 6 6 6 6 6 6 6 6 6 6 6 >X>X>X>X>X>X>X>X",
">X>X>X>X>X>X>X>X>X>X>X>X>X6 6 6 6 6 6 6 6 6 6 6 6 6 6 6 6 6 6 6 6 < 6 < < >X>X>X>X>X>X>X>X",
">X>X>X>X>X>X>X>X>X6 6 6 6 6 6 6 6 6 6 6 6 6 6 6 6 6 6 6 6 6 6 < - $ - - : < 6 6 6 >X>X>X>X",
">X>X>X>X>X>X>X>X6 6 6 6 6 6 6 6 6 6 6 6 6 6 6 6 6 6 6 6 6 6 6 6 e e u e e 6 6 6 6 6 >X>X>X",
">X>X>X>X>X>X>X6 6 6 6 6 6 6 6 6 6 6 6 6 6 6 6 6 6 6 6 6 6 < e D ) O.&.O.^ n e < 6 6 6 >X>X",
">X>X>X>X>X>X6 6 6 6 6 6 6 6 6 6 6 6 6 6 6 6 6 6 6 6 6 6 < - a } g.E.`.T.p.^ e - < 6 6 6 6 ",
">X>X>X>X>X6 6 6 6 6 6 6 6 6 6 6 6 6 6 6 6 6 6 6 6 6 6 6 < - z 5.{.;X:X=XQ.&.u - 6 6 6 6 6 ",
">X>X>X>X6 6 6 6 6 6 6 6 6 6 6 6 6 6 : : - - - : < 6 6 6 < - z 6.{.:X:X;X/.&.u $ < 6 6 6 6 ",
">X>X>X6 6 6 6 6 6 6 6 6 6 6 6 6 6 6 6 < : < < 6 6 6 6 6 : - z 6.{.:X:X;X/.&.u - < 6 6 6 6 ",
">X>X>X6 6 6 6 6 6 6 6 6 6 6 6 6 6 e b P T W T V a 6 6 6 < - a &.K. X@X|.b.} e : 6 6 6 6 6 ",
">X>X>X6 6 6 6 6 6 6 6 6 6 6 6 < < z } u.n.M.d.1.D 6 : 6 6 < e T -.0.w.0.#.D e < 6 6 6 6 6 ",
">X>X>X6 6 6 6 6 6 6 6 6 6 6 6 : : V w.{.&X-XoXx.~ 6 - 6 6 6 6 u z b V b z e 6 6 6 6 6 6 6 ",
">X>X6 6 6 6 6 6 6 6 6 6 6 6 6 : : D u.oX:X:X&XD.( 6 - 6 6 6 6 < : - $ - : < 6 6 6 6 6 6 6 ",
"6 6 6 6 6 6 6 6 6 6 6 6 6 6 6 : : D u.oX:X:X&XD.) 6 - 6 6 6 6 < < : : : < 6 6 6 6 6 6 6 6 ",
"6 6 6 6 6 6 6 6 6 6 6 6 6 6 6 : : V w.{.&X-XoXl.^ 6 - 6 6 6 6 6 6 6 6 6 6 6 6 6 6 6 6 6 6 ",
"6 6 6 6 6 6 6 6 6 6 6 6 6 6 6 < : z | u.b.M.d.>.D 6 : 6 6 6 6 6 6 6 6 6 6 6 6 6 6 6 6 6 6 ",
"6 6 6 6 6 6 6 6 6 6 6 6 6 6 6 6 6 e b P T W T C a 6 6 6 6 6 6 6 6 6 6 6 6 6 6 6 6 6 6 6 6 ",
"6 6 6 6 6 6 6 6 6 6 6 6 6 6 6 6 6 6 6 < 6 < < 6 6 6 6 6 6 6 6 6 6 6 6 6 6 6 6 6 6 6 6 6 6 ",
"6 6 6 6 6 6 6 6 6 6 6 6 6 6 6 6 6 6 : - - - - : 6 6 6 6 6 6 6 6 6 6 6 6 6 6 6 6 6 6 6 6 6 ",
"6 6 6 6 6 6 6 6 6 6 6 6 6 6 6 6 6 6 6 6 6 6 6 6 6 6 6 6 6 6 6 6 6 6 6 6 6 6 6 6 6 6 6 6 6 ",
"6 6 6 6 6 6 6 6 6 6 6 6 6 6 6 6 6 6 6 6 6 6 6 6 6 6 < : : 6 6 6 6 6 < < : 6 6 6 6 6 6 6 6 ",
"6 6 6 6 6 6 6 6 6 6 6 6 6 6 6 6 6 6 6 6 6 6 6 6 6 < : : : < 6 6 6 6 : : : 6 6 6 6 6 6 6 6 ",
"6 6 6 6 6 6 6 6 6 6 6 6 6 6 6 6 6 6 6 6 6 6 6 6 6 e a b z u 6 6 < e a b z e 6 6 6 6 6 6 6 ",
"6 6 6 6 6 6 6 6 6 6 6 6 6 6 6 6 6 6 : : : < 6 < < h ( 3.-.P e : < z ) 3.&.K e : < 6 6 6 6 ",
"6 6 6 6 6 6 6 6 6 6 6 6 6 6 6 6 6 6 6 < < 6 6 : < D w.Q.A.O.u @ : G y.~.M. .e - 6 6 6 >X>X",
"6 6 6 6 6 6 6 6 6 6 6 6 6 6 6 6 6 e V P K z 6 $ : G g.OX{.>.e O : P x.@X`.:.e $ < 6 >X>X>X",
"6 6 6 6 6 6 6 6 6 6 6 6 6 6 6 < : b &.p.r.~ 6 X $ K f.OX`.:.e   - P x.@X`.&.6 @ < 6 >X>X>X",
"6 6 6 6 6 6 6 6 6 6 6 6 6 6 6 : - V r.`.Q.1.z - - G d.oX`.6.z # : P g.oX).>.h : 6 6 >X>X>X",
"6 6 6 6 6 6 6 6 6 6 6 6 6 6 6 : : n 1.A.K.u.#.P a V :.M.M.y.O.K a V 3.A.M.r. .P a 6 < >X>X",
"6 6 6 6 6 6 6 6 6 6 6 6 6 6 6 6 < a G | 0.b.D.w.P a C } 0.n.D.0.K a D } 0.n.D.0.D 6 - 6 6 ",
"6 6 6 6 6 6 6 6 6 6 6 6 6 6 6 6 6 6 : e } Y.OXK.) 6 @ e  .Y.OXA.^ < @ a #.Q.oXn.~ < - 6 6 ",
"6 6 6 6 6 6 6 6 6 6 6 6 6 6 6 6 6 6 @ - ~ K.$XY.] 6   - ) Y.$XK.( <   < } Q.$XA.~ : - 6 6 ",
"6 6 6 6 6 6 6 6 6 6 6 6 6 6 6 6 6 6 $ 6 ) L.$XY.) 6 X 6 } R.$XD.( 6 X 6  .~.$XM.~ < - 6 6 ",
"6 6 6 6 6 6 6 6 6 6 6 6 6 6 6 6 6 6 - 6 ~ d./.f.~ 6 @ 6 ^ l.~.d.T < @ e ) x./.p.P 6 : 6 6 ",
"6 6 6 6 6 6 6 6 6 6 6 6 6 6 6 6 6 6 : 6 V  .3. .V 6 - 6 D O.5. .V 6 - 6 G #.1.} b < < 6 6 ",
"6 6 6 6 6 6 6 6 6 6 6 6 6 6 6 6 6 6 6 6 e h b h e 6 < 6 e j b h e 6 6 6 e h b a e 6 6 6 6 ",
"6 6 6 6 6 6 6 6 6 6 6 6 6 6 6 6 6 6 6 6 < : - : 6 6 6 6 < : - : < 6 6 6 < : : : 6 6 6 6 6 ",
"6 6 6 6 6 6 6 6 6 6 6 6 6 6 6 6 6 6 6 6 6 < : < 6 6 6 6 < < < < 6 6 6 6 < < < < 6 6 6 6 6 ",
"6 6 6 6 6 6 6 6 6 6 6 6 6 6 6 6 6 6 6 6 6 6 6 6 6 6 6 6 6 6 6 6 6 6 6 6 6 6 6 6 6 6 6 6 6 ",
"6 6 6 6 6 6 6 6 6 6 6 6 6 6 6 6 6 6 6 6 6 6 6 6 6 6 6 6 6 6 6 6 6 6 6 6 6 6 6 6 6 6 6 6 6 ",
"6 6 6 6 6 6 6 6 6 6 6 6 6 6 6 6 6 6 6 6 6 6 6 6 6 6 6 6 6 6 6 6 6 6 6 6 6 6 6 6 6 6 6 6 6 ",
"6 6 6 6 6 6 6 6 6 6 6 6 6 6 6 6 6 6 6 6 6 6 6 6 6 6 6 6 6 6 6 6 6 6 6 6 6 6 6 6 6 6 6 6 6 ",
">X>X6 6 6 6 6 6 6 6 6 6 6 6 6 6 6 6 6 6 6 6 6 6 6 6 6 6 6 6 6 6 6 6 6 6 6 6 6 6 6 6 6 >X>X",
">X>X>X6 6 6 6 6 6 6 6 6 6 6 6 6 6 6 6 6 6 6 6 6 6 6 6 6 6 6 6 6 6 6 6 6 6 6 6 6 6 6 >X>X>X",
">X>X>X6 6 6 6 6 6 6 6 6 6 6 6 6 6 6 6 6 6 6 6 6 6 6 6 6 6 6 6 6 6 6 6 6 6 6 6 6 6 6 >X>X>X",
">X>X>X6 6 6 6 6 6 6 6 6 6 6 6 6 6 6 6 6 6 6 6 6 6 6 6 6 6 6 6 6 6 6 6 6 6 6 6 6 6 6 >X>X>X",
">X>X>X6 6 6 6 6 6 6 6 6 6 6 6 6 6 6 6 6 6 6 6 6 6 6 6 6 6 6 6 6 6 6 6 6 6 6 6 6 6 6 >X>X>X",
">X>X>X>X6 6 6 6 6 6 6 6 6 6 6 6 6 6 6 6 6 6 6 6 6 6 6 6 6 6 6 6 6 6 6 6 6 6 6 6 6 >X>X>X>X",
">X>X>X>X>X6 6 6 6 6 6 6 6 6 6 6 6 6 6 6 6 6 6 6 6 6 6 6 6 6 6 6 6 6 6 6 6 6 6 6 >X>X>X>X>X",
">X>X>X>X>X>X6 6 6 6 6 6 6 6 6 6 6 6 6 6 6 6 6 6 6 6 6 6 6 6 6 6 6 6 6 6 6 6 6 >X>X>X>X>X>X",
">X>X>X>X>X>X>X6 6 6 6 6 6 6 6 6 6 6 6 6 6 6 6 6 6 6 6 6 6 6 6 6 6 6 6 6 6 6 >X>X>X>X>X>X>X",
">X>X>X>X>X>X>X>X6 6 6 6 6 6 6 6 6 6 6 6 6 6 6 6 6 6 6 6 6 6 6 6 6 6 6 6 6 >X>X>X>X>X>X>X>X",
">X>X>X>X>X>X>X>X>X6 6 6 6 6 6 6 6 6 6 6 6 6 6 6 6 6 6 6 6 6 6 6 6 6 6 6 >X>X>X>X>X>X>X>X>X",
">X>X>X>X>X>X>X>X>X>X6 6 6 6 6 6 6 6 6 >X>X>X>X>X>X>X6 6 6 6 6 6 6 6 6 >X>X>X>X>X>X>X>X>X>X",
">X>X>X>X>X>X>X>X>X>X>X6 6 6 6 6 6 6 6 >X>X>X>X>X>X>X6 6 6 6 6 6 6 6 >X>X>X>X>X>X>X>X>X>X>X",
">X>X>X>X>X>X>X>X>X>X>X>X6 6 6 6 6 6 6 >X>X>X>X>X>X>X6 6 6 6 6 6 6 >X>X>X>X>X>X>X>X>X>X>X>X",
">X>X>X>X>X>X>X>X>X>X>X>X>X6 6 6 6 6 6 6 6 >X>X>X6 6 6 6 6 6 6 6 >X>X>X>X>X>X>X>X>X>X>X>X>X",
">X>X>X>X>X>X>X>X>X>X>X>X>X>X6 6 6 6 6 6 6 >X>X>X6 6 6 6 6 6 6 >X>X>X>X>X>X>X>X>X>X>X>X>X>X",
">X>X>X>X>X>X>X>X>X>X>X>X>X>X>X6 6 6 6 6 6 >X>X>X6 6 6 6 6 6 >X>X>X>X>X>X>X>X>X>X>X>X>X>X>X",
">X>X>X>X>X>X>X>X>X>X>X>X>X>X>X>X6 6 6 6 6 >X>X>X6 6 6 6 6 >X>X>X>X>X>X>X>X>X>X>X>X>X>X>X>X",
">X>X>X>X>X>X>X>X>X>X>X>X>X>X>X>X6 6 6 6 6 >X>X>X6 6 6 6 6 >X>X>X>X>X>X>X>X>X>X>X>X>X>X>X>X"
};
