/* XPM */
static char *monster_right_frame_1[] = {
/* columns rows colors chars-per-pixel */
"45 64 97 2 ",
"   c #D83164",
".  c #D83264",
"X  c #D83265",
"o  c #D83365",
"O  c #D83366",
"+  c #D83466",
"@  c #D83467",
"#  c #D83567",
"$  c #D83667",
"%  c #D83668",
"&  c #D93668",
"*  c #D93768",
"=  c #D93769",
"-  c #D93869",
";  c #D9386A",
":  c #D9396A",
">  c #D93A6A",
",  c #D93A6B",
"<  c #D93B6C",
"1  c #DA3C6C",
"2  c #DA3C6D",
"3  c #DA3D6D",
"4  c #DA3E6E",
"5  c #DA3F6E",
"6  c #DA3F6F",
"7  c #DA406F",
"8  c #DA4070",
"9  c #DA4170",
"0  c #DB4271",
"q  c #DB4472",
"w  c #DB4473",
"e  c #DB4573",
"r  c #DC4674",
"t  c #DC4775",
"y  c #DC4976",
"u  c #DC4A77",
"i  c #DD4C78",
"p  c #DD4D79",
"a  c #DE517C",
"s  c #DE527D",
"d  c #DE537E",
"f  c #DF5680",
"g  c #DF5A83",
"h  c #E05D85",
"j  c #E05E86",
"k  c #E05F86",
"l  c #E05F87",
"z  c #E16087",
"x  c #E16389",
"c  c #E1658B",
"v  c #E2678C",
"b  c #E2688D",
"n  c #E36C91",
"m  c #E36F93",
"M  c #E47194",
"N  c #E47396",
"B  c #E57799",
"V  c #E5799A",
"C  c #E67C9D",
"Z  c #E7809F",
"A  c #E783A1",
"S  c #E887A4",
"D  c #E888A5",
"F  c #E98AA7",
"G  c #EA90AC",
"H  c #EA91AC",
"J  c #EA92AD",
"K  c #EA94AE",
"L  c #EB97B1",
"P  c #EC9AB3",
"I  c #ED9FB7",
"U  c #EEA8BD",
"Y  c #EFABBF",
"T  c #F0B0C3",
"R  c #F0B1C4",
"E  c #F0B3C6",
"W  c #F1B6C8",
"Q  c #F2BBCC",
"!  c #F2BCCC",
"~  c #F4C4D2",
"^  c #F4C6D4",
"/  c #F4C8D5",
"(  c #F5C8D6",
")  c #F5CCD8",
"_  c #F6D1DD",
"`  c #F7D4DF",
"'  c #F9DFE7",
"]  c #F9E0E8",
"[  c #FAE3EA",
"{  c #FAE4EB",
"}  c #FBEAEF",
"|  c #FCEFF3",
" . c #FDF4F7",
".. c #FEF9FB",
"X. c #FEFCFD",
"o. c white",
"O. c None",
/* pixels */
"O.O.O.O.O.O.O.O.O.O.O.O.O.: : : : : : : : : : : : : : : : : : : : : : : : O.O.O.O.O.O.O.O.",
"O.O.O.O.O.O.O.O.O.O.O.O.O.: : : : : : : : : : : : : : : : : : : : : : : : O.O.O.O.O.O.O.O.",
"O.O.O.O.O.O.O.O.O.O.O.O.: : : : : : : : : : : : : : : : : : : * # O O O # # O.O.O.O.O.O.O.",
"O.O.O.O.O.O.O.O.: : : : : : : : : : : : : : : : : : : : : : : : * * # * * : : : : : O.O.O.",
"O.O.O.O.O.O.O.O.: : : : : : : : : : : : : : : : : : : : : * 3 r d l l h a e : : : : : O.O.",
"O.O.O.O.O.O.: : : : : : : : : : : : : : : : : : : : : : * # 9 v G Y T U F l 3 # : : : : : ",
"O.O.O.O.O.: : : : : : : : : : : : : : : : : : : : : : : * O e C ^ | ..} Q N 3 O * : : : : ",
"O.O.O.O.O.: : : : : : : : : : : : : * # # # # * * : : : # O r S ` o.o.o.( V 7 O * : : : : ",
"O.O.O.: : : : : : : : : : : : : : : * # O O # # * : : : # O r S ` o.o.o.( V 7 O * : : : : ",
"O.O.O.: : : : : : : : : : : : : : : 9 y p y y 9 3 : : : * O e Z ^ | ..} Q N 3 # * : : : : ",
"O.O.O.: : : : : : : : : : : : * * e x A G K D n p : # : * # 9 c G Y T U F l 3 # * : : : : ",
"O.O.O.: : : : : : : : : : : : # # p D ~ [ [ _ U z : O : : * < r d l l l a e : * : : : : : ",
"O.O.: : : : : : : : : : : : : # O a P [ o.o. .W b : O : : : : : * * * * * : : : : : : : : ",
": : : : : : : : : : : : : : : # # a P [ o.o. .W b : O : : : : * # O   O # * : : : : : : : ",
": : : : : : : : : : : : : : : O # a L ' o.o.| E v :   : : : : : : : : : : : : : : : : : : ",
": : : : : : : : : : : : : : : # * y C T ( ) Q G g : # * : : : : : : : : : : : : : : : : : ",
": : : : : : : : : : : : : : : : * 7 d n V V N l y : * : : : : : : : : : : : : : : : : : : ",
": : : : : : : : : : : : : : : : : : 3 3 3 3 3 3 : : : : : : : : : : : : : : : : : : : : : ",
": : : : : : : : : : : : : : : : : : # O     O # * : : : : : : : : : : : : : : : : : : : : ",
": : : : : : : : : : : : : : : : : : : * * * * : : : : : : : : : : : : : : : : : : : : : : ",
": : : : : : : : : : : : : : : : : : : : : : : : : : : : : : : : : : : : : : : : : : : : : ",
": : : : : : : : : : : : : : : : : : : : : : : : : : : : : : : : : : : : : : : : : : : : : ",
": : : : : : : : : : : : : : : : : : : : : : : : : : : : : : : : : : : : : : : : : : : : : ",
": : : : : : : : : : : : : : : : : : : : : : : : : : : : : : : : : : : : : : : : : : : : : ",
": : : : : : : : : : : : : : : : : : : : : : : : : : : O.O.: : : : : : O.O.: : : : : : O.O.",
": : : : : : : : : : : : : : : : : : : : : : : : : : O.O.O.: : : : : O.O.O.: : : : : O.O.O.",
": : : : : : : : : : : : : : : : : : : : : : : : : : O.O.O.: : : : : O.O.O.: : : : : O.O.O.",
": : : : : : : : : : : : : : : : : : : O.O.: : : : : O.O.O.: : : : : O.O.O.: : : : : O.O.O.",
": : : : : : : : : : : : : : : : : : O.O.O.O.: : : : O.O.O.: : : : : O.O.O.: : : : : O.O.O.",
": : : : : : : : : : : : : : : : : : O.O.O.O.O.O.O.O.O.O.O.O.O.O.O.O.O.O.O.O.O.O.O.O.O.O.O.",
": : : : : : : : : : : : : : : : : : : O.O.O.O.O.O.O.O.O.O.O.O.O.O.O.O.O.O.O.O.O.O.O.O.O.O.",
": : : : : : : : : : : : : : : : : : : O.O.O.O.O.O.O.O.O.O.O.O.O.O.O.O.O.O.O.O.O.O.O.O.O.O.",
": : : : : : : : : : : : : : : : : : : : : O.O.O.O.O.O.O.O.O.O.O.O.O.O.O.O.O.O.O.O.O.O.O.O.",
": : : : : : : : : : : : : : : : : : : : : O.O.O.O.O.O.O.O.O.O.O.O.O.O.O.O.O.O.O.O.O.O.O.O.",
": : : : : : : : : : : : : : : : : : : : : O.O.O.O.O.O.O.O.O.O.O.O.O.O.O.O.O.O.O.O.O.O.O.O.",
": : : : : : : : : : : : : : : : : : : : : O.O.O.: : : : : O.O.O.: : : : : O.O.O.: : : : : ",
": : : : : : : : : : : : : : : : : : : : : O.O.O.: : : : : O.O.O.: : : : : O.O.O.: : : : : ",
": : : : : : : : : : : : : : : : : : : : : O.O.O.: : : : : O.O.O.: : : : : O.O.O.: : : : : ",
": : : : : : : : : : : : : : : : : : : : : O.O.O.: : : : : O.O.O.: : : : : O.O.O.: : : : : ",
": : : : : : : : : : : : : : : : : : : : : : O.: : : : : : : O.: : : : : : : O.: : : : : : ",
": : : : : : : : : : : : : : : : : : : : : : : : : : : : : : : : : : : : : : : : : : : : : ",
": : : : : : : : : : : : : : : : : : : : : : : : : : : : : : : : : : : : : : : : : : : : : ",
": : : : : : : : : : : : : : : : : : : : : : : : : : : : : : : : : : : : : : : : : : : : : ",
": : : : : : : : : : : : : : : : : : : : : : : : : : : : : : : : : : : : : : : : : : : : : ",
": : : : : : : : : : : : : : : : : : : : : : : : : : : : : : : : : : : : : : : : : : : : : ",
": : : : : : : : : : : : : : : : : : : : : : : : : : : : : : : : : : : : : : : : : : : : : ",
": : : : : : : : : : : : : : : : : : : : : : : : : : : : : : : : : : : : : : : : : : : : : ",
": : : : : : : : : : : : : : : : : : : : : : : : : : : : : : : : : : : : : : : : : : : : : ",
"O.O.: : : : : : : : : : : : : : : : : : : : : : : : : : : : : : : : : : : : : : : : : O.O.",
"O.O.O.: : : : : : : : : : : : : : : : : : : : : : : : : : : : : : : : : : : : : : : O.O.O.",
"O.O.O.: : : : : : : : : : : : : : : : : : : : : : : : : : : : : : : : : : : : : : : O.O.O.",
"O.O.O.: : : : : : : : : : : : : : : : : : : : : : : : : : : : : : : : : : : : : : : O.O.O.",
"O.O.O.: : : : : : : : : : : : : : : : : : : : : : : : : : : : : : : : : : : : : : : O.O.O.",
"O.O.O.O.: : : : : : : : : : : : : : : : : : : : : : : : : : : : : : : : : : : : : O.O.O.O.",
"O.O.O.O.O.: : : : : : : : : : : : : : : : : : : : : : : : : : : : : : : : : : : O.O.O.O.O.",
"O.O.O.O.O.O.: : : : : : : : : : : : : : : : : : : : : : : : : : : : : : : : : O.O.O.O.O.O.",
"O.O.O.O.O.O.O.: : : : : : : : : : : : : : : : : : : : : : : : : : : : : : : O.O.O.O.O.O.O.",
"O.O.O.O.O.O.O.O.: : : : : : : : : : : : : : : : : : : : : : : : : : : : : O.O.O.O.O.O.O.O.",
"O.O.O.O.O.O.O.O.: : : : : : : : : : : : : : : : : : : : : : : : : : : : : O.O.O.O.O.O.O.O.",
"O.O.O.O.O.O.O.O.: : : : : : O.O.O.O.O.O.O.O.O.O.O.O.O.O.O.O.O.: : : : : : O.O.O.O.O.O.O.O.",
"O.O.O.O.O.O.O.O.: : : : : O.O.O.O.O.O.O.O.O.O.O.O.O.O.O.O.O.O.O.: : : : : O.O.O.O.O.O.O.O.",
"O.O.O.O.O.O.O.O.: : : : : O.O.O.O.O.O.O.O.O.O.O.O.O.O.O.O.O.O.O.: : : : : O.O.O.O.O.O.O.O.",
"O.O.O.O.O.O.O.O.: : : : : O.O.O.O.O.O.O.O.O.O.O.O.O.O.O.O.O.O.O.: : : : : O.O.O.O.O.O.O.O.",
"O.O.O.O.O.O.O.O.: : : : : O.O.O.O.O.O.O.O.O.O.O.O.O.O.O.O.O.O.O.: : : : : O.O.O.O.O.O.O.O."
};
