/* XPM */
static char *monster_right_frame_2[] = {
/* columns rows colors chars-per-pixel */
"45 64 105 2 ",
"   c #D73063",
".  c #D83164",
"X  c #D83264",
"o  c #D83265",
"O  c #D83365",
"+  c #D83366",
"@  c #D83466",
"#  c #D83467",
"$  c #D83567",
"%  c #D83667",
"&  c #D83668",
"*  c #D93668",
"=  c #D93768",
"-  c #D93769",
";  c #D93869",
":  c #D9386A",
">  c #D9396A",
",  c #D93A6A",
"<  c #D93A6B",
"1  c #D93B6C",
"2  c #DA3C6C",
"3  c #DA3C6D",
"4  c #DA3D6D",
"5  c #DA3E6E",
"6  c #DA3F6E",
"7  c #DA3F6F",
"8  c #DA406F",
"9  c #DA4070",
"0  c #DA4170",
"q  c #DB4271",
"w  c #DB4472",
"e  c #DB4473",
"r  c #DB4573",
"t  c #DC4674",
"y  c #DC4775",
"u  c #DC4976",
"i  c #DC4A77",
"p  c #DD4C78",
"a  c #DD4D79",
"s  c #DE517C",
"d  c #DE527D",
"f  c #DE537E",
"g  c #DF5680",
"h  c #DF5A83",
"j  c #DF5B83",
"k  c #E05D85",
"l  c #E05E86",
"z  c #E05F86",
"x  c #E05F87",
"c  c #E16087",
"v  c #E16389",
"b  c #E1658B",
"n  c #E2678C",
"m  c #E2688D",
"M  c #E36B8F",
"N  c #E36C91",
"B  c #E36F93",
"V  c #E47195",
"C  c #E47396",
"Z  c #E57799",
"A  c #E5799A",
"S  c #E67C9D",
"D  c #E7809F",
"F  c #E783A1",
"G  c #E887A4",
"H  c #E888A5",
"J  c #E98AA7",
"K  c #EA90AC",
"L  c #EA91AC",
"P  c #EA92AD",
"I  c #EA94AE",
"U  c #EB97B1",
"Y  c #EC9AB3",
"T  c #ED9FB7",
"R  c #EEA6BC",
"E  c #EEA8BD",
"W  c #EFAABF",
"Q  c #EFABBF",
"!  c #EFADC2",
"~  c #F0B0C3",
"^  c #F0B1C4",
"/  c #F0B3C6",
"(  c #F1B6C8",
")  c #F2BBCC",
"_  c #F2BCCC",
"`  c #F3BECE",
"'  c #F4C4D2",
"]  c #F4C6D4",
"[  c #F4C8D5",
"{  c #F5C8D6",
"}  c #F5CCD8",
"|  c #F6D1DD",
" . c #F7D4DF",
".. c #F9DFE7",
"X. c #F9E0E8",
"o. c #FAE3EA",
"O. c #FAE4EB",
"+. c #FBEAEF",
"@. c #FCEFF3",
"#. c #FDF4F7",
"$. c #FEF9FA",
"%. c #FEF9FB",
"&. c #FEFCFD",
"*. c white",
"=. c None",
/* pixels */
"=.=.=.=.=.=.=.=.=.=.=.=.=.> > > > > > > > > > > > > > > > > > > > > =.=.=.=.=.=.=.=.=.=.=.",
"=.=.=.=.=.=.=.=.=.=.=.=.=.> > > > > > > > > > > > > > > > > > > > > > =.=.=.=.=.=.=.=.=.=.",
"=.=.=.=.=.=.=.=.=.=.=.=.> > > > > > > > > > > > > > > > > > > = X X   =.=.=.=.=.=.=.=.=.=.",
"=.=.=.=.=.=.=.=.> > > > > > > > > > > > > > > > > > > > > > > > = = = = = =.=.=.=.=.=.=.=.",
"=.=.=.=.=.=.=.=.> > > > > > > > > > > > > > > > > > > > > = 4 y f x x x h =.=.=.=.=.=.=.=.",
"=.=.=.=.=.=.> > > > > > > > > > > > > > > > > > > > > > > @ 0 n L E ! R L N 8 X = =.=.=.=.",
"=.=.=.=.=.> > > > > > > > > > > > > > > > > > > > > > > @ X y S ] @.$.+._ Z 8 X = > =.=.=.",
"=.=.=.=.=.> > > > > > > > > > > > > > > > = @ = @ = = > = X y G  .*.*.*.{ A 0 X = > > =.=.",
"=.=.=.> > > > > > > > > > > > > > > > > = @ @ X X @ = > = X y G  .*.*.*.{ A 8 X > > > > > ",
"=.=.=.> > > > > > > > > > > > > > > > > 4 r u a a u 0 4 = X r D ] @.$.+.) C 8 X = > > > > ",
"=.=.=.> > > > > > > > > > > > > > > > > a N J I L F b 0 @ X 0 b L E ^ R H x 4 @ > > > > > ",
"=.=.=.> > > > > > > > > > > > > > > @ > x T | O.X.' H a @ @ > y g x x x f t > = > > > > > ",
"=.=.=.> > > > > > > > > > > > > > > X > m ( #.*.*.O.Y d @ @ > > > = = = > > > > > > > > > ",
"=.=.=.> > > > > > > > > > > > > > > X > m ( #.*.*.X.Y d @ @ > = @ X X X @ = > > > > > > > ",
"=.=.=.> > > > > > > > > > > > > > > X > n ^ @.*.*...U d @ @ > > > > > > > > > > > > > > > ",
"=.=.> > > > > > > > > > > > > > > > @ > h L _ } { ^ S u = @ > > > > > > > > > > > > > > > ",
"> > > > > > > > > > > > > > > > > > = > y x V A A N g 0 > = > > > > > > > > > > > > > > > ",
"> > > > > > > > > > > > > > > > > > > > > 4 4 4 8 4 1 > > > > > > > > > > > > > > > > > > ",
"> > > > > > > > > > > > > > > > > > > > > @ @ X X X @ > > > > > > > > > > > > > > > > > > ",
"> > > > > > > > > > > > > > > > > > > > > = > = = = > > > > > > > > > > > > > > > > > > > ",
"> > > > > > > > > > > > > > > > > > > > > > > > > > > > > > > > > > > > > > > > > > > > > ",
"> > > > > > > > > > > > > > > > > > > > > > > > > > > > > > > > > > > > > > > > > > > > > ",
"> > > > > > > > > > > > > > > > > > > > > > > > > > > > > > > > > > > > > > > > > > > > > ",
"> > > > > > > > > > > > > > > > > > > > > > > > > > > > > > > > > > > > > > > > > > > > > ",
"> > > > > > > > > > > > > > > > > > > > > > > > > > > > > > > > > > > =.=.> > > > > > =.=.",
"> > > > > > > > > > > > > > > > > > > > > > > > > > > > > > > > > > =.=.=.> > > > > =.=.=.",
"> > > > > > > > > > > > > > > > > > > > > > > > > > > > > > > > > > =.=.=.> > > > > =.=.=.",
"> > > > > > > > > > > > > > > > > > > =.=.> > > > > > =.=.> > > > > =.=.=.> > > > > =.=.=.",
"> > > > > > > > > > > > > > > > > > =.=.=.=.> > > > =.=.=.> > > > > =.=.=.> > > > > =.=.=.",
"> > > > > > > > > > > > > > > > > > =.=.=.=.=.=.=.=.=.=.=.=.=.=.=.=.=.=.=.=.=.=.=.=.=.=.=.",
"> > > > > > > > > > > > > > > > > > > =.=.=.=.=.=.=.=.=.=.=.=.=.=.=.=.=.=.=.=.=.=.=.=.=.=.",
"> > > > > > > > > > > > > > > > > > > =.=.=.=.=.=.=.=.=.=.=.=.=.=.=.=.=.=.=.=.=.=.=.=.=.=.",
"> > > > > > > > > > > > > > > > > > > =.=.=.=.=.=.=.=.=.=.=.=.=.=.=.=.=.=.=.=.=.=.=.=.=.=.",
"> > > > > > > > > > > > > > > > > > > =.=.=.=.=.=.=.=.=.=.=.=.=.=.=.=.=.=.=.=.=.=.=.=.=.=.",
"> > > > > > > > > > > > > > > > > > > > =.=.=.=.=.=.=.=.=.=.=.=.=.=.=.=.=.=.=.=.=.=.=.=.=.",
"> > > > > > > > > > > > > > > > > > > > > =.=.=.> > > > > =.=.=.> > > > > =.=.=.> > > > > ",
"> > > > > > > > > > > > > > > > > > > > > =.=.=.> > > > > =.=.=.> > > > > =.=.=.> > > > > ",
"> > > > > > > > > > > > > > > > > > > > > > > > > > > > > =.=.=.> > > > > =.=.=.> > > > > ",
"> > > > > > > > > > > > > > > > > > > > > > > > > > > > > =.=.=.> > > > > =.=.=.> > > > > ",
"> > > > > > > > > > > > > > > > > > > > > > > > > > > > > > =.> > > > > > > =.> > > > > > ",
"> > > > > > > > > > > > > > > > > > > > > > > > > > > > > > > > > > > > > > > > > > > > > ",
"> > > > > > > > > > > > > > > > > > > > > > > > > > > > > > > > > > > > > > > > > > > > > ",
"> > > > > > > > > > > > > > > > > > > > > > > > > > > > > > > > > > > > > > > > > > > > > ",
"> > > > > > > > > > > > > > > > > > > > > > > > > > > > > > > > > > > > > > > > > > > > > ",
"> > > > > > > > > > > > > > > > > > > > > > > > > > > > > > > > > > > > > > > > > > > > > ",
"> > > > > > > > > > > > > > > > > > > > > > > > > > > > > > > > > > > > > > > > > > > > > ",
"> > > > > > > > > > > > > > > > > > > > > > > > > > > > > > > > > > > > > > > > > > > > > ",
"> > > > > > > > > > > > > > > > > > > > > > > > > > > > > > > > > > > > > > > > > > > > > ",
"> > > > > > > > > > > > > > > > > > > > > > > > > > > > > > > > > > > > > > > > > > > > > ",
"> > > > > > > > > > > > > > > > > > > > > > > > > > > > > > > > > > > > > > > > > > > > > ",
"> > > > > > > > > > > > > > > > > > > > > > > > > > > > > > > > > > > > > > > > > > > > > ",
"=.=.> > > > > > > > > > > > > > > > > > > > > > > > > > > > > > > > > > > > > > > > > =.=.",
"=.=.=.> > > > > > > > > > > > > > > > > > > > > > > > > > > > > > > > > > > > > > > =.=.=.",
"=.=.=.=.> > > > > > > > > > > > > > > > > > > > > > > > > > > > > > > > > > > > > =.=.=.=.",
"=.=.=.=.=.> > > > > > > > > > > > > > > > > > > > > > > > > > > > > > > > > > > =.=.=.=.=.",
"=.=.=.=.=.=.> > > > > > > > > > > > > > > > > > > > > > > > > > > > > > > > > =.=.=.=.=.=.",
"=.=.=.=.=.=.=.> > > > > > > > > > > > > > > > > > > > > > > > > > > > > > > =.=.=.=.=.=.=.",
"=.=.=.=.=.=.=.=.> > > > > > > > > > > > > > > > > > > > > > > > > > > > > =.=.=.=.=.=.=.=.",
"=.=.=.=.=.=.=.=.> > > > > > > > > > > > > > > > > > > > > > > > > > > > > =.=.=.=.=.=.=.=.",
"=.=.=.=.=.=.=.=.> > > > > > > > =.=.=.=.=.=.=.=.=.=.=.=.=.=.=.> > > > > > =.=.=.=.=.=.=.=.",
"=.=.=.=.=.=.=.=.> > > > > > > > =.=.=.=.=.=.=.=.=.=.=.=.=.=.=.=.> > > > > =.=.=.=.=.=.=.=.",
"=.=.=.=.=.=.=.=.> > > > > > =.=.=.=.=.=.=.=.=.=.=.=.=.=.=.=.=.=.> > > > > =.=.=.=.=.=.=.=.",
"=.=.=.=.=.=.=.=.> > > > > =.=.=.=.=.=.=.=.=.=.=.=.=.=.=.=.=.=.=.> > > > > =.=.=.=.=.=.=.=.",
"=.=.=.=.=.=.=.=.> > > > > =.=.=.=.=.=.=.=.=.=.=.=.=.=.=.=.=.=.=.> > > > > =.=.=.=.=.=.=.=."
};
