/* XPM */
static char *pawn_frame_0[] = {
/* columns rows colors chars-per-pixel */
"64 64 12 1 ",
"  c #67251B",
". c #913426",
"X c #9F3929",
"o c #A63C2B",
"O c #AD3F2D",
"+ c #B3412E",
"@ c #BB4430",
"# c #C14632",
"$ c #C94934",
"% c #D74E37",
"& c #E5533B",
"* c None",
/* pixels */
"*****************************&&&&&&&&***************************",
"*****************************&&&&&&&&***************************",
"*****************************&&&&&&&&&**************************",
"************************&&&&&&&&&&&&&&&&&&&*********************",
"************************&&&&&&&&&&&&&&&&&&&*********************",
"**********************&&&&&&&&&&&&&&&&&&&&&&&*******************",
"*********************&&&&&&&&&&&&&&&&&&&&&&&&*******************",
"*********************&&&&&&&&&&&&&&&&&&&&&&&&*******************",
"*********************&&&&&&&&&&&&&&&&&&&&&&&&*******************",
"*********************&&&&&&&&&&&&&&&&&&&&&&&&*******************",
"*********************&&&&&&&&&&&&&&&&&&&&&&&&&******************",
"*******************&&&&&&&&&&&&&&&&&&&&&&&&&&&&&****************",
"*******************&&&&&&&&&&&&&&&&&&&&&&&&&&&&&****************",
"*******************&&&&&&&&&&&&&&&&&&&&&&&&&&&&&****************",
"*******************&&&&&&&&&&&&&&&&&&&&&&&&&&&&&****************",
"*******************&&&&&&&&&&&&&&&&&&&&&&&&&&&&&****************",
"*********************&&&&&&&&&&&&&&&&&&&&&&&&*******************",
"*********************&&&&&&&&&&&&&&&&&&&&&&&&*******************",
"*********************&&&&&&&&&&&&&&&&&&&&&&&&*******************",
"*********************&&&&&&&&&&&&&&&&&&&&&&&&*******************",
"*********************&&&&&&&&&&&&&&&&&&&&&&&&*******************",
"*********************...&&&&&&&&&&&&&&&&&&$..*******************",
"*********************   &&&&&&&&&&&&&&&&&&@  *******************",
"*********************   &&&&&&&&&&&&&&&&&&@  *******************",
"*********************&&&     @&&&&&&&.    .&&*******************",
"*********************&&&     @&&&&&&&.    .&&*******************",
"**********************&&.....O@@@@@@@X....o&&*******************",
"************************&&&&&.       @&&&&&*********************",
"************************&&&&&.       @&&&&&*********************",
"**************************+..O@@@@@@@X..************************",
"***************************  @&&&&&&&.  ************************",
"***************************  @&&&&&&&.  ************************",
"***************************&&.       @&&************************",
"***************************&&.       @&&************************",
"***************************&&O.......$&&************************",
"***************************&&&&&&&&&&&&&************************",
"***************************&&&&&&&&&&&&&************************",
"***************************&&&&&&&&&&&&&************************",
"***************************&&&&&&&&&&&&&************************",
"***************************&&&&&&&&&&&&&************************",
"************************&&&&&&&&&&&&&&&&&&&*********************",
"************************&&&&&&&&&&&&&&&&&&&*********************",
"************************&&&&&&&&&&&&&&&&&&&*********************",
"************************&&&&&&&&&&&&&&&&&&&*********************",
"************************&&&&&&&&&&&&&&&&&&&*********************",
"************************&&&&&&&&&&&&&&&&&&&*********************",
"************************&&&&&&&&&&&&&&&&&&&*********************",
"************************&&&&&&&&&&&&&&&&&&&*********************",
"*********************&&&&&&&&&&&&&&&&&&&&&&&&*******************",
"*********************&&&&&&&&&&&&&&&&&&&&&&&&*******************",
"*********************&&&&&&&&&&&&&&&&&&&&&&&&&******************",
"*******************&&&&&&&&&&&&&&&&&&&&&&&&&&&&&****************",
"*******************&&&&&&&&&&&&&&&&&&&&&&&&&&&&&****************",
"****************&&#..$&&&&&&&&&&&&&&&&&&&&&&&O..&&**************",
"****************&&@  @&&&&&&&&&&&&&&&&&&&&&&&.  &&&*************",
"****************&&@  @&&&&&&&&&&&&&&&&&&&&&&&.  &&&*************",
"****************&&&&&.    .&&&&&&&&&&&&&     @&&&&&*************",
"****************&&&&&.    .&&&&&&&&&&&&&     @&&&&&*************",
"****************&&&&&O....X@@@@@@@@@@@@@.....$&&&&**************",
"*******************&&&&&&&@             &&&&&&&&****************",
"*******************&&&&&&&@             &&&&&&&&****************",
"************************&&%@@@@@@@@@@@@@&&&*********************",
"************************&&&&&&&&&&&&&&&&&&&*********************",
"************************&&&&&&&&&&&&&&&&&&&*********************"
};
