/* XPM */
static char *pawn_frame_1[] = {
/* columns rows colors chars-per-pixel */
"64 64 12 1 ",
"  c #67251B",
". c #832F22",
"X c #913426",
"o c #9F3929",
"O c #A63C2B",
"+ c #AD3F2D",
"@ c #BB4430",
"# c #C14632",
"$ c #C94934",
"% c #D74E37",
"& c #E5533B",
"* c None",
/* pixels */
"***************************&&&&&&&&&&***************************",
"***************************&&&&&&&&&&***************************",
"**************************&&&&&&&&&&&&**************************",
"************************&&&&&&&&&&&&&&&&&&&*********************",
"************************&&&&&&&&&&&&&&&&&&&*********************",
"**********************&&&&&&&&&&&&&&&&&&&&&&&*******************",
"*********************&&&&&&&&&&&&&&&&&&&&&&&&*******************",
"*********************&&&&&&&&&&&&&&&&&&&&&&&&*******************",
"*********************&&&&&&&&&&&&&&&&&&&&&&&&*******************",
"*********************&&&&&&&&&&&&&&&&&&&&&&&&*******************",
"*********************&&&&&&&&&&&&&&&&&&&&&&&&&******************",
"*******************&&&&&&&&&&&&&&&&&&&&&&&&&&&&&****************",
"*******************&&&&&&&&&&&&&&&&&&&&&&&&&&&&&****************",
"*******************&&&&&&&&&&&&&&&&&&&&&&&&&&&&&****************",
"*******************&&&&&&&&&&&&&&&&&&&&&&&&&&&&&****************",
"*******************&&&&&&&&&&&&&&&&&&&&&&&&&&&&&****************",
"*******************&&&&&&&&&&&&&&&&&&&&&&&&&&&&&****************",
"*******************&&&&&&&&&&&&&&&&&&&&&&&&&&&&&****************",
"*******************&&&&&&&&&&&&&&&&&&&&&&&&&&&&&****************",
"*********************&&&&&&&&&&&&&&&&&&&&&&&&*******************",
"*********************&&&&&&&&&&&&&&&&&&&&&&&&*******************",
"*********************XXXXX+&&&&&&&&&&&&&&&$XX*******************",
"*********************     X&&&&&&&&&&&&&&&@  *******************",
"*********************     X&&&&&&&&&&&&&&&@  *******************",
"*********************&&&     @&&&&&&&X    X&&*******************",
"*********************&&&     @&&&&&&&X    X&&*******************",
"**********************&&XXXXX+@@@@@@@oXXXXO&&*******************",
"************************&&&&&X       @&&&&&*********************",
"************************&&&&&X       @&&&&&*********************",
"**************************&&&$@@@@@@@oXX************************",
"***************************&&&&&&&&&&X  ************************",
"***************************&&&&&&&&&&X  ************************",
"***************************&&X       @&&************************",
"***************************&&X       @&&************************",
"***************************&&+XXXXXXX$&&************************",
"***************************&&&&&&&&&&&&&************************",
"***************************&&&&&&&&&&&&&************************",
"***************************&&&&&&&&&&&&&************************",
"***************************&&&&&&&&&&&&&************************",
"***************************&&&&&&&&&&&&&************************",
"************************&&&&&&&&&&&&&&&&&&&*********************",
"************************&&&&&&&&&&&&&&&&&&&*********************",
"************************&&&&&&&&&&&&&&&&&&&*********************",
"************************&&&&&&&&&&&&&&&&&&&*********************",
"************************&&&&&&&&&&&&&&&&&&&*********************",
"**********************&&&&&&&&&&&&&&&&&&&&&*********************",
"*********************&&&&&&&&&&&&&&&&&&&&&&*********************",
"*********************&&&&&&&&&&&&&&&&&&&&&&*********************",
"*********************&&&&&&&&&&&&&&&&&&&&&&&&*******************",
"*********************&&&&&&&&&&&&&&&&&&&&&&&&*******************",
"*********************&&&&&&&&&&&&&&&&&&&&&&&&&******************",
"*******************&&&&&&&&&&&&&&&&&&&&&&&&&&&&&****************",
"*******************&&&&&&&&&&&&&&&&&&&&&&&&&&&&&****************",
"****************&&#XX$&&&&&&&&&&&&&&&&&&&&$XXXXX&&**************",
"****************&&@  @&&&&&&&&&&&&&&&&&&&&@     &&&*************",
"****************&&@  @&&&&&&&&&&&&&&&&&&&&@     &&&*************",
"****************&&&&&X    X&&&&&&&&&&X       @&&&&&*************",
"****************&&&&&X    X&&&&&&&&&&X       @&&&&&*************",
"****************&&&&&+XX  .@@@@@@@@@@oXXXXXXX$&&&&**************",
"*******************&&&&&             @&&&&&&&&&&****************",
"*******************&&&&&             @&&&&&&&&&&****************",
"************************@@@@@@@@@@@@@%&&&&&*********************",
"************************&&&&&&&&&&&&&&&&&&&*********************",
"************************&&&&&&&&&&&&&&&&&&&*********************"
};
