/* XPM */
static char *wall_north_plus_east_frame_02[] = {
/* columns rows colors chars-per-pixel */
"61 64 41 1 ",
"  c #13171E",
". c #14181F",
"X c #141820",
"o c #141920",
"O c #151921",
"+ c #151A22",
"@ c #161A22",
"# c #161A23",
"$ c #161B23",
"% c #171C24",
"& c #171C25",
"* c #181D26",
"= c #181D27",
"- c #191E27",
"; c #1A1F29",
": c #1A202A",
"> c #1B202A",
", c #1C212C",
"< c #1C222C",
"1 c #1D222D",
"2 c #1E242F",
"3 c #1E2530",
"4 c #1F2632",
"5 c #202633",
"6 c #202733",
"7 c #212834",
"8 c #212835",
"9 c #222835",
"0 c #222936",
"q c #232A38",
"w c #242B39",
"e c #252C3A",
"r c #252D3B",
"t c #272E3D",
"y c #272F3E",
"u c #282F3F",
"i c #28303F",
"p c #283040",
"a c #293140",
"s c #293141",
"d c None",
/* pixels */
"sssss;    ,ssssssssssssssssssssssssssssssssssssssssssO    9ss",
"sssss;    ,ssssssssssssssssssssssssssssssssssssssssss.    9ss",
"sssss;    ,ssssssssssssssssssssssssssssssssssssssssss.    ,99",
"sssss;    ,ssssssssssssssssssssssssssssssssssssssssss.       ",
"sssss;    ,ssssssssssssssssssssssssssssssssssssssssssO       ",
"sssss;    ,ssssssssssssssssssssssssssssssssssssssssss.       ",
"sssss;    ,ssssssssssssssssssssssssssssssssssssssssssO       ",
"sssss;    ,ssssssssssssssssssssssssssssssssssssssssss.       ",
"sssss;    ,sssssssssssssssssssssssssssssssssssssssssssssss:  ",
"sssss;    ,sssssssssssssssssssssssssssssssssssssssssssssss:  ",
"sssss;    -99yssssssssssssssssssssssssssssssssssssssssssss4;:",
"sssss;       qsssssssssssssssssssssssssssssssssssssssssssssss",
"sssss;       qsssssssssssssssssssssssssssssssssssssssssssssss",
"sssss;       qsssssssssssssssssssssssssssssssssssssssssssssss",
"sssss;       qsssssssssssssssssssssssssssssssssssssssssssssss",
"sssss;       qsssssssssssssssssssssssssssssssssssssssssssssss",
"sssss;       qsssssssssssssssssssssssssssssssssssssssssssssss",
"sssss;       qsssssssssssssssssssssssssssssssssssssssssssssss",
"sssss;       299sssssssssssssssssssssssssssssssssssssssssssss",
"sssss;         Osssssssssssssssssssssssssssssssssssssssssssss",
"sssss;         Osssssssssssssssssssssssssssssssssssssssssssss",
"sssssw97       .:::::::::::::::::::::::::::::::::::::::::::::",
"sssssssi                                                     ",
"sssssssi                                                     ",
"sssssssssssssssy                                             ",
"sssssssssssssssy                                             ",
"99999ysssssssssi:::::::::::::::::::::::::::::::::::::::::::::",
"     9sssssssssssssssssssssssssssssssssssssssssssssssssssssss",
"     9sssssssssssssssssssssssssssssssssssssssssssssssssssssss",
"     -:;::6ssssssssssssssssssssssssssssssssssssssssssssssssss",
"          ,ssssssssssssssssssssssssssssssssssssssssssssssssss",
"          ,ssssssssssssssssssssssssssssssssssssssssssssssssss",
"ss9                                                          ",
"ss9                                                          ",
"ssw::::;          &:::::::;::O    &;:::::::::::-       O;::::",
"sssssssi          ,ssssssssss%    4ssssssssssssq       ;sssss",
"sssssssi          ,ssssssssss%    4ssssssssssssq       ;sssss",
"ssssssss99,  29999essssssssss% O99essssssssssssy99-  99wsssss",
"ssssssssss6  qsssssssssssssss% %ssssssssssssssssss,  isssssss",
"ssssssssss6  qsssssssssssssss% &ssssssssssssssssss,  usssssss",
"  :sssssss6  qsssssssssssssss% &ssssssssssssssssss:  usssssss",
"  :sssssss6  qsssssssssssssss% &ssssssssssssssssss,  ssssssss",
"  -7999999,  2999999999999999O O999999999999999999-  79999999",
"                .                                .           ",
"                                                             ",
"9999999999999996     4999999999999999O       6999999999999999",
"sssssssssssssssy     wsssssssssssssssO.      ysssssssssssssss",
"sssssssssssssssy     wsssssssssssssssO.      ysssssssssssssss",
"ssssssssssssssssss4  wsssssssssssssssssw  4ssssssssssssssssss",
"ssssssssssssssssss4  wsssssssssssssssssw  4ssssssssssssssssss",
"99wsssssssssssssss4  wsssssssssssssssssw  4ssssssssssssssssss",
"  :sssssssssssssss4  wssssssssssssssssse  4ssssssssssssssssss",
"  :sssssssssssssss6  wsssssssssssssssssw  4ssssssssssssssssss",
"  O:::::::::::::::%  -:;:::::::::::::;:-  &::::::::::::::::::",
"    .                                                        ",
"                                                             ",
"sssssssi     wsssssssssssssss&    4ssssssssssssq     usssssss",
"sssssssu     9sssssssssssssssO    4ssssssssssssq     ssssssss",
"ssssssss::-  qsssssssssssssss& O::9ssssssssssssq  &:;ssssssss",
"ssssssssss6  qsssssssssssssss& %sssssssssssssssq  6ssssssssss",
"ssssssssss6  qsssssssssssssss% %sssssssssssssssq  6ssssssssss",
"ddssssssss6  -::sssssssssssss% %sssssssssssssssq  6ssssssssss",
"dddsssssss6   .Osssssssssssss% &sssssssssssssssq  6ssssssssss",
"dddsssssss7    Osssssssssssss% Osssssssssssssssq  6ssssssssss"
};
