/* XPM */
static char *wall_north_plus_east_frame_01[] = {
/* columns rows colors chars-per-pixel */
"61 64 42 1 ",
"  c #13171E",
". c #141820",
"X c #141920",
"o c #151921",
"O c #151A22",
"+ c #161A22",
"@ c #161A23",
"# c #161B23",
"$ c #171C24",
"% c #171C25",
"& c #181D26",
"* c #181D27",
"= c #191E27",
"- c #1A1F29",
"; c #1A202A",
": c #1B202A",
"> c #1B202B",
", c #1B212B",
"< c #1C212C",
"1 c #1C222C",
"2 c #1D222D",
"3 c #1D232E",
"4 c #1E242F",
"5 c #1E2530",
"6 c #1F2531",
"7 c #1F2632",
"8 c #202733",
"9 c #212834",
"0 c #212835",
"q c #222835",
"w c #222936",
"e c #232937",
"r c #232A38",
"t c #242B39",
"y c #252C3A",
"u c #252D3B",
"i c #272E3D",
"p c #272F3E",
"a c #28303F",
"s c #283040",
"d c #293141",
"f c None",
/* pixels */
"ddddd-    <ddddddddddddddddddddddddddddddddddddddddddO    qdd",
"ddddd-    <dddddddddddddddddddddddddddddddddddddddddd     qdd",
"ddddd-    <ddddddddddddddddddddddddddddddddddddddddddO    <qq",
"ddddd-    <dddddddddddddddddddddddddddddddddddddddddd        ",
"ddddd-    <dddddddddddddddddddddddddddddddddddddddddd O      ",
"ddddd-    <ddddddddddddddddddddddddddddddddddddddddddqq<     ",
"ddddd-    <ddddddddddddddddddddddddddddddddddddddddddddr     ",
"ddddd-    <ddddddddddddddddddddddddddddddddddddddddddddq     ",
"ddddd-    <ddddddddddddddddddddddddddddddddddddddddddddddd:  ",
"ddddd-    <ddddddddddddddddddddddddddddddddddddddddddddddd:  ",
"ddddd-    <ddddddddddddddddddddddddddddddddddddddddddddddd7-:",
"ddddd-    <dddddddddddddddddddddddddddddddddddddddddddddddddd",
"ddddd-    <dddddddddddddddddddddddddddddddddddddddddddddddddd",
"ddddd-    <dddddddddddddddddddddddddddddddddddddddddddddddddd",
"ddddd-    <dddddddddddddddddddddddddddddddddddddddddddddddddd",
"ddddd-    <dddddddddddddddddddddddddddddddddddddddddddddddddd",
"ddddd-       rddddddddddddddddddddddddddddddddddddddddddddddd",
"ddddd-       rddddddddddddddddddddddddddddddddddddddddddddddd",
"ddddd-       4qqqqydddddddddddddddddddddddddddddddddddddddddd",
"ddddd-            <dddddddddddddddddddddddddddddddddddddddddd",
"ddddd-            <dddddddddddddddddddddddddddddddddddddddddd",
"dddddtq9          O:::::-::::-:::::-:-:-:-::::-:-::::--:::-::",
"ddddddda                                                     ",
"ddddddda                                                     ",
"dddddddddd8                                                  ",
"dddddddddd8                                                  ",
"qqtdddddddr::-:-::::-::::::-:-:-:-::-:-:::-:-::-:--::::--::-:",
"  :dddddddddddddddddddddddddddddddddddddddddddddddddddddddddd",
"  :dddddddddddddddddddddddddddddddddddddddddddddddddddddddddd",
"  O:-:::ddddddddddddddddddddddddddddddddddddddddddddddddddddd",
"        ddddddddddddddddddddddddddddddddddddddddddddddddddddd",
"       Oddddddddddddddddddddddddddddddddddddddddddddddddddddd",
"ddq                                                          ",
"ddq                                                          ",
"ddt-:O       &:--::::--:-:$    O::-::::-:-:-::-&       O-::-:",
"ddddd-       tdddddddddddd4    $dddddddddddddddt       -ddddd",
"ddddd-       rdddddddddddd7    $dddddddddddddddr       -ddddd",
"dddddtqqqq<  rddddddddddddyqqO $dddddddddddddddpqq&  qqtddddd",
"dddddddddd8  rddddddddddddddd$ $dddddddddddddddddd<  addddddd",
"dddddddddd8  rddddddddddddddd$ %dddddddddddddddddd<  addddddd",
"dddddddddd8  rddddddddddddddd$    7ddddddddddddddd<  addddddd",
"dddddddddd8  rddddddddddddddd$    4ddddddddddddddd<  addddddd",
"qqqqqqqqqq<  4qqqqqqqqqqqqqqqO    :qqqqqqqqqqqqqqq&  9qqqqqqq",
"                                                             ",
"                                                             ",
"qqqqqqqqqqqqqqqqqq:  7qqqqqqqqqqqqqqqO       9qqqqqqqqqqqqqqq",
"dddddddddddddddddd7  tdddddddddddddddO       pddddddddddddddd",
"dddddddddddddddddd7  tdddddddddddddddO       pddddddddddddddd",
"dddddddddddddddddd7  tdddddddddddddddddt  7dddddddddddddddddd",
"dddddddddddddddddd7  tdddddddddddddddddt  7dddddddddddddddddd",
"qqqqqpdddddddddddd7  7qqdddddddddddddddt  7dddddddddddddddddd",
"     qdddddddddddd7    Odddddddddddddddy  7dddddddddddddddddd",
"     qdddddddddddd7    Odddddddddddddddy  7dddddddddddddddddd",
"     &-::-::::-:::%     :::--::::-:::--&  %:::-:::-::::--::-:",
"                                                             ",
"                                                             ",
"ddddd-       rddddddddddddddd%    7ddddddddddddr  8dddddddddd",
"ddddd-       rdddddddddddddddO    7ddddddddddddr  8dddddddddd",
"ddddd7--:-&  rddddddddddddddd$ O-:qddddddddddddt  8dddddddddd",
"fffddddddd8  rddddddddddddddd$ $dddddddddddddddq  8dddddddddd",
"fffddddddd8  rddddddddddddddd$ $dddddddddddddddt  8dddddddddd",
"fffddddddd8  &:<ddddddddddq--O $ddddddddddddd<-&  %:-addddddd",
"fffddddddd8    Odddddddddd7    $dddddddddddddO       addddddd",
"fffddddddd8    Odddddddddd7    OdddddddddddddO       dddddddd"
};
