/* XPM */
static char *wall_north_plus_east_frame_00[] = {
/* columns rows colors chars-per-pixel */
"61 64 40 1 ",
"  c #13171E",
". c #14181F",
"X c #141820",
"o c #141920",
"O c #151921",
"+ c #151A22",
"@ c #161A22",
"# c #161A23",
"$ c #171C24",
"% c #171C25",
"& c #181D26",
"* c #181D27",
"= c #191E27",
"- c #1A1F29",
"; c #1A202A",
": c #1B202A",
"> c #1B212B",
", c #1C212C",
"< c #1C222C",
"1 c #1E242F",
"2 c #1E2530",
"3 c #1F2531",
"4 c #1F2632",
"5 c #202632",
"6 c #202733",
"7 c #212834",
"8 c #212835",
"9 c #222835",
"0 c #222936",
"q c #232A38",
"w c #242B39",
"e c #252C3A",
"r c #252D3B",
"t c #262E3C",
"y c #272F3E",
"u c #28303F",
"i c #283040",
"p c #293140",
"a c #293141",
"s c None",
/* pixels */
"aaaaa-    ,aaaaaaaaaaaaaaaaaaaaaaaaaaaaaaaaaaaaaaaaaa.    8aa",
"aaaaa-    ,aaaaaaaaaaaaaaaaaaaaaaaaaaaaaaaaaaaaaaaaaa.    8aa",
"aaaaa-    ,aaaaaaaaaaaaaaaaaaaaaaaaaaaaaaaaaaaaaaaaaa     8aa",
"aaaaa-    ,aaaaaaaaaaaaaaaaaaaaaaaaaaaaaaaaaaaaaaaaaa@    8aa",
"aaaaa-    ,aaaaaaaaaaaaaaaaaaaaaaaaaaaaaaaaaaaaaaaaaa@    8aa",
"aaaaa-    ,aaaaaaaaaaaaaaaaaaaaaaaaaaaaaaaaaaaaaaaaaa     *-:",
"aaaaa-    ,aaaaaaaaaaaaaaaaaaaaaaaaaaaaaaaaaaaaaaaaaa.       ",
"aaaaa-    ,aaaaaaaaaaaaaaaaaaaaaaaaaaaaaaaaaaaaaaaaaa.       ",
"aaaaa-    ,aaaaaaaaaaaaaaaaaaaaaaaaaaaaaaaaaaaaaaaaaaaa8     ",
"aaaaa-    ,aaaaaaaaaaaaaaaaaaaaaaaaaaaaaaaaaaaaaaaaaaaa8     ",
"aaaaa-    ,aaaaaaaaaaaaaaaaaaaaaaaaaaaaaaaaaaaaaaaaaaaae-::-:",
"aaaaa-    ,aaaaaaaaaaaaaaaaaaaaaaaaaaaaaaaaaaaaaaaaaaaaaaaaaa",
"aaaaa-    ,aaaaaaaaaaaaaaaaaaaaaaaaaaaaaaaaaaaaaaaaaaaaaaaaaa",
"aaaaa-    ,aaaaaaaaaaaaaaaaaaaaaaaaaaaaaaaaaaaaaaaaaaaaaaaaaa",
"aaaaa-    ,aaaaaaaaaaaaaaaaaaaaaaaaaaaaaaaaaaaaaaaaaaaaaaaaaa",
"aaaaa-    ,aaaaaaaaaaaaaaaaaaaaaaaaaaaaaaaaaaaaaaaaaaaaaaaaaa",
"aaaaa-    ,aaaaaaaaaaaaaaaaaaaaaaaaaaaaaaaaaaaaaaaaaaaaaaaaaa",
"aaaaa-    ,aaaaaaaaaaaaaaaaaaaaaaaaaaaaaaaaaaaaaaaaaaaaaaaaaa",
"aaaaa-    *88yaaaaaaaaaaaaaaaaaaaaaaaaaaaaaaaaaaaaaaaaaaaaaaa",
"aaaaa-       waaaaaaaaaaaaaaaaaaaaaaaaaaaaaaaaaaaaaaaaaaaaaaa",
"aaaaa-       qaaaaaaaaaaaaaaaaaaaaaaaaaaaaaaaaaaaaaaaaaaaaaaa",
"aaaaaw87     *:--::-:-::::-:-::--:-:-::::::-:-:-::::-::::-::-",
"aaaaaaau                                        .            ",
"aaaaaaau                                                     ",
"aaaaaaaaaa8                                                  ",
"aaaaaaaaaa7                                                  ",
"88waaaaaaaq:::-::-::::-::--:::-:::-::::-:-:-::-::::--::::-::-",
"  :aaaaaaaaaaaaaaaaaaaaaaaaaaaaaaaaaaaaaaaaaaaaaaaaaaaaaaaaaa",
"  :aaaaaaaaaaaaaaaaaaaaaaaaaaaaaaaaaaaaaaaaaaaaaaaaaaaaaaaaaa",
"  @::eaaaaaaaaaaaaaaaaaaaaaaaaaaaaaaaaaaaaaaaaaaaaaaaaaaaaaaa",
"     8aaaaaaaaaaaaaaaaaaaaaaaaaaaaaaaaaaaaaaaaaaaaaaaaaaaaaaa",
"     8aaaaaaaaaaaaaaaaaaaaaaaaaaaaaaaaaaaaaaaaaaaaaaaaaaaaaaa",
"aa8                                                          ",
"aa8                                                          ",
"aaw-::--       .-::::-::-:$    @-::-:-::::::-::-::@    @-::-:",
"aaaaaaau       @aaaaaaaaaa1    $aaaaaaaaaaaaaaaaaa,    -aaaaa",
"aaaaaaaa .     @aaaaaaaaaa3    $aaaaaaaaaaaaaaaaaa,    -aaaaa",
"aaaaaaaa88,  388aaaaaaaaaae88@ $aaaaaaaaaaaaaaaaaa,  78waaaaa",
"aaaaaaaaaa7  8aaaaaaaaaaaaaaa$ $aaaaaaaaaaaaaaaaaa,  uaaaaaaa",
"aaaaaaaaaa5  waaaaaaaaaaaaaaa$ %aaaaaaaaaaaaaaaaaa,  uaaaaaaa",
"  :aaaaaaa8  qaaaaaaaaaaaaaaa%       yaaaaaaaaaaaa:  aaaaaaaa",
"  :aaaaaaa7  qaaaaaaaaaaaaaaa%       yaaaaaaaaaaaa,  aaaaaaaa",
"  *8888888,  1888888888888888@       5888878888888*  78888888",
"    .             . .  .  .           .       .  .          .",
" ... .  .. . . .        .. .      .           .  .  .. . . . ",
"888888888888888888:  3888888888888888883    .5888888888888888",
"aaaaaaaaaaaaaaaaaa5  eaaaaaaaaaaaaaaaaae     yaaaaaaaaaaaaaaa",
"aaaaaaaaaaaaaaaaaa5  eaaaaaaaaaaaaaaaaae     yaaaaaaaaaaaaaaa",
"aaaaaaaaaaaaaaaaaa5  eaaaaaaaaaaaaaaaaaw  5aaaaaaaaaaaaaaaaaa",
"aaaaaaaaaaaaaaaaaa3  waaaaaaaaaaaaaaaaaw  3aaaaaaaaaaaaaaaaaa",
"88eaaaaaaaaaaaaaaa3  waaaaaaaaaaaaaaaaaw  5aaaaaaaaaaaaaaaw88",
". :aaaaaaaaaaaaaaa5  waaaaaaaaaaaaaaaaaw  3aaaaaaaaaaaaaaa:  ",
"  :aaaaaaaaaaaaaaa5  waaaaaaaaaaaaaaaaaw  5aaaaaaaaaaaaaaa:  ",
"  @:-::::-::-:-:-:%  *:-:::--::::::-:-:*  %:::-:::::-:::::@  ",
"                                                             ",
"                                                             ",
"aaaaa-       qaaaaaaaaaaaa3    $aaaaaaaaaaaaaaaq     uaaaaaaa",
"aaaaa-       qaaaaaaaaaaaa3    $aaaaaaaaaaaaaaaq     uaaaaaaa",
"aaaaa3-::-*  qaaaaaaaaaaaa8::@ $aaaaaaaaaaaaaaaw  *--aaaaaaaa",
"aaaaaaaaaa5  qaaaaaaaaaaaaaaa@ $aaaaaaaaaaaaaaa8  5aaaaaaaaaa",
"aaaaaaaaaa5  qaaaaaaaaaaaaaaa$ $aaaaaaaaaaaaaaaq  5aaaaaaaaaa",
"ssaaaaaaaa7  *:,aaaaaaaaaaaaa$ $aaaaaaaaaaaaa::*  7aaaaaaaaaa",
"sssaaaaaaa5    @aaaaaaaaaaaaa$ $aaaaaaaaaaaaa@    5aaaaaaaaaa",
"sssaaaaaaa5    @aaaaaaaaaaaaa$ $aaaaaaaaaaaaa@    7aaaaaaaaaa"
};
