/* XPM */
static char *wall_north_plus_south_frame_02[] = {
/* columns rows colors chars-per-pixel */
"64 64 3 1 ",
"  c #13171E",
". c #1A202A",
"X c #293141",
/* pixels */
"XXXXX.    .XXXXXXXXXXXXXXXXXXXXXXXXXXXXXXXXXXXXXXXXXX.    .XXXXX",
"XXXXX.    .XXXXXXXXXXXXXXXXXXXXXXXXXXXXXXXXXXXXXXXXXX.    .XXXXX",
"XXXXX.    .XXXXXXXXXXXXXXXXXXXXXXXXXXXXXXXXXXXXXXXXXX.    .XXXXX",
"XXXXX.    .XXXXXXXXXXXXXXXXXXXXXXXXXXXXXXXXXXXXXXXXXX.    .XXXXX",
"XXXXX.    .XXXXXXXXXXXXXXXXXXXXXXXXXXXXXXXXXXXXXXXXXX.    .XXXXX",
"XXXXX.    .XXXXXXXXXXXXXXXXXXXXXXXXXXXXXXXXXXXXXXXXXX.    .XXXXX",
"XXXXX.    .XXXXXXXXXXXXXXXXXXXXXXXXXXXXXXXXXXXXXXXXXX.    .XXXXX",
"XXXXX.    .XXXXXXXXXXXXXXXXXXXXXXXXXXXXXXXXXXXXXXXXXX.    .XXXXX",
"XXXXX.    .XXXXXXXXXXXXXXXXXXXXXXXXXXXXXXXXXXXXXXXXXX.    .XXXXX",
"XXXXX.    .XXXXXXXXXXXXXXXXXXXXXXXXXXXXXXXXXXXXXXXXXX.    .XXXXX",
"XXXXX.    .XXXXXXXXXXXXXXXXXXXXXXXXXXXXXXXXXXXXXXXXXX.    .XXXXX",
"XXXXX.    .XXXXXXXXXXXXXXXXXXXXXXXXXXXXXXXXXXXXXXXXXX.    .XXXXX",
"XXXXX.    .XXXXXXXXXXXXXXXXXXXXXXXXXXXXXXXXXXXXXXXXXX.    .XXXXX",
"XXXXX.    .XXXXXXXXXXXXXXXXXXXXXXXXXXXXXXXXXXXXXXXXXX.    .XXXXX",
"XXXXX.    .XXXXXXXXXXXXXXXXXXXXXXXXXXXXXXXXXXXXXXXXXX.    .XXXXX",
"XXXXX.    .XXXXXXXXXXXXXXXXXXXXXXXXXXXXXXXXXXXXXXXXXX.    .XXXXX",
"XXXXX.    .XXXXXXXXXXXXXXXXXXXXXXXXXXXXXXXXXXXXXXXXXX.    .XXXXX",
"XXXXX.    .XXXXXXXXXXXXXXXXXXXXXXXXXXXXXXXXXXXXXXXXXX.    .XXXXX",
"XXXXX.    .XXXXXXXXXXXXXXXXXXXXXXXXXXXXXXXXXXXXXXXXXX.    .XXXXX",
"XXXXX.    .XXXXXXXXXXXXXXXXXXXXXXXXXXXXXXXXXXXXXXXXXX.    .XXXXX",
"XXXXX.    .XXXXXXXXXXXXXXXXXXXXXXXXXXXXXXXXXXXXXXXXXX.    .XXXXX",
"XXXXX.    .XXXXXXXXXXXXXXXXXXXXXXXXXXXXXXXXXXXXXXXXXX.    .XXXXX",
"XXXXX.    .XXXXXXXXXXXXXXXXXXXXXXXXXXXXXXXXXXXXXXXXXX.    .XXXXX",
"XXXXX.    .XXXXXXXXXXXXXXXXXXXXXXXXXXXXXXXXXXXXXXXXXX.    .XXXXX",
"XXXXX.    .XXXXXXXXXXXXXXXXXXXXXXXXXXXXXXXXXXXXXXXXXX.    .XXXXX",
"XXXXX.    .XXXXXXXXXXXXXXXXXXXXXXXXXXXXXXXXXXXXXXXXXX.    .XXXXX",
"XXXXX.    .XXXXXXXXXXXXXXXXXXXXXXXXXXXXXXXXXXXXXXXXXX.    .XXXXX",
"XXXXX.    .XXXXXXXXXXXXXXXXXXXXXXXXXXXXXXXXXXXXXXXXXX.    .XXXXX",
"XXXXX.    .XXXXXXXXXXXXXXXXXXXXXXXXXXXXXXXXXXXXXXXXXX.    .XXXXX",
"XXXXX.    .XXXXXXXXXXXXXXXXXXXXXXXXXXXXXXXXXXXXXXXXXX.    .XXXXX",
"XXXXX.    .XXXXXXXXXXXXXXXXXXXXXXXXXXXXXXXXXXXXXXXXXX.    .XXXXX",
"XXXXX.    .XXXXXXXXXXXXXXXXXXXXXXXXXXXXXXXXXXXXXXXXXX.    .XXXXX",
"XXXXX.    .XXXXXXXXXXXXXXXXXXXXXXXXXXXXXXXXXXXXXXXXXX.    .XXXXX",
"XXXXX.    .XXXXXXXXXXXXXXXXXXXXXXXXXXXXXXXXXXXXXXXXXX.    .XXXXX",
"XXXXX.    .XXXXXXXXXXXXXXXXXXXXXXXXXXXXXXXXXXXXXXXXXX.    .XXXXX",
"XXXXX.    .XXXXXXXXXXXXXXXXXXXXXXXXXXXXXXXXXXXXXXXXXX.    .XXXXX",
"XXXXX.    .XXXXXXXXXXXXXXXXXXXXXXXXXXXXXXXXXXXXXXXXXX.    .XXXXX",
"XXXXX.    .XXXXXXXXXXXXXXXXXXXXXXXXXXXXXXXXXXXXXXXXXX.    .XXXXX",
"XXXXX.    .XXXXXXXXXXXXXXXXXXXXXXXXXXXXXXXXXXXXXXXXXX.    .XXXXX",
"XXXXX.    .XXXXXXXXXXXXXXXXXXXXXXXXXXXXXXXXXXXXXXXXXX.    .XXXXX",
"XXXXX.    .XXXXXXXXXXXXXXXXXXXXXXXXXXXXXXXXXXXXXXXXXX.    .XXXXX",
"XXXXX.    .XXXXXXXXXXXXXXXXXXXXXXXXXXXXXXXXXXXXXXXXXX.    .XXXXX",
"XXXXX.    .XXXXXXXXXXXXXXXXXXXXXXXXXXXXXXXXXXXXXXXXXX.    .XXXXX",
"XXXXX.    .XXXXXXXXXXXXXXXXXXXXXXXXXXXXXXXXXXXXXXXXXX.    .XXXXX",
"XXXXX.    .XXXXXXXXXXXXXXXXXXXXXXXXXXXXXXXXXXXXXXXXXX.    .XXXXX",
"XXXXX.    .XXXXXXXXXXXXXXXXXXXXXXXXXXXXXXXXXXXXXXXXXX.    .XXXXX",
"XXXXX.    .XXXXXXXXXXXXXXXXXXXXXXXXXXXXXXXXXXXXXXXXXX.    .XXXXX",
"XXXXX.    .XXXXXXXXXXXXXXXXXXXXXXXXXXXXXXXXXXXXXXXXXX.    .XXXXX",
"XXXXX.    .XXXXXXXXXXXXXXXXXXXXXXXXXXXXXXXXXXXXXXXXXX.    .XXXXX",
"XXXXX.    .XXXXXXXXXXXXXXXXXXXXXXXXXXXXXXXXXXXXXXXXXX.    .XXXXX",
"XXXXX.    .XXXXXXXXXXXXXXXXXXXXXXXXXXXXXXXXXXXXXXXXXX.    .XXXXX",
"XXXXX.    .XXXXXXXXXXXXXXXXXXXXXXXXXXXXXXXXXXXXXXXXXX.    .XXXXX",
"XXXXX.    .XXXXXXXXXXXXXXXXXXXXXXXXXXXXXXXXXXXXXXXXXX.    .XXXXX",
"XXXXX.    .XXXXXXXXXXXXXXXXXXXXXXXXXXXXXXXXXXXXXXXXXX.    .XXXXX",
"XXXXX.    .XXXXXXXXXXXXXXXXXXXXXXXXXXXXXXXXXXXXXXXXXX.    .XXXXX",
"XXXXX.    .XXXXXXXXXXXXXXXXXXXXXXXXXXXXXXXXXXXXXXXXXX.    .XXXXX",
"XXXXX.    .XXXXXXXXXXXXXXXXXXXXXXXXXXXXXXXXXXXXXXXXXX.    .XXXXX",
"XXXXX.    .XXXXXXXXXXXXXXXXXXXXXXXXXXXXXXXXXXXXXXXXXX.    .XXXXX",
"XXXXX.    .XXXXXXXXXXXXXXXXXXXXXXXXXXXXXXXXXXXXXXXXXX.    .XXXXX",
"XXXXX.    .XXXXXXXXXXXXXXXXXXXXXXXXXXXXXXXXXXXXXXXXXX.    .XXXXX",
"XXXXX.    .XXXXXXXXXXXXXXXXXXXXXXXXXXXXXXXXXXXXXXXXXX.    .XXXXX",
"XXXXX.    .XXXXXXXXXXXXXXXXXXXXXXXXXXXXXXXXXXXXXXXXXX.    .XXXXX",
"XXXXX.    .XXXXXXXXXXXXXXXXXXXXXXXXXXXXXXXXXXXXXXXXXX.    .XXXXX",
"XXXXX.    .XXXXXXXXXXXXXXXXXXXXXXXXXXXXXXXXXXXXXXXXXX.    .XXXXX"
};
