/* XPM */
static char *e51368d9ee044ce5ad72172ae74d4494_2[] = {
/* columns rows colors chars-per-pixel */
"22 20 2 1 ",
"  c None",
". c #EB91CA",
/* pixels */
"                      ",
"                      ",
"    ......     .....  ",
"   ......... ........ ",
"  ....................",
" .....................",
" .....................",
" .....................",
" .....................",
"  ....................",
"  ................... ",
"   .................  ",
"    ................  ",
"     ..............   ",
"      ............    ",
"       ..........     ",
"        ........      ",
"         ......       ",
"         .....        ",
"          ...         "
};
