/* XPM */
static char *foliage_frame_0[] = {
/* columns rows colors chars-per-pixel */
"64 64 2 1 ",
"  c #503F24",
". c None",
/* pixels */
"................................................................",
"................................................................",
"................................................................",
"...................................  ...........................",
"...................................  ...........................",
"...........................          ...........................",
"...........................          ...........................",
"...........................          ...........................",
"...................          ...     ...........................",
"...................          ...     ...........................",
"..................           ...     ...........................",
".............           .....      .............................",
".............           .....      .............................",
"...........     ........           .............................",
"...........     ........           .............................",
"...........     ........           .............................",
".....                           ................................",
".....                           ................................",
".....                           ................................",
"...     .....              ................................  ...",
"...     .....              ................................  ...",
"........................................................     ...",
"........................................................     ...",
"........................................................     ...",
"...................................................        .....",
"...................................................        .....",
"...................................................        .....",
"...........................................        ..      .....",
"...........................................        ..      .....",
"......................................        .....     ........",
".....................................        ......     ........",
".....................................        ......     ........",
"................................     ........           ........",
"................................     ........           ........",
"................................      .......           ........",
".....   .....................                        ...........",
".....   .....................                        ...........",
".....   ..........................              ................",
".....   ...........................             ................",
".....   ...........................             ................",
".....      .....................................................",
".....      .....................................................",
"......     .....................................................",
"........             ...........................................",
"........             ...........................................",
"........      ..             ...................................",
"........     ...             ...................................",
"........     ...             ...................................",
"........        .....              .............................",
"........        .....              .............................",
"........        .....              .............................",
"...........          ...........        ........................",
"...........          ...........        ........................",
".............                         ..........................",
".............                        ...........................",
".............                        ...........................",
"...................          ...................................",
"...................          ...................................",
"...................          ...................................",
"................................................................",
"................................................................",
"................................................................",
"................................................................",
"................................................................"
};
