/* XPM */
static char *wall_south_frame_00[] = {
/* columns rows colors chars-per-pixel */
"64 64 11 1 ",
"  c #13171E",
". c #151A22",
"X c #181D26",
"o c #1A202A",
"O c #1D232E",
"+ c #1F2531",
"@ c #222835",
"# c #242B39",
"$ c #272E3D",
"% c #293141",
"& c None",
/* pixels */
"&&&&&%%%%%%%%%%%%%%%%%%%%%%%%%%%%%%%%%%%%%%%%%%%%%%%%%%%%%%&&&&&",
"&&&&&%%%%%%%%%%%%%%%%%%%%%%%%%%%%%%%%%%%%%%%%%%%%%%%%%%%%%%&&&&&",
"&&&&&%%%%%%%%%%%%%%%%%%%%%%%%%%%%%%%%%%%%%%%%%%%%%%%%%%%%%%&&&&&",
"&&&%%%%%%%%%%%%%%%%%%%%%%%%%%%%%%%%%%%%%%%%%%%%%%%%%%%%%%%%%%&&&",
"&&&%%%%%%%%%%%%%%%%%%%%%%%%%%%%%%%%%%%%%%%%%%%%%%%%%%%%%%%%%%&&&",
"%%%%%%%%%%%%%+ooooooooooooooooooooooooooooooooooooooo#%%%%%%%&&&",
"%%%%%%%%%%%%%o                                       @%%%%%%%&&&",
"%%%%%%%%%%%%%o                                       @%%%%%%%&&&",
"%%%%%%%%                                                %%%%%%%%",
"%%%%%%%%                                                %%%%%%%%",
"%%%%%%%%        oooooooooooooooooooooooooooooooo        @@#%%%%%",
"%%%%%%%%        %%%%%%%%%%%%%%%%%%%%%%%%%%%%%%%%          o%%%%%",
"%%%%%%%%        %%%%%%%%%%%%%%%%%%%%%%%%%%%%%%%%          o%%%%%",
"%%%%%+oo     O@@%%%%%%%%%%%%%%%%%%%%%%%%%%%%%%%%@@O       o%%%%%",
"%%%%%o       @%%%%%%%%%%%%%%%%%%%%%%%%%%%%%%%%%%%%@       o%%%%%",
"%%%%%o       @%%%%%%%%%%%%%%%%%%%%%%%%%%%%%%%%%%%%@       o%%%%%",
"%%%%%o       @%%%%%%%%%%%%%%%%%%%%%%%%%%%%%%%%%%%%@       o%%%%%",
"%%%%%o       @%%%%%%%%%%%%%%%%%%%%%%%%%%%%%%%%%%%%@       o%%%%%",
"%%%%%o    .oo#%%%%%%%%%%%%%%%%%%%%%%%%%%%%%%%%%%%%@       o%%%%%",
"%%%%%o    o%%%%%%%%%%%%%%%%%%%%%%%%%%%%%%%%%%%%%%%@       o%%%%%",
"%%%%%o    o%%%%%%%%%%%%%%%%%%%%%%%%%%%%%%%%%%%%%%%@       o%%%%%",
"%%%%%o    o%%%%%%%%%%%%%%%%%%%%%%%%%%%%%%%%%%%%%%%$@@X    o%%%%%",
"%%%%%o    o%%%%%%%%%%%%%%%%%%%%%%%%%%%%%%%%%%%%%%%%%%o    o%%%%%",
"%%%%%o    o%%%%%%%%%%%%%%%%%%%%%%%%%%%%%%%%%%%%%%%%%%o    o%%%%%",
"%%%%%o    o%%%%%%%%%%%%%%%%%%%%%%%%%%%%%%%%%%%%%%%%%%o    o%%%%%",
"%%%%%o    o%%%%%%%%%%%%%%%%%%%%%%%%%%%%%%%%%%%%%%%%%%o    o%%%%%",
"%%%%%o    o%%%%%%%%%%%%%%%%%%%%%%%%%%%%%%%%%%%%%%%%%%o    o%%%%%",
"%%%%%o    o%%%%%%%%%%%%%%%%%%%%%%%%%%%%%%%%%%%%%%%%%%o    o%%%%%",
"%%%%%o    o%%%%%%%%%%%%%%%%%%%%%%%%%%%%%%%%%%%%%%%%%%o    o%%%%%",
"%%%%%o    o%%%%%%%%%%%%%%%%%%%%%%%%%%%%%%%%%%%%%%%%%%o    o%%%%%",
"%%%%%o    o%%%%%%%%%%%%%%%%%%%%%%%%%%%%%%%%%%%%%%%%%%o    o%%%%%",
"%%%%%o    o%%%%%%%%%%%%%%%%%%%%%%%%%%%%%%%%%%%%%%%%%%o    o%%%%%",
"%%%%%o    o%%%%%%%%%%%%%%%%%%%%%%%%%%%%%%%%%%%%%%%%%%o    o%%%%%",
"%%%%%o    o%%%%%%%%%%%%%%%%%%%%%%%%%%%%%%%%%%%%%%%%%%o    o%%%%%",
"%%%%%o    o%%%%%%%%%%%%%%%%%%%%%%%%%%%%%%%%%%%%%%%%%%o    o%%%%%",
"%%%%%o    o%%%%%%%%%%%%%%%%%%%%%%%%%%%%%%%%%%%%%%%%%%o    o%%%%%",
"%%%%%o    o%%%%%%%%%%%%%%%%%%%%%%%%%%%%%%%%%%%%%%%%%%o    o%%%%%",
"%%%%%o    o%%%%%%%%%%%%%%%%%%%%%%%%%%%%%%%%%%%%%%%%%%o    o%%%%%",
"%%%%%o    o%%%%%%%%%%%%%%%%%%%%%%%%%%%%%%%%%%%%%%%%%%o    o%%%%%",
"%%%%%o    o%%%%%%%%%%%%%%%%%%%%%%%%%%%%%%%%%%%%%%%%%%o    o%%%%%",
"%%%%%o    o%%%%%%%%%%%%%%%%%%%%%%%%%%%%%%%%%%%%%%%%%%o    o%%%%%",
"%%%%%o    o%%%%%%%%%%%%%%%%%%%%%%%%%%%%%%%%%%%%%%%%%%o    o%%%%%",
"%%%%%o    o%%%%%%%%%%%%%%%%%%%%%%%%%%%%%%%%%%%%%%%%%%o    o%%%%%",
"%%%%%o    o%%%%%%%%%%%%%%%%%%%%%%%%%%%%%%%%%%%%%%%%%%o    o%%%%%",
"%%%%%o    o%%%%%%%%%%%%%%%%%%%%%%%%%%%%%%%%%%%%%%%%%%o    o%%%%%",
"%%%%%o    o%%%%%%%%%%%%%%%%%%%%%%%%%%%%%%%%%%%%%%%%%%o    o%%%%%",
"%%%%%o    o%%%%%%%%%%%%%%%%%%%%%%%%%%%%%%%%%%%%%%%%%%o    o%%%%%",
"%%%%%o    o%%%%%%%%%%%%%%%%%%%%%%%%%%%%%%%%%%%%%%%%%%o    o%%%%%",
"%%%%%o    o%%%%%%%%%%%%%%%%%%%%%%%%%%%%%%%%%%%%%%%%%%o    o%%%%%",
"%%%%%o    o%%%%%%%%%%%%%%%%%%%%%%%%%%%%%%%%%%%%%%%%%%o    o%%%%%",
"%%%%%o    o%%%%%%%%%%%%%%%%%%%%%%%%%%%%%%%%%%%%%%%%%%o    o%%%%%",
"%%%%%o    o%%%%%%%%%%%%%%%%%%%%%%%%%%%%%%%%%%%%%%%%%%o    o%%%%%",
"%%%%%o    o%%%%%%%%%%%%%%%%%%%%%%%%%%%%%%%%%%%%%%%%%%o    o%%%%%",
"%%%%%o    o%%%%%%%%%%%%%%%%%%%%%%%%%%%%%%%%%%%%%%%%%%o    o%%%%%",
"%%%%%o    o%%%%%%%%%%%%%%%%%%%%%%%%%%%%%%%%%%%%%%%%%%o    o%%%%%",
"%%%%%o    o%%%%%%%%%%%%%%%%%%%%%%%%%%%%%%%%%%%%%%%%%%o    o%%%%%",
"%%%%%o    o%%%%%%%%%%%%%%%%%%%%%%%%%%%%%%%%%%%%%%%%%%o    o%%%%%",
"%%%%%o    o%%%%%%%%%%%%%%%%%%%%%%%%%%%%%%%%%%%%%%%%%%o    o%%%%%",
"%%%%%o    o%%%%%%%%%%%%%%%%%%%%%%%%%%%%%%%%%%%%%%%%%%o    o%%%%%",
"%%%%%o    o%%%%%%%%%%%%%%%%%%%%%%%%%%%%%%%%%%%%%%%%%%o    o%%%%%",
"%%%%%o    o%%%%%%%%%%%%%%%%%%%%%%%%%%%%%%%%%%%%%%%%%%o    o%%%%%",
"%%%%%o    o%%%%%%%%%%%%%%%%%%%%%%%%%%%%%%%%%%%%%%%%%%o    o%%%%%",
"%%%%%o    o%%%%%%%%%%%%%%%%%%%%%%%%%%%%%%%%%%%%%%%%%%o    o%%%%%",
"%%%%%o    o%%%%%%%%%%%%%%%%%%%%%%%%%%%%%%%%%%%%%%%%%%o    o%%%%%"
};
