/* XPM */
static char *keke_right_frame_1[] = {
/* columns rows colors chars-per-pixel */
"40 64 9 1 ",
"  c red",
". c #EC1208",
"X c #D92511",
"o c #C63719",
"O c #B34921",
"+ c #8D6E32",
"@ c #679343",
"# c #54A54B",
"$ c None",
/* pixels */
"$$$$$$$$$$$                  $$$$$$$$$$$",
"$$$$$$$$$$$                  $$$$$$$$$$$",
"$$$$$$$$$$                    $$$$$$$$$$",
"$$$$$$$$                        $$$$$$$$",
"$$$$$$$$                        $$$$$$$$",
"$$$$$$                            $$$$$$",
"$$$$$                              $$$$$",
"$$$$$                              $$$$$",
"$$$                                  $$$",
"$$$                                  $$$",
"$$$                     oooooooo     $$$",
"$$$                     ########     $$$",
"$$$                     ########     $$$",
"$$$                  O++########        ",
"$$$                  +##########        ",
"$$$                  +##########        ",
"                     +##########        ",
"                     +##########        ",
"                     O++########        ",
"                        ########        ",
"                        ########        ",
"                        oooooooo        ",
"                                        ",
"                                        ",
"                                        ",
"                                        ",
"        ooooo.                          ",
"        #####o                          ",
"        #####o                          ",
"     O++#####o                          ",
"     +#######o                          ",
"     +#######o                          ",
"     +####+                             ",
"     +####+                             ",
"     +####+                             ",
"     +####+                             ",
"     +####+                             ",
"     +####@++X                        $$",
"     +#######o                       $$$",
"     +#######o                       $$$",
"        ########                     $$$",
"        ########                     $$$",
"        ########                     $$$",
"        ########                   $$$$$",
"        ########                   $$$$$",
"$$      oooooooo                   $$$$$",
"$$$                                $$$$$",
"$$$                                $$$$$",
"$$$$$                           $$$$$$$$",
"$$$$$                           $$$$$$$$",
"$$$$$$                          $$$$$$$$",
"$$$$$$$$                   $$$$$$$$$$$$$",
"$$$$$$$$                   $$$$$$$$$$$$$",
"$$$$$$$$$$      $$$$$$$$$$$$$$$$$$$$$$$$",
"$$$$$$$$$$$     $$$$$$$$$$$$$$$$$$$$$$$$",
"$$$$$$$$$$$     $$$$$$$$$$$$$$$$$$$$$$$$",
"$$$$$$$$$$$     $$$$$$$$$$$$$$$$$$$$$$$$",
"$$$$$$$$$$$     $$$$$$$$$$$$$$$$$$$$$$$$",
"$$$$$$$$$$$     $$$$$$$$$$$$$$$$$$$$$$$$",
"$$$$$$$$$$$             $$$$$$$$$$$$$$$$",
"$$$$$$$$$$$             $$$$$$$$$$$$$$$$",
"$$$$$$$$$$$             $$$$$$$$$$$$$$$$",
"$$$$$$$$$$$             $$$$$$$$$$$$$$$$",
"$$$$$$$$$$$             $$$$$$$$$$$$$$$$"
};
