/* XPM */
static char *keke_right_frame_move_1[] = {
/* columns rows colors chars-per-pixel */
"42 64 39 1 ",
"  c #7C7E39",
". c red",
"X c #F30B05",
"o c #F60904",
"O c #F20D06",
"+ c #F00E07",
"@ c #ED1108",
"# c #E9160A",
"$ c #E41A0C",
"% c #E11D0D",
"& c #DD210F",
"* c #CE2F16",
"= c #DB2210",
"- c #D22B14",
"; c #C13C1B",
": c #BB421E",
"> c #BC411D",
", c #9D5F2B",
"< c #AD4F24",
"1 c #A65627",
"2 c #AC5025",
"3 c #97642E",
"4 c #98632D",
"5 c #9A622C",
"6 c #8F6C31",
"7 c #8D6E32",
"8 c #887334",
"9 c #817A37",
"0 c #73873D",
"q c #76843C",
"w c #78833B",
"e c #72883E",
"r c #5B9E48",
"t c #6A8F41",
"y c #669443",
"u c #609A46",
"i c #55A44A",
"p c #54A54B",
"a c None",
/* pixels */
"aaaaaaaaaaa....................aaaaaaaaaaa",
"aaaaaaaaaaa....................aaaaaaaaaaa",
"aaaaaaaaaaa....................aaaaaaaaaaa",
"aaaaaaaa..........................aaaaaaaa",
"aaaaaaaa..........................aaaaaaaa",
"aaaaaaaa..........................aaaaaaaa",
"aaaaaa..............................aaaaaa",
"aaaaaa..............................aaaaaa",
"aaa....................................aaa",
"aaa....................................aaa",
"aaa....................................aaa",
"aaa......................8ttttttt1.....aaa",
"aaa......................qppppppp4.....aaa",
"aaa...................o++0ppppppp4.....aaa",
"aaa...................4pppppppppp4........",
"aaa...................4pppppppppp4........",
"aaa...................4pppppppppp4........",
"......................4pppppppppp4........",
"......................4pppppppppp4........",
"......................*<<yppppppp4........",
".........................qppppppp4........",
".........................qppppppp4........",
".........................=-------$........",
"..........................................",
"..........................................",
"..........................................",
"..........................................",
"..........................................",
"..........................................",
"..........................................",
".....$>>>>>>>>............................",
".....:pppppppp............................",
".....:pppppppp............................",
".....:pppppppp........;33333332...........",
".....:pppppppp........4pppppppq...........",
".....:pppppppp........4pppppppq...........",
".....X%%6pppppeeeeeeeeupppppppq...........",
"........3pppppppppppppppppppppq...........",
"........,rrppppppppppppppppprr ...........",
"...........qpppppppppppppppp...........aaa",
"...........wpppppppppppppppp...........aaa",
"...........499pppppppppppw99...........aaa",
"..............ppppppppppp&.............aaa",
"..............ppppppppppp&.............aaa",
"..............11111111111@.............aaa",
"....................................aaaaaa",
"....................................aaaaaa",
"aaa.................................aaaaaa",
"aaa.................................aaaaaa",
"aaa.................................aaaaaa",
"aaaaaa............................aaaaaaaa",
"aaaaaa............................aaaaaaaa",
"aaaaaa................+#####......aaaaaaaa",
"aaa...................4ppppp........aaaaaa",
"aaa...................4ppppp........aaaaaa",
"aaa...................>66666........aaaaaa",
"aaa........aaa......................aaaaaa",
"aaa........aaa......................aaaaaa",
"aaa...........aaaaa...............aaaaaaaa",
"aaa...........aaaaaa..............aaaaaaaa",
"aaa...........aaaaaa..............aaaaaaaa",
"aaaaa.........aaaaaaaa.........aaaaaaaaaaa",
"aaaaaa........aaaaaaaa.........aaaaaaaaaaa",
"aaaaaa........aaaaaaaa.........aaaaaaaaaaa"
};
