/* XPM */
static char *wall_south_plus_west_plus_east_frame_01[] = {
/* columns rows colors chars-per-pixel */
"64 64 8 1 ",
"  c #13171E",
". c #181D26",
"X c #1A202A",
"o c #1F2531",
"O c #222835",
"+ c #242B39",
"@ c #272E3D",
"# c #293141",
/* pixels */
"################################################################",
"################################################################",
"################################################################",
"################################################################",
"################################################################",
"XXXXXXXXXXXXXXXXXXXXXXXXXXXXXXXXXXXXXXXXXXXXXXXXXXXXXXXXXXXXXXXX",
"                                                                ",
"                                                                ",
"                                                                ",
"                                                                ",
"XXXXXXXXXXXXXXXXXXXXXXXXXXXXXXXXXXXXXXXXXXXXXXXXXXXXXXXXXXXXXXXX",
"################################################################",
"################################################################",
"################################################################",
"################################################################",
"################################################################",
"################################################################",
"################################################################",
"################################################################",
"################################################################",
"################################################################",
"XXXXXXXX#####################################################oXX",
"        #####################################################X  ",
"        #####################################################X  ",
"        ################################################        ",
"        ################################################        ",
"XX.     OO+##########################################+OO     .XX",
"##O       X##########################################X       O##",
"##O       X##########################################X       O##",
"##@OO.    X##########################################X    .OO@##",
"#####X    X##########################################X    X#####",
"#####X    X##########################################X    X#####",
"#####X    X##########################################X    X#####",
"#####X    X##########################################X    X#####",
"#####X    X##########################################X    X#####",
"#####X    X##########################################X    X#####",
"#####X    X##########################################X    X#####",
"#####X    X##########################################X    X#####",
"#####X    X##########################################X    X#####",
"#####X    X##########################################X    X#####",
"#####X    X##########################################X    X#####",
"#####X    X##########################################X    X#####",
"#####X    X##########################################X    X#####",
"#####X    X##########################################X    X#####",
"#####X    X##########################################X    X#####",
"#####X    X##########################################X    X#####",
"#####X    X##########################################X    X#####",
"#####X    X##########################################X    X#####",
"#####X    X##########################################X    X#####",
"#####X    X##########################################X    X#####",
"#####X    X##########################################X    X#####",
"#####X    X##########################################X    X#####",
"#####X    X##########################################X    X#####",
"#####X    X##########################################X    X#####",
"#####X    X##########################################X    X#####",
"#####X    X##########################################X    X#####",
"#####X    X##########################################X    X#####",
"#####X    X##########################################X    X#####",
"#####X    X##########################################X    X#####",
"#####X    X##########################################X    X#####",
"#####X    X##########################################X    X#####",
"#####X    X##########################################X    X#####",
"#####X    X##########################################X    X#####",
"#####X    X##########################################X    X#####"
};
