/* XPM */
static char *daefbc2bd1cc4789abe2e6829bdd5fc9_0[] = {
/* columns rows colors chars-per-pixel */
"24 24 2 1 ",
"  c None",
". c #EDE285",
/* pixels */
"                        ",
"        ..              ",
"        .. ....       . ",
"       ... .......  ... ",
"       ..  ...........  ",
"       ..  ...........  ",
"       .. ............  ",
"      ... ............  ",
"      ... ...........   ",
"      ..  ...........   ",
"      .. ............   ",
"      .. .   .......    ",
"      ..        ..      ",
"     ...                ",
"     ..                 ",
"     ..                 ",
"     ..                 ",
"    ...                 ",
"    ..                  ",
"    ..                  ",
"   .......              ",
"  ........              ",
"                        ",
"                        "
};
