/* XPM */
static char *door_open_frame_1[] = {
/* columns rows colors chars-per-pixel */
"64 64 2 1 ",
"  c None",
"& c #00FF00",
/* pixels */
"                &&&&&&&&&&&&&&&&&&&&&&&&&&&                     ",
"                &&&&&&&&&&&&&&&&&&&&&&&&&&&                     ",
"                &&&&&&&&&&&&&&&&&&&&&&&&&&&                     ",
"             &&&&&&&&&&&&&&&&&&&&&&&&&&&&&&&&&&&                ",
"             &&&&&&&&&&&&&&&&&&&&&&&&&&&&&&&&&&&                ",
"        &&&&&&&&&&&&&&&&&&&&&&&&&&&&&&&&&&&&&&&&&&              ",
"        &&&&&&&&&&&&&&&&&&&&&&&&&&&&&&&&&&&&&&&&&&&             ",
"        &&&&&&&&&&&&&&&&&&&&&&&&&&&&&&&&&&&&&&&&&&&             ",
"     &&&&&&&&&&&&&&                     &&&&&&&&&&&&&           ",
"     &&&&&&&&&&&&&&                     &&&&&&&&&&&&&           ",
"     &&&&&&&&&&&&&&     &&&&&&&&&&&&&&&&&&&&&&&&&&&&&&          ",
"     &&&&&&&&&&&        &&&&&&&&&&&&&&&&     &&&&&&&&&&&        ",
"     &&&&&&&&&&&        &&&&&&&&&&&&&&&&     &&&&&&&&&&&        ",
"   &&&&&&&&&&&&&  &&&&&&&&&&&&&&&&&&&&&&&&&  &&&&&&&&&&&&&      ",
"   &&&&&&&&&&&    &&&&&&&&&&&&&&&&&&&&&&&&&     &&&&&&&&&&&     ",
"   &&&&&&&&&&&    &&&&&&&&&&&&&&&&&&&&&&&&&     &&&&&&&&&&&     ",
"   &&&&&&&&     &&&&&&&&&&&&&&&&&&&&&&&&&&&&&&    &&&&&&&&&     ",
"   &&&&&&&&     &&&&&&&&&&&&&&&&&&&&&&&&&&&&&&    &&&&&&&&&     ",
"  &&&&&&&&&     &&&&&&&&&&&&&&&&&&&&&&&&&&&&&&&&  &&&&&&&&&     ",
"&&&&&&&&        &&&&&&&&&&&&&&&&&&&&&&&&&&&&&&&&  &&&&&&&&&&&   ",
"&&&&&&&&        &&&&&&&&&&&&&&&&&&&&&&&&&&&&&&&&  &&&&&&&&&&&   ",
"&&&&&&&&     &&&&&&&&&&&&&&&&&&&&&&&&&&&&&&&&&&&&&&&&&&&&&&&&   ",
"&&&&&&&&     &&&&&&&&&&&&&&&&&&&&&&&&&&&&&&&&&&&&&&  &&&&&&&&   ",
"&&&&&&&&     &&&&&&&&&&&&&&&&&&&&&&&&&&&&&&&&&&&&&&  &&&&&&&&   ",
"&&&&&&&&     &&&&&&&&&&&&&&&&&&&&&&&&&&&&&&&&&&&&&&  &&&&&&&&   ",
"&&&&&&&&     &&&&&&&&&&&&&&&&&&&&&&&&&&&&&&&&&&&&&&  &&&&&&&&   ",
"&&&&&&&&  &&&&&&&&&&&&&&&&&&&&&&&&&&&&&&&&&&&&&&&&&&&&&&&&&&&&  ",
"&&&&&&&&  &&&&&&&&&&&&&&&&&&&&&&&&&&&&&&&&&&&&&&&&&&&&&&&&&&&&&&",
"&&&&&&&&  &&&&&&&&&&&&&&&&&&&&&&&&&&&&&&&&&&&&&&&&&&&&&&&&&&&&&&",
"&&&&&&&&  &&&&&&&&&&&&&&&&&&&&&&&&&&&&&&&&&&&&&&&&&&&&&&&&&&&&&&",
"&&&&&&&&  &&&&&&&&&&&&&&&&&&&&&&&&&&&&&&&&&&&&&&&&&&&&  &&&&&&&&",
"&&&&&&&&  &&&&&&&&&&&&&&&&&&&&&&&&&&&&&&&&&&&&&&&&&&&&  &&&&&&&&",
"&&&&&&&&  &&&&&&&&&&&&&&&&&&&&&&&&&&&&&&     &&&&&&&&&  &&&&&&&&",
"&&&&&&&&  &&&&&&&&&&&&&&&&&&&&&&&&&&&&&&     &&&&&&&&&  &&&&&&&&",
"&&&&&&&&  &&&&&&&&&&&&&&&&&&&&&&&&&&&&&&     &&&&&&&&&  &&&&&&&&",
"&&&&&&&&  &&&&&&&&&&&&&&&&&&&&&&&&&&&&       &&&&&&&&&  &&&&&&&&",
"&&&&&&&&  &&&&&&&&&&&&&&&&&&&&&&&&&&&&       &&&&&&&&&  &&&&&&&&",
"&&&&&&&&  &&&&&&&&&&&&&&&&&&&&&&&&&&&&       &&&&&&&&&  &&&&&&&&",
"&&&&&&&&  &&&&&&&&&&&&&&&&&&&&&&&&&&&&       &&&&&&&&&  &&&&&&&&",
"&&&&&&&&  &&&&&&&&&&&&&&&&&&&&&&&&&&&&       &&&&&&&&&  &&&&&&&&",
"&&&&&&&&  &&&&&&&&&&&&&&&&&&&&&&&&&&&&&&     &&&&&&&&&  &&&&&&&&",
"&&&&&&&&  &&&&&&&&&&&&&&&&&&&&&&&&&&&&&&     &&&&&&&&&  &&&&&&&&",
"&&&&&&&&  &&&&&&&&&&&&&&&&&&&&&&&&&&&&&&&&&&&&&&&&&&&&  &&&&&&&&",
"&&&&&&&&  &&&&&&&&&&&&&&&&&&&&&&&&&&&&&&&&&&&&&&&&&&&&  &&&&&&&&",
"&&&&&&&&  &&&&&&&&&&&&&&&&&&&&&&&&&&&&&&&&&&&&&&&&&&&&  &&&&&&&&",
"&&&&&&&&  &&&&&&&&&&&&&&&&&&&&&&&&&&&&&&&&&&&&&&&&&&&&  &&&&&&&&",
"&&&&&&&&  &&&&&&&&&&&&&&&&&&&&&&&&&&&&&&&&&&&&&&&&&&&&  &&&&&&&&",
"&&&&&&&&  &&&&&&&&&&&&&&&&&&&&&&&&&&&&&&&&&&&&&&&&&&&&  &&&&&&&&",
"&&&&&&&&  &&&&&&&&&&&&&&&&&&&&&&&&&&&&&&&&&&&&&&&&&&&&  &&&&&&&&",
"&&&&&&&&  &&&&&&&&&&&&&&&&&&&&&&&&&&&&&&&&&&&&&&&&&&&&  &&&&&&&&",
"&&&&&&&&  &&&&&&&&&&&&&&&&&&&&&&&&&&&&&&&&&&&&&&&&&&&&  &&&&&&&&",
"&&&&&&&&  &&&&&&&&&&&&&&&&&&&&&&&&&&&&&&&&&&&&&&&&&&&   &&&&&&&&",
"&&&&&&&&  &&&&&&&&&&&&&&&&&&&&&&&&&&&&&&&&&&&&&&&&&&    &&&&&&&&",
"&&&&&&&&  &&&&&&&&&&&&&&&&&&&&&&&&&&&&&&&&&&&&&&&       &&&&&&&&",
"&&&&&&&&  &&&&&&&&&&&&&&&&&&&&&&&&&&&&&&&&&&&&          &&&&&&&&",
"&&&&&&&&  &&&&&&&&&&&&&&&&&&&&&&&&&&&&&&&&&&&           &&&&&&&&",
"&&&&&&&&  &&&&&&&&&&&&&&&&&&&&&&&&&&&&&&&&              &&&&&&&&",
"&&&&&&&&  &&&&&&&&&&&&&&&&&&&&&&&&&&&&&&                &&&&&&&&",
"&&&&&&&&  &&&&&&&&&&&&&&&&&&&&&&&&&&                    &&&&&&&&",
"&&&&&&&&  &&&&&&&&&&&&&&&&&&&&&                         &&&&&&&&",
"&&&&&&&&  &&&&&&&&&&&&&&&&&&&                           &&&&&&&&",
"  &&&&&&  &&&&&&&&&&&&&&&&&&                            &&&&&&  ",
"   &&&       &&&&&&&&&&                                   &&&   ",
"   &&&       &&&&&&&                                      &&&   "
};

