/* XPM */
static char *_[] = {
/* columns rows colors chars-per-pixel */
"64 58 2 1 ",
"  c None",
". c #EB91CA",
/* pixels */
"                                                                ",
"                                                                ",
"                                                                ",
"                                                                ",
"                                                                ",
"                                                                ",
"            .................               ..............      ",
"            .................               ..............      ",
"           ..................              ...............      ",
"         ..........................   .......................   ",
"         ..........................   .......................   ",
"        ...........................  ........................   ",
"      ..........................................................",
"      ..........................................................",
"     ...........................................................",
"   .............................................................",
"   .............................................................",
"   .............................................................",
"   .............................................................",
"   .............................................................",
"   .............................................................",
"   .............................................................",
"   .............................................................",
"   .............................................................",
"   .............................................................",
"   .............................................................",
"      ..........................................................",
"      ..........................................................",
"      ..........................................................",
"      .......................................................   ",
"      .......................................................   ",
"      .......................................................   ",
"         .................................................      ",
"         .................................................      ",
"         .................................................      ",
"            ..............................................      ",
"            ..............................................      ",
"            ..............................................      ",
"               ........................................         ",
"               ........................................         ",
"               ........................................         ",
"                 ...................................            ",
"                 ...................................            ",
"                    ..............................              ",
"                    .............................               ",
"                    .............................               ",
"                       ........................                 ",
"                       ........................                 ",
"                       ........................                 ",
"                          ..................                    ",
"                          ..................                    ",
"                          ..................                    ",
"                          ...............                       ",
"                          ...............                       ",
"                          ...............                       ",
"                             .........                          ",
"                             .........                          ",
"                             .........                          "
};
