/* XPM */
static char *wall_south_plus_east_frame_01[] = {
/* columns rows colors chars-per-pixel */
"64 64 10 1 ",
"  c #13171E",
". c #181D26",
"X c #1A202A",
"o c #1D232E",
"O c #1F2531",
"+ c #222835",
"@ c #242B39",
"# c #272E3D",
"$ c #293141",
"% c None",
/* pixels */
"%%%%%%%%%%%%%$$$$$$$$$$$$$$$$$$$$$$$$$$$$$$$$$$$$$$$$$$$$$$$$$$$",
"%%%%%%%%%%%%%$$$$$$$$$$$$$$$$$$$$$$$$$$$$$$$$$$$$$$$$$$$$$$$$$$$",
"%%%%%%%%%%%%%$$$$$$$$$$$$$$$$$$$$$$$$$$$$$$$$$$$$$$$$$$$$$$$$$$$",
"%%%%%$$$$$$$$$$$$$$$$$$$$$$$$$$$$$$$$$$$$$$$$$$$$$$$$$$$$$$$$$$$",
"%%%%%$$$$$$$$$$$$$$$$$$$$$$$$$$$$$$$$$$$$$$$$$$$$$$$$$$$$$$$$$$$",
"%%%$$$$$$$$$$$$$$$@XXXXXXXXXXXXXXXXXXXXXXXXXXXXXXXXXXXXXXXXXXXXX",
"%%%$$$$$$$$$$$$$$$+                                             ",
"%%%$$$$$$$$$$$$$$$+                                             ",
"$$$$$$$$$$+                                                     ",
"$$$$$$$$$$+                                                     ",
"$$$$$$$$++o          .XXXXXXXXXXXXXXXXXXXXXXXXXXXXXXXXXXXXXXXXXX",
"$$$$$$$$             +$$$$$$$$$$$$$$$$$$$$$$$$$$$$$$$$$$$$$$$$$$",
"$$$$$$$$             +$$$$$$$$$$$$$$$$$$$$$$$$$$$$$$$$$$$$$$$$$$",
"$$$$$OXX        +++++#$$$$$$$$$$$$$$$$$$$$$$$$$$$$$$$$$$$$$$$$$$",
"$$$$$X          $$$$$$$$$$$$$$$$$$$$$$$$$$$$$$$$$$$$$$$$$$$$$$$$",
"$$$$$X          $$$$$$$$$$$$$$$$$$$$$$$$$$$$$$$$$$$$$$$$$$$$$$$$",
"$$$$$X       +$$$$$$$$$$$$$$$$$$$$$$$$$$$$$$$$$$$$$$$$$$$$$$$$$$",
"$$$$$X       +$$$$$$$$$$$$$$$$$$$$$$$$$$$$$$$$$$$$$$$$$$$$$$$$$$",
"$$$$$X       +$$$$$$$$$$$$$$$$$$$$$$$$$$$$$$$$$$$$$$$$$$$$$$$$$$",
"$$$$$X       +$$$$$$$$$$$$$$$$$$$$$$$$$$$$$$$$$$$$$$$$$$$$$$$$$$",
"$$$$$X       +$$$$$$$$$$$$$$$$$$$$$$$$$$$$$$$$$$$$$$$$$$$$$$$$$$",
"$$$$$X    .++#$$$$$$$$$$$$$$$$$$$$$$$$$$$$$$$$$$$$$$$$$$$$@XXXXX",
"$$$$$X    X$$$$$$$$$$$$$$$$$$$$$$$$$$$$$$$$$$$$$$$$$$$$$$$+     ",
"$$$$$X    X$$$$$$$$$$$$$$$$$$$$$$$$$$$$$$$$$$$$$$$$$$$$$$$+     ",
"$$$$$X    X$$$$$$$$$$$$$$$$$$$$$$$$$$$$$$$$$$$$$$$$$$$$$        ",
"$$$$$X    X$$$$$$$$$$$$$$$$$$$$$$$$$$$$$$$$$$$$$$$$$$$$$        ",
"$$$$$X    X$$$$$$$$$$$$$$$$$$$$$$$$$$$$$$$$$$$$$$$$$$$$$     .XX",
"$$$$$X    X$$$$$$$$$$$$$$$$$$$$$$$$$$$$$$$$$$$$$$$$$$$$$     +$$",
"$$$$$X    X$$$$$$$$$$$$$$$$$$$$$$$$$$$$$$$$$$$$$$$$$$$$$     +$$",
"$$$$$X    X$$$$$$$$$$$$$$$$$$$$$$$$$$$$$$$$$$$$$$$$$$$$$     +$$",
"$$$$$X    X$$$$$$$$$$$$$$$$$$$$$$$$$$$$$$$$$$$$$$$$$$$$$     +$$",
"$$$$$X    X$$$$$$$$$$$$$$$$$$$$$$$$$$$$$$$$$$$$$$$$$$$$$     +$$",
"$$$$$X    X$$$$$$$$$$$$$$$$$$$$$$$$$$$$$$$$$$$$$$$$$$X    X$$$$$",
"$$$$$X    X$$$$$$$$$$$$$$$$$$$$$$$$$$$$$$$$$$$$$$$$$$X    X$$$$$",
"$$$$$X    X$$$$$$$$$$$$$$$$$$$$$$$$$$$$$$$$$$$$$$$$$$X    X$$$$$",
"$$$$$X    X$$$$$$$$$$$$$$$$$$$$$$$$$$$$$$$$$$$$$$$$$$X    X$$$$$",
"$$$$$X    X$$$$$$$$$$$$$$$$$$$$$$$$$$$$$$$$$$$$$$$$$$X    X$$$$$",
"$$$$$X    X$$$$$$$$$$$$$$$$$$$$$$$$$$$$$$$$$$$$$$$$$$X    X$$$$$",
"$$$$$X    X$$$$$$$$$$$$$$$$$$$$$$$$$$$$$$$$$$$$$$$$$$X    X$$$$$",
"$$$$$X    X$$$$$$$$$$$$$$$$$$$$$$$$$$$$$$$$$$$$$$$$$$X    X$$$$$",
"$$$$$X    X$$$$$$$$$$$$$$$$$$$$$$$$$$$$$$$$$$$$$$$$$$X    X$$$$$",
"$$$$$X    X$$$$$$$$$$$$$$$$$$$$$$$$$$$$$$$$$$$$$$$$$$X    X$$$$$",
"$$$$$X    X$$$$$$$$$$$$$$$$$$$$$$$$$$$$$$$$$$$$$$$$$$X    X$$$$$",
"$$$$$X    X$$$$$$$$$$$$$$$$$$$$$$$$$$$$$$$$$$$$$$$$$$X    X$$$$$",
"$$$$$X    X$$$$$$$$$$$$$$$$$$$$$$$$$$$$$$$$$$$$$$$$$$X    X$$$$$",
"$$$$$X    X$$$$$$$$$$$$$$$$$$$$$$$$$$$$$$$$$$$$$$$$$$X    X$$$$$",
"$$$$$X    X$$$$$$$$$$$$$$$$$$$$$$$$$$$$$$$$$$$$$$$$$$X    X$$$$$",
"$$$$$X    X$$$$$$$$$$$$$$$$$$$$$$$$$$$$$$$$$$$$$$$$$$X    X$$$$$",
"$$$$$X    X$$$$$$$$$$$$$$$$$$$$$$$$$$$$$$$$$$$$$$$$$$X    X$$$$$",
"$$$$$X    X$$$$$$$$$$$$$$$$$$$$$$$$$$$$$$$$$$$$$$$$$$X    X$$$$$",
"$$$$$X    X$$$$$$$$$$$$$$$$$$$$$$$$$$$$$$$$$$$$$$$$$$X    X$$$$$",
"$$$$$X    X$$$$$$$$$$$$$$$$$$$$$$$$$$$$$$$$$$$$$$$$$$X    X$$$$$",
"$$$$$X    X$$$$$$$$$$$$$$$$$$$$$$$$$$$$$$$$$$$$$$$$$$X    X$$$$$",
"$$$$$X    X$$$$$$$$$$$$$$$$$$$$$$$$$$$$$$$$$$$$$$$$$$X    X$$$$$",
"$$$$$X    X$$$$$$$$$$$$$$$$$$$$$$$$$$$$$$$$$$$$$$$$$$X    X$$$$$",
"$$$$$X    X$$$$$$$$$$$$$$$$$$$$$$$$$$$$$$$$$$$$$$$$$$X    X$$$$$",
"$$$$$X    X$$$$$$$$$$$$$$$$$$$$$$$$$$$$$$$$$$$$$$$$$$X    X$$$$$",
"$$$$$X    X$$$$$$$$$$$$$$$$$$$$$$$$$$$$$$$$$$$$$$$$$$X    X$$$$$",
"$$$$$X    X$$$$$$$$$$$$$$$$$$$$$$$$$$$$$$$$$$$$$$$$$$X    X$$$$$",
"$$$$$X    X$$$$$$$$$$$$$$$$$$$$$$$$$$$$$$$$$$$$$$$$$$X    X$$$$$",
"$$$$$X    X$$$$$$$$$$$$$$$$$$$$$$$$$$$$$$$$$$$$$$$$$$X    X$$$$$",
"$$$$$X    X$$$$$$$$$$$$$$$$$$$$$$$$$$$$$$$$$$$$$$$$$$X    X$$$$$",
"$$$$$X    X$$$$$$$$$$$$$$$$$$$$$$$$$$$$$$$$$$$$$$$$$$X    X$$$$$",
"$$$$$X    X$$$$$$$$$$$$$$$$$$$$$$$$$$$$$$$$$$$$$$$$$$X    X$$$$$"
};
