/* XPM */
static char *love_icon_no_frame_2[] = {
/* columns rows colors chars-per-pixel */
"32 29 2 1 ",
"  c #27071C",
". c None",
/* pixels */
"................................",
"................................",
"................................",
"......        ........       ...",
".....          ......        ...",
"....             ..           ..",
"...                             ",
"..                              ",
"..                              ",
"..                              ",
"..                              ",
"..                              ",
"..                              ",
"...                             ",
"...                            .",
"...                           ..",
".....                        ...",
"......                       ...",
"......                       ...",
"........                   .....",
"........                  ......",
"..........               .......",
"..........              ........",
"............           .........",
".............         ..........",
".............         ..........",
".............       ............",
"..............     .............",
"...............    ............."
};
