/* XPM */
static char *love_icon_no_frame_1[] = {
/* columns rows colors chars-per-pixel */
"32 31 2 1 ",
"  c #27071C",
". c None",
/* pixels */
"................................",
"................................",
"........    ....................",
"....           ......       ....",
"...             ....         ...",
"...              ..          ...",
"...                           ..",
"..                            ..",
"..                            ..",
"..                            ..",
"..                            ..",
"..                            ..",
"..                            ..",
"..                            ..",
"...                           ..",
"...                           ..",
"...                          ...",
"....                         ...",
".....                       ....",
"......                      ....",
".......                   ......",
"........                 .......",
".........               ........",
"..........             .........",
"...........          ...........",
"...........         ............",
"...........        .............",
".............     ..............",
"..............    ..............",
"..............   ...............",
"..............  ................"
};
