/* XPM */
static char *exit_the_game[] = {
/* columns rows colors chars-per-pixel */
"238 20 197 2 ",
"   c #232A42",
".  c #4759B1",
"X  c #121625",
"o  c #4556AC",
"O  c #3F509F",
"+  c #344183",
"@  c red",
"#  c #404769",
"$  c #85899F",
"%  c #2D345A",
"&  c #2E365B",
"*  c #646985",
"=  c #5D627F",
"-  c #353C61",
";  c #262D54",
":  c #474E6E",
">  c #30375C",
",  c #3D4467",
"<  c #84889E",
"1  c #4E5474",
"2  c #727790",
"3  c #3B4265",
"4  c #565C7B",
"5  c #6A6F8A",
"6  c #686E89",
"7  c #757A92",
"8  c #797E96",
"9  c #5A5F7D",
"0  c #2F365C",
"q  c #484E6F",
"w  c #4A5171",
"e  c #6D728C",
"r  c #252D54",
"t  c #3F4668",
"y  c #2D355A",
"u  c #676C88",
"i  c white",
"p  c #3C4366",
"a  c #B5B8C5",
"s  c #A6A9B9",
"d  c #4F5575",
"f  c #767B94",
"g  c #969AAD",
"h  c #A9ACBC",
"j  c #606682",
"k  c #82869D",
"l  c #999DAF",
"z  c #FEFEFE",
"x  c #868AA0",
"c  c #D6D7DE",
"v  c #5D6380",
"b  c #989CAE",
"n  c #C3C5D0",
"m  c #C0C2CD",
"M  c #7A7F97",
"N  c #EEEFF2",
"B  c #E5E6EA",
"V  c #5A607D",
"C  c #D3D5DC",
"Z  c #A9ACBB",
"A  c #272F55",
"S  c #787D95",
"D  c #C4C6D0",
"F  c #E7E7EC",
"G  c #2B3359",
"H  c #656B86",
"J  c #3E4568",
"K  c #B7BAC6",
"L  c #71768F",
"P  c #2A3258",
"I  c #E4E5EA",
"U  c #686D88",
"Y  c #DEDFE5",
"T  c #242C53",
"R  c #9397AA",
"E  c #C2C4CF",
"W  c #F9FAFA",
"Q  c #C1C3CE",
"!  c #373E62",
"~  c #D4D5DD",
"^  c #D9DAE1",
"/  c #454B6D",
"(  c #7D8198",
")  c #7D8199",
"_  c #EAEBEE",
"`  c #676D88",
"'  c #8B8FA4",
"]  c #A0A4B5",
"[  c #DCDDE3",
"{  c #B8BBC7",
"}  c #2B3258",
"|  c #8E92A6",
" . c #E1E2E7",
".. c #565C7A",
"X. c #9FA3B4",
"o. c #5B617E",
"O. c #5C627F",
"+. c #858A9F",
"@. c #9DA1B2",
"#. c #515776",
"$. c #D2D4DC",
"%. c #323A5E",
"&. c #7B8097",
"*. c #EAEAEE",
"=. c #5F6481",
"-. c #DFE0E6",
";. c #6A708A",
":. c #C8CAD4",
">. c #9094A8",
",. c #737891",
"<. c #585E7C",
"1. c #484F70",
"2. c #767B93",
"3. c #EDEDF1",
"4. c #262E55",
"5. c #F4F5F6",
"6. c #EAEBEF",
"7. c #5F6581",
"8. c #545A79",
"9. c #84899F",
"0. c #B4B7C4",
"q. c #ECEDF0",
"w. c #D6D8DF",
"e. c #898DA2",
"r. c #7F839A",
"t. c #E5E6EB",
"y. c #F2F3F5",
"u. c #F4F5F7",
"i. c #606683",
"p. c #696E89",
"a. c #A8ABBA",
"s. c #293157",
"d. c #ADB0BE",
"f. c #6C718C",
"g. c #DBDCE2",
"h. c #D1D2DA",
"j. c #F8F8F9",
"k. c #9295A9",
"l. c #9599AC",
"z. c #FAFAFB",
"x. c #535978",
"c. c #EEEEF1",
"v. c #4C5272",
"b. c #E4E5E9",
"n. c #D6D7DF",
"m. c #DDDFE5",
"M. c #AEB1C0",
"N. c #DDDEE4",
"B. c #B9BBC8",
"V. c #D7D8DF",
"C. c #E7E8EC",
"Z. c #F8F9FA",
"A. c #CACCD5",
"S. c #505776",
"D. c #7B8098",
"F. c #A3A6B6",
"G. c #9DA0B2",
"H. c #32395E",
"J. c #474D6E",
"K. c #9498AB",
"L. c #DCDEE4",
"P. c #F6F6F8",
"I. c #A4A8B8",
"U. c #F5F5F7",
"Y. c #8C90A5",
"T. c #F3F3F5",
"R. c #CCCED7",
"E. c #A2A5B6",
"W. c #CDCFD8",
"Q. c #AAADBC",
"!. c #AEB1BF",
"~. c #BFC2CD",
"^. c #A2A6B6",
"/. c #9A9EB0",
"(. c #595F7D",
"). c #80859B",
"_. c #5A607E",
"`. c #CED0D9",
"'. c #42486A",
"]. c #343B60",
"[. c #595F7C",
"{. c #D5D6DE",
"}. c gray99",
"|. c #31385D",
" X c #2C3359",
".X c #4D5473",
"XX c #535A78",
"oX c #555B79",
"OX c #6F748E",
"+X c #42496B",
"@X c #646A85",
"#X c #6E738D",
"$X c #383F63",
"%X c #494F70",
"&X c #656A86",
"*X c #6D738D",
"=X c #31395E",
/* pixels */
"  . . . . . . . . . . . . . . . . . . . . . . . . . . . . . . . . . . . . . . . . . . . . . . . . . . . . . . . . . . . . . . . . . . . . . . . . . . . . . . . . . . . . . . . . . . . . . . . . . . . . . . . . . . . . . . . . . . . . . . . . . . . . . . . . . . . . . . . . . . . . . . . . . . . . . . . . . . . . . . . . . . . . . . . . . . . . . . . . . . . . . . . . . . . . . . . . . . . . . . . . . . . . . . . . . . . . . . . . . . . . . . . . . . . . . . . . . . . . X ",
". . o O O O O O O O O O O O O O O O O O O O O O O O O O O O O O O O O O O O O O O O O O O O O O O O O O O O O O O O O O O O O O O O O O O O O O O O O O O O O O O O O O O O O O O O O O O O O O O O O O O O O O O O O O O O O O O O O O O O O O O O O O O O O O O O O O O O O O O O O O O O O O O O O O O O O O O O O O O O O O O O O O O O O O O O O O O O O O O O O O O O O O O O O O O O O O O O O O O O O O O O O O O O O O O O O O O O O O O O O O O O O O O O O O O O O O O O O o . . ",
". o + @ @ @ @ @ @ @ @ @ @ @ @ @ @ @ @ @ @ @ @ @ @ @ @ @ @ @ @ @ @ @ @ @ @ @ @ @ @ @ @ @ @ @ @ @ @ @ @ @ @ @ @ @ @ @ @ @ @ @ @ @ @ @ @ @ @ @ @ @ @ @ @ @ @ @ @ @ @ @ @ @ @ @ @ @ @ @ @ @ @ @ @ @ @ @ @ @ @ @ @ @ @ @ @ @ @ @ @ @ @ @ @ @ @ @ @ @ @ @ @ @ @ @ @ @ @ @ @ @ @ @ @ @ @ @ @ @ @ @ @ @ @ @ @ @ @ @ @ @ @ @ @ @ @ @ @ @ @ @ @ @ @ @ @ @ @ @ @ @ @ @ @ @ @ @ @ @ @ @ @ @ @ @ @ @ @ @ @ @ @ @ @ @ @ @ @ @ @ @ @ @ @ @ @ @ @ @ @ @ @ @ @ @ @ @ @ @ @ @ @ @ @ @ @ @ @ @ @ @ @ @ @ + o . ",
". O @ @ @ @ @ @ @ @ @ @ @ @ @ @ @ @ @ @ @ @ @ @ @ @ @ @ @ @ @ @ @ @ @ @ @ @ @ @ @ @ @ @ @ @ @ @ @ @ @ @ @ @ @ @ @ @ @ @ @ @ @ @ @ @ @ @ @ @ @ @ @ @ @ @ @ @ @ @ @ @ @ @ @ @ @ @ @ @ @ @ @ @ @ @ @ @ @ @ @ @ @ @ @ @ @ @ @ @ @ @ @ @ @ @ @ @ @ @ @ @ @ @ @ @ @ @ @ @ @ @ @ @ @ @ @ @ @ @ @ @ @ @ @ @ @ @ @ @ @ @ @ @ @ @ @ @ @ @ @ @ @ @ @ @ @ @ @ @ @ @ @ @ @ @ @ @ @ @ @ @ @ @ @ @ @ @ @ @ @ @ @ @ @ @ @ @ @ @ @ @ @ @ @ @ @ @ @ @ @ @ @ @ @ @ @ @ @ @ @ @ @ @ @ @ @ @ @ @ @ @ @ @ @ @ O . ",
". O @ @ @ @ @ @ @ @ @ @ @ @ @ @ @ @ @ @ @ @ @ @ @ @ @ @ @ @ @ @ @ @ @ @ @ @ @ @ @ @ @ @ @ @ @ @ @ @ @ @ @ @ @ @ @ @ @ @ @ @ # $ $ $ $ $ % @ & $ * @ @ = $ - @ ; $ $ $ $ $ : @ @ @ @ > $ $ $ $ $ , @ @ @ @ @ @ @ @ @ @ @ @ < $ $ $ $ 1 @ @ 2 $ @ @ 3 $ 4 @ @ 5 $ $ $ $ 6 @ @ @ @ @ @ @ @ @ @ @ @ @ @ @ 7 $ 8 @ @ @ @ 9 $ $ 0 @ @ @ @ q $ w @ e $ r @ @ t $ $ $ $ $ y @ @ @ @ @ @ @ @ @ @ @ @ @ @ @ @ @ @ @ @ @ @ @ @ @ @ @ @ @ @ @ @ @ @ @ @ @ @ @ @ @ @ @ @ @ @ @ @ @ @ @ @ @ @ @ @ @ @ O . ",
". O @ @ @ @ @ @ @ @ @ @ @ @ @ @ @ @ @ @ @ @ @ @ @ @ @ @ @ @ @ @ @ @ @ @ @ @ @ @ @ @ @ @ @ @ @ @ @ @ @ @ @ @ @ @ @ @ @ @ @ @ u i i i i i p @ # i a @ @ s i d @ y i i i i i f @ @ @ g h i i i i i j @ @ @ @ @ @ @ @ @ @ k l z i i i i x @ @ c i @ @ v i b @ @ n i i i i m @ @ @ @ @ @ @ @ @ @ @ @ @ @ M N i B @ @ @ V C i i Z A @ @ @ S i D l F i G @ @ H i i i i i J @ @ @ @ @ @ @ @ @ @ @ @ @ @ @ @ @ @ @ @ @ @ @ @ @ @ @ @ @ @ @ @ @ @ @ @ @ @ @ @ @ @ @ @ @ @ @ @ @ @ @ @ @ @ @ @ @ @ O . ",
". O @ @ @ @ @ @ @ @ @ @ @ @ @ @ @ @ @ @ @ @ @ @ @ @ @ @ @ @ @ @ @ @ @ @ @ @ @ @ @ @ @ @ @ @ @ @ @ @ @ @ @ @ @ @ @ @ @ @ @ @ u i K L L L P @ # i I 2 U Y i d @ T L R i E L t @ @ @ W i i i Q L L ! @ @ @ @ @ @ @ @ @ @ ~ i i i ^ L L / @ @ c i @ @ v i b @ @ n i ( L L V @ @ @ @ @ @ @ @ @ @ @ @ @ ) _ i M ` @ @ @ ' i ] [ i y @ @ @ S i i i i i G @ @ H i { L L L } @ @ @ @ @ @ @ @ @ @ @ @ @ @ @ @ @ @ @ @ @ @ @ @ @ @ @ @ @ @ @ @ @ @ @ @ @ @ @ @ @ @ @ @ @ @ @ @ @ @ @ @ @ @ @ @ @ @ O . ",
". O @ @ @ @ @ @ @ @ @ @ @ @ @ @ @ @ @ @ @ @ @ @ @ @ @ @ @ @ @ @ @ @ @ @ @ @ @ @ @ @ @ @ @ @ @ @ @ @ @ @ @ @ @ @ @ @ @ @ @ @ u i | @ @ @ @ @ # i i B  .i | % @ @ @ ..i X.@ @ @ @ @ o.O.+.i @.@ @ @ @ @ @ @ @ @ @ @ @ @ #.O.5 i n @ @ @ @ @ c i @ , $.i b @ @ n i %.@ @ @ @ @ @ @ @ @ @ @ @ @ @ @ &.*.i f T @ @ @ =.-.i ;.:.i y @ @ @ S i i i i i G @ @ H i >.@ @ @ @ @ @ @ @ @ @ @ @ @ @ @ @ @ @ @ @ @ @ @ @ @ @ @ @ @ @ @ @ @ @ @ @ @ @ @ @ @ @ @ @ @ @ @ @ @ @ @ @ @ @ @ @ @ @ @ @ @ @ O . ",
". O @ @ @ @ @ @ @ @ @ @ @ @ @ @ @ @ @ @ @ @ @ @ @ @ @ @ @ @ @ @ @ @ @ @ @ @ @ @ @ @ @ @ @ @ @ @ @ @ @ @ @ @ @ @ @ @ @ @ @ @ u i | @ @ @ @ @ r ,.i i i i * @ @ @ @ ..i X.@ @ @ @ @ @ @ <.i @.@ @ @ @ @ @ @ @ @ @ @ @ @ @ @ %.i n @ @ @ @ @ c i @ 1.i i b @ @ n i %.@ @ @ @ @ @ @ @ @ @ @ @ @ @ 2.3.i 2.4.@ @ @ @ f i g y :.i y @ @ @ S i i i i i G @ @ H i >.@ @ @ @ @ @ @ @ @ @ @ @ @ @ @ @ @ @ @ @ @ @ @ @ @ @ @ @ @ @ @ @ @ @ @ @ @ @ @ @ @ @ @ @ @ @ @ @ @ @ @ @ @ @ @ @ @ @ @ @ @ @ O . ",
". O @ @ @ @ @ @ @ @ @ @ @ @ @ @ @ @ @ @ @ @ @ @ @ @ @ @ @ @ @ @ @ @ @ @ @ @ @ @ @ @ @ @ @ @ @ @ @ @ @ @ @ @ @ @ @ @ @ @ @ @ u i 5.6.7.@ @ @ @ 8.i i i 9.; @ @ @ @ ..i X.@ @ @ @ @ @ @ <.i @.@ @ @ @ @ @ @ @ @ @ @ @ @ @ @ %.i n @ @ @ @ @ c i @ 1.i 0.P @ @ n i q.w.@ @ @ @ @ @ @ @ @ @ @ @ @ e.i i <.@ @ @ @ @ f i r.@ :.i t.@ @ v y.i i i i i G @ @ H i u.6.i.@ @ @ @ @ @ @ @ @ @ @ @ @ @ @ @ @ @ @ @ @ @ @ @ @ @ @ @ @ @ @ @ @ @ @ @ @ @ @ @ @ @ @ @ @ @ @ @ @ @ @ @ @ @ @ @ @ @ @ @ O . ",
". O @ @ @ @ @ @ @ @ @ @ @ @ @ @ @ @ @ @ @ @ @ @ @ @ @ @ @ @ @ @ @ @ @ @ @ @ @ @ @ @ @ @ @ @ @ @ @ @ @ @ @ @ @ @ @ @ @ @ @ T 7 i 5.6.7.@ @ @ @ @ p.i i S @ @ @ @ @ ..i a.s.@ @ @ @ @ @ <.i @.@ @ @ @ @ @ @ @ @ @ @ @ @ @ @ %.i n @ @ @ @ @ c i i i i d.@ @ % :.i q.w.@ @ @ @ @ @ @ @ @ @ @ @ @ e.i f.@ g.i i h.@ f i i i i i j.@ @ * i k.l.6.z.i G @ T ,.i u.6.i.@ @ @ @ @ @ @ @ @ @ @ @ @ @ @ @ @ @ @ @ @ @ @ @ @ @ @ @ @ @ @ @ @ @ @ @ @ @ @ @ @ @ @ @ @ @ @ @ @ @ @ @ @ @ @ @ @ @ @ @ O . ",
". O @ @ @ @ @ @ @ @ @ @ @ @ @ @ @ @ @ @ @ @ @ @ @ @ @ @ @ @ @ @ @ @ @ @ @ @ @ @ @ @ @ @ @ @ @ @ @ @ @ @ @ @ @ @ @ @ @ @ @ x.i c.M @ @ @ @ @ @ s.< i i S @ @ @ @ @ v.b.i ' @ @ @ @ @ @ <.i @.@ @ @ @ @ @ @ @ @ @ @ @ @ @ @ %.i n @ @ @ @ @ c i n.m.i d.@ @ M.i N.0 @ @ @ @ @ @ @ @ @ @ @ @ @ @ e.i f.@ B.V.i h.@ f i C.n.n.Z.j.@ @ * i k.@ @ A.i S.@ #.i N D.@ @ @ @ @ @ @ @ @ @ @ @ @ @ @ @ @ @ @ @ @ @ @ @ @ @ @ @ @ @ @ @ @ @ @ @ @ @ @ @ @ @ @ @ @ @ @ @ @ @ @ @ @ @ @ @ @ @ @ @ @ @ O . ",
". O @ @ @ @ @ @ @ @ @ @ @ @ @ @ @ @ @ @ @ @ @ @ @ @ @ @ @ @ @ @ @ @ @ @ @ @ @ @ @ @ @ @ @ @ @ @ @ @ @ @ @ @ @ @ @ @ @ @ @ x.i F.@ @ @ @ @ @ @ 8.i i i G.H.@ @ @ @ @ ;.i ' @ @ @ @ @ @ <.i @.@ @ @ @ @ @ @ @ @ @ @ @ @ @ @ %.i n @ @ @ @ v. .i @ 1.i d.@ @ M.i J.@ @ @ @ @ @ @ @ @ @ @ @ @ @ @ e.i K.0 @ O.i h.@ f i r.@ @ L.j.@ @ * i k.@ @ A.i P.@ #.i I.@ @ @ @ @ @ @ @ @ @ @ @ @ @ @ @ @ @ @ @ @ @ @ @ @ @ @ @ @ @ @ @ @ @ @ @ @ @ @ @ @ @ @ @ @ @ @ @ @ @ @ @ @ @ @ @ @ @ @ @ @ @ @ O . ",
". O @ @ @ @ @ @ @ @ @ @ @ @ @ @ @ @ @ @ @ @ @ @ @ @ @ @ @ @ @ @ @ @ @ @ @ @ @ @ @ @ @ @ @ @ @ @ @ @ @ @ @ @ @ @ @ @ @ @ @ x.i F.@ @ @ @ @ @ @ 8.i i i i * @ @ @ @ @ ;.i ' @ @ @ @ @ @ <.i @.@ @ @ @ @ @ @ @ @ @ @ @ @ @ @ %.i n @ @ @ @ Q i i @ 1.i d.@ @ M.i J.@ @ @ @ @ @ @ @ @ @ @ @ @ @ @ e.i i K.L U.i h.@ f i r.@ @ L.j.@ @ * i k.@ @ Y.T.P.@ #.i I.@ @ @ @ @ @ @ @ @ @ @ @ @ @ @ @ @ @ @ @ @ @ @ @ @ @ @ @ @ @ @ @ @ @ @ @ @ @ @ @ @ @ @ @ @ @ @ @ @ @ @ @ @ @ @ @ @ @ @ @ @ @ @ O . ",
". O @ @ @ @ @ @ @ @ @ @ @ @ @ @ @ @ @ @ @ @ @ @ @ @ @ @ @ @ @ @ @ @ @ @ @ @ @ @ @ @ @ @ @ @ @ @ @ @ @ @ @ @ @ @ @ @ @ @ @ x.i R.$ $ $ $ % @ & E.i ~ W.i Q.- @ @ 0 $ !.i ~.: @ @ @ @ @ <.i @.@ @ @ @ @ @ @ @ @ @ @ @ @ @ @ %.i n @ @ @ @ Q i ^.@ 1.i d.@ @ M.i /.$ $ $ 6 @ @ @ @ @ @ @ @ @ @ @ (.$.i i i i T.).@ f i r.@ @ L.j.@ @ * i k.@ @ @ Y P.@ #.i W.$ $ $ $ y @ @ @ @ @ @ @ @ @ @ @ @ @ @ @ @ @ @ @ @ @ @ @ @ @ @ @ @ @ @ @ @ @ @ @ @ @ @ @ @ @ @ @ @ @ @ @ @ @ @ @ @ @ @ @ @ @ @ O . ",
". O @ @ @ @ @ @ @ @ @ @ @ @ @ @ @ @ @ @ @ @ @ @ @ @ @ @ @ @ @ @ @ @ @ @ @ @ @ @ @ @ @ @ @ @ @ @ @ @ @ @ @ @ @ @ @ @ @ @ @ x.i i i i i i p @ # i V._.x.`.i d @ @ '.i i i i f @ @ @ @ @ <.i @.@ @ @ @ @ @ @ @ @ @ @ @ @ @ @ %.i n @ @ @ @ Q i ].@ 1.i d.@ @ M.i i i i i m @ @ @ @ @ @ @ @ @ @ @ @ [.{.i i }.8 @ @ f i r.@ @ L.j.@ @ * i k.@ @ @ Y P.@ #.i i i i i i J @ @ @ @ @ @ @ @ @ @ @ @ @ @ @ @ @ @ @ @ @ @ @ @ @ @ @ @ @ @ @ @ @ @ @ @ @ @ @ @ @ @ @ @ @ @ @ @ @ @ @ @ @ @ @ @ @ @ O . ",
". O @ @ @ @ @ @ @ @ @ @ @ @ @ @ @ @ @ @ @ @ @ @ @ @ @ @ @ @ @ @ @ @ @ @ @ @ @ @ @ @ @ @ @ @ @ @ @ @ @ @ @ @ @ @ @ @ @ @ @ H.L L L L L L P @ G L ..@ @ S.L |.@ @  XL L L L t @ @ @ @ @ ].L .X@ @ @ @ @ @ @ @ @ @ @ @ @ @ @ 4.L o.@ @ @ @ _.L A @ & L x.@ @ XXL L L L L V @ @ @ @ @ @ @ @ @ @ @ @ @ oXL L OX@ @ @ t L +X@ @ @X#X@ @ $XL %X@ @ @ &X*X@ =XL L L L L L } @ @ @ @ @ @ @ @ @ @ @ @ @ @ @ @ @ @ @ @ @ @ @ @ @ @ @ @ @ @ @ @ @ @ @ @ @ @ @ @ @ @ @ @ @ @ @ @ @ @ @ @ @ @ @ @ @ @ O . ",
". o + @ @ @ @ @ @ @ @ @ @ @ @ @ @ @ @ @ @ @ @ @ @ @ @ @ @ @ @ @ @ @ @ @ @ @ @ @ @ @ @ @ @ @ @ @ @ @ @ @ @ @ @ @ @ @ @ @ @ @ @ @ @ @ @ @ @ @ @ @ @ @ @ @ @ @ @ @ @ @ @ @ @ @ @ @ @ @ @ @ @ @ @ @ @ @ @ @ @ @ @ @ @ @ @ @ @ @ @ @ @ @ @ @ @ @ @ @ @ @ @ @ @ @ @ @ @ @ @ @ @ @ @ @ @ @ @ @ @ @ @ @ @ @ @ @ @ @ @ @ @ @ @ @ @ @ @ @ @ @ @ @ @ @ @ @ @ @ @ @ @ @ @ @ @ @ @ @ @ @ @ @ @ @ @ @ @ @ @ @ @ @ @ @ @ @ @ @ @ @ @ @ @ @ @ @ @ @ @ @ @ @ @ @ @ @ @ @ @ @ @ @ @ @ @ @ @ @ @ @ @ @ @ + o . ",
". . o O O O O O O O O O O O O O O O O O O O O O O O O O O O O O O O O O O O O O O O O O O O O O O O O O O O O O O O O O O O O O O O O O O O O O O O O O O O O O O O O O O O O O O O O O O O O O O O O O O O O O O O O O O O O O O O O O O O O O O O O O O O O O O O O O O O O O O O O O O O O O O O O O O O O O O O O O O O O O O O O O O O O O O O O O O O O O O O O O O O O O O O O O O O O O O O O O O O O O O O O O O O O O O O O O O O O O O O O O O O O O O O O O O O O O O O O o . . ",
"  . . . . . . . . . . . . . . . . . . . . . . . . . . . . . . . . . . . . . . . . . . . . . . . . . . . . . . . . . . . . . . . . . . . . . . . . . . . . . . . . . . . . . . . . . . . . . . . . . . . . . . . . . . . . . . . . . . . . . . . . . . . . . . . . . . . . . . . . . . . . . . . . . . . . . . . . . . . . . . . . . . . . . . . . . . . . . . . . . . . . . . . . . . . . . . . . . . . . . . . . . . . . . . . . . . . . . . . . . . . . . . . . . . . . . . . . . . . . X "
};
