/* XPM */
static char *play_the_game[] = {
/* columns rows colors chars-per-pixel */
"238 20 217 2 ",
"   c #131625",
".  c #232B42",
"X  c red",
"o  c #222A51",
"O  c #222A52",
"+  c #232B52",
"@  c #242C53",
"#  c #252D54",
"$  c #262D54",
"%  c #283056",
"&  c #283057",
"*  c #293057",
"=  c #293157",
"-  c #2A3258",
";  c #2B3359",
":  c #2C3359",
">  c #2D345A",
",  c #2E355B",
"<  c #2E365B",
"1  c #2F365C",
"2  c #30385D",
"3  c #31395E",
"4  c #333A5F",
"5  c #333B5F",
"6  c #343B5F",
"7  c #343C60",
"8  c #353C61",
"9  c #363D61",
"0  c #363E62",
"q  c #383F63",
"w  c #394063",
"e  c #394064",
"r  c #3A4165",
"t  c #3A4265",
"y  c #3B4265",
"u  c #3C4366",
"i  c #3E4568",
"p  c #3F4668",
"a  c #3F4669",
"s  c #40476A",
"d  c #43496B",
"f  c #444A6C",
"g  c #454C6D",
"h  c #474E6F",
"j  c #494F70",
"k  c #495071",
"l  c #4A5071",
"z  c #4A5171",
"x  c #4B5171",
"c  c #4B5272",
"v  c #4C5272",
"b  c #4E5474",
"n  c #4F5575",
"m  c #505675",
"M  c #505776",
"N  c #515776",
"B  c #515877",
"V  c #535978",
"C  c #535A78",
"Z  c #545A79",
"A  c #555B7A",
"S  c #565C7B",
"D  c #575D7B",
"F  c #585E7C",
"G  c #5A607D",
"H  c #5B617E",
"J  c #5C617F",
"K  c #5C627F",
"L  c #354283",
"P  c #40509F",
"I  c #5D6280",
"U  c #5D6380",
"Y  c #5E6481",
"T  c #5F6481",
"R  c #5F6582",
"E  c #616783",
"W  c #626884",
"Q  c #636985",
"!  c #646A85",
"~  c #656A86",
"^  c #656B86",
"/  c #666B87",
"(  c #666C87",
")  c #696F8A",
"_  c #6A708A",
"`  c #6B708B",
"'  c #6C718C",
"]  c #6D738D",
"[  c #6E738D",
"{  c #6F748E",
"}  c #70758E",
"|  c #70758F",
" . c #717690",
".. c #747992",
"X. c red",
"o. c #787C95",
"O. c #787D95",
"+. c #7A7F96",
"@. c #4557AC",
"#. c #4759B1",
"$. c #7E839A",
"%. c #7F849B",
"&. c #80859C",
"*. c #81859C",
"=. c #81869C",
"-. c #81869D",
";. c #82869D",
":. c #82879D",
">. c #85899F",
",. c #858AA0",
"<. c #868AA0",
"1. c #878BA1",
"2. c #888CA1",
"3. c #888CA2",
"4. c #898DA2",
"5. c #898EA3",
"6. c #8B90A4",
"7. c #8C90A5",
"8. c #8D91A6",
"9. c #8E92A7",
"0. c #8F93A7",
"q. c #9094A8",
"w. c #9296AA",
"e. c #9397AA",
"r. c #9497AB",
"t. c #9498AB",
"y. c #9599AC",
"u. c #969AAD",
"i. c #989CAE",
"p. c #999DAF",
"a. c #9A9DAF",
"s. c #A1A5B5",
"d. c #A1A5B6",
"f. c #A3A6B7",
"g. c #A5A8B8",
"h. c #A6AABA",
"j. c #A8ABBB",
"k. c #A9ACBC",
"l. c #ABAEBD",
"z. c #ACAFBE",
"x. c #ADB0BF",
"c. c #AEB1BF",
"v. c #AFB2C0",
"b. c #B0B3C1",
"n. c #B5B7C5",
"m. c #B5B8C5",
"M. c #B8BAC7",
"N. c #B9BCC8",
"B. c #BBBDC9",
"V. c #BBBDCA",
"C. c #BEC1CC",
"Z. c #BFC1CC",
"A. c #C0C2CE",
"S. c #C3C6D0",
"D. c #C5C7D1",
"F. c #C6C8D2",
"G. c #C7C9D3",
"H. c #C8CAD4",
"J. c #C9CAD4",
"K. c #C9CBD5",
"L. c #CACCD5",
"P. c #CACCD6",
"I. c #CBCDD6",
"U. c #CCCED7",
"Y. c #CED0D9",
"T. c #CFD0D9",
"R. c #CFD1D9",
"E. c #D0D2DA",
"W. c #D1D2DB",
"Q. c #D1D3DB",
"!. c #D4D5DD",
"~. c #D6D8DF",
"^. c #D8D9E0",
"/. c #D8DAE1",
"(. c #D9DAE1",
"). c #D9DBE1",
"_. c #DADBE2",
"`. c #DBDDE3",
"'. c #DCDDE4",
"]. c #DDDEE4",
"[. c #DDDEE5",
"{. c #DFE0E6",
"}. c #E0E1E7",
"|. c #E2E3E8",
" X c #E3E4E9",
".X c #E4E5EA",
"XX c #E5E6EB",
"oX c #E9EAEE",
"OX c #EAEBEE",
"+X c #EAEBEF",
"@X c #EBEBEF",
"#X c #ECECF0",
"$X c #ECEDF0",
"%X c #EEEEF1",
"&X c #EFEFF2",
"*X c #EFF0F3",
"=X c #F0F0F3",
"-X c #F0F1F4",
";X c #F1F2F4",
":X c #F2F2F5",
">X c #F4F4F6",
",X c #F5F6F7",
"<X c #F6F6F8",
"1X c #F6F7F8",
"2X c #F7F7F9",
"3X c #F7F8F9",
"4X c #F8F8FA",
"5X c #F9F9FA",
"6X c #F9FAFB",
"7X c #FAFAFB",
"8X c #FAFBFB",
"9X c #FBFBFC",
"0X c #FCFCFC",
"qX c #FCFCFD",
"wX c #FDFDFD",
"eX c #FEFEFE",
"rX c #FFFFFF",
/* pixels */
"  #.#.#.#.#.#.#.#.#.#.#.#.#.#.#.#.#.#.#.#.#.#.#.#.#.#.#.#.#.#.#.#.#.#.#.#.#.#.#.#.#.#.#.#.#.#.#.#.#.#.#.#.#.#.#.#.#.#.#.#.#.#.#.#.#.#.#.#.#.#.#.#.#.#.#.#.#.#.#.#.#.#.@.@.#.#.#.#.#.#.#.#.#.#.@.@.#.#.#.#.#.#.#.#.#.#.#.#.#.#.#.#.#.#.#.#.#.#.#.#.#.#.#.#.#.#.#.#.#.#.@.@.#.#.#.#.#.#.#.#.#.#.@.@.#.#.#.#.#.#.#.#.#.#.@.@.#.#.#.#.#.#.#.#.#.#.#.#.#.#.#.#.#.#.#.#.#.#.#.#.#.#.#.#.#.#.#.#.#.#.#.#.#.#.#.#.#.#.#.#.#.#.#.#.#.#.#.#.#.#.#.@.@.#.#.#.#.#.#.#.#.#.#.#.#.#.#.#.#.#.#.#.#.#.#.#.  ",
"#.#.@.P P P P P P P P P P P P P P P P P P P P P P P P P P P P P P P P P P P P P P P P P P P P P P P P P P P P P P P P P P P P P P P P P P P P P P P P P P P P P L @.@.@.L @.P P P P P P L @.@.@.L @.P P P P P P @.L @.P P P P P P P P P P P P P P P P P P P P P L @.@.@.P P P P P P P P @.L @.@.@.L P P P P P P L @.@.@.P P P P P P P P P P P P P P P P P P P P P P P P P P P P P P P P P P P P P P P P P P P P P P P P P P P P P P P P @.P L @.P @.P P P P P P P P P P P P P P P P P @.#.#.",
"#.@.L X X X X X X X X X X X X X X X X X X X X X X X X X X X X X X X X X X X X X X X X X X X X X X X X X X X X X X X X X X X X X X X X X X X X X X X X X X X X X X X X X $ o X X X X X X X X X X $ o X X X X X X X X X X X X X X X X X X X X X X X X X X X X X X X X X X X X X X X X X X X X X X O o X X X X X X X X X X X X X X X X X X X X X X X X X X X X X X X X X X X X X X X X X X X X X X X X X X X X X X X X X X X X X X X X X X X X X X X X X X X X X X X X X X X X X X X X X L @.#.",
"#.P X X X X X X X X X X X X X X X X X X X X X X X X X X X X X X X X X X X X X X X X X X X X X X X X X X X X X X X X X X X X X X X X X X X X X X X X X X X X X X X X X X O O X X X X X X X X X X O o X X X X X X X X X X X X X X X X X X X X X X X X X X X X X X X X X X X X X X X X X X X X X X O O X X X X X X X X X X X X X X X X X X X X X X X X X X X X X X X X X X X X X X X X X X X X X X X X X X X X X X X X X X X X X X X X X X X X X X X X X X X X X X X X X X X X X X X X X X P #.",
"#.P X X X X X X X X X X X X X X X X X X X X X X X X X X X X X X X X X X X X X X X X X X X X X X X X X X X X X X X X X =.,.,.>.J X X X X O.>.,.,.,.J X X X [ ,.&.X X X X X Y >.>.,.$.X X X X X Y ,.,.,.,...X X X X X X X X X X X X n ,.,.,.,.,.X X u >.S X X _ ,.* X 2 ,.,.,.,.,.y X X X X X X X X X X X X X X i ,.,.l X X X X ,.,.( X X X X X X.=.X 0 ,.J X X X ] ,.,.,.>./ X X X X X X X X X X X X X X X X X X X X X X X X X X X X X X X X X X X X X X X X X X X X X X X X X X X X X X P #.",
"#.P X X X X X X X X X X X X X X X X X X X X X X X X X X X X X X X X X X X X X X X X X X X X X X X X X X X X X X X X 4.6XrXrXrXg.X X ..a.:XrXrXrXrXs.X X ..+XrX6X,.X X X Y ^.rXrXrX4X,.X X A a.^.rXrXrXrX_.X X X X X X X X X X d a.G.rXrXrXrXrXX X I rXa.X X S.rX0 X c rXrXrXrXrXJ X X X X X X X X X X X X X q M.rXrX&.X X X u.rXrX}.) X X X X {.9Xa.b.rXh.X X X U.rXrXrXrXM.X X X X X X X X X X X X X X X X X X X X X X X X X X X X X X X X X X X X X X X X X X X X X X X X X X X X X X P #.",
"#.P X X X X X X X X X X X X X X X X X X X X X X X X X X X X X X X X X X X X X X X X X X X X X X X X X X X X X X X 8.>X6X . .| m X X N.rXrXrX+X|  .n X X N.rX=.9X[.X X X t.rXrX8.| 9X`.X X %.rXrXrXrX%. .Q X X X X X X X X X X J rXrXrXrXu. . .X X I rXa.X X S.rX2 X l rXL. . . .7 X X X X X X X X X X X X 2 Z.rXG.| f X X X :X$X0.rXh.X X X X {.rXrXrXrXh.X X X U.rXO. . .S X X X X X X X X X X X X X X X X X X X X X X X X X X X X X X X X X X X X X X X X X X X X X X X X X X X X X X P #.",
"#.P X X X X X X X X X X X X X X X X X X X X X X X X X X X X X X X X X X X X X X X X X X X X X X X X X X X X X X X U.rXE X X X X X X l I I 6X{.X X X X =.$XrXy 6X[.X X X t.rX8.< X 9X`.X X y I I T.rXq X X X X X X X X X X X X 2 I I n.rXY X X X X Y rXa.X 4.$XrX6 X l rXz.X X X X X X X X X X X X X X X @ J.rXT.h X X X X l.9X Xm rXh.X X X X {.rXrXrXrXs.X X X U.rX; X X X X X X X X X X X X X X X X X X X X X X X X X X X X X X X X X X X X X X X X X X X X X X X X X X X X X X X X X P #.",
"#.P X X X X X X X X X X X X X X X X X X X X X X X X X X X X X X X X X X X X X X X X X X X X X X X X X X X X X X X U.rXE.X X X X X X X X X 1X{.X X X X h.rX| # 6X`.X X X e.rXE X X 9X`.X X X X X C.rX0 X X X X X X X X X X X X X X X a.rXI X X X X I rXa.X v.rXrX6 X c rXz.X X X X X X X X X X X X X X X L.rX^.i X X X X X [.6Xf m rXh.X X X X [.rXrXrXrXh.X X X U.rX; X X X X X X X X X X X X X X X X X X X X X X X X X X X X X X X X X X X X X X X X X X X X X X X X X X X X X X X X X P #.",
"#.P X X X X X X X X X X X X X X X X X X X X X X X X X X X X X X X X X X X X X X X X X X X X X X X X X X X X X X X U.rXrXT.X X X X X X X X 1X{.X X X X h.rXm X 6XrXN.X X e.rXQ X Q.rX`.X X X X X C.rXw X X X X X X X X X X X X X X X a.rXY X X X X Y rXa.X v.rXS X X l rX6X@XO.X X X X X X X X X X X X X *XrXQ.X X X X X X '.3XX m rX1X,.X X N.rXrXrXrXrXf.X X X U.rX@XT.X X X X X X X X X X X X X X X X X X X X X X X X X X X X X X X X X X X X X X X X X X X X X X X X X X X X X X X X P #.",
"#.P X X X X X X X X X X X X X X X X X X X X X X X X X X X X X X X X X X X X X X X X X X X X X X X X X X X X X X X X T.rXrXE.< X X X X X X 1X{.X X X X h.rXrXrXrXrXJ.X X r.rXrXrXrX[.X X X X X X C.rX0 X X X X X X X X X X X X X X X a.rXI X X X X Y rXrXrXrXrXh X X J rX1X+XO.X X X X X X X X X X X X X *XXXX Q rXrXrX_ X [.rXrXrXrXrXe.X X L.rX6 +X*XrXh.X X < E.rX$XT.X X X X X X X X X X X X X X X X X X X X X X X X X X X X X X X X X X X X X X X X X X X X X X X X X X X X X X X X P #.",
"#.P X X X X X X X X X X X X X X X X X X X X X X X X X X X X X X X X X X X X X X X X X X X X X X X X X X X X X X X X X U.'.rXD.w X X X X X 1X{.X X X X h.rX}.!.^.rXJ.X X r.rXrXrXrX# X X X X X X C.rXw X X X X X X X X X X X X X X X a.rXY X X X X I rX$X!.:XrXh X 0 rX>Xe.X X X X X X X X X X X X X X X *XXXX S ~.+XrX_ X [.rX~.~. XrXe.X X L.rX: X B rXn.0 X m.rX'.* X X X X X X X X X X X X X X X X X X X X X X X X X X X X X X X X X X X X X X X X X X X X X X X X X X X X X X X X X P #.",
"#.P X X X X X X X X X X X X X X X X X X X X X X X X X X X X X X X X X X X X X X X X X X X X X X X X X X X X X X X m * X 0 E.rXs.X X X X X 1X{.X X X X h.rXm X < rXJ.X X e.rXrXrXrXI X X X X X X C.rXw X X X X X X X X X X X X X X X u.rXY X X X ; 4.rXa.X v.rXh X 0 rXA.X X X X X X X X X X X X X X X X *X$Xm X q l.rX_ X [.1XX X Q rXe.X X L.rX; X B rXrX8.X m.rXi X X X X X X X X X X X X X X X X X X X X X X X X X X X X X X X X X X X X X X X X X X X X X X X X X X X X X X X X X X P #.",
"#.P X X X X X X X X X X X X X X X X X X X X X X X X X X X X X X X X X X X X X X X X X X X X X X X X X X X X X X X U.>.] X V rXg.X X X X X 1X{.X X X X h.rXm X < rXJ.X X e.rXD.v.1X>XQ X X X X X C.rX0 X X X X X X X X X X X X X X X a.rXI X X X j rXrXa.X b.rXh X 0 rXC.X X X X X X X X X X X X X X X X *XrX|. .j.rXrX_ X [.6XX X / rXe.X X L.rX: X s G.rXe.X M.rXi X X X X X X X X X X X X X X X X X X X X X X X X X X X X X X X X X X X X X X X X X X X X X X X X X X X X X X X X X X P #.",
"#.P X X X X X X X X X X X X X X X X X X X X X X X X X X X X X X X X X X X X X X X X X X X X X X X X X X X X X X X U.rX6X>.s.rXs.X X X X X 1X[.X X X X h.rXn X < rXJ.X X e.rXE X 6.rX#X' X X X X C.rX0 X X X X X X X X X X X X X X X a.rXI X X X j rX^.Q X v.rXh X 0 rX'.>.>.>.>.u X X X X X X X X X X X t.rXrXrXrXrXD.l X [.6XX X Q rXe.X X L.rX: X X / rX8.X M.rXu.,.,.,./ X X X X X X X X X X X X X X X X X X X X X X X X X X X X X X X X X X X X X X X X X X X X X X X X X X X X X X P #.",
"#.P X X X X X X X X X X X X X X X X X X X X X X X X X X X X X X X X X X X X X X X X X X X X X X X X X X X X X X X [ >.6XrXrX^.J X X X X X 1X{.X X X X h.rXn X < rXJ.X X e.rXQ X X 5.rXG.X X X X C.rXw X X X X X X X X X X X X X X X a.rXI X X X j rXx.X X v.rXh X 0 rXrXrXrXrXrXH X X X X X X X X X X X X u.rXrXrXD.l X X [.3XX X E rXe.X X L.rX: X X / rXe.X M.rXrXrXrXrXm.X X X X X X X X X X X X X X X X X X X X X X X X X X X X X X X X X X X X X X X X X X X X X X X X X X X X X X P #.",
"#.P X X X X X X X X X X X X X X X X X X X X X X X X X X X X X X X X X X X X X X X X X X X X X X X X X X X X X X X X X _  .| S X X X X X X ] / X o X X B  .7 X O  .U X X z  .q X X $  .U X X X X F  .* X X X X X X X X X X X X X X X l  .0 X X X 1  .C X X Z  .< X *  . . . . . .6 X X X X X X X X X X X X *  . .| z X X X ! _ X X 0 | l X X Y  .@ X X y | l X S  . . . . .S X X X X X X X X X X X X X X X X X X X X X X X X X X X X X X X X X X X X X X X X X X X X X X X X X X X X X X P #.",
"#.@.L X X X X X X X X X X X X X X X X X X X X X X X X X X X X X X X X X X X X X X X X X X X X X X X X X X X X X X X X X X X X X X X X X X X X X O $ X X X X X X X X X X X X X X X X X X X X X X X X X X X X X X X X X X X X X X X X X X X X X X X X X X X X X X X X X X X X X X X X X X X X X X X X X X X X X X X X X X X X X X X X X X X X X X X X X X X X X X X X X X X X X X X X X X X X X X X X X X X X X X X X X X X X X X X X X X X X X X X X X X X X X X X X X X X X X X X X X L @.#.",
"#.#.@.P P P P P P P P P P P P P P P P P P P P P P P P P P P P P P P P P P P P P P P P P P P P P P P P P P P P P P P @.@.@.L P P P P P P P P P P @.L P P P P P P P P P P P P P P P P P P P P P P @.L P P P P P P P P P P P P P P P P P P P P P P P P P P P P P P P P P P P P P P P P P P P P P P P P P P P P P P P P P P P P @.@.P P P P @.@.@.L P P P P P P P P P P P P @.@.@.L P P P P P P P P P P P P P P P P P P P P P P P P P P P P P P P P P P P P P P P P P P P P P P P P P P P @.#.#.",
". #.#.#.#.#.#.#.#.#.#.#.#.#.#.#.#.#.#.#.#.#.#.#.#.#.#.#.#.#.#.#.#.#.#.#.#.#.#.#.#.#.#.#.#.#.#.#.#.#.#.#.#.#.#.#.#.@.#.#.#.#.#.#.#.#.#.#.#.#.#.#.#.#.#.#.#.#.#.#.#.#.#.#.#.#.#.#.#.#.#.#.#.#.#.#.#.#.#.#.#.#.#.#.#.#.#.#.#.#.#.#.#.#.#.#.#.#.#.#.#.#.#.#.#.#.#.#.#.#.#.#.#.#.#.#.#.#.#.#.#.#.#.#.#.#.#.#.#.#.#.#.#.#.#.#.#.#.#.#.#.#.#.#.@.#.#.#.#.#.#.@.#.#.#.#.#.#.#.#.@.#.#.#.#.#.#.@.#.#.#.#.#.#.#.#.#.#.#.#.#.#.#.#.#.#.#.#.#.#.#.#.#.#.#.#.#.#.#.#.#.#.#.#.#.#.#.#.#.#.#.#.#.#.#.#.#.  "
};
