/* XPM */
static char *z_frame_0[] = {
/* columns rows colors chars-per-pixel */
"32 32 2 1 ",
"  c white",
". c None",
/* pixels */
"................................",
"................................",
"................................",
"................................",
".......                 ........",
"......                   .......",
"......                   .......",
".......                  .......",
"...................     ........",
"....................    ........",
"....................    ........",
"...................    .........",
".................      .........",
".................     ..........",
".................    ...........",
"................    ............",
"...............    .............",
"..............    ..............",
".............    ...............",
"............     ...............",
"...........     ................",
"..........     .................",
".........     ..................",
"........     ...................",
"........                 .......",
".......                   ......",
".......                   ......",
"........                 .......",
"................................",
"................................",
"................................",
"................................"
};
