/* XPM */
static char *keke_left_frame_move_1[] = {
/* columns rows colors chars-per-pixel */
"42 64 39 1 ",
"  c #7C7E39",
". c red",
"X c #F30B05",
"o c #F60904",
"O c #F20D06",
"+ c #F00E07",
"@ c #ED1108",
"# c #E9160A",
"$ c #E41A0C",
"% c #E11D0D",
"& c #DD210F",
"* c #CE2F16",
"= c #DB2210",
"- c #D22B14",
"; c #C13C1B",
": c #BB421E",
"> c #BC411D",
", c #9D5F2B",
"< c #AD4F24",
"1 c #A65627",
"2 c #AC5025",
"3 c #97642E",
"4 c #98632D",
"5 c #9A622C",
"6 c #8F6C31",
"7 c #8D6E32",
"8 c #887334",
"9 c #817A37",
"0 c #73873D",
"q c #76843C",
"w c #78833B",
"e c #72883E",
"r c #5B9E48",
"t c #6A8F41",
"y c #669443",
"u c #609A46",
"i c #55A44A",
"p c #54A54B",
"a c None",
/* pixels */
"aaaaaaaaaaa....................aaaaaaaaaaa",
"aaaaaaaaaaa....................aaaaaaaaaaa",
"aaaaaaaaaaa....................aaaaaaaaaaa",
"aaaaaaaa..........................aaaaaaaa",
"aaaaaaaa..........................aaaaaaaa",
"aaaaaaaa..........................aaaaaaaa",
"aaaaaa..............................aaaaaa",
"aaaaaa..............................aaaaaa",
"aaa....................................aaa",
"aaa....................................aaa",
"aaa....................................aaa",
"aaa.....1ttttttt8......................aaa",
"aaa.....4pppppppq......................aaa",
"aaa.....4ppppppp0++o...................aaa",
"........4pppppppppp4...................aaa",
"........4pppppppppp4...................aaa",
"........4pppppppppp4...................aaa",
"........4pppppppppp4......................",
"........4pppppppppp4......................",
"........4pppppppy<<*......................",
"........4pppppppq.........................",
"........4pppppppq.........................",
"........$-------=.........................",
"..........................................",
"..........................................",
"..........................................",
"..........................................",
"..........................................",
"..........................................",
"..........................................",
"............................>>>>>>>>$.....",
"............................pppppppp:.....",
"............................pppppppp:.....",
"...........23333333;........pppppppp:.....",
"...........qppppppp4........pppppppp:.....",
"...........qppppppp4........pppppppp:.....",
"...........qpppppppueeeeeeeeppppp7%%X.....",
"...........qppppppppppppppppppppp4........",
"........... rrppppppppppppppppprr,........",
"aaa...........ppppppppppppppppw...........",
"aaa...........ppppppppppppppppw...........",
"aaa...........99wppppppppppp994...........",
"aaa.............&ppppppppppp..............",
"aaa.............&ppppppppppp..............",
"aaa.............@11111111111..............",
"aaaaaa....................................",
"aaaaaa....................................",
"aaaaaa.................................aaa",
"aaaaaa.................................aaa",
"aaaaaa.................................aaa",
"aaaaaaaa............................aaaaaa",
"aaaaaaaa............................aaaaaa",
"aaaaaaaa......#####+................aaaaaa",
"aaaaaa........ppppp4...................aaa",
"aaaaaa........ppipp4...................aaa",
"aaaaaa........67667>...................aaa",
"aaaaaa......................aaa........aaa",
"aaaaaa......................aaa........aaa",
"aaaaaaaa...............aaaaa...........aaa",
"aaaaaaaa..............aaaaaa...........aaa",
"aaaaaaaa..............aaaaaa...........aaa",
"aaaaaaaaaaa.........aaaaaaaa.........aaaaa",
"aaaaaaaaaaa.........aaaaaaaa........aaaaaa",
"aaaaaaaaaaa.........aaaaaaaa........aaaaaa"
};
