/* XPM */
static char *keke_left_frame_0[] = {
/* columns rows colors chars-per-pixel */
"40 64 10 1 ",
"  c red",
". c #EC1208",
"X c #D92511",
"o c #C63719",
"O c #B34921",
"+ c #8D6E32",
"@ c #7A803A",
"# c #679343",
"$ c #54A54B",
"% c None",
/* pixels */
"%%%%%%%%%%%                  %%%%%%%%%%%",
"%%%%%%%%%%%                  %%%%%%%%%%%",
"%%%%%%%%%%                    %%%%%%%%%%",
"%%%%%%%%                        %%%%%%%%",
"%%%%%%%%                        %%%%%%%%",
"%%%%%%                            %%%%%%",
"%%%%%                              %%%%%",
"%%%%%                              %%%%%",
"%%%                                  %%%",
"%%%                                  %%%",
"%%%     oooooooo                     %%%",
"%%%     $$$$$$$$                     %%%",
"%%%     $$$$$$$$                     %%%",
"        $$$$$$$$++O                  %%%",
"        $$$$$$$$$$+                  %%%",
"        $$$$$$$$$$+                  %%%",
"        $$$$$$$$$$+                     ",
"        $$$$$$$$$$+                     ",
"        ++@$$$$$++O                     ",
"          o$$$$$                        ",
"          o$$$$$                        ",
"          .ooooo                        ",
"                                        ",
"                                        ",
"                                        ",
"                                        ",
"                          .ooooo        ",
"                          o$$$$$        ",
"                          o$$$$$        ",
"                          o$$$$$++O     ",
"                          o$$$$$$$+     ",
"                          o$$$$$$$+     ",
"                             +$$$$+     ",
"                             +$$$$+     ",
"                             +$$$$+     ",
"                             +$$$$+     ",
"                             +$$$$+     ",
"%%                        X++#$$$$+     ",
"%%%                       o$$$$$$$+     ",
"%%%                       o$$$$$$$+     ",
"%%%                     $$$$$$$$        ",
"%%%                     $$$$$$$$        ",
"%%%                     $$$$$$$$        ",
"%%%%%                   $$$$$$$$        ",
"%%%%%                   $$$$$$$$        ",
"%%%%%                   oooooooo      %%",
"%%%%%                                %%%",
"%%%%%                                %%%",
"%%%%%%%%                           %%%%%",
"%%%%%%%%                           %%%%%",
"%%%%%%%%                          %%%%%%",
"%%%%%%%%%%%%%                   %%%%%%%%",
"%%%%%%%%%%%%%                   %%%%%%%%",
"%%%%%%%%%%%%%%%%%%%%%%%%      %%%%%%%%%%",
"%%%%%%%%%%%%%%%%%%%%%%%%     %%%%%%%%%%%",
"%%%%%%%%%%%%%%%%%%%%%%%%     %%%%%%%%%%%",
"%%%%%%%%%%%%%%%%%%%%%%%%     %%%%%%%%%%%",
"%%%%%%%%%%%%%%%%%%%%%%%%     %%%%%%%%%%%",
"%%%%%%%%%%%%%%%%%%%%%%%%     %%%%%%%%%%%",
"%%%%%%%%%%%%%%%%             %%%%%%%%%%%",
"%%%%%%%%%%%%%%%%             %%%%%%%%%%%",
"%%%%%%%%%%%%%%%%             %%%%%%%%%%%",
"%%%%%%%%%%%%%%%%             %%%%%%%%%%%",
"%%%%%%%%%%%%%%%%             %%%%%%%%%%%"
};
