/* XPM */
static char *keke_left_frame_move_0[] = {
/* columns rows colors chars-per-pixel */
"53 64 17 1 ",
"  c #BF3E1C",
". c red",
"X c #FD0201",
"o c #F70803",
"O c #F60804",
"+ c #F60904",
"@ c #F10E06",
"# c #F00E07",
"$ c #ED1108",
"% c #D22B14",
"& c #D02D15",
"* c #C93418",
"= c #AD4F24",
"- c #916A30",
"; c #6A8F41",
": c #54A54B",
"> c None",
/* pixels */
">>>>>>>>>>>>>>>>>...................>>>>>>>>>>>>>>>>>",
">>>>>>>>>>>>>>>>>...................>>>>>>>>>>>>>>>>>",
">>>>>>>>>>>>>>>>>...................>>>>>>>>>>>>>>>>>",
">>>>>>>>>>>>>>.........................>>>>>>>>>>>>>>",
">>>>>>>>>>>>>>.........................>>>>>>>>>>>>>>",
">>>>>>>>>>>>>>.........................>>>>>>>>>>>>>>",
">>>>>>>>>>>...............................>>>>>>>>>>>",
">>>>>>>>>>>...............................>>>>>>>>>>>",
">>>>>>>>>...................................>>>>>>>>>",
">>>>>>>>.....................................>>>>>>>>",
">>>>>>>>.....................................>>>>>>>>",
">>>>>>>>.....o;;;;;;;;&......................>>>>>>>>",
">>>>>>>>.....+::::::::*......................>>>>>>>>",
">>>>>>>>.....+:::::::: ##....................>>>>>>>>",
">>>>>>.......+:::::::::::$...................>>>>>>>>",
">>>>>>.......+:::::::::::$...................>>>>>>>>",
">>>>>>.......+:::::::::::$...................>>>>>>>>",
">>>>>>.......+:::::::::::$.....................>>>>>>",
">>>>>>.......+:::::::::::$.....................>>>>>>",
">>>>>>.......+::::::::-==+.....................>>>>>>",
">>>>>>.......+::::::::*........................>>>>>>",
">>>>>>.......+::::::::*........................>>>>>>",
">>>>>>........%%%%%%%%#........................>>>>>>",
">>>>>>.........................................>>>>>>",
">>>>>>.........................................>>>>>>",
">>>>>>..............................>>>>>>>>>..>>>>>>",
">>>>>>..............................>>>>>>>>>..>>>>>>",
">>>>>>..............................>>>>>>>>>..>>>>>>",
">>>>>>..............................>>>>>>>>>>>>>>>>>",
">>>>>>..............................>>>>>>>>>>>>>>>>>",
">>>>>>...............................>>>>>>>>>>>>>>>>",
">>>>>>.................................>>>>>>>>>>>>>>",
">>>>>>.................................>>>>>>>>>>>>>>",
">>>>>>......................................>>>>>>>>>",
">>>>>>.......................................>>>>>>>>",
">>>>>>.......................................>>>>>>>>",
">>>>>>.........................................>>>>>>",
">>>>>>.........................................>>>>>>",
">>>>>>.........................................>>>>>>",
">>>>>>>>.......................................>>>>>>",
">>>>>>>>.......................................>>>>>>",
">>>>>>>>.......................................>>>>>>",
">>>>>>>>.......................................>>>>>>",
">>>>>>>>.......................................>>>>>>",
">>>>>>>>>......................................>>>>>>",
">>>>>>>>>>>....................................>>>>>>",
">>>>>>>>>>>....................................>>>>>>",
">>>>>>>>>>>..................................>>>>>>>>",
">>>>>>>>>>>..................................>>>>>>>>",
">>>>>>>>>>>..................................>>>>>>>>",
"......>>>>>....................................>>>>>>",
"......>>>>>....................................>>>>>>",
"......>>>>>....................................>>>>>>",
".....................................................",
".....................................................",
".....................................................",
"..............>>>>>>>>>>>>>>>>>>>>>>>>>>>>>>>........",
"..............>>>>>>>>>>>>>>>>>>>>>>>>>>>>>>>........",
">>............>>>>>>>>>>>>>>>>>>>>>>>>>>>>...........",
">>>...........>>>>>>>>>>>>>>>>>>>>>>>>>>>>...........",
">>>...........>>>>>>>>>>>>>>>>>>>>>>>>>>>>...........",
">>>>>......>>>>>>>>>>>>>>>>>>>>>>>>>>>>>>>........>>>",
">>>>>>.....>>>>>>>>>>>>>>>>>>>>>>>>>>>>>>>........>>>",
">>>>>>.....>>>>>>>>>>>>>>>>>>>>>>>>>>>>>>>........>>>"
};
