/* XPM */
static char *_c6731abd3f14cf9a0a5423e06a660f6_1[] = {
/* columns rows colors chars-per-pixel */
"24 24 3 1 ",
"  c None",
". c #421811",
"X c #E5533B",
/* pixels */
"      XXXXXXXXXX        ",
"     XXXXXXXXXXXXX      ",
"   XXXXXXXXXXXXXXXX     ",
"  XXXXX........XXXXX    ",
"  XXXX...XXXXXX..XXXX   ",
" XXXX..XXXXXXXXX..XXXX  ",
" XXX..XXXXXXXXXXX..XXX  ",
"XXX...XXXXXXXXXXXX.XXXX ",
"XXX..XXXXXXXXXXXXXX.XXX ",
"XXX..XXXXXXXXXXXXXX.XXX ",
"XXX.XXXXXXXXXXXXXXXXXXXX",
"XXX.XXXXXXXXXXXXXXXX.XXX",
"XXX.XXXXXXXXXXX..XXX.XXX",
"XXX.XXXXXXXXXX...XXX.XXX",
"XXX.XXXXXXXXXX...XXX.XXX",
"XXX.XXXXXXXXXXX..XXX.XXX",
"XXX.XXXXXXXXXXXXXXXX.XXX",
"XXX.XXXXXXXXXXXXXXXX.XXX",
"XXX.XXXXXXXXXXXXXXXX.XXX",
"XXX.XXXXXXXXXXXXXXXX.XXX",
"XXX.XXXXXXXXXXXXXXXX.XXX",
"XXX.XXXXXXXXXXXXXXXX.XXX",
"XXX.XXXXXXXXXXXXXXXX.XXX",
" X...XXXXXXXXXXXXXX...X "
};
