/* XPM */
static char *_c6731abd3f14cf9a0a5423e06a660f6_2[] = {
/* columns rows colors chars-per-pixel */
"24 24 3 1 ",
"  c None",
". c #421811",
"X c #E5533B",
/* pixels */
"       XXXXXXXXX        ",
"     XXXXXXXXXXXXXXX    ",
"    XXXXXXXXXXXXXXXXX   ",
"    XXXX........XXXXX   ",
"   XXX....XXXX....XXXX  ",
"  XXXXXXXXXXXXXX...XXXX ",
" XXXX.XXXXXXXXXXX...XXX ",
" XXX.XXXXXXXXXXXXX..XXX ",
" XXX.XXXXXXXXXXXXX..XXXX",
"XXXX.XXXXXXXXXXXXXX..XXX",
"XXX.XXXXXXXXXXXXXXX..XXX",
"XXX.XXXXXXXXXXXXXXXX.XXX",
"XXX.XXXXXXXXXX...XXX.XXX",
"XXX.XXXXXXXXXX....XX.XXX",
"XXX.XXXXXXXXXX....XX.XXX",
"XXX.XXXXXXXXXXX...XX.XXX",
"XXX.XXXXXXXXXXXXXXXX.XXX",
"XXX.XXXXXXXXXXXXXXXX.XXX",
"XXX.XXXXXXXXXXXXXXXX.XXX",
"XXX.XXXXXXXXXXXXXXXX.XXX",
"XXX.XXXXXXXXXXXXXXXX.XXX",
"XXX.XXXXXXXXXXXXXXXX.XXX",
"XXX.XXXXXXXXXXXXXXX..XXX",
" X..XXXXXXXXXXXXXXX...X "
};
